<svg width="300" height="343" viewBox="0 0 300 343" fill="none" xmlns="http://www.w3.org/2000/svg">
<g clip-path="url(#clip0_325_2024)">
<path d="M285.532 0H230.714V57.1429H285.532V0Z" fill="#E0E0E0"/>
<path d="M281.817 0H227V57.1429H281.817V0Z" fill="#FAFAFA"/>
<path d="M281.833 57.1587H226.984V0.0158691H281.833V57.1587ZM227.016 57.1587H281.778V0.0158691H227.016V57.1587Z" fill="#E0E0E0"/>
<path d="M274.452 7.67461H234.373V49.4524H274.452V7.67461Z" fill="white"/>
<path d="M234.373 49.7381C234.09 50.16 233.757 50.5464 233.381 50.8889C232.738 51.5635 231.841 52.4762 230.833 53.4683C229.826 54.4603 228.897 55.3492 228.214 55.9762C227.871 56.3452 227.482 56.668 227.056 56.9365C227.342 56.5213 227.672 56.1381 228.04 55.7937C228.683 55.1191 229.579 54.2064 230.595 53.2064C231.611 52.2064 232.532 51.3254 233.214 50.6984C233.562 50.3338 233.95 50.0115 234.373 49.7381Z" fill="#E0E0E0"/>
<path d="M274.452 49.6349C274.873 49.9169 275.259 50.2472 275.603 50.619C276.278 51.2619 277.19 52.1587 278.183 53.1667C279.175 54.1746 280.063 55.1032 280.69 55.7857C281.053 56.1371 281.377 56.5255 281.659 56.9444C281.233 56.6688 280.846 56.3379 280.508 55.9603C279.833 55.3254 278.921 54.4206 277.921 53.4127C276.921 52.4048 276.04 51.4682 275.413 50.7857C275.047 50.4422 274.725 50.0558 274.452 49.6349Z" fill="#E0E0E0"/>
<path d="M274.349 7.79364C274.631 7.37772 274.962 6.99675 275.333 6.65872C275.968 5.98412 276.873 5.07142 277.881 4.07142C278.889 3.07142 279.81 2.19841 280.5 1.56348C280.843 1.19449 281.233 0.871677 281.659 0.603165C281.379 1.01168 281.058 1.38945 280.699 1.73015C280.056 2.40475 279.111 3.31745 278.143 4.31745C277.175 5.31745 276.199 6.1984 275.516 6.83333C275.165 7.19661 274.773 7.51879 274.349 7.79364Z" fill="#E0E0E0"/>
<path d="M234.262 7.88889C233.828 7.61225 233.43 7.28155 233.079 6.90476C232.405 6.2619 231.492 5.36507 230.5 4.35714C229.508 3.3492 228.619 2.42063 227.992 1.73809C227.628 1.38876 227.303 1.00015 227.024 0.579361C227.443 0.859787 227.827 1.19026 228.167 1.56349C228.849 2.20635 229.754 3.10317 230.762 4.11904C231.77 5.13492 232.643 6.05555 233.27 6.73809C233.646 7.07972 233.98 7.4662 234.262 7.88889Z" fill="#E0E0E0"/>
<path d="M274.349 49.4603C274.349 49.4603 274.349 49.3889 274.349 49.254C274.349 49.119 274.349 48.9206 274.349 48.6746C274.349 48.1508 274.349 47.3968 274.349 46.4206C274.349 44.4365 274.349 41.5556 274.302 37.9048C274.302 30.5873 274.262 20.1587 274.23 7.6746L274.381 7.83334H234.413L234.587 7.65079C234.587 22.9921 234.587 37.3333 234.587 49.4365L234.437 49.2857L263.373 49.3571H271.508H273.659H274.214C274.278 49.3489 274.342 49.3489 274.405 49.3571H273.691H271.564H263.476L234.437 49.4365H234.286V49.2857C234.286 37.1825 234.286 22.8413 234.286 7.5V7.32539H234.468H274.437H274.595V7.47619C274.595 20 274.54 30.4921 274.524 37.8016C274.524 41.4444 274.524 44.3095 274.476 46.2857C274.476 47.246 274.476 47.9921 274.476 48.5079C274.476 48.746 274.476 48.9365 274.476 49.0714C274.45 49.2056 274.407 49.3362 274.349 49.4603Z" fill="#E0E0E0"/>
<path d="M261.095 21.881H247.722V35.254H261.095V21.881Z" fill="#EBEBEB"/>
<path d="M285.532 79.1111H230.714V136.254H285.532V79.1111Z" fill="#E0E0E0"/>
<path d="M281.817 79.1111H227V136.254H281.817V79.1111Z" fill="#FAFAFA"/>
<path d="M281.833 136.27H226.984V79.127H281.833V136.27ZM227.016 136.27H281.778V79.127H227.016V136.27Z" fill="#E0E0E0"/>
<path d="M274.452 86.7936H234.373V128.571H274.452V86.7936Z" fill="white"/>
<path d="M234.373 128.881C234.09 129.303 233.757 129.689 233.381 130.032C232.738 130.706 231.841 131.619 230.833 132.611C229.826 133.603 228.897 134.492 228.214 135.119C227.867 135.486 227.478 135.811 227.056 136.087C227.34 135.668 227.67 135.282 228.04 134.937C228.683 134.262 229.579 133.349 230.595 132.349C231.611 131.349 232.532 130.468 233.214 129.841C233.562 129.477 233.95 129.154 234.373 128.881Z" fill="#E0E0E0"/>
<path d="M274.452 128.746C274.874 129.029 275.261 129.363 275.603 129.738C276.278 130.373 277.19 131.278 278.183 132.286C279.175 133.294 280.063 134.222 280.69 134.905C281.057 135.252 281.382 135.641 281.659 136.063C281.238 135.782 280.852 135.451 280.508 135.079C279.833 134.436 278.921 133.532 277.921 132.524C276.921 131.516 276.04 130.587 275.413 129.897C275.047 129.553 274.725 129.167 274.452 128.746Z" fill="#E0E0E0"/>
<path d="M274.349 86.9048C274.633 86.4828 274.966 86.0965 275.341 85.754C275.976 85.0794 276.881 84.1667 277.889 83.1667C278.897 82.1667 279.818 81.2936 280.508 80.6667C280.855 80.2999 281.244 79.975 281.667 79.6984C281.383 80.1155 281.053 80.499 280.683 80.8413C280.04 81.5238 279.095 82.4286 278.127 83.4286C277.159 84.4286 276.183 85.3175 275.5 85.9444C275.157 86.3097 274.77 86.6322 274.349 86.9048Z" fill="#E0E0E0"/>
<path d="M234.262 87.0079C233.829 86.729 233.432 86.3986 233.079 86.0238C232.405 85.3809 231.492 84.4841 230.5 83.4762C229.508 82.4682 228.619 81.5397 227.992 80.8571C227.625 80.5099 227.301 80.121 227.024 79.6984C227.443 79.9788 227.827 80.3093 228.167 80.6825C228.849 81.3254 229.754 82.2222 230.762 83.2381C231.77 84.254 232.643 85.1746 233.27 85.8571C233.645 86.2 233.978 86.5863 234.262 87.0079Z" fill="#E0E0E0"/>
<path d="M274.349 128.571C274.349 128.571 274.349 128.5 274.349 128.365C274.349 128.23 274.349 128.032 274.349 127.786C274.349 127.262 274.349 126.508 274.349 125.532C274.349 123.548 274.349 120.675 274.302 117.016C274.302 109.698 274.262 99.2698 274.23 86.7936L274.381 86.9444H234.413L234.587 86.7698C234.587 102.103 234.587 116.452 234.587 128.548L234.437 128.397L263.373 128.476H271.508H273.659H271.532H263.445L234.405 128.556H234.254V128.405C234.254 116.31 234.254 101.96 234.254 86.627V86.4444H234.437H274.405H274.564V86.6032C274.564 99.127 274.508 109.579 274.492 116.921C274.492 120.563 274.492 123.437 274.445 125.405C274.445 126.373 274.445 127.111 274.445 127.627C274.445 127.873 274.445 128.056 274.445 128.198C274.429 128.326 274.397 128.452 274.349 128.571Z" fill="#E0E0E0"/>
<path d="M261.095 100.992H247.722V114.365H261.095V100.992Z" fill="#EBEBEB"/>
<path d="M70.1905 187.579H26.9524V232.659H70.1905V187.579Z" fill="#E0E0E0"/>
<path d="M67.262 187.579H24.0239V232.659H67.262V187.579Z" fill="#FAFAFA"/>
<path d="M67.3017 232.69H24.0081V187.563H67.3017V232.69ZM24.0557 232.69H67.2461V187.587H24.0319L24.0557 232.69Z" fill="#E0E0E0"/>
<path d="M61.4525 193.635H29.8335V226.595H61.4525V193.635Z" fill="white"/>
<path d="M29.8336 226.81C29.6057 227.144 29.3393 227.45 29.0399 227.722C28.532 228.254 27.8256 228.976 27.032 229.754C26.2383 230.532 25.5002 231.238 24.9606 231.738C24.69 232.028 24.3832 232.281 24.0479 232.492C24.2782 232.165 24.5444 231.864 24.8415 231.595C25.3494 231.056 26.032 230.31 26.8256 229.516C27.6193 228.722 28.3574 228.032 28.8891 227.54C29.1749 227.261 29.4918 227.016 29.8336 226.81Z" fill="#E0E0E0"/>
<path d="M61.4524 226.73C61.7818 226.961 62.0852 227.227 62.3572 227.524C62.8889 228.024 63.6111 228.738 64.3968 229.532C65.1826 230.325 65.873 231.056 66.373 231.595C66.6692 231.87 66.9352 232.176 67.1667 232.508C66.831 232.285 66.5267 232.018 66.2619 231.714C65.7302 231.214 65.008 230.5 64.2222 229.706C63.4365 228.913 62.7381 228.175 62.2381 227.635C61.9402 227.367 61.6763 227.063 61.4524 226.73Z" fill="#E0E0E0"/>
<path d="M61.3652 193.722C61.5971 193.393 61.8631 193.09 62.1589 192.817C62.6668 192.286 63.3732 191.563 64.1668 190.778C64.9605 189.992 65.6986 189.302 66.2383 188.802C66.5114 188.503 66.8176 188.237 67.1509 188.008C66.9247 188.341 66.6582 188.645 66.3573 188.913C65.8494 189.444 65.143 190.167 64.3414 190.952C63.5398 191.738 62.8097 192.437 62.27 192.937C62.0027 193.235 61.6987 193.499 61.3652 193.722Z" fill="#E0E0E0"/>
<path d="M29.7463 193.802C29.4148 193.573 29.1112 193.307 28.8415 193.008C28.3098 192.508 27.5875 191.794 26.8018 191C26.0161 190.206 25.3256 189.476 24.8256 188.937C24.5295 188.661 24.2635 188.355 24.032 188.024C24.3669 188.248 24.6711 188.515 24.9367 188.817C25.4685 189.325 26.1907 190.04 26.9764 190.833C27.7621 191.627 28.4606 192.365 28.9606 192.905C29.2602 193.168 29.5243 193.47 29.7463 193.802Z" fill="#E0E0E0"/>
<path d="M61.3653 226.595C61.3619 226.542 61.3619 226.489 61.3653 226.436C61.3653 226.317 61.3653 226.167 61.3653 225.976C61.3653 225.563 61.3653 224.968 61.3653 224.198C61.3653 222.611 61.3653 220.365 61.3653 217.476C61.3653 211.706 61.3653 203.484 61.3018 193.667L61.4288 193.794L29.8415 193.802L29.9843 193.659C29.9843 205.754 29.9843 217.071 29.9843 226.619L29.8653 226.5L52.6986 226.556H59.1113H60.8018H59.1272H52.778L29.8732 226.619H29.7542V226.5C29.7542 216.976 29.7542 205.635 29.7542 193.54V193.405H29.9049H61.4288H61.5478V193.524C61.5478 203.405 61.5002 211.651 61.4843 217.444C61.4843 220.317 61.4843 222.579 61.4843 224.135C61.4843 224.929 61.4843 225.484 61.4843 225.889C61.4843 226.079 61.4843 226.23 61.4843 226.333C61.4843 226.436 61.3653 226.595 61.3653 226.595Z" fill="#E0E0E0"/>
<path d="M50.9129 204.841H40.3652V215.389H50.9129V204.841Z" fill="#EBEBEB"/>
<path d="M85.6269 44.4444H15.8174V157.825H85.6269V44.4444Z" fill="#E0E0E0"/>
<path d="M83.3015 44.4444H13.4919V157.825H83.3015V44.4444Z" fill="#EBEBEB"/>
<path d="M80.3331 46.7381H16.468V155.524H80.3331V46.7381Z" fill="white"/>
<path d="M67.8968 60.8809H28.627V141.397H67.8968V60.8809Z" fill="#EBEBEB"/>
<path d="M28.627 112.897C28.5317 105.381 35.4285 98.0397 43.0158 97.0238C46.6349 96.5238 50.4841 97.2302 53.865 95.873C59.8968 93.4444 61.8016 85.5556 67.8968 83.2381L68.1746 141.421H28.627V112.897Z" fill="#E0E0E0"/>
<path d="M233.785 315.444H73.8486C71.7345 315.407 69.7217 314.531 68.2529 313.01C66.784 311.489 65.9791 309.447 66.0152 307.333V62.8889C65.99 61.8394 66.1732 60.7952 66.5542 59.817C66.9353 58.8388 67.5066 57.9459 68.2352 57.19C68.9638 56.4341 69.8351 55.8303 70.7986 55.4135C71.7622 54.9967 72.7988 54.7752 73.8486 54.7619H233.785C234.833 54.7753 235.867 54.996 236.829 55.4113C237.791 55.8266 238.662 56.4283 239.39 57.1816C240.118 57.9349 240.69 58.825 241.072 59.8005C241.455 60.776 241.641 61.8175 241.618 62.8651V307.309C241.639 308.358 241.453 309.401 241.071 310.378C240.688 311.355 240.117 312.246 239.389 313.002C238.662 313.758 237.792 314.362 236.83 314.781C235.869 315.201 234.834 315.426 233.785 315.444Z" fill="#263238"/>
<path d="M156.88 303.587C156.907 305.067 156.493 306.521 155.691 307.764C154.888 309.007 153.734 309.983 152.375 310.568C151.015 311.153 149.513 311.32 148.059 311.048C146.604 310.775 145.264 310.076 144.208 309.04C143.152 308.003 142.429 306.676 142.13 305.226C141.832 303.777 141.971 302.272 142.531 300.902C143.091 299.533 144.046 298.361 145.274 297.536C146.502 296.711 147.948 296.27 149.428 296.27C150.398 296.26 151.36 296.442 152.26 296.805C153.159 297.168 153.979 297.704 154.671 298.384C155.363 299.063 155.914 299.873 156.294 300.766C156.673 301.659 156.872 302.617 156.88 303.587Z" fill="#455A64"/>
<path d="M171.809 68.5317H135.944C135.27 68.5192 134.628 68.2398 134.159 67.7548C133.69 67.2698 133.433 66.6188 133.444 65.9444C133.433 65.2701 133.69 64.6191 134.159 64.1341C134.628 63.6491 135.27 63.3697 135.944 63.3571H171.809C172.483 63.3697 173.125 63.6491 173.594 64.1341C174.062 64.6191 174.32 65.2701 174.309 65.9444C174.32 66.6188 174.062 67.2698 173.594 67.7548C173.125 68.2398 172.483 68.5192 171.809 68.5317Z" fill="#455A64"/>
<path d="M235.928 73.3571H71.3962V291.063H235.928V73.3571Z" fill="white"/>
<path d="M236.079 73.3571H71.5469V291.063H236.079V73.3571Z" fill="#EBEBEB"/>
<path d="M214.452 91.1032H93.1818C88.86 91.1032 85.3564 94.6067 85.3564 98.9286V265.357C85.3564 269.679 88.86 273.183 93.1818 273.183H214.452C218.774 273.183 222.277 269.679 222.277 265.357V98.9286C222.277 94.6067 218.774 91.1032 214.452 91.1032Z" fill="white"/>
<path d="M129.738 114.595L130.531 112.865C131.353 113.378 132.301 113.652 133.269 113.659C134.245 113.659 134.626 113.389 134.626 112.984C134.626 111.667 129.865 112.627 129.865 109.54C129.865 108.048 131.079 106.841 133.547 106.841C134.6 106.823 135.64 107.071 136.571 107.563L135.841 109.31C135.138 108.908 134.348 108.688 133.539 108.667C132.555 108.667 132.198 109 132.198 109.46C132.198 110.73 136.912 109.778 136.912 112.841C136.912 114.294 135.698 115.532 133.23 115.532C132.001 115.553 130.791 115.229 129.738 114.595Z" fill="#55A2FF"/>
<path d="M137.658 106.992C137.664 106.821 137.705 106.653 137.778 106.499C137.851 106.344 137.955 106.207 138.084 106.094C138.213 105.982 138.364 105.897 138.526 105.846C138.689 105.794 138.861 105.776 139.031 105.794C139.2 105.771 139.371 105.785 139.535 105.833C139.698 105.88 139.85 105.962 139.98 106.072C140.11 106.182 140.215 106.317 140.29 106.47C140.364 106.623 140.406 106.79 140.412 106.96C140.368 107.294 140.204 107.601 139.951 107.823C139.698 108.045 139.372 108.168 139.035 108.168C138.698 108.168 138.373 108.045 138.119 107.823C137.866 107.601 137.702 107.294 137.658 106.96V106.992ZM137.904 108.905H140.158V115.349H137.944L137.904 108.905Z" fill="#55A2FF"/>
<path d="M148.547 108.905V114.167C148.547 116.603 147.174 117.754 144.769 117.754C143.651 117.797 142.545 117.504 141.595 116.913L142.388 115.325C143.023 115.778 143.784 116.02 144.563 116.016C145.777 116.016 146.285 115.468 146.285 114.429V114.286C146.045 114.551 145.749 114.76 145.418 114.897C145.087 115.035 144.73 115.097 144.372 115.079C143.951 115.101 143.53 115.036 143.135 114.89C142.739 114.743 142.377 114.518 142.072 114.227C141.766 113.936 141.523 113.587 141.356 113.199C141.19 112.811 141.104 112.394 141.104 111.972C141.104 111.55 141.19 111.133 141.356 110.745C141.523 110.358 141.766 110.008 142.072 109.717C142.377 109.427 142.739 109.201 143.135 109.055C143.53 108.908 143.951 108.844 144.372 108.865C144.756 108.836 145.14 108.902 145.492 109.057C145.844 109.212 146.152 109.451 146.388 109.754V108.96L148.547 108.905ZM146.317 111.905C146.29 111.549 146.13 111.217 145.869 110.975C145.608 110.733 145.265 110.598 144.908 110.598C144.552 110.598 144.209 110.733 143.947 110.975C143.686 111.217 143.526 111.549 143.499 111.905C143.526 112.26 143.686 112.592 143.947 112.835C144.209 113.077 144.552 113.212 144.908 113.212C145.265 113.212 145.608 113.077 145.869 112.835C146.13 112.592 146.29 112.26 146.317 111.905Z" fill="#55A2FF"/>
<path d="M156.856 111.667V115.349H154.61V112.032C154.61 111.103 154.214 110.714 153.555 110.714C152.896 110.714 152.277 111.167 152.277 112.23V115.349H150.015V108.905H152.166V109.611C152.435 109.345 152.755 109.138 153.107 109.001C153.459 108.865 153.836 108.802 154.214 108.817C155.706 108.802 156.856 109.667 156.856 111.667Z" fill="#55A2FF"/>
<path d="M168.499 108.905V115.349H166.349V114.659C166.103 114.918 165.806 115.123 165.477 115.259C165.147 115.396 164.793 115.462 164.436 115.452C162.849 115.452 161.706 114.548 161.706 112.508V108.905H163.96V112.135C163.96 113.135 164.357 113.532 165.031 113.532C165.706 113.532 166.245 113.087 166.245 112.008V108.905H168.499Z" fill="#55A2FF"/>
<path d="M177.166 112.127C177.195 112.558 177.133 112.991 176.986 113.397C176.839 113.804 176.608 114.175 176.31 114.488C176.011 114.8 175.651 115.048 175.252 115.214C174.853 115.38 174.424 115.461 173.991 115.452C173.661 115.471 173.33 115.421 173.019 115.305C172.709 115.189 172.427 115.009 172.19 114.778V117.651H169.936V108.921H172.071V109.524C172.311 109.263 172.607 109.06 172.937 108.931C173.267 108.802 173.622 108.749 173.975 108.778C174.411 108.767 174.844 108.847 175.247 109.013C175.65 109.18 176.013 109.429 176.314 109.744C176.614 110.06 176.846 110.435 176.992 110.845C177.139 111.256 177.198 111.692 177.166 112.127ZM174.88 112.127C174.848 111.866 174.741 111.62 174.572 111.418C174.404 111.216 174.18 111.067 173.929 110.989C173.677 110.912 173.409 110.908 173.155 110.98C172.902 111.051 172.675 111.194 172.501 111.391C172.327 111.589 172.214 111.832 172.175 112.093C172.136 112.353 172.174 112.619 172.283 112.858C172.391 113.098 172.567 113.301 172.789 113.443C173.01 113.585 173.268 113.66 173.531 113.659C173.724 113.658 173.914 113.616 174.09 113.537C174.266 113.457 174.422 113.341 174.55 113.196C174.677 113.051 174.773 112.881 174.83 112.697C174.887 112.513 174.904 112.318 174.88 112.127Z" fill="#55A2FF"/>
<path d="M100.999 161.817V162.698H102.587V163.317H100.999V164.532H100.206V161.198H102.722V161.817H100.999Z" fill="#263238"/>
<path d="M105.737 161.968V164.532H105.031V164.222C104.931 164.332 104.808 164.42 104.671 164.478C104.534 164.537 104.386 164.566 104.237 164.563C104.085 164.577 103.932 164.556 103.789 164.502C103.647 164.448 103.518 164.362 103.413 164.252C103.307 164.141 103.228 164.008 103.182 163.863C103.135 163.718 103.121 163.564 103.142 163.413V161.968H103.88V163.302C103.88 163.73 104.071 163.921 104.404 163.921C104.737 163.921 104.991 163.706 104.991 163.23V161.968H105.737Z" fill="#263238"/>
<path d="M106.428 161H107.166V164.532H106.428V161Z" fill="#263238"/>
<path d="M107.857 161H108.579V164.532H107.833L107.857 161Z" fill="#263238"/>
<path d="M113.746 161.198V164.532H113.111L111.452 162.508V164.532H110.658V161.198H111.301L112.952 163.222V161.198H113.746Z" fill="#263238"/>
<path d="M116.753 163.064V164.532H116.055V164.206C115.972 164.337 115.852 164.44 115.711 164.503C115.57 164.567 115.414 164.588 115.261 164.564C114.658 164.564 114.301 164.23 114.301 163.77C114.301 163.31 114.626 162.976 115.404 162.976H115.991C115.991 162.659 115.801 162.468 115.404 162.468C115.139 162.468 114.881 162.551 114.666 162.706L114.396 162.19C114.728 161.981 115.115 161.873 115.507 161.881C116.301 161.905 116.753 162.294 116.753 163.064ZM116.007 163.722V163.492H115.499C115.15 163.492 115.047 163.619 115.047 163.786C115.047 163.952 115.198 164.095 115.46 164.095C115.58 164.103 115.698 164.07 115.798 164.003C115.897 163.935 115.971 163.836 116.007 163.722Z" fill="#263238"/>
<path d="M121.753 163.063V164.532H121.007V163.175C121.007 162.762 120.825 162.571 120.523 162.571C120.222 162.571 119.96 162.786 119.96 163.246V164.532H119.214V163.175C119.214 162.762 119.039 162.571 118.73 162.571C118.42 162.571 118.166 162.786 118.166 163.246V164.532H117.428V161.968H118.103V162.262C118.203 162.152 118.326 162.065 118.463 162.008C118.6 161.95 118.748 161.923 118.896 161.929C119.061 161.918 119.226 161.952 119.374 162.026C119.521 162.099 119.647 162.211 119.738 162.349C119.85 162.213 119.992 162.104 120.153 162.031C120.314 161.958 120.489 161.923 120.666 161.929C120.817 161.912 120.97 161.931 121.112 161.983C121.255 162.035 121.384 162.119 121.489 162.229C121.594 162.338 121.672 162.471 121.718 162.615C121.764 162.76 121.776 162.913 121.753 163.063Z" fill="#263238"/>
<path d="M124.944 163.492H123.007C123.047 163.651 123.142 163.79 123.277 163.883C123.411 163.977 123.575 164.018 123.737 164C123.856 164.005 123.974 163.986 124.084 163.944C124.195 163.901 124.296 163.837 124.38 163.754L124.777 164.183C124.642 164.324 124.477 164.435 124.295 164.506C124.113 164.577 123.917 164.608 123.722 164.595C123.537 164.614 123.351 164.594 123.175 164.536C122.999 164.479 122.836 164.385 122.699 164.261C122.561 164.137 122.451 163.985 122.376 163.816C122.3 163.646 122.261 163.463 122.261 163.278C122.251 163.093 122.279 162.907 122.346 162.734C122.413 162.561 122.516 162.404 122.648 162.274C122.78 162.144 122.939 162.044 123.113 161.98C123.287 161.917 123.473 161.891 123.658 161.905C123.835 161.896 124.012 161.924 124.177 161.987C124.342 162.05 124.492 162.148 124.618 162.272C124.744 162.397 124.842 162.547 124.906 162.712C124.97 162.877 124.999 163.053 124.991 163.23C124.96 163.317 124.944 163.397 124.944 163.492ZM122.999 163.056H124.261C124.241 162.903 124.165 162.764 124.048 162.666C123.93 162.567 123.78 162.517 123.626 162.524C123.479 162.516 123.333 162.562 123.218 162.655C123.102 162.747 123.024 162.878 122.999 163.024V163.056Z" fill="#263238"/>
<path d="M102.809 185.944V186.563H100.229V183.23H102.745V183.849H100.999V184.571H102.587V185.175H100.999V185.968L102.809 185.944Z" fill="#263238"/>
<path d="M107.698 185.095V186.563H106.991V185.214C106.991 184.802 106.801 184.611 106.499 184.611C106.198 184.611 105.936 184.825 105.936 185.278V186.563H105.198V185.214C105.198 184.802 105.015 184.611 104.706 184.611C104.396 184.611 104.15 184.825 104.15 185.278V186.563H103.404V184H104.11V184.302C104.211 184.192 104.334 184.106 104.471 184.048C104.608 183.991 104.756 183.963 104.904 183.968C105.068 183.959 105.231 183.993 105.378 184.065C105.526 184.137 105.652 184.246 105.745 184.381C105.857 184.247 105.998 184.14 106.158 184.068C106.318 183.997 106.491 183.963 106.666 183.968C106.812 183.96 106.958 183.984 107.094 184.039C107.23 184.094 107.351 184.178 107.45 184.286C107.549 184.394 107.622 184.523 107.665 184.663C107.708 184.803 107.719 184.95 107.698 185.095Z" fill="#263238"/>
<path d="M110.634 185.103V186.563H109.936V186.246C109.849 186.372 109.729 186.472 109.589 186.535C109.449 186.598 109.294 186.622 109.142 186.603C108.539 186.603 108.182 186.27 108.182 185.81C108.182 185.349 108.507 185.016 109.285 185.016H109.872C109.872 184.69 109.682 184.508 109.285 184.508C109.02 184.504 108.76 184.588 108.547 184.746L108.277 184.23C108.608 184.017 108.995 183.909 109.388 183.921C110.166 183.968 110.634 184.325 110.634 185.103ZM109.888 185.754V185.492H109.372C109.023 185.492 108.92 185.619 108.92 185.794C108.92 185.968 109.071 186.103 109.333 186.103C109.451 186.114 109.569 186.086 109.67 186.023C109.77 185.96 109.847 185.865 109.888 185.754Z" fill="#263238"/>
<path d="M111.214 183.23C111.202 183.136 111.22 183.04 111.265 182.956C111.309 182.872 111.378 182.803 111.463 182.759C111.547 182.715 111.643 182.698 111.737 182.71C111.832 182.722 111.92 182.762 111.991 182.826C112.062 182.89 112.112 182.973 112.134 183.066C112.156 183.158 112.15 183.255 112.115 183.344C112.081 183.433 112.02 183.509 111.941 183.562C111.862 183.616 111.769 183.644 111.674 183.643C111.616 183.648 111.558 183.642 111.503 183.624C111.448 183.605 111.397 183.576 111.354 183.537C111.31 183.499 111.276 183.451 111.252 183.398C111.227 183.346 111.215 183.288 111.214 183.23ZM111.309 184.024H112.047V186.587H111.309V184.024Z" fill="#263238"/>
<path d="M112.738 183.032H113.484V186.563H112.738V183.032Z" fill="#263238"/>
<path d="M117.769 185.849H116.182L115.888 186.563H115.095L116.579 183.23H117.373L118.865 186.563H118.071L117.769 185.849ZM117.523 185.262L116.999 183.992L116.468 185.262H117.523Z" fill="#263238"/>
<path d="M121.753 183.032V186.563H121.047V186.27C120.948 186.381 120.825 186.469 120.688 186.526C120.55 186.584 120.402 186.61 120.253 186.603C119.904 186.603 119.569 186.464 119.322 186.217C119.075 185.97 118.936 185.635 118.936 185.286C118.936 184.936 119.075 184.601 119.322 184.354C119.569 184.107 119.904 183.968 120.253 183.968C120.4 183.955 120.549 183.977 120.686 184.03C120.824 184.084 120.947 184.169 121.047 184.278V183.032H121.753ZM121.023 185.286C121.014 185.158 120.967 185.035 120.889 184.933C120.811 184.831 120.705 184.754 120.583 184.711C120.462 184.669 120.331 184.663 120.206 184.694C120.082 184.726 119.969 184.792 119.882 184.887C119.795 184.982 119.737 185.099 119.716 185.226C119.695 185.353 119.712 185.483 119.764 185.601C119.816 185.718 119.902 185.818 120.01 185.887C120.118 185.957 120.244 185.993 120.372 185.992C120.463 185.994 120.553 185.976 120.636 185.94C120.72 185.905 120.795 185.852 120.856 185.785C120.918 185.718 120.964 185.639 120.993 185.553C121.022 185.467 121.032 185.376 121.023 185.286Z" fill="#263238"/>
<path d="M125.047 183.032V186.563H124.341V186.27C124.241 186.381 124.119 186.469 123.981 186.526C123.844 186.584 123.696 186.61 123.547 186.603C123.198 186.603 122.862 186.464 122.615 186.217C122.368 185.97 122.229 185.635 122.229 185.286C122.229 184.936 122.368 184.601 122.615 184.354C122.862 184.107 123.198 183.968 123.547 183.968C123.694 183.957 123.842 183.978 123.979 184.032C124.117 184.085 124.24 184.17 124.341 184.278V183.032H125.047ZM124.317 185.286C124.308 185.158 124.261 185.035 124.183 184.933C124.105 184.831 123.998 184.754 123.877 184.711C123.756 184.669 123.625 184.663 123.5 184.694C123.375 184.726 123.262 184.792 123.175 184.887C123.088 184.982 123.031 185.099 123.01 185.226C122.989 185.353 123.006 185.483 123.058 185.601C123.11 185.718 123.195 185.818 123.303 185.887C123.411 185.957 123.537 185.993 123.666 185.992C123.757 185.994 123.847 185.976 123.93 185.94C124.014 185.905 124.088 185.852 124.15 185.785C124.211 185.718 124.258 185.639 124.287 185.553C124.316 185.467 124.326 185.376 124.317 185.286Z" fill="#263238"/>
<path d="M127.325 183.968V184.651H127.158C127.063 184.641 126.968 184.654 126.878 184.687C126.789 184.72 126.709 184.773 126.643 184.842C126.577 184.91 126.528 184.993 126.499 185.084C126.47 185.175 126.462 185.271 126.476 185.365V186.571H125.738V184.008H126.444V184.349C126.549 184.22 126.684 184.117 126.838 184.051C126.991 183.985 127.158 183.956 127.325 183.968Z" fill="#263238"/>
<path d="M130.237 185.492H128.301C128.34 185.652 128.436 185.791 128.57 185.886C128.704 185.981 128.868 186.024 129.031 186.008C129.149 186.014 129.268 185.995 129.378 185.952C129.489 185.91 129.59 185.845 129.674 185.762L130.071 186.19C129.936 186.332 129.771 186.443 129.589 186.514C129.406 186.585 129.211 186.616 129.015 186.603C128.831 186.622 128.644 186.602 128.468 186.544C128.292 186.487 128.13 186.393 127.992 186.269C127.855 186.145 127.745 185.993 127.669 185.824C127.594 185.654 127.555 185.471 127.555 185.286C127.552 185.108 127.586 184.932 127.655 184.768C127.723 184.604 127.824 184.455 127.952 184.332C128.08 184.208 128.232 184.112 128.399 184.05C128.565 183.987 128.742 183.96 128.92 183.968C129.097 183.958 129.274 183.985 129.44 184.048C129.606 184.111 129.757 184.208 129.883 184.333C130.008 184.458 130.107 184.608 130.17 184.774C130.234 184.939 130.262 185.116 130.253 185.294C130.252 185.36 130.246 185.426 130.237 185.492ZM128.293 185.063H129.555C129.537 184.911 129.463 184.771 129.347 184.671C129.23 184.571 129.081 184.519 128.928 184.524C128.773 184.515 128.62 184.566 128.502 184.666C128.384 184.767 128.309 184.909 128.293 185.063Z" fill="#263238"/>
<path d="M130.499 186.325L130.745 185.794C131.018 185.952 131.327 186.037 131.642 186.04C131.983 186.04 132.11 185.952 132.11 185.81C132.11 185.389 130.523 185.81 130.523 184.794C130.523 184.31 130.96 184 131.706 184C132.049 183.993 132.39 184.069 132.698 184.222L132.444 184.746C132.219 184.618 131.964 184.552 131.706 184.556C131.372 184.556 131.229 184.667 131.229 184.794C131.229 185.238 132.777 184.794 132.777 185.817C132.777 186.294 132.333 186.611 131.571 186.611C131.195 186.61 130.826 186.511 130.499 186.325Z" fill="#263238"/>
<path d="M133.031 186.325L133.277 185.794C133.547 185.951 133.853 186.036 134.166 186.04C134.507 186.04 134.642 185.952 134.642 185.81C134.642 185.389 133.055 185.81 133.055 184.794C133.055 184.31 133.491 184 134.237 184C134.579 183.993 134.916 184.069 135.221 184.222L134.975 184.746C134.75 184.619 134.496 184.554 134.237 184.556C133.904 184.556 133.761 184.667 133.761 184.794C133.761 185.238 135.309 184.794 135.309 185.817C135.309 186.294 134.864 186.611 134.102 186.611C133.727 186.61 133.358 186.511 133.031 186.325Z" fill="#263238"/>
<path d="M103.626 205.706C103.626 206.452 103.063 206.913 102.174 206.913H101.507V207.833H100.714V204.5H102.15C103.063 204.5 103.626 204.96 103.626 205.706ZM102.833 205.706C102.833 205.341 102.595 205.127 102.126 205.127H101.499V206.286H102.126C102.603 206.286 102.841 206.071 102.841 205.706H102.833Z" fill="#263238"/>
<path d="M106.364 206.349V207.81H105.666V207.492C105.579 207.618 105.459 207.718 105.319 207.781C105.179 207.844 105.025 207.868 104.872 207.849C104.269 207.849 103.912 207.516 103.912 207.056C103.912 206.595 104.23 206.262 105.015 206.262H105.603C105.603 205.944 105.412 205.762 105.015 205.762C104.75 205.757 104.49 205.84 104.277 206L104.007 205.476C104.337 205.268 104.72 205.16 105.111 205.167C105.912 205.23 106.364 205.595 106.364 206.349ZM105.618 207V206.738H105.111C104.761 206.738 104.65 206.865 104.65 207.04C104.65 207.214 104.809 207.349 105.071 207.349C105.184 207.358 105.298 207.331 105.396 207.273C105.494 207.215 105.572 207.128 105.618 207.024V207Z" fill="#263238"/>
<path d="M106.785 207.595L107.031 207.063C107.301 207.221 107.607 207.306 107.92 207.31C108.269 207.31 108.396 207.222 108.396 207.079C108.396 206.659 106.809 207.079 106.809 206.063C106.809 205.579 107.245 205.27 107.991 205.27C108.334 205.264 108.672 205.343 108.976 205.5L108.73 206.024C108.505 205.896 108.25 205.83 107.991 205.833C107.658 205.833 107.515 205.936 107.515 206.071C107.515 206.508 109.063 206.071 109.063 207.095C109.063 207.571 108.618 207.889 107.857 207.889C107.48 207.885 107.111 207.784 106.785 207.595Z" fill="#263238"/>
<path d="M109.317 207.595L109.563 207.063C109.833 207.222 110.139 207.307 110.452 207.31C110.793 207.31 110.92 207.222 110.92 207.079C110.92 206.659 109.38 207.079 109.38 206.063C109.38 205.579 109.817 205.27 110.563 205.27C110.905 205.266 111.242 205.345 111.547 205.5L111.301 206.024C111.076 205.897 110.821 205.831 110.563 205.833C110.23 205.833 110.087 205.936 110.087 206.071C110.087 206.508 111.634 206.071 111.634 207.095C111.634 207.571 111.19 207.889 110.42 207.889C110.033 207.891 109.652 207.79 109.317 207.595Z" fill="#263238"/>
<path d="M116.158 205.27L115.23 207.833H114.515L113.936 206.246L113.341 207.833H112.626L111.706 205.27H112.404L113.007 207.008L113.634 205.27H114.269L114.872 207.008L115.499 205.27H116.158Z" fill="#263238"/>
<path d="M116.245 206.556C116.228 206.275 116.295 205.995 116.439 205.753C116.582 205.511 116.795 205.317 117.049 205.197C117.304 205.077 117.589 205.037 117.867 205.081C118.145 205.125 118.403 205.251 118.608 205.444C118.814 205.636 118.956 205.886 119.018 206.16C119.08 206.435 119.057 206.722 118.954 206.984C118.851 207.246 118.671 207.47 118.439 207.629C118.206 207.787 117.932 207.872 117.65 207.873C117.47 207.885 117.289 207.86 117.119 207.799C116.949 207.738 116.793 207.643 116.662 207.519C116.53 207.396 116.425 207.247 116.353 207.081C116.282 206.915 116.245 206.736 116.245 206.556ZM118.301 206.556C118.292 206.427 118.245 206.305 118.167 206.203C118.089 206.101 117.982 206.024 117.861 205.981C117.74 205.939 117.609 205.933 117.484 205.964C117.359 205.995 117.247 206.062 117.159 206.157C117.072 206.251 117.015 206.369 116.994 206.496C116.973 206.623 116.99 206.753 117.042 206.871C117.094 206.988 117.179 207.088 117.287 207.157C117.396 207.227 117.522 207.263 117.65 207.262C117.74 207.262 117.83 207.244 117.913 207.208C117.996 207.171 118.07 207.119 118.131 207.052C118.192 206.986 118.239 206.907 118.268 206.822C118.298 206.736 118.309 206.646 118.301 206.556Z" fill="#263238"/>
<path d="M121.142 205.23V205.921H120.976C120.881 205.911 120.785 205.923 120.696 205.957C120.607 205.99 120.526 206.043 120.46 206.111C120.394 206.18 120.345 206.263 120.316 206.354C120.287 206.445 120.279 206.541 120.293 206.635V207.841H119.555V205.278H120.261V205.619C120.366 205.488 120.501 205.384 120.654 205.316C120.807 205.249 120.975 205.219 121.142 205.23Z" fill="#263238"/>
<path d="M124.174 204.302V207.833H123.46V207.54C123.361 207.652 123.239 207.74 123.101 207.798C122.964 207.855 122.815 207.881 122.666 207.873C122.333 207.847 122.022 207.697 121.796 207.452C121.569 207.207 121.443 206.885 121.443 206.552C121.443 206.218 121.569 205.896 121.796 205.651C122.022 205.406 122.333 205.256 122.666 205.23C122.813 205.22 122.96 205.242 123.098 205.295C123.235 205.349 123.359 205.432 123.46 205.54V204.302H124.174ZM123.444 206.556C123.435 206.427 123.388 206.305 123.31 206.203C123.232 206.101 123.125 206.024 123.004 205.981C122.883 205.939 122.752 205.933 122.627 205.964C122.502 205.995 122.389 206.062 122.302 206.157C122.215 206.251 122.158 206.369 122.137 206.496C122.116 206.623 122.133 206.753 122.185 206.871C122.237 206.988 122.322 207.088 122.43 207.157C122.538 207.227 122.664 207.263 122.793 207.262C122.883 207.262 122.973 207.244 123.056 207.208C123.138 207.171 123.213 207.119 123.274 207.052C123.335 206.986 123.382 206.907 123.411 206.822C123.44 206.736 123.452 206.646 123.444 206.556Z" fill="#263238"/>
<path d="M188.317 246.706H124.896C122.801 246.706 121.103 248.405 121.103 250.5V257.444C121.103 259.54 122.801 261.238 124.896 261.238H188.317C190.412 261.238 192.11 259.54 192.11 257.444V250.5C192.11 248.405 190.412 246.706 188.317 246.706Z" fill="#55A2FF"/>
<path d="M133.833 253.643C133.83 253.367 133.884 253.093 133.992 252.839C134.1 252.585 134.259 252.356 134.459 252.166C134.659 251.976 134.897 251.829 135.156 251.735C135.416 251.641 135.692 251.602 135.968 251.619C136.285 251.603 136.602 251.662 136.892 251.79C137.183 251.918 137.44 252.112 137.642 252.357L136.944 252.984C136.835 252.843 136.696 252.729 136.536 252.651C136.377 252.572 136.201 252.531 136.023 252.532C135.728 252.532 135.446 252.649 135.237 252.857C135.029 253.066 134.912 253.348 134.912 253.643C134.912 253.938 135.029 254.22 135.237 254.429C135.446 254.637 135.728 254.754 136.023 254.754C136.201 254.754 136.377 254.714 136.536 254.635C136.696 254.557 136.835 254.443 136.944 254.302L137.642 254.937C137.438 255.179 137.181 255.371 136.89 255.498C136.6 255.625 136.284 255.682 135.968 255.667C135.692 255.684 135.416 255.645 135.156 255.551C134.897 255.456 134.659 255.31 134.459 255.12C134.259 254.93 134.1 254.701 133.992 254.447C133.884 254.193 133.83 253.919 133.833 253.643Z" fill="white"/>
<path d="M140.094 252.524V253.476H139.856C139.757 253.466 139.656 253.478 139.562 253.512C139.468 253.546 139.383 253.601 139.313 253.673C139.244 253.745 139.191 253.832 139.16 253.927C139.129 254.022 139.12 254.123 139.134 254.222V255.556H138.079V252.548H139.087V252.905C139.215 252.769 139.372 252.664 139.547 252.598C139.721 252.532 139.909 252.507 140.094 252.524Z" fill="white"/>
<path d="M143.563 254.349H141.372C141.423 254.503 141.524 254.635 141.66 254.723C141.796 254.812 141.958 254.85 142.119 254.833C142.374 254.841 142.622 254.747 142.809 254.571L143.365 255.151C143.198 255.32 142.997 255.452 142.775 255.537C142.554 255.622 142.316 255.658 142.079 255.643C141.856 255.667 141.631 255.645 141.418 255.576C141.204 255.507 141.008 255.394 140.842 255.244C140.675 255.095 140.543 254.911 140.452 254.706C140.362 254.501 140.316 254.28 140.317 254.056C140.317 253.842 140.36 253.63 140.444 253.433C140.527 253.236 140.65 253.058 140.804 252.91C140.958 252.762 141.141 252.646 141.341 252.57C141.541 252.494 141.754 252.46 141.968 252.468C142.179 252.457 142.391 252.49 142.588 252.566C142.786 252.641 142.966 252.758 143.116 252.908C143.265 253.057 143.382 253.237 143.458 253.435C143.533 253.633 143.566 253.844 143.555 254.056C143.579 254.167 143.571 254.27 143.563 254.349ZM141.357 253.794H142.595C142.571 253.646 142.496 253.513 142.382 253.416C142.269 253.319 142.125 253.266 141.976 253.266C141.827 253.266 141.682 253.319 141.569 253.416C141.456 253.513 141.38 253.646 141.357 253.794Z" fill="white"/>
<path d="M146.809 253.913V255.556H145.825V255.167C145.735 255.319 145.604 255.442 145.446 255.52C145.288 255.599 145.111 255.631 144.936 255.611C144.214 255.611 143.817 255.198 143.817 254.683C143.817 254.167 144.222 253.778 145.15 253.778H145.753C145.753 253.476 145.531 253.302 145.118 253.302C144.833 253.302 144.555 253.394 144.325 253.563L143.968 252.841C144.37 252.607 144.828 252.487 145.293 252.492C146.245 252.524 146.809 252.96 146.809 253.913ZM145.753 254.619V254.357H145.301C144.96 254.357 144.841 254.484 144.841 254.667C144.841 254.849 144.984 254.968 145.23 254.968C145.343 254.976 145.456 254.946 145.551 254.883C145.646 254.82 145.717 254.727 145.753 254.619Z" fill="white"/>
<path d="M149.555 255.468C149.33 255.593 149.074 255.653 148.817 255.643C148.657 255.668 148.493 255.656 148.339 255.608C148.184 255.56 148.042 255.477 147.924 255.366C147.807 255.255 147.716 255.119 147.658 254.967C147.601 254.816 147.579 254.653 147.595 254.492V253.476H147.158V252.683H147.595V251.889H148.65V252.683H149.341V253.476H148.65V254.476C148.646 254.52 148.651 254.565 148.665 254.607C148.679 254.65 148.701 254.689 148.731 254.721C148.761 254.754 148.798 254.781 148.838 254.799C148.879 254.816 148.923 254.826 148.968 254.825C149.083 254.824 149.195 254.791 149.293 254.73L149.555 255.468Z" fill="white"/>
<path d="M152.936 254.349H150.745C150.793 254.503 150.892 254.636 151.027 254.725C151.162 254.813 151.323 254.851 151.484 254.833C151.739 254.841 151.987 254.747 152.174 254.571L152.73 255.151C152.565 255.32 152.365 255.452 152.145 255.537C151.924 255.622 151.688 255.658 151.452 255.643C151.229 255.669 151.002 255.647 150.788 255.579C150.574 255.511 150.377 255.398 150.209 255.248C150.042 255.098 149.909 254.914 149.818 254.708C149.727 254.503 149.68 254.28 149.682 254.056C149.682 253.841 149.725 253.629 149.809 253.431C149.893 253.234 150.017 253.056 150.172 252.907C150.327 252.759 150.51 252.643 150.711 252.568C150.912 252.492 151.126 252.459 151.341 252.468C151.552 252.457 151.764 252.49 151.961 252.566C152.159 252.641 152.339 252.758 152.488 252.908C152.638 253.057 152.755 253.237 152.83 253.435C152.906 253.633 152.939 253.844 152.928 254.056C152.952 254.167 152.936 254.27 152.936 254.349ZM150.722 253.794H151.96C151.94 253.646 151.865 253.511 151.751 253.415C151.636 253.319 151.49 253.271 151.341 253.278C151.192 253.272 151.047 253.322 150.932 253.417C150.818 253.512 150.743 253.646 150.722 253.794Z" fill="white"/>
<path d="M157.706 254.833H156.063L155.761 255.627H154.61L156.333 251.738H157.412L159.134 255.627H157.991L157.706 254.833ZM157.388 254.04L156.888 252.794L156.388 254.04H157.388Z" fill="white"/>
<path d="M159.206 254.079C159.205 253.859 159.25 253.641 159.338 253.439C159.426 253.237 159.555 253.056 159.717 252.906C159.879 252.757 160.071 252.643 160.279 252.572C160.488 252.501 160.709 252.473 160.928 252.492C161.221 252.468 161.514 252.535 161.767 252.684C162.02 252.834 162.22 253.058 162.341 253.325L161.547 253.738C161.485 253.639 161.399 253.558 161.297 253.503C161.194 253.447 161.08 253.419 160.963 253.421C160.847 253.423 160.733 253.455 160.632 253.514C160.532 253.574 160.449 253.658 160.391 253.759C160.333 253.859 160.301 253.974 160.3 254.09C160.299 254.206 160.329 254.321 160.385 254.423C160.442 254.525 160.524 254.61 160.623 254.671C160.722 254.732 160.835 254.766 160.952 254.77C161.08 254.767 161.204 254.728 161.31 254.656C161.415 254.584 161.498 254.483 161.547 254.365L162.341 254.778C162.22 255.046 162.02 255.27 161.767 255.419C161.514 255.568 161.221 255.635 160.928 255.611C160.713 255.63 160.497 255.604 160.292 255.536C160.087 255.468 159.899 255.359 159.737 255.216C159.576 255.072 159.446 254.898 159.355 254.702C159.263 254.507 159.213 254.295 159.206 254.079Z" fill="white"/>
<path d="M162.547 254.079C162.546 253.859 162.591 253.641 162.679 253.439C162.767 253.237 162.896 253.056 163.058 252.906C163.22 252.757 163.412 252.643 163.62 252.572C163.829 252.501 164.05 252.473 164.269 252.492C164.562 252.468 164.855 252.535 165.108 252.684C165.361 252.834 165.561 253.058 165.682 253.325L164.888 253.738C164.826 253.639 164.74 253.558 164.638 253.503C164.536 253.447 164.421 253.419 164.304 253.421C164.188 253.423 164.074 253.455 163.974 253.514C163.873 253.574 163.79 253.658 163.732 253.759C163.674 253.859 163.642 253.974 163.642 254.09C163.641 254.206 163.67 254.321 163.726 254.423C163.783 254.525 163.865 254.61 163.964 254.671C164.063 254.732 164.177 254.766 164.293 254.77C164.421 254.767 164.545 254.728 164.651 254.656C164.756 254.584 164.839 254.483 164.888 254.365L165.682 254.778C165.561 255.046 165.361 255.27 165.108 255.419C164.855 255.568 164.562 255.635 164.269 255.611C164.054 255.63 163.838 255.604 163.633 255.536C163.428 255.468 163.24 255.359 163.079 255.216C162.917 255.072 162.787 254.898 162.696 254.702C162.604 254.507 162.554 254.295 162.547 254.079Z" fill="white"/>
<path d="M165.833 254.079C165.809 253.738 165.888 253.397 166.061 253.101C166.233 252.805 166.49 252.568 166.799 252.421C167.108 252.273 167.455 252.222 167.793 252.274C168.131 252.325 168.446 252.478 168.697 252.711C168.948 252.944 169.123 253.247 169.199 253.581C169.275 253.915 169.249 254.264 169.124 254.583C168.999 254.902 168.781 255.175 168.498 255.369C168.216 255.562 167.881 255.666 167.539 255.667C167.321 255.683 167.102 255.654 166.895 255.582C166.689 255.509 166.499 255.395 166.339 255.246C166.179 255.097 166.051 254.916 165.964 254.716C165.877 254.515 165.832 254.298 165.833 254.079ZM168.174 254.079C168.189 253.988 168.183 253.894 168.158 253.804C168.133 253.715 168.088 253.632 168.028 253.561C167.968 253.491 167.893 253.434 167.808 253.395C167.724 253.356 167.632 253.336 167.539 253.336C167.446 253.336 167.354 253.356 167.27 253.395C167.186 253.434 167.111 253.491 167.05 253.561C166.99 253.632 166.946 253.715 166.92 253.804C166.895 253.894 166.89 253.988 166.904 254.079C166.89 254.171 166.895 254.265 166.92 254.354C166.946 254.444 166.99 254.527 167.05 254.598C167.111 254.668 167.186 254.725 167.27 254.764C167.354 254.803 167.446 254.823 167.539 254.823C167.632 254.823 167.724 254.803 167.808 254.764C167.893 254.725 167.968 254.668 168.028 254.598C168.088 254.527 168.133 254.444 168.158 254.354C168.183 254.265 168.189 254.171 168.174 254.079Z" fill="white"/>
<path d="M172.864 252.579V255.556H171.856V255.238C171.671 255.422 171.434 255.545 171.177 255.59C170.92 255.636 170.655 255.601 170.418 255.491C170.181 255.381 169.984 255.202 169.852 254.976C169.72 254.751 169.661 254.49 169.682 254.23V252.548H170.737V254.056C170.737 254.524 170.92 254.706 171.237 254.706C171.555 254.706 171.809 254.5 171.809 253.992V252.548L172.864 252.579Z" fill="white"/>
<path d="M176.777 253.865V255.556H175.722V253.968C175.722 253.532 175.531 253.349 175.23 253.349C174.928 253.349 174.626 253.564 174.626 254.064V255.556H173.571V252.548H174.579V252.873C174.702 252.747 174.851 252.648 175.015 252.582C175.179 252.517 175.355 252.486 175.531 252.492C175.709 252.48 175.887 252.509 176.053 252.575C176.218 252.642 176.366 252.745 176.486 252.877C176.606 253.009 176.694 253.167 176.745 253.338C176.795 253.509 176.806 253.689 176.777 253.865Z" fill="white"/>
<path d="M179.515 255.468C179.29 255.593 179.035 255.654 178.777 255.643C178.617 255.668 178.454 255.656 178.299 255.608C178.144 255.56 178.003 255.477 177.885 255.366C177.767 255.255 177.676 255.119 177.619 254.967C177.562 254.816 177.54 254.653 177.555 254.492V253.476H177.118V252.683H177.555V251.889H178.61V252.683H179.301V253.476H178.61V254.476C178.606 254.52 178.611 254.565 178.625 254.607C178.639 254.65 178.662 254.689 178.691 254.721C178.721 254.754 178.758 254.781 178.799 254.799C178.839 254.816 178.883 254.826 178.928 254.825C179.043 254.824 179.156 254.791 179.253 254.73L179.515 255.468Z" fill="white"/>
<path d="M156.793 163.063V161.198H157.587V163.032C157.587 163.667 157.864 163.929 158.333 163.929C158.801 163.929 159.071 163.667 159.071 163.032V161.198H159.864V163.063C159.864 163.463 159.706 163.847 159.423 164.13C159.14 164.413 158.756 164.571 158.356 164.571C157.957 164.571 157.573 164.413 157.29 164.13C157.007 163.847 156.849 163.463 156.849 163.063H156.793Z" fill="#263238"/>
<path d="M160.277 164.286L160.523 163.754C160.791 163.917 161.099 164.002 161.412 164C161.753 164 161.88 163.913 161.88 163.77C161.88 163.349 160.293 163.77 160.293 162.754C160.293 162.27 160.737 161.96 161.483 161.96C161.825 161.954 162.162 162.03 162.468 162.183L162.222 162.714C161.996 162.588 161.742 162.522 161.483 162.524C161.15 162.524 161.007 162.627 161.007 162.762C161.007 163.198 162.555 162.762 162.555 163.786C162.555 164.262 162.11 164.579 161.341 164.579C160.967 164.575 160.6 164.474 160.277 164.286Z" fill="#263238"/>
<path d="M165.547 163.492H163.61C163.65 163.651 163.746 163.79 163.88 163.883C164.014 163.977 164.178 164.018 164.341 164C164.459 164.005 164.577 163.986 164.688 163.944C164.798 163.901 164.899 163.837 164.983 163.754L165.38 164.183C165.244 164.325 165.078 164.436 164.894 164.507C164.711 164.578 164.513 164.608 164.317 164.595C164.133 164.613 163.947 164.592 163.771 164.534C163.596 164.476 163.434 164.382 163.297 164.258C163.159 164.134 163.049 163.983 162.973 163.814C162.898 163.645 162.858 163.463 162.856 163.278C162.855 163.1 162.89 162.925 162.959 162.761C163.028 162.597 163.129 162.45 163.257 162.326C163.384 162.203 163.536 162.107 163.701 162.044C163.867 161.981 164.044 161.953 164.222 161.96C164.398 161.951 164.575 161.979 164.74 162.043C164.906 162.106 165.056 162.203 165.182 162.328C165.307 162.453 165.405 162.602 165.469 162.767C165.534 162.932 165.563 163.109 165.555 163.286C165.555 163.317 165.547 163.397 165.547 163.492ZM163.595 163.056H164.856C164.839 162.904 164.764 162.765 164.648 162.666C164.531 162.568 164.382 162.517 164.229 162.524C164.081 162.516 163.934 162.562 163.818 162.654C163.701 162.746 163.621 162.877 163.595 163.024V163.056Z" fill="#263238"/>
<path d="M167.642 161.905V162.587H167.476C167.381 162.579 167.287 162.592 167.198 162.626C167.11 162.66 167.031 162.713 166.966 162.781C166.901 162.85 166.852 162.933 166.824 163.023C166.795 163.113 166.787 163.208 166.801 163.302V164.508H166.055V161.952H166.761V162.286C166.867 162.156 167.002 162.054 167.155 161.987C167.309 161.921 167.476 161.893 167.642 161.905Z" fill="#263238"/>
<path d="M170.706 163.064V164.524H169.96V163.175C169.96 162.762 169.769 162.571 169.444 162.571C169.118 162.571 168.833 162.794 168.833 163.262V164.524H168.103V161.968H168.809V162.27C168.919 162.157 169.051 162.068 169.197 162.009C169.344 161.95 169.501 161.923 169.658 161.929C169.805 161.922 169.952 161.947 170.088 162.003C170.224 162.059 170.347 162.144 170.447 162.252C170.546 162.36 170.621 162.489 170.666 162.629C170.711 162.769 170.724 162.917 170.706 163.064Z" fill="#263238"/>
<path d="M173.658 163.063V164.524H172.968V164.206C172.881 164.333 172.761 164.433 172.621 164.496C172.481 164.558 172.326 164.582 172.174 164.563C171.579 164.563 171.222 164.23 171.222 163.77C171.222 163.31 171.539 162.976 172.317 162.976H172.912C172.912 162.659 172.722 162.468 172.317 162.468C172.052 162.469 171.794 162.552 171.579 162.706L171.317 162.19C171.646 161.98 172.03 161.872 172.42 161.881C173.19 161.905 173.658 162.294 173.658 163.063ZM172.92 163.714V163.492H172.404C172.063 163.492 171.952 163.619 171.952 163.786C171.952 163.952 172.111 164.095 172.372 164.095C172.49 164.097 172.606 164.062 172.701 163.993C172.797 163.924 172.868 163.827 172.904 163.714H172.92Z" fill="#263238"/>
<path d="M178.642 163.064V164.524H177.896V163.175C177.896 162.762 177.714 162.571 177.412 162.571C177.111 162.571 176.849 162.786 176.849 163.246V164.524H176.103V163.175C176.103 162.762 175.928 162.571 175.618 162.571C175.309 162.571 175.055 162.786 175.055 163.246V164.524H174.317V161.968H175.023V162.262C175.124 162.152 175.247 162.066 175.384 162.009C175.521 161.951 175.668 161.924 175.817 161.929C175.982 161.919 176.146 161.953 176.294 162.027C176.441 162.101 176.567 162.212 176.658 162.349C176.772 162.203 176.92 162.086 177.088 162.009C177.257 161.932 177.441 161.896 177.626 161.905C177.774 161.899 177.921 161.926 178.057 161.985C178.192 162.043 178.313 162.131 178.41 162.242C178.508 162.353 178.579 162.484 178.619 162.627C178.659 162.769 178.667 162.918 178.642 163.064Z" fill="#263238"/>
<path d="M181.833 163.492H179.896C179.936 163.651 180.031 163.79 180.166 163.883C180.3 163.977 180.464 164.018 180.626 164C180.745 164.006 180.863 163.987 180.974 163.944C181.084 163.902 181.185 163.837 181.269 163.754L181.666 164.183C181.531 164.324 181.366 164.435 181.184 164.506C181.002 164.577 180.806 164.608 180.61 164.595C180.426 164.613 180.241 164.592 180.065 164.534C179.889 164.476 179.728 164.382 179.59 164.258C179.453 164.134 179.343 163.983 179.267 163.814C179.191 163.645 179.152 163.463 179.15 163.278C179.149 163.1 179.184 162.925 179.253 162.761C179.321 162.597 179.423 162.45 179.55 162.326C179.678 162.203 179.829 162.107 179.995 162.044C180.161 161.981 180.338 161.953 180.515 161.96C180.692 161.951 180.869 161.979 181.034 162.043C181.199 162.106 181.35 162.203 181.475 162.328C181.601 162.453 181.699 162.602 181.763 162.767C181.827 162.932 181.857 163.109 181.849 163.286C181.847 163.355 181.842 163.424 181.833 163.492ZM179.888 163.056H181.15C181.122 162.909 181.043 162.777 180.928 162.682C180.813 162.588 180.668 162.536 180.519 162.536C180.37 162.536 180.226 162.588 180.11 162.682C179.995 162.777 179.917 162.909 179.888 163.056Z" fill="#263238"/>
<path d="M100.73 152.722H147.15C147.172 152.716 147.191 152.703 147.204 152.685C147.218 152.667 147.225 152.645 147.225 152.623C147.225 152.601 147.218 152.579 147.204 152.561C147.191 152.543 147.172 152.53 147.15 152.524H100.73C100.708 152.53 100.689 152.543 100.676 152.561C100.662 152.579 100.655 152.601 100.655 152.623C100.655 152.645 100.662 152.667 100.676 152.685C100.689 152.703 100.708 152.716 100.73 152.722Z" fill="#263238"/>
<path d="M160.912 152.722H207.333C207.354 152.716 207.373 152.703 207.387 152.685C207.4 152.667 207.407 152.645 207.407 152.623C207.407 152.601 207.4 152.579 207.387 152.561C207.373 152.543 207.354 152.53 207.333 152.524H160.912C160.89 152.53 160.871 152.543 160.858 152.561C160.844 152.579 160.837 152.601 160.837 152.623C160.837 152.645 160.844 152.667 160.858 152.685C160.871 152.703 160.89 152.716 160.912 152.722Z" fill="#263238"/>
<path d="M150.999 152.222C150.985 151.891 151.07 151.564 151.244 151.282C151.417 151 151.671 150.776 151.972 150.64C152.274 150.503 152.609 150.46 152.936 150.516C153.262 150.571 153.564 150.723 153.803 150.952C154.043 151.181 154.208 151.476 154.278 151.8C154.348 152.124 154.319 152.461 154.196 152.768C154.073 153.075 153.861 153.339 153.587 153.524C153.312 153.71 152.989 153.809 152.658 153.81C152.444 153.819 152.23 153.785 152.029 153.71C151.828 153.634 151.644 153.519 151.489 153.371C151.334 153.222 151.211 153.044 151.127 152.847C151.042 152.649 150.999 152.437 150.999 152.222ZM153.872 152.222C153.876 151.981 153.807 151.745 153.675 151.543C153.544 151.342 153.355 151.183 153.134 151.089C152.912 150.995 152.668 150.968 152.431 151.013C152.194 151.059 151.977 151.173 151.805 151.342C151.634 151.511 151.517 151.728 151.468 151.964C151.42 152.2 151.443 152.444 151.535 152.667C151.626 152.89 151.782 153.081 151.982 153.215C152.182 153.349 152.417 153.421 152.658 153.421C152.818 153.426 152.977 153.399 153.125 153.341C153.274 153.283 153.409 153.195 153.523 153.083C153.637 152.971 153.726 152.836 153.786 152.688C153.846 152.54 153.876 152.382 153.872 152.222Z" fill="#263238"/>
<path d="M156.198 151.397V151.81H156.095C155.991 151.804 155.888 151.821 155.792 151.86C155.697 151.899 155.611 151.958 155.54 152.034C155.47 152.11 155.417 152.2 155.385 152.298C155.353 152.396 155.344 152.501 155.357 152.603V153.778H154.928V151.397H155.333V151.794C155.426 151.654 155.557 151.544 155.709 151.474C155.862 151.404 156.031 151.377 156.198 151.397Z" fill="#263238"/>
<path d="M148.714 168.214H102.325C100.948 168.214 99.8328 169.33 99.8328 170.706V175.786C99.8328 177.162 100.948 178.278 102.325 178.278H148.714C150.09 178.278 151.206 177.162 151.206 175.786V170.706C151.206 169.33 150.09 168.214 148.714 168.214Z" fill="#EBEBEB"/>
<path d="M204.365 189.579H102.325C100.948 189.579 99.8328 190.695 99.8328 192.071V197.151C99.8328 198.527 100.948 199.643 102.325 199.643H204.365C205.741 199.643 206.857 198.527 206.857 197.151V192.071C206.857 190.695 205.741 189.579 204.365 189.579Z" fill="#EBEBEB"/>
<path d="M204.365 211.008H102.325C100.948 211.008 99.8328 212.124 99.8328 213.5V218.579C99.8328 219.956 100.948 221.071 102.325 221.071H204.365C205.741 221.071 206.857 219.956 206.857 218.579V213.5C206.857 212.124 205.741 211.008 204.365 211.008Z" fill="#EBEBEB"/>
<path d="M204.364 168.214H158.92C157.544 168.214 156.428 169.33 156.428 170.706V175.786C156.428 177.162 157.544 178.278 158.92 178.278H204.364C205.741 178.278 206.857 177.162 206.857 175.786V170.706C206.857 169.33 205.741 168.214 204.364 168.214Z" fill="#EBEBEB"/>
<path d="M104.507 226.841H101.888C101.454 226.841 101.103 227.193 101.103 227.627V230.246C101.103 230.68 101.454 231.032 101.888 231.032H104.507C104.941 231.032 105.293 230.68 105.293 230.246V227.627C105.293 227.193 104.941 226.841 104.507 226.841Z" fill="#55A2FF"/>
<path d="M202.071 230.746H109.841C109.427 230.746 109.029 230.584 108.732 230.295C108.436 230.006 108.264 229.612 108.253 229.198C108.264 228.784 108.436 228.391 108.732 228.102C109.029 227.812 109.427 227.651 109.841 227.651H202.071C202.478 227.661 202.866 227.827 203.154 228.115C203.442 228.403 203.608 228.791 203.618 229.198C203.62 229.402 203.58 229.604 203.503 229.792C203.425 229.98 203.311 230.151 203.168 230.295C203.024 230.439 202.853 230.553 202.664 230.63C202.476 230.708 202.274 230.747 202.071 230.746Z" fill="#E0E0E0"/>
<path d="M125.015 236.508H110.317C109.91 236.498 109.522 236.332 109.234 236.044C108.946 235.755 108.779 235.368 108.769 234.96C108.769 234.757 108.809 234.557 108.887 234.369C108.965 234.182 109.079 234.012 109.223 233.869C109.367 233.726 109.538 233.612 109.725 233.536C109.913 233.459 110.114 233.42 110.317 233.421H125.015C125.421 233.431 125.808 233.596 126.096 233.882C126.384 234.169 126.551 234.554 126.563 234.96C126.553 235.368 126.387 235.755 126.099 236.044C125.81 236.332 125.423 236.498 125.015 236.508Z" fill="#E0E0E0"/>
<path d="M203.856 129.667H103.785C101.865 129.667 100.309 131.223 100.309 133.143V139.389C100.309 141.309 101.865 142.865 103.785 142.865H203.856C205.776 142.865 207.333 141.309 207.333 139.389V133.143C207.333 131.223 205.776 129.667 203.856 129.667Z" fill="#EBEBEB"/>
<path d="M133.571 137.302L133.745 136.929C134.055 137.185 134.446 137.323 134.849 137.317C135.42 137.317 135.642 137.095 135.642 136.802C135.642 136.008 133.626 136.5 133.626 135.262C133.626 134.754 134.031 134.317 134.904 134.317C135.282 134.31 135.654 134.412 135.976 134.611L135.817 134.992C135.545 134.816 135.228 134.722 134.904 134.722C134.333 134.722 134.11 134.96 134.11 135.246C134.11 136.04 136.126 135.548 136.126 136.778C136.126 137.286 135.722 137.722 134.841 137.722C134.382 137.732 133.933 137.583 133.571 137.302Z" fill="#263238"/>
<path d="M136.682 134.365C136.682 134.325 136.69 134.285 136.706 134.248C136.721 134.211 136.744 134.177 136.773 134.149C136.802 134.121 136.836 134.099 136.874 134.084C136.911 134.069 136.951 134.062 136.991 134.063C137.031 134.061 137.071 134.067 137.109 134.081C137.146 134.095 137.18 134.116 137.209 134.144C137.238 134.171 137.261 134.204 137.277 134.241C137.293 134.278 137.301 134.317 137.301 134.357C137.301 134.439 137.268 134.518 137.21 134.576C137.152 134.634 137.073 134.667 136.991 134.667C136.909 134.667 136.831 134.634 136.773 134.576C136.714 134.518 136.682 134.439 136.682 134.357V134.365ZM136.769 135.159H137.222V137.683H136.769V135.159Z" fill="#263238"/>
<path d="M140.507 135.143V137.302C140.533 137.479 140.517 137.66 140.46 137.83C140.403 137.999 140.307 138.154 140.179 138.279C140.052 138.405 139.897 138.5 139.726 138.554C139.556 138.609 139.375 138.623 139.198 138.595C138.765 138.613 138.339 138.481 137.991 138.222L138.214 137.865C138.489 138.084 138.83 138.202 139.182 138.198C139.777 138.198 140.047 137.921 140.047 137.349V137.151C139.935 137.279 139.795 137.38 139.639 137.448C139.482 137.515 139.312 137.546 139.142 137.54C138.818 137.54 138.507 137.411 138.278 137.182C138.049 136.952 137.92 136.642 137.92 136.317C137.92 135.993 138.049 135.682 138.278 135.453C138.507 135.224 138.818 135.095 139.142 135.095C139.318 135.09 139.493 135.124 139.654 135.195C139.815 135.267 139.957 135.374 140.071 135.508V135.119L140.507 135.143ZM140.063 136.341C140.079 136.166 140.041 135.99 139.956 135.837C139.87 135.683 139.74 135.559 139.583 135.48C139.425 135.402 139.248 135.373 139.073 135.397C138.899 135.421 138.736 135.498 138.606 135.616C138.476 135.734 138.385 135.889 138.344 136.06C138.303 136.231 138.315 136.411 138.378 136.575C138.442 136.739 138.553 136.881 138.698 136.98C138.842 137.08 139.014 137.134 139.19 137.135C139.3 137.146 139.412 137.134 139.518 137.099C139.624 137.064 139.721 137.007 139.803 136.933C139.885 136.858 139.951 136.766 139.996 136.665C140.04 136.563 140.063 136.453 140.063 136.341Z" fill="#263238"/>
<path d="M143.777 136.214V137.667H143.317V136.27C143.317 135.77 143.071 135.532 142.634 135.532C142.528 135.525 142.422 135.54 142.322 135.578C142.223 135.615 142.133 135.673 142.057 135.749C141.982 135.824 141.924 135.914 141.887 136.014C141.849 136.113 141.834 136.219 141.841 136.325V137.627H141.388V135.103H141.825V135.484C141.933 135.349 142.073 135.241 142.232 135.171C142.391 135.1 142.564 135.069 142.737 135.079C142.885 135.069 143.033 135.092 143.17 135.147C143.308 135.202 143.431 135.287 143.531 135.396C143.63 135.505 143.705 135.636 143.747 135.777C143.79 135.919 143.8 136.068 143.777 136.214Z" fill="#263238"/>
<path d="M148.261 135.143V137.667H147.833V137.302C147.733 137.434 147.604 137.541 147.454 137.613C147.305 137.684 147.141 137.719 146.976 137.714C146.828 137.73 146.678 137.711 146.538 137.661C146.398 137.611 146.271 137.53 146.167 137.424C146.062 137.318 145.983 137.19 145.935 137.049C145.887 136.909 145.871 136.759 145.888 136.611V135.159H146.341V136.564C146.341 137.056 146.595 137.302 147.023 137.302C147.129 137.309 147.235 137.293 147.335 137.255C147.434 137.218 147.525 137.16 147.6 137.085C147.675 137.01 147.733 136.919 147.771 136.82C147.808 136.72 147.824 136.614 147.817 136.508V135.198L148.261 135.143Z" fill="#263238"/>
<path d="M151.738 136.405C151.748 136.575 151.722 136.746 151.662 136.906C151.602 137.066 151.509 137.211 151.39 137.333C151.27 137.455 151.126 137.551 150.967 137.614C150.809 137.676 150.638 137.705 150.468 137.698C150.299 137.703 150.131 137.669 149.978 137.597C149.825 137.525 149.691 137.419 149.587 137.286V138.587H149.126V135.143H149.563V135.548C149.667 135.408 149.805 135.296 149.962 135.221C150.12 135.146 150.293 135.111 150.468 135.119C150.638 135.112 150.807 135.141 150.965 135.203C151.124 135.266 151.267 135.36 151.387 135.481C151.506 135.602 151.599 135.747 151.66 135.906C151.72 136.065 151.747 136.235 151.738 136.405ZM151.277 136.405C151.269 136.239 151.213 136.079 151.115 135.944C151.017 135.81 150.882 135.707 150.726 135.649C150.571 135.591 150.401 135.58 150.239 135.617C150.077 135.654 149.93 135.738 149.815 135.858C149.7 135.978 149.623 136.129 149.593 136.293C149.564 136.456 149.583 136.625 149.648 136.778C149.713 136.931 149.822 137.061 149.961 137.153C150.099 137.244 150.262 137.293 150.428 137.294C150.545 137.303 150.663 137.286 150.773 137.244C150.883 137.202 150.982 137.136 151.063 137.051C151.145 136.966 151.206 136.863 151.243 136.752C151.28 136.64 151.292 136.522 151.277 136.405Z" fill="#263238"/>
<path d="M157.476 135.143L156.531 137.667H156.095L155.365 135.754L154.626 137.667H154.19L153.253 135.143H153.682L154.42 137.151L155.214 135.143H155.595L156.341 137.167L157.134 135.143H157.476Z" fill="#263238"/>
<path d="M157.856 134.365C157.856 134.325 157.864 134.285 157.88 134.248C157.896 134.211 157.919 134.177 157.948 134.149C157.976 134.121 158.011 134.099 158.048 134.084C158.086 134.069 158.126 134.062 158.166 134.063C158.225 134.065 158.283 134.084 158.331 134.118C158.38 134.152 158.417 134.2 158.439 134.255C158.46 134.31 158.465 134.371 158.453 134.429C158.44 134.487 158.411 134.54 158.368 134.581C158.326 134.622 158.272 134.65 158.214 134.661C158.156 134.672 158.096 134.666 158.041 134.643C157.986 134.62 157.94 134.581 157.907 134.532C157.874 134.482 157.856 134.424 157.856 134.365ZM157.936 135.159H158.396V137.683H157.936V135.159Z" fill="#263238"/>
<path d="M160.682 137.524C160.525 137.643 160.332 137.705 160.134 137.698C160.027 137.71 159.919 137.697 159.818 137.661C159.716 137.625 159.624 137.567 159.548 137.491C159.472 137.415 159.414 137.323 159.378 137.221C159.342 137.12 159.329 137.012 159.341 136.905V135.524H158.912V135.143H159.372V134.595H159.825V135.143H160.555V135.524H159.825V136.889C159.818 136.944 159.823 137 159.84 137.052C159.857 137.105 159.885 137.153 159.923 137.193C159.961 137.234 160.008 137.265 160.059 137.285C160.111 137.305 160.166 137.314 160.222 137.31C160.351 137.313 160.477 137.271 160.579 137.19L160.682 137.524Z" fill="#263238"/>
<path d="M163.626 136.214V137.667H163.174V136.27C163.174 135.77 162.928 135.532 162.491 135.532C162.385 135.525 162.279 135.54 162.18 135.578C162.08 135.615 161.99 135.673 161.915 135.749C161.839 135.824 161.781 135.914 161.744 136.014C161.706 136.113 161.691 136.219 161.698 136.325V137.627H161.245V134.127H161.698V135.492C161.809 135.365 161.947 135.265 162.103 135.199C162.258 135.133 162.426 135.103 162.595 135.111C162.739 135.102 162.883 135.124 163.018 135.177C163.152 135.231 163.273 135.313 163.372 135.418C163.47 135.524 163.544 135.65 163.588 135.788C163.632 135.925 163.645 136.071 163.626 136.214Z" fill="#263238"/>
<path d="M168.102 135.984H168.563V137.302C168.202 137.582 167.757 137.73 167.301 137.722C167.022 137.712 166.751 137.633 166.509 137.493C166.268 137.353 166.065 137.157 165.917 136.92C165.77 136.684 165.683 136.414 165.663 136.136C165.644 135.858 165.693 135.58 165.806 135.325C165.919 135.07 166.093 134.847 166.312 134.675C166.531 134.503 166.789 134.387 167.064 134.338C167.338 134.288 167.62 134.307 167.886 134.392C168.151 134.477 168.392 134.626 168.587 134.825L168.293 135.127C168.167 134.999 168.016 134.899 167.849 134.832C167.683 134.765 167.504 134.733 167.325 134.738C167.148 134.724 166.97 134.747 166.803 134.805C166.635 134.863 166.481 134.955 166.351 135.076C166.221 135.196 166.117 135.342 166.046 135.505C165.975 135.667 165.938 135.842 165.938 136.02C165.938 136.197 165.975 136.373 166.046 136.535C166.117 136.698 166.221 136.844 166.351 136.964C166.481 137.084 166.635 137.177 166.803 137.235C166.97 137.293 167.148 137.316 167.325 137.302C167.605 137.31 167.881 137.235 168.118 137.087L168.102 135.984Z" fill="#263238"/>
<path d="M169.206 136.405C169.203 136.144 169.278 135.888 169.421 135.67C169.564 135.452 169.77 135.281 170.011 135.181C170.251 135.08 170.517 135.054 170.773 135.105C171.029 135.157 171.263 135.283 171.447 135.469C171.63 135.655 171.754 135.891 171.802 136.148C171.85 136.404 171.821 136.669 171.717 136.909C171.614 137.148 171.441 137.351 171.221 137.492C171.001 137.633 170.744 137.705 170.483 137.698C170.313 137.702 170.144 137.67 169.987 137.606C169.829 137.542 169.686 137.447 169.567 137.326C169.447 137.205 169.354 137.061 169.292 136.902C169.23 136.744 169.2 136.575 169.206 136.405ZM171.364 136.405C171.355 136.241 171.298 136.083 171.201 135.95C171.103 135.818 170.97 135.716 170.816 135.658C170.662 135.6 170.494 135.588 170.334 135.624C170.173 135.659 170.026 135.741 169.911 135.858C169.796 135.975 169.717 136.124 169.684 136.285C169.652 136.446 169.667 136.613 169.727 136.766C169.788 136.919 169.892 137.051 170.026 137.146C170.16 137.241 170.319 137.295 170.483 137.302C170.604 137.316 170.726 137.303 170.841 137.263C170.956 137.222 171.059 137.156 171.144 137.07C171.23 136.983 171.294 136.878 171.332 136.763C171.37 136.648 171.381 136.525 171.364 136.405Z" fill="#263238"/>
<path d="M172.229 136.405C172.226 136.145 172.3 135.89 172.442 135.673C172.584 135.456 172.788 135.285 173.027 135.184C173.266 135.082 173.529 135.054 173.785 135.103C174.04 135.151 174.274 135.275 174.459 135.457C174.644 135.64 174.77 135.873 174.822 136.128C174.874 136.382 174.849 136.646 174.75 136.886C174.652 137.126 174.484 137.332 174.268 137.477C174.052 137.621 173.799 137.698 173.539 137.698C173.366 137.706 173.194 137.678 173.033 137.616C172.871 137.554 172.724 137.459 172.601 137.338C172.478 137.216 172.382 137.071 172.318 136.91C172.254 136.75 172.224 136.578 172.229 136.405ZM174.388 136.405C174.38 136.239 174.324 136.079 174.226 135.944C174.128 135.81 173.993 135.707 173.837 135.649C173.682 135.591 173.512 135.58 173.35 135.617C173.188 135.654 173.041 135.738 172.926 135.858C172.811 135.978 172.734 136.129 172.704 136.293C172.675 136.456 172.694 136.625 172.759 136.778C172.824 136.931 172.933 137.061 173.072 137.153C173.21 137.245 173.373 137.293 173.539 137.294C173.656 137.303 173.774 137.286 173.884 137.244C173.994 137.202 174.093 137.136 174.174 137.051C174.256 136.966 174.317 136.863 174.354 136.752C174.391 136.64 174.403 136.522 174.388 136.405Z" fill="#263238"/>
<path d="M177.896 135.143V137.302C177.922 137.479 177.906 137.66 177.849 137.83C177.792 137.999 177.696 138.154 177.568 138.279C177.441 138.405 177.286 138.5 177.115 138.554C176.945 138.609 176.764 138.623 176.587 138.595C176.154 138.613 175.728 138.481 175.38 138.222L175.603 137.865C175.88 138.08 176.22 138.197 176.571 138.198C177.166 138.198 177.444 137.921 177.444 137.349V137.151C177.329 137.278 177.188 137.379 177.03 137.446C176.873 137.514 176.702 137.545 176.531 137.54C176.207 137.54 175.896 137.411 175.667 137.182C175.438 136.952 175.309 136.642 175.309 136.317C175.309 135.993 175.438 135.682 175.667 135.453C175.896 135.224 176.207 135.095 176.531 135.095C176.707 135.088 176.882 135.122 177.043 135.194C177.204 135.265 177.347 135.373 177.46 135.508V135.119L177.896 135.143ZM177.452 136.341C177.431 136.125 177.331 135.924 177.17 135.778C177.009 135.632 176.8 135.551 176.583 135.551C176.366 135.551 176.156 135.632 175.995 135.778C175.835 135.924 175.734 136.125 175.714 136.341C175.734 136.557 175.835 136.758 175.995 136.904C176.156 137.05 176.366 137.131 176.583 137.131C176.8 137.131 177.009 137.05 177.17 136.904C177.331 136.758 177.431 136.557 177.452 136.341Z" fill="#263238"/>
<path d="M178.769 134.127H179.214V137.659H178.753L178.769 134.127Z" fill="#263238"/>
<path d="M182.388 136.556H180.325C180.353 136.772 180.463 136.97 180.633 137.108C180.803 137.245 181.02 137.312 181.237 137.294C181.373 137.3 181.507 137.276 181.632 137.223C181.757 137.171 181.869 137.092 181.96 136.992L182.214 137.286C182.029 137.486 181.79 137.626 181.525 137.69C181.261 137.753 180.983 137.736 180.728 137.642C180.473 137.548 180.252 137.38 180.093 137.159C179.933 136.939 179.843 136.677 179.833 136.405C179.826 136.236 179.854 136.068 179.915 135.911C179.976 135.753 180.068 135.61 180.186 135.49C180.304 135.369 180.446 135.274 180.602 135.211C180.758 135.147 180.926 135.116 181.095 135.119C181.265 135.114 181.434 135.145 181.591 135.209C181.749 135.274 181.891 135.37 182.009 135.493C182.127 135.615 182.218 135.761 182.277 135.921C182.335 136.081 182.36 136.251 182.349 136.421C182.366 136.464 182.379 136.509 182.388 136.556ZM180.349 136.23H181.936C181.918 136.032 181.827 135.848 181.68 135.715C181.533 135.581 181.341 135.507 181.142 135.508C180.939 135.501 180.742 135.572 180.59 135.706C180.438 135.841 180.343 136.028 180.325 136.23H180.349Z" fill="#263238"/>
<path d="M127.277 136.278V137.024H129.111C129.018 137.35 128.814 137.633 128.534 137.824C128.254 138.015 127.916 138.103 127.579 138.071C127.348 138.081 127.117 138.044 126.901 137.96C126.684 137.877 126.488 137.751 126.322 137.589C126.157 137.426 126.027 137.232 125.94 137.017C125.853 136.803 125.811 136.573 125.817 136.341C125.821 136.055 125.895 135.774 126.034 135.523C126.172 135.273 126.37 135.06 126.611 134.905C126.943 134.677 127.346 134.575 127.746 134.619C128.147 134.662 128.518 134.848 128.793 135.143C128.851 135.214 128.932 135.263 129.022 135.28C129.112 135.298 129.205 135.283 129.285 135.238C129.334 135.211 129.376 135.174 129.409 135.129C129.441 135.084 129.463 135.032 129.473 134.977C129.483 134.922 129.481 134.866 129.466 134.812C129.451 134.759 129.425 134.709 129.388 134.667C129.161 134.413 128.882 134.21 128.57 134.073C128.258 133.936 127.92 133.868 127.579 133.873C127.241 133.854 126.903 133.904 126.586 134.02C126.268 134.136 125.978 134.316 125.732 134.548C125.487 134.78 125.291 135.06 125.157 135.37C125.023 135.681 124.954 136.015 124.954 136.353C124.954 136.691 125.023 137.026 125.157 137.336C125.291 137.647 125.487 137.926 125.732 138.159C125.978 138.391 126.268 138.57 126.586 138.686C126.903 138.802 127.241 138.852 127.579 138.833C127.876 138.855 128.175 138.815 128.456 138.717C128.737 138.619 128.996 138.463 129.214 138.261C129.433 138.058 129.608 137.813 129.728 137.54C129.848 137.267 129.911 136.973 129.912 136.675V136.294L127.277 136.278Z" fill="#263238"/>
<path d="M221.44 101.814C225.685 100.069 227.711 95.2133 225.966 90.9689C224.221 86.7244 219.365 84.6983 215.121 86.4434C210.876 88.1885 208.85 93.044 210.595 97.2885C212.34 101.533 217.196 103.559 221.44 101.814Z" fill="#55A2FF"/>
<path d="M221.639 92.0048L220.41 90.7758L214.916 96.2699L216.145 97.4989L221.639 92.0048Z" fill="white"/>
<path d="M216.147 90.7656L214.918 91.9946L220.412 97.4887L221.641 96.2597L216.147 90.7656Z" fill="white"/>
<path d="M285.484 184.04C276.984 188.444 270.468 196.024 265.786 204.365C261.103 212.706 258.079 221.825 255.087 230.96L252.468 277.849C262.357 261.024 270.294 241.246 272.437 221.849L265.857 221.27C270.27 220.595 273.976 217.397 276.333 213.603C278.69 209.81 279.897 205.444 281.095 201.143L273.071 202.333C279.404 198.055 283.848 191.505 285.484 184.04Z" fill="#8BC4FF"/>
<path d="M250.968 288.833C250.968 288.833 229.5 263.143 229.754 238.619H238.421C238.421 238.619 229 232.429 229.746 228.96C230.492 225.492 230.722 212.357 230.722 212.357L238.659 214.341C238.659 214.341 232.714 211.373 231.968 206.667C231.222 201.96 233.706 180.159 233.706 180.159C233.706 180.159 243.365 190.317 246.341 200.714C249.317 211.111 257.119 223.23 254.833 254.976C252.548 286.722 250.968 288.833 250.968 288.833Z" fill="#55A2FF"/>
<path d="M261.849 291.254C261.849 291.254 285.095 275.762 290.262 255.992L283.294 254.095C283.294 254.095 292.222 251.183 292.381 248.23C292.54 245.278 295.214 234.667 295.214 234.667L288.405 234.524C288.405 234.524 293.833 233.437 295.468 229.817C297.103 226.198 299.873 208.151 299.873 208.151C299.873 208.151 289.881 214.206 285.214 221.921C280.548 229.635 271.619 237.683 266.524 263.675C261.429 289.667 261.849 291.254 261.849 291.254Z" fill="#55A2FF"/>
<path d="M239.58 202.595C239.614 202.682 239.638 202.773 239.651 202.865L239.841 203.659C240 204.381 240.23 205.405 240.524 206.706C240.818 208.008 241.167 209.651 241.548 211.548C241.929 213.444 242.342 215.579 242.81 217.968C243.73 222.73 244.699 228.429 245.699 234.762C246.699 241.095 247.627 248.087 248.492 255.397C249.357 262.706 249.984 269.778 250.484 276.175C250.984 282.571 251.357 288.31 251.508 293.175C251.627 295.595 251.683 297.794 251.738 299.714C251.794 301.635 251.841 303.302 251.849 304.659C251.857 306.016 251.849 307.04 251.849 307.778V308.571C251.861 308.664 251.861 308.757 251.849 308.849C251.839 308.757 251.839 308.664 251.849 308.571C251.849 308.365 251.849 308.095 251.81 307.778C251.81 307.032 251.746 305.992 251.699 304.651C251.651 303.31 251.603 301.643 251.516 299.714C251.429 297.786 251.365 295.603 251.222 293.183C250.992 288.341 250.611 282.579 250.119 276.19C249.627 269.802 248.929 262.778 248.088 255.429C247.246 248.079 246.27 241.103 245.326 234.794C244.381 228.484 243.413 222.762 242.524 218C242.111 215.619 241.683 213.46 241.326 211.563C240.968 209.667 240.651 208.048 240.373 206.714C240.095 205.381 239.913 204.381 239.77 203.651C239.707 203.317 239.659 203.056 239.619 202.857C239.595 202.772 239.582 202.684 239.58 202.595Z" fill="#E0E0E0"/>
<path d="M247.992 304.564C247.992 304.564 228.341 282.278 222.246 268.802L226.849 266.841C223.516 267.389 220.095 265.952 217.508 263.778C214.921 261.603 213.024 258.73 211.159 255.913L217.222 254.889C211.656 253.304 206.911 249.642 203.968 244.659C211.111 245.841 217.603 249.77 222.937 254.683C227.177 258.75 231.025 263.209 234.429 268C236.146 270.301 237.642 272.759 238.897 275.341C242.198 282.119 248 296.381 247.992 304.564Z" fill="#8BC4FF"/>
<path d="M290.571 221.095C290.554 221.176 290.524 221.253 290.484 221.325L290.182 221.976L288.984 224.444C287.936 226.587 286.444 229.698 284.643 233.564C282.841 237.429 280.746 242.048 278.508 247.222C276.27 252.397 273.92 258.135 271.571 264.198C269.222 270.262 267.127 276.103 265.286 281.421C263.444 286.738 261.889 291.587 260.627 295.659C259.365 299.73 258.373 303.032 257.714 305.325C257.381 306.444 257.119 307.333 256.92 307.96L256.706 308.643C256.687 308.723 256.658 308.8 256.619 308.873C256.623 308.789 256.639 308.706 256.667 308.627C256.714 308.452 256.77 308.222 256.841 307.937C257.008 307.302 257.246 306.413 257.547 305.286C258.159 302.976 259.135 299.659 260.333 295.571C261.532 291.484 263.103 286.643 264.905 281.286C266.706 275.929 268.817 270.119 271.198 264.048C273.579 257.976 275.96 252.246 278.174 247.071C280.389 241.897 282.547 237.286 284.389 233.437C286.23 229.587 287.762 226.492 288.857 224.373L290.127 221.937C290.262 221.675 290.373 221.468 290.46 221.31C290.547 221.151 290.571 221.095 290.571 221.095Z" fill="#E0E0E0"/>
<path d="M249.651 314.111C249.609 313.979 249.577 313.843 249.555 313.706C249.508 313.389 249.444 312.992 249.365 312.524C249.214 311.492 248.96 310.008 248.571 308.183C248.182 306.357 247.706 304.214 247.063 301.833C246.42 299.452 245.587 296.897 244.595 294.238C243.603 291.579 242.492 289.119 241.42 286.905C240.349 284.69 239.293 282.754 238.357 281.151C237.42 279.548 236.635 278.262 236.063 277.397C235.809 276.984 235.603 276.651 235.428 276.381C235.348 276.265 235.281 276.14 235.23 276.008C235.23 276.008 235.333 276.111 235.5 276.333L236.198 277.302C236.809 278.151 237.635 279.413 238.579 281C239.524 282.587 240.627 284.54 241.754 286.738C242.881 288.937 243.952 291.437 244.968 294.095C245.984 296.754 246.77 299.349 247.42 301.73C248.071 304.111 248.524 306.286 248.841 308.127C249.159 309.968 249.373 311.452 249.476 312.492L249.595 313.683C249.637 313.821 249.656 313.966 249.651 314.111Z" fill="#E0E0E0"/>
<path d="M275.571 308.873H232.587V317.643H275.571V308.873Z" fill="#E0E0E0"/>
<path d="M236.682 317.635L241.087 342.778H267.063L271.643 317.635H236.682Z" fill="#E0E0E0"/>
<path d="M272.936 317.675C272.936 317.794 264.802 317.889 254.77 317.889C244.738 317.889 236.611 317.794 236.611 317.675C236.611 317.556 244.738 317.468 254.77 317.468C264.802 317.468 272.936 317.524 272.936 317.675Z" fill="#EBEBEB"/>
<path d="M80.4595 333.01L75.3087 332.391C71.2022 335.132 66.2189 336.238 61.3383 335.492C56.4577 334.745 52.0328 332.2 48.9333 328.357C45.8338 324.514 44.2839 319.65 44.5882 314.722C44.8925 309.794 47.029 305.158 50.5778 301.725C54.1266 298.293 58.831 296.312 63.7663 296.171C68.7017 296.031 73.511 297.742 77.2491 300.967C80.9872 304.193 83.3836 308.7 83.9674 313.603C84.5512 318.505 83.2801 323.449 80.4039 327.462L80.4595 333.01Z" fill="white"/>
<path d="M80.4595 333.01C80.4595 333.01 80.4595 332.875 80.4595 332.637C80.4595 332.399 80.4595 332.018 80.4595 331.557C80.4595 330.613 80.4118 329.232 80.3801 327.454L80.4991 327.51C80.4925 327.517 80.4845 327.522 80.4756 327.526C80.4667 327.53 80.4572 327.532 80.4476 327.532C80.4379 327.532 80.4284 327.53 80.4195 327.526C80.4106 327.522 80.4026 327.517 80.396 327.51C80.3863 327.497 80.3811 327.482 80.3811 327.466C80.3811 327.45 80.3863 327.435 80.396 327.423C82.2498 324.814 83.4403 321.793 83.8642 318.621C84.1347 316.548 84.0785 314.446 83.6976 312.391C83.2531 310.054 82.3901 307.817 81.1499 305.788C79.7613 303.556 77.9495 301.617 75.8166 300.081C73.5152 298.405 70.8689 297.264 68.0706 296.74C65.0959 296.19 62.0354 296.32 59.1182 297.121C56.0571 297.971 53.2541 299.566 50.9595 301.764C49.7835 302.875 48.7469 304.125 47.8722 305.486C47.4753 306.176 47.0785 306.859 46.7293 307.573L46.261 308.661L46.0309 309.2L45.8563 309.764C44.904 312.668 44.6325 315.753 45.0626 318.78C45.4676 321.621 46.5094 324.334 48.1103 326.716C49.5787 328.915 51.4666 330.803 53.6658 332.272C55.6422 333.605 57.8447 334.568 60.1658 335.113L61.8007 335.399C62.3404 335.478 62.8722 335.494 63.388 335.542C64.3958 335.607 65.4072 335.589 66.4118 335.486C69.5878 335.162 72.6378 334.072 75.3007 332.311H75.3483L79.142 332.811L80.142 332.946L80.4912 333.002H80.1658L79.1817 332.899L75.3325 332.47H75.3801C72.7109 334.274 69.6394 335.394 66.4357 335.732C65.4184 335.843 64.3938 335.869 63.3722 335.811C62.8484 335.764 62.3007 335.756 61.7849 335.676L60.0706 335.351C57.699 334.83 55.4443 333.874 53.4198 332.534C51.1815 331.042 49.2609 329.121 47.769 326.883C46.1378 324.457 45.0719 321.696 44.6499 318.803C44.2085 315.725 44.48 312.586 45.4436 309.629L45.6182 309.057L45.8563 308.502L46.3245 307.399C46.6737 306.669 47.1182 305.97 47.4991 305.272C48.3887 303.891 49.4442 302.625 50.642 301.502C52.9729 299.248 55.8289 297.612 58.9515 296.74C61.9362 295.933 65.0649 295.814 68.1023 296.391C70.9449 296.935 73.6313 298.103 75.9674 299.811C78.1289 301.376 79.9625 303.35 81.3642 305.621C82.6158 307.683 83.4818 309.955 83.9198 312.327C84.2982 314.423 84.3437 316.566 84.0547 318.676C83.6048 321.877 82.3757 324.919 80.4753 327.534L80.3722 327.43C80.3788 327.423 80.3868 327.418 80.3957 327.414C80.4046 327.41 80.4141 327.408 80.4237 327.408C80.4334 327.408 80.4429 327.41 80.4518 327.414C80.4607 327.418 80.4687 327.423 80.4753 327.43C80.4797 327.446 80.4797 327.462 80.4753 327.478C80.4753 329.272 80.4753 330.653 80.4753 331.629C80.4753 332.081 80.4753 332.423 80.4753 332.684C80.4753 332.946 80.4595 333.01 80.4595 333.01Z" fill="#263238"/>
<path d="M55.6262 317.161L58.1024 314.51L63.1897 318.732L72.5707 309.073L75.0389 311.557L62.9913 323.692L55.6262 317.161Z" fill="#55A2FF"/>
</g>
<defs>
<clipPath id="clip0_325_2024">
<rect width="300" height="342.857" fill="white"/>
</clipPath>
</defs>
</svg>
