<svg width="300" height="343" viewBox="0 0 300 343" fill="none" xmlns="http://www.w3.org/2000/svg">
<g clip-path="url(#clip0_327_2176)">
<path d="M285.532 0H230.714V57.1429H285.532V0Z" fill="white" fill-opacity="0.2"/>
<path d="M281.817 0H227V57.1429H281.817V0Z" fill="white" fill-opacity="0.2"/>
<path d="M281.833 57.1587H226.984V0.0158691H281.833V57.1587ZM227.016 57.1587H281.778V0.0158691H227.016V57.1587Z" fill="white" fill-opacity="0.2"/>
<path d="M274.452 7.67462H234.373V49.4524H274.452V7.67462Z" fill="white" fill-opacity="0.2"/>
<path d="M234.373 49.7381C234.09 50.16 233.757 50.5464 233.381 50.8889C232.738 51.5635 231.841 52.4762 230.833 53.4683C229.826 54.4603 228.897 55.3492 228.214 55.9762C227.871 56.3452 227.482 56.668 227.056 56.9365C227.342 56.5213 227.672 56.1381 228.04 55.7937C228.683 55.1191 229.579 54.2064 230.595 53.2064C231.611 52.2064 232.532 51.3254 233.214 50.6984C233.562 50.3338 233.95 50.0115 234.373 49.7381Z" fill="white" fill-opacity="0.2"/>
<path d="M274.452 49.6349C274.873 49.9169 275.259 50.2472 275.603 50.619C276.278 51.2619 277.19 52.1587 278.183 53.1666C279.175 54.1746 280.063 55.1031 280.69 55.7857C281.053 56.1371 281.377 56.5254 281.659 56.9444C281.233 56.6688 280.846 56.3379 280.508 55.9603C279.833 55.3254 278.921 54.4206 277.921 53.4127C276.921 52.4047 276.04 51.4682 275.413 50.7857C275.047 50.4422 274.725 50.0558 274.452 49.6349Z" fill="white" fill-opacity="0.2"/>
<path d="M274.349 7.79363C274.631 7.37771 274.962 6.99674 275.333 6.65871C275.968 5.9841 276.873 5.07141 277.881 4.07141C278.889 3.07141 279.81 2.19839 280.5 1.56347C280.843 1.19448 281.233 0.871662 281.659 0.603149C281.379 1.01167 281.058 1.38944 280.699 1.73014C280.056 2.40474 279.111 3.31744 278.143 4.31744C277.175 5.31744 276.199 6.19839 275.516 6.83331C275.165 7.1966 274.773 7.51877 274.349 7.79363Z" fill="white" fill-opacity="0.2"/>
<path d="M234.262 7.88887C233.828 7.61223 233.43 7.28154 233.079 6.90474C232.405 6.26188 231.492 5.36506 230.5 4.35712C229.508 3.34919 228.619 2.42061 227.992 1.73808C227.628 1.38874 227.303 1.00013 227.024 0.579346C227.443 0.859772 227.827 1.19025 228.167 1.56347C228.849 2.20633 229.754 3.10315 230.762 4.11903C231.77 5.1349 232.643 6.05553 233.27 6.73807C233.646 7.07971 233.98 7.46619 234.262 7.88887Z" fill="white" fill-opacity="0.2"/>
<path d="M274.349 49.4603C274.349 49.4603 274.349 49.3889 274.349 49.254C274.349 49.119 274.349 48.9206 274.349 48.6746C274.349 48.1508 274.349 47.3968 274.349 46.4206C274.349 44.4365 274.349 41.5555 274.302 37.9047C274.302 30.5873 274.262 20.1587 274.23 7.67459L274.381 7.83332H234.413L234.587 7.65078C234.587 22.992 234.587 37.3333 234.587 49.4365L234.437 49.2857L263.373 49.3571H271.508H273.659H274.214C274.278 49.3489 274.342 49.3489 274.405 49.3571H273.691H271.564H263.476L234.437 49.4365H234.286V49.2857C234.286 37.1825 234.286 22.8413 234.286 7.49998V7.32538H234.468H274.437H274.595V7.47617C274.595 20 274.54 30.492 274.524 37.8016C274.524 41.4444 274.524 44.3095 274.476 46.2857C274.476 47.246 274.476 47.9921 274.476 48.5079C274.476 48.746 274.476 48.9365 274.476 49.0714C274.45 49.2056 274.407 49.3362 274.349 49.4603Z" fill="white" fill-opacity="0.2"/>
<path d="M261.095 21.8809H247.722V35.2539H261.095V21.8809Z" fill="white" fill-opacity="0.2"/>
<path d="M285.532 79.1111H230.714V136.254H285.532V79.1111Z" fill="white" fill-opacity="0.2"/>
<path d="M281.817 79.1111H227V136.254H281.817V79.1111Z" fill="white" fill-opacity="0.2"/>
<path d="M281.833 136.27H226.984V79.127H281.833V136.27ZM227.016 136.27H281.778V79.127H227.016V136.27Z" fill="white" fill-opacity="0.2"/>
<path d="M274.452 86.7936H234.373V128.571H274.452V86.7936Z" fill="white" fill-opacity="0.2"/>
<path d="M234.373 128.881C234.09 129.303 233.757 129.689 233.381 130.032C232.738 130.706 231.841 131.619 230.833 132.611C229.826 133.603 228.897 134.492 228.214 135.119C227.867 135.486 227.478 135.811 227.056 136.087C227.34 135.668 227.67 135.282 228.04 134.936C228.683 134.262 229.579 133.349 230.595 132.349C231.611 131.349 232.532 130.468 233.214 129.841C233.562 129.477 233.95 129.154 234.373 128.881Z" fill="white" fill-opacity="0.2"/>
<path d="M274.452 128.746C274.874 129.029 275.261 129.363 275.603 129.738C276.278 130.373 277.19 131.278 278.183 132.286C279.175 133.294 280.063 134.222 280.69 134.905C281.057 135.252 281.382 135.641 281.659 136.063C281.238 135.782 280.852 135.451 280.508 135.079C279.833 134.437 278.921 133.532 277.921 132.524C276.921 131.516 276.04 130.587 275.413 129.897C275.047 129.553 274.725 129.167 274.452 128.746Z" fill="white" fill-opacity="0.2"/>
<path d="M274.349 86.9047C274.633 86.4828 274.966 86.0964 275.341 85.7539C275.976 85.0793 276.881 84.1666 277.889 83.1666C278.897 82.1666 279.818 81.2936 280.508 80.6666C280.855 80.2999 281.244 79.9749 281.667 79.6984C281.383 80.1155 281.053 80.4989 280.683 80.8412C280.04 81.5238 279.095 82.4285 278.127 83.4285C277.159 84.4285 276.183 85.3174 275.5 85.9444C275.157 86.3097 274.77 86.6321 274.349 86.9047Z" fill="white" fill-opacity="0.2"/>
<path d="M234.262 87.0079C233.829 86.729 233.432 86.3985 233.079 86.0238C232.405 85.3809 231.492 84.4841 230.5 83.4761C229.508 82.4682 228.619 81.5396 227.992 80.8571C227.625 80.5098 227.301 80.121 227.024 79.6984C227.443 79.9788 227.827 80.3093 228.167 80.6825C228.849 81.3254 229.754 82.2222 230.762 83.2381C231.77 84.2539 232.643 85.1746 233.27 85.8571C233.645 86.1999 233.978 86.5862 234.262 87.0079Z" fill="white" fill-opacity="0.2"/>
<path d="M274.349 128.571C274.349 128.571 274.349 128.5 274.349 128.365C274.349 128.23 274.349 128.032 274.349 127.786C274.349 127.262 274.349 126.508 274.349 125.532C274.349 123.548 274.349 120.675 274.302 117.016C274.302 109.698 274.262 99.2698 274.23 86.7936L274.381 86.9444H234.413L234.587 86.7698C234.587 102.103 234.587 116.452 234.587 128.548L234.437 128.397L263.373 128.476H271.508H273.659H271.532H263.445L234.405 128.556H234.254V128.405C234.254 116.309 234.254 101.96 234.254 86.6269V86.4444H234.437H274.405H274.564V86.6031C274.564 99.1269 274.508 109.579 274.492 116.921C274.492 120.563 274.492 123.436 274.445 125.405C274.445 126.373 274.445 127.111 274.445 127.627C274.445 127.873 274.445 128.056 274.445 128.198C274.429 128.326 274.397 128.452 274.349 128.571Z" fill="white" fill-opacity="0.2"/>
<path d="M261.095 100.992H247.722V114.365H261.095V100.992Z" fill="white" fill-opacity="0.2"/>
<path d="M70.1905 187.579H26.9524V232.659H70.1905V187.579Z" fill="white" fill-opacity="0.2"/>
<path d="M67.262 187.579H24.0239V232.659H67.262V187.579Z" fill="white" fill-opacity="0.2"/>
<path d="M67.3017 232.69H24.0081V187.563H67.3017V232.69ZM24.0557 232.69H67.2461V187.587H24.0319L24.0557 232.69Z" fill="white" fill-opacity="0.2"/>
<path d="M61.4525 193.635H29.8335V226.595H61.4525V193.635Z" fill="white" fill-opacity="0.2"/>
<path d="M29.8336 226.81C29.6057 227.144 29.3393 227.45 29.0399 227.722C28.532 228.254 27.8256 228.976 27.032 229.754C26.2383 230.532 25.5002 231.238 24.9606 231.738C24.69 232.028 24.3832 232.281 24.0479 232.492C24.2782 232.165 24.5444 231.864 24.8415 231.595C25.3494 231.056 26.032 230.31 26.8256 229.516C27.6193 228.722 28.3574 228.032 28.8891 227.54C29.1749 227.261 29.4918 227.016 29.8336 226.81Z" fill="white" fill-opacity="0.2"/>
<path d="M61.4524 226.73C61.7818 226.961 62.0852 227.227 62.3572 227.524C62.8889 228.024 63.6111 228.738 64.3968 229.532C65.1826 230.325 65.873 231.056 66.373 231.595C66.6692 231.87 66.9352 232.176 67.1667 232.508C66.831 232.285 66.5267 232.018 66.2619 231.714C65.7302 231.214 65.008 230.5 64.2222 229.706C63.4365 228.913 62.7381 228.175 62.2381 227.635C61.9402 227.367 61.6763 227.063 61.4524 226.73Z" fill="white" fill-opacity="0.2"/>
<path d="M61.3652 193.722C61.5971 193.393 61.8631 193.09 62.1589 192.817C62.6668 192.286 63.3732 191.563 64.1668 190.778C64.9605 189.992 65.6986 189.302 66.2383 188.802C66.5114 188.503 66.8176 188.237 67.1509 188.008C66.9247 188.341 66.6582 188.645 66.3573 188.913C65.8494 189.444 65.143 190.167 64.3414 190.952C63.5398 191.738 62.8097 192.437 62.27 192.937C62.0027 193.235 61.6987 193.499 61.3652 193.722Z" fill="white" fill-opacity="0.2"/>
<path d="M29.7463 193.802C29.4148 193.573 29.1112 193.307 28.8415 193.008C28.3098 192.508 27.5875 191.794 26.8018 191C26.0161 190.206 25.3256 189.476 24.8256 188.936C24.5295 188.661 24.2635 188.355 24.032 188.024C24.3669 188.248 24.6711 188.515 24.9367 188.817C25.4685 189.325 26.1907 190.04 26.9764 190.833C27.7621 191.627 28.4606 192.365 28.9606 192.905C29.2602 193.168 29.5243 193.47 29.7463 193.802Z" fill="white" fill-opacity="0.2"/>
<path d="M61.3653 226.595C61.3619 226.542 61.3619 226.489 61.3653 226.436C61.3653 226.317 61.3653 226.167 61.3653 225.976C61.3653 225.563 61.3653 224.968 61.3653 224.198C61.3653 222.611 61.3653 220.365 61.3653 217.476C61.3653 211.706 61.3653 203.484 61.3018 193.667L61.4288 193.794L29.8415 193.802L29.9843 193.659C29.9843 205.754 29.9843 217.071 29.9843 226.619L29.8653 226.5L52.6986 226.556H59.1113H60.8018H59.1272H52.778L29.8732 226.619H29.7542V226.5C29.7542 216.976 29.7542 205.635 29.7542 193.54V193.405H29.9049H61.4288H61.5478V193.524C61.5478 203.405 61.5002 211.651 61.4843 217.444C61.4843 220.317 61.4843 222.579 61.4843 224.135C61.4843 224.929 61.4843 225.484 61.4843 225.889C61.4843 226.079 61.4843 226.23 61.4843 226.333C61.4843 226.436 61.3653 226.595 61.3653 226.595Z" fill="white" fill-opacity="0.2"/>
<path d="M50.9129 204.841H40.3652V215.389H50.9129V204.841Z" fill="white" fill-opacity="0.2"/>
<path d="M85.6269 44.4445H15.8174V157.825H85.6269V44.4445Z" fill="white" fill-opacity="0.2"/>
<path d="M83.3015 44.4445H13.4919V157.825H83.3015V44.4445Z" fill="white" fill-opacity="0.2"/>
<path d="M80.3331 46.7381H16.468V155.524H80.3331V46.7381Z" fill="white" fill-opacity="0.2"/>
<path d="M67.8968 60.881H28.627V141.397H67.8968V60.881Z" fill="white" fill-opacity="0.2"/>
<path d="M28.627 112.897C28.5317 105.381 35.4285 98.0397 43.0158 97.0238C46.6349 96.5238 50.4841 97.2302 53.865 95.873C59.8968 93.4444 61.8016 85.5556 67.8968 83.2381L68.1746 141.421H28.627V112.897Z" fill="white" fill-opacity="0.2"/>
<path d="M233.785 315.444H73.8486C71.7345 315.407 69.7217 314.531 68.2529 313.01C66.784 311.489 65.9791 309.447 66.0152 307.333V62.8889C65.99 61.8394 66.1732 60.7952 66.5542 59.817C66.9353 58.8388 67.5066 57.9459 68.2352 57.19C68.9638 56.4341 69.8351 55.8303 70.7986 55.4135C71.7622 54.9967 72.7988 54.7752 73.8486 54.7619H233.785C234.833 54.7753 235.867 54.996 236.829 55.4113C237.791 55.8266 238.662 56.4283 239.39 57.1816C240.118 57.9349 240.69 58.825 241.072 59.8005C241.455 60.776 241.641 61.8175 241.618 62.8651V307.309C241.639 308.358 241.453 309.401 241.071 310.378C240.688 311.355 240.117 312.246 239.389 313.002C238.662 313.758 237.792 314.362 236.83 314.781C235.869 315.201 234.834 315.426 233.785 315.444Z" fill="#263238"/>
<path d="M156.88 303.587C156.907 305.067 156.493 306.521 155.691 307.764C154.888 309.007 153.734 309.983 152.375 310.568C151.015 311.153 149.513 311.32 148.059 311.048C146.604 310.775 145.264 310.076 144.208 309.04C143.152 308.003 142.429 306.676 142.13 305.226C141.832 303.777 141.971 302.272 142.531 300.902C143.091 299.533 144.046 298.361 145.274 297.536C146.502 296.711 147.948 296.27 149.428 296.27C150.398 296.26 151.36 296.442 152.26 296.805C153.159 297.168 153.979 297.704 154.671 298.384C155.363 299.064 155.914 299.873 156.294 300.766C156.673 301.659 156.872 302.617 156.88 303.587Z" fill="white" fill-opacity="0.2"/>
<path d="M171.809 68.5317H135.944C135.27 68.5192 134.628 68.2398 134.159 67.7548C133.69 67.2698 133.433 66.6188 133.444 65.9444C133.433 65.2701 133.69 64.619 134.159 64.134C134.628 63.649 135.27 63.3696 135.944 63.3571H171.809C172.483 63.3696 173.125 63.649 173.594 64.134C174.062 64.619 174.32 65.2701 174.309 65.9444C174.32 66.6188 174.062 67.2698 173.594 67.7548C173.125 68.2398 172.483 68.5192 171.809 68.5317Z" fill="white" fill-opacity="0.2"/>
<path d="M231.079 73.3571H76.5469C73.7855 73.3571 71.5469 75.5957 71.5469 78.3571V286.063C71.5469 288.825 73.7854 291.063 76.5469 291.063H231.079C233.84 291.063 236.079 288.825 236.079 286.063V78.3571C236.079 75.5957 233.84 73.3571 231.079 73.3571Z" fill="#0F172A"/>
<path d="M126.81 106.149L127.701 104.206C128.624 104.782 129.688 105.09 130.775 105.097C131.871 105.097 132.298 104.794 132.298 104.34C132.298 102.861 126.953 103.939 126.953 100.473C126.953 98.7984 128.316 97.4442 131.087 97.4442C132.269 97.4236 133.436 97.7025 134.481 98.2549L133.662 100.215C132.873 99.7647 131.985 99.5168 131.078 99.4933C129.973 99.4933 129.572 99.8675 129.572 100.384C129.572 101.81 134.864 100.741 134.864 104.18C134.864 105.81 133.501 107.2 130.73 107.2C129.351 107.224 127.993 106.859 126.81 106.149Z" fill="#2666FA"/>
<path d="M135.702 97.6134C135.708 97.4217 135.754 97.2332 135.836 97.0599C135.918 96.8865 136.036 96.7319 136.18 96.6057C136.325 96.4796 136.494 96.3845 136.677 96.3264C136.859 96.2683 137.052 96.2485 137.243 96.2682C137.433 96.2432 137.625 96.2581 137.808 96.3119C137.992 96.3656 138.162 96.4571 138.308 96.5804C138.454 96.7036 138.572 96.8561 138.656 97.0278C138.74 97.1996 138.786 97.3869 138.793 97.5778C138.744 97.9528 138.56 98.297 138.276 98.5464C137.991 98.7957 137.626 98.9332 137.248 98.9332C136.869 98.9332 136.504 98.7957 136.22 98.5464C135.935 98.297 135.751 97.9528 135.702 97.5778V97.6134ZM135.978 99.7606H138.508V106.995H136.023L135.978 99.7606Z" fill="#2666FA"/>
<path d="M147.925 99.7606V105.667C147.925 108.403 146.384 109.694 143.685 109.694C142.429 109.743 141.188 109.414 140.121 108.75L141.012 106.968C141.724 107.476 142.578 107.747 143.453 107.743C144.816 107.743 145.386 107.129 145.386 105.961V105.801C145.116 106.099 144.784 106.334 144.413 106.488C144.041 106.642 143.641 106.712 143.239 106.692C142.766 106.716 142.293 106.643 141.849 106.479C141.405 106.314 141 106.061 140.656 105.735C140.313 105.409 140.04 105.016 139.853 104.581C139.667 104.146 139.57 103.677 139.57 103.204C139.57 102.731 139.667 102.262 139.853 101.827C140.04 101.392 140.313 100.999 140.656 100.673C141 100.347 141.405 100.094 141.849 99.9291C142.293 99.7646 142.766 99.6921 143.239 99.716C143.669 99.6831 144.101 99.7569 144.496 99.931C144.891 100.105 145.236 100.374 145.502 100.714V99.8229L147.925 99.7606ZM145.422 103.128C145.392 102.729 145.212 102.357 144.919 102.084C144.626 101.812 144.24 101.661 143.84 101.661C143.44 101.661 143.055 101.812 142.762 102.084C142.469 102.357 142.289 102.729 142.259 103.128C142.289 103.527 142.469 103.9 142.762 104.172C143.055 104.444 143.44 104.595 143.84 104.595C144.24 104.595 144.626 104.444 144.919 104.172C145.212 103.9 145.392 103.527 145.422 103.128Z" fill="#2666FA"/>
<path d="M157.253 102.861V106.995H154.732V103.271C154.732 102.228 154.286 101.792 153.547 101.792C152.807 101.792 152.112 102.3 152.112 103.494V106.995H149.573V99.7606H151.988V100.553C152.289 100.255 152.649 100.022 153.044 99.869C153.44 99.7157 153.862 99.6454 154.286 99.6625C155.961 99.6447 157.253 100.616 157.253 102.861Z" fill="#2666FA"/>
<path d="M170.323 99.7606V106.995H167.909V106.22C167.633 106.511 167.3 106.741 166.93 106.894C166.56 107.048 166.162 107.121 165.762 107.111C163.98 107.111 162.697 106.095 162.697 103.805V99.7606H165.227V103.387C165.227 104.509 165.672 104.955 166.43 104.955C167.187 104.955 167.793 104.456 167.793 103.244V99.7606H170.323Z" fill="#2666FA"/>
<path d="M180.052 103.378C180.084 103.862 180.015 104.348 179.85 104.804C179.684 105.26 179.426 105.677 179.091 106.028C178.756 106.379 178.351 106.656 177.903 106.843C177.455 107.029 176.973 107.12 176.488 107.111C176.117 107.132 175.745 107.076 175.397 106.945C175.049 106.815 174.732 106.613 174.466 106.353V109.579H171.936V99.7783H174.332V100.455C174.602 100.163 174.934 99.935 175.305 99.7899C175.675 99.6448 176.074 99.586 176.47 99.618C176.959 99.6054 177.446 99.6955 177.898 99.8824C178.35 100.069 178.758 100.349 179.095 100.703C179.433 101.057 179.692 101.478 179.857 101.939C180.022 102.4 180.088 102.89 180.052 103.378ZM177.486 103.378C177.45 103.085 177.33 102.808 177.14 102.582C176.951 102.355 176.7 102.188 176.418 102.101C176.136 102.014 175.834 102.01 175.55 102.09C175.266 102.17 175.01 102.33 174.815 102.552C174.62 102.774 174.493 103.047 174.449 103.339C174.406 103.631 174.448 103.93 174.57 104.199C174.692 104.468 174.889 104.695 175.138 104.855C175.387 105.014 175.676 105.098 175.971 105.097C176.188 105.096 176.402 105.05 176.599 104.96C176.796 104.87 176.972 104.74 177.115 104.578C177.258 104.415 177.365 104.224 177.429 104.017C177.493 103.811 177.512 103.593 177.486 103.378Z" fill="#2666FA"/>
<path d="M94.5499 159.159V160.148H96.3317V160.842H94.5499V162.206H93.6589V158.464H96.4832V159.159H94.5499Z" fill="white" fill-opacity="0.4"/>
<path d="M99.8686 159.328V162.206H99.0757V161.858C98.963 161.982 98.8252 162.08 98.6715 162.146C98.5179 162.212 98.352 162.244 98.1848 162.241C98.0141 162.256 97.8422 162.233 97.6819 162.172C97.5216 162.111 97.377 162.016 97.2589 161.891C97.1408 161.767 97.0521 161.618 96.9996 161.455C96.947 161.292 96.9319 161.119 96.9553 160.949V159.328H97.7838V160.825C97.7838 161.306 97.9977 161.52 98.3719 161.52C98.746 161.52 99.0311 161.279 99.0311 160.744V159.328H99.8686Z" fill="white" fill-opacity="0.4"/>
<path d="M100.644 158.241H101.472V162.206H100.644V158.241Z" fill="white" fill-opacity="0.4"/>
<path d="M102.247 158.241H103.058V162.206H102.221L102.247 158.241Z" fill="white" fill-opacity="0.4"/>
<path d="M108.858 158.464V162.206H108.146L106.284 159.934V162.206H105.393V158.464H106.114L107.967 160.736V158.464H108.858Z" fill="white" fill-opacity="0.4"/>
<path d="M112.235 160.557V162.206H111.451V161.84C111.358 161.987 111.224 162.103 111.065 162.174C110.907 162.245 110.731 162.268 110.56 162.241C109.883 162.241 109.482 161.867 109.482 161.35C109.482 160.834 109.847 160.459 110.72 160.459H111.38C111.38 160.103 111.166 159.889 110.72 159.889C110.423 159.889 110.133 159.983 109.892 160.156L109.589 159.577C109.962 159.342 110.395 159.221 110.836 159.23C111.727 159.257 112.235 159.693 112.235 160.557ZM111.397 161.297V161.038H110.827C110.435 161.038 110.319 161.181 110.319 161.368C110.319 161.555 110.489 161.716 110.783 161.716C110.917 161.724 111.051 161.687 111.162 161.612C111.273 161.536 111.356 161.425 111.397 161.297Z" fill="white" fill-opacity="0.4"/>
<path d="M117.847 160.557V162.206H117.01V160.682C117.01 160.219 116.805 160.005 116.467 160.005C116.128 160.005 115.834 160.246 115.834 160.762V162.206H114.997V160.682C114.997 160.219 114.801 160.005 114.453 160.005C114.106 160.005 113.821 160.246 113.821 160.762V162.206H112.992V159.328H113.749V159.658C113.862 159.534 114 159.437 114.153 159.372C114.307 159.308 114.473 159.277 114.64 159.283C114.825 159.272 115.01 159.309 115.176 159.392C115.342 159.475 115.483 159.601 115.585 159.756C115.711 159.603 115.87 159.48 116.051 159.399C116.232 159.317 116.429 159.277 116.627 159.283C116.796 159.265 116.968 159.286 117.128 159.344C117.288 159.403 117.433 159.497 117.551 159.62C117.668 159.743 117.757 159.892 117.808 160.054C117.86 160.217 117.873 160.389 117.847 160.557Z" fill="white" fill-opacity="0.4"/>
<path d="M121.429 161.038H119.255C119.299 161.217 119.407 161.373 119.558 161.478C119.709 161.583 119.892 161.629 120.075 161.609C120.208 161.614 120.34 161.593 120.464 161.545C120.588 161.498 120.702 161.425 120.796 161.332L121.242 161.814C121.09 161.973 120.906 162.096 120.701 162.176C120.496 162.257 120.276 162.291 120.057 162.277C119.85 162.298 119.641 162.276 119.443 162.211C119.245 162.146 119.063 162.041 118.909 161.901C118.754 161.762 118.631 161.592 118.546 161.402C118.462 161.212 118.418 161.006 118.418 160.798C118.406 160.59 118.438 160.382 118.513 160.188C118.588 159.994 118.704 159.818 118.852 159.672C119.001 159.526 119.179 159.413 119.374 159.342C119.57 159.27 119.778 159.241 119.986 159.257C120.184 159.246 120.383 159.278 120.568 159.349C120.754 159.42 120.922 159.529 121.063 159.669C121.204 159.809 121.314 159.977 121.387 160.163C121.459 160.348 121.491 160.546 121.482 160.744C121.447 160.842 121.429 160.932 121.429 161.038ZM119.246 160.548H120.663C120.641 160.378 120.555 160.221 120.423 160.111C120.291 160 120.122 159.943 119.95 159.952C119.784 159.943 119.621 159.995 119.491 160.098C119.362 160.202 119.274 160.349 119.246 160.513V160.548Z" fill="white" fill-opacity="0.4"/>
<path d="M96.5811 186.243V186.938H93.6855V183.196H96.5098V183.891H94.5497V184.701H96.3316V185.379H94.5497V186.27L96.5811 186.243Z" fill="white" fill-opacity="0.4"/>
<path d="M102.069 185.289V186.938H101.276V185.423C101.276 184.96 101.062 184.746 100.724 184.746C100.385 184.746 100.091 184.987 100.091 185.494V186.938H99.2628V185.423C99.2628 184.96 99.0578 184.746 98.7104 184.746C98.3629 184.746 98.0867 184.987 98.0867 185.494V186.938H97.2493V184.06H98.0422V184.399C98.155 184.276 98.293 184.179 98.4468 184.114C98.6005 184.049 98.7664 184.019 98.9331 184.024C99.117 184.014 99.3003 184.052 99.4657 184.133C99.631 184.214 99.7728 184.336 99.8775 184.488C100.003 184.337 100.162 184.217 100.341 184.137C100.52 184.056 100.715 184.018 100.911 184.024C101.075 184.015 101.239 184.042 101.391 184.103C101.544 184.165 101.68 184.26 101.791 184.381C101.902 184.502 101.985 184.647 102.033 184.804C102.081 184.961 102.093 185.127 102.069 185.289Z" fill="white" fill-opacity="0.4"/>
<path d="M105.366 185.298V186.938H104.582V186.581C104.484 186.723 104.349 186.835 104.192 186.906C104.035 186.977 103.862 187.003 103.691 186.982C103.014 186.982 102.613 186.608 102.613 186.091C102.613 185.575 102.978 185.2 103.851 185.2H104.51C104.51 184.835 104.297 184.63 103.851 184.63C103.553 184.626 103.262 184.72 103.023 184.897L102.72 184.318C103.091 184.079 103.526 183.958 103.967 183.971C104.84 184.024 105.366 184.425 105.366 185.298ZM104.528 186.029V185.735H103.949C103.557 185.735 103.441 185.877 103.441 186.074C103.441 186.27 103.611 186.421 103.905 186.421C104.037 186.433 104.17 186.401 104.283 186.331C104.396 186.26 104.482 186.154 104.528 186.029Z" fill="white" fill-opacity="0.4"/>
<path d="M106.016 183.196C106.003 183.09 106.023 182.982 106.073 182.888C106.123 182.793 106.201 182.716 106.296 182.667C106.39 182.618 106.498 182.599 106.604 182.612C106.71 182.625 106.809 182.671 106.889 182.742C106.969 182.813 107.024 182.907 107.049 183.011C107.074 183.115 107.067 183.224 107.028 183.324C106.989 183.423 106.921 183.509 106.833 183.569C106.744 183.629 106.64 183.66 106.533 183.659C106.468 183.665 106.403 183.658 106.341 183.637C106.279 183.617 106.222 183.584 106.173 183.541C106.125 183.497 106.086 183.444 106.059 183.385C106.032 183.325 106.017 183.261 106.016 183.196ZM106.123 184.087H106.952V186.964H106.123V184.087Z" fill="white" fill-opacity="0.4"/>
<path d="M107.727 182.973H108.564V186.938H107.727V182.973Z" fill="white" fill-opacity="0.4"/>
<path d="M113.375 186.136H111.593L111.264 186.938H110.373L112.039 183.196H112.93L114.605 186.938H113.714L113.375 186.136ZM113.099 185.477L112.511 184.051L111.914 185.477H113.099Z" fill="white" fill-opacity="0.4"/>
<path d="M117.847 182.973V186.938H117.054V186.608C116.943 186.733 116.805 186.831 116.651 186.896C116.497 186.961 116.331 186.99 116.164 186.982C115.771 186.982 115.395 186.826 115.118 186.549C114.84 186.272 114.685 185.896 114.685 185.503C114.685 185.111 114.84 184.735 115.118 184.457C115.395 184.18 115.771 184.024 116.164 184.024C116.329 184.01 116.495 184.034 116.65 184.094C116.804 184.154 116.943 184.249 117.054 184.372V182.973H117.847ZM117.028 185.503C117.017 185.359 116.965 185.222 116.877 185.107C116.79 184.993 116.67 184.906 116.534 184.859C116.398 184.811 116.251 184.804 116.111 184.839C115.971 184.874 115.844 184.95 115.746 185.056C115.649 185.162 115.584 185.294 115.561 185.437C115.537 185.579 115.556 185.725 115.614 185.857C115.673 185.989 115.769 186.101 115.89 186.179C116.011 186.257 116.153 186.298 116.297 186.296C116.399 186.298 116.5 186.278 116.594 186.238C116.687 186.198 116.771 186.139 116.84 186.064C116.909 185.989 116.962 185.9 116.994 185.803C117.026 185.707 117.038 185.605 117.028 185.503Z" fill="white" fill-opacity="0.4"/>
<path d="M121.545 182.973V186.938H120.752V186.608C120.641 186.733 120.503 186.831 120.349 186.896C120.195 186.961 120.028 186.99 119.861 186.982C119.469 186.982 119.093 186.826 118.815 186.549C118.538 186.272 118.382 185.896 118.382 185.503C118.382 185.111 118.538 184.735 118.815 184.457C119.093 184.18 119.469 184.024 119.861 184.024C120.026 184.011 120.192 184.036 120.346 184.096C120.501 184.156 120.639 184.25 120.752 184.372V182.973H121.545ZM120.725 185.503C120.715 185.359 120.662 185.222 120.575 185.107C120.487 184.993 120.368 184.906 120.232 184.859C120.095 184.811 119.948 184.804 119.808 184.839C119.668 184.874 119.542 184.95 119.444 185.056C119.346 185.162 119.282 185.294 119.258 185.437C119.235 185.579 119.253 185.725 119.312 185.857C119.37 185.989 119.466 186.101 119.588 186.179C119.709 186.257 119.85 186.298 119.995 186.296C120.096 186.298 120.198 186.278 120.291 186.238C120.385 186.198 120.469 186.139 120.538 186.064C120.607 185.989 120.659 185.9 120.692 185.803C120.724 185.707 120.735 185.605 120.725 185.503Z" fill="white" fill-opacity="0.4"/>
<path d="M124.102 184.024V184.79H123.915C123.808 184.78 123.701 184.794 123.601 184.831C123.501 184.868 123.41 184.927 123.336 185.005C123.262 185.082 123.207 185.175 123.175 185.277C123.142 185.379 123.133 185.487 123.149 185.592V186.947H122.32V184.069H123.113V184.452C123.231 184.306 123.383 184.192 123.555 184.117C123.727 184.043 123.915 184.011 124.102 184.024Z" fill="white" fill-opacity="0.4"/>
<path d="M127.371 185.735H125.197C125.242 185.914 125.349 186.071 125.499 186.177C125.65 186.284 125.834 186.332 126.017 186.314C126.15 186.32 126.283 186.299 126.407 186.252C126.531 186.204 126.644 186.131 126.739 186.038L127.184 186.519C127.033 186.678 126.848 186.802 126.643 186.882C126.438 186.962 126.219 186.996 125.999 186.982C125.792 187.003 125.583 186.981 125.385 186.916C125.188 186.852 125.006 186.746 124.851 186.607C124.697 186.467 124.573 186.297 124.489 186.107C124.404 185.917 124.36 185.711 124.36 185.503C124.357 185.304 124.396 185.106 124.472 184.922C124.549 184.737 124.663 184.571 124.806 184.432C124.95 184.294 125.12 184.186 125.307 184.116C125.494 184.046 125.693 184.015 125.892 184.024C126.091 184.013 126.29 184.043 126.476 184.114C126.663 184.184 126.832 184.293 126.973 184.434C127.114 184.574 127.224 184.743 127.296 184.929C127.368 185.114 127.399 185.313 127.389 185.512C127.387 185.587 127.381 185.661 127.371 185.735ZM125.189 185.254H126.605C126.585 185.083 126.502 184.926 126.371 184.814C126.241 184.702 126.073 184.642 125.901 184.648C125.727 184.638 125.556 184.695 125.423 184.808C125.291 184.921 125.207 185.081 125.189 185.254Z" fill="white" fill-opacity="0.4"/>
<path d="M127.666 186.67L127.942 186.073C128.248 186.251 128.595 186.346 128.948 186.35C129.332 186.35 129.474 186.252 129.474 186.091C129.474 185.619 127.692 186.091 127.692 184.951C127.692 184.407 128.182 184.06 129.02 184.06C129.406 184.052 129.788 184.137 130.133 184.309L129.848 184.897C129.596 184.753 129.31 184.679 129.02 184.684C128.646 184.684 128.485 184.808 128.485 184.951C128.485 185.45 130.222 184.951 130.222 186.1C130.222 186.635 129.724 186.991 128.868 186.991C128.446 186.99 128.032 186.879 127.666 186.67Z" fill="white" fill-opacity="0.4"/>
<path d="M130.508 186.67L130.784 186.073C131.087 186.25 131.431 186.345 131.782 186.35C132.165 186.35 132.316 186.252 132.316 186.091C132.316 185.619 130.534 186.091 130.534 184.951C130.534 184.407 131.024 184.06 131.862 184.06C132.245 184.052 132.624 184.138 132.967 184.309L132.69 184.897C132.437 184.755 132.152 184.682 131.862 184.684C131.488 184.684 131.327 184.808 131.327 184.951C131.327 185.45 133.065 184.951 133.065 186.1C133.065 186.635 132.566 186.991 131.71 186.991C131.288 186.99 130.874 186.879 130.508 186.67Z" fill="white" fill-opacity="0.4"/>
<path d="M97.4987 208.427C97.4987 209.264 96.8661 209.781 95.8683 209.781H95.1199V210.814H94.229V207.073H95.8416C96.8661 207.073 97.4987 207.589 97.4987 208.427ZM96.6078 208.427C96.6078 208.017 96.3405 207.776 95.8149 207.776H95.111V209.077H95.8149C96.3494 209.077 96.6167 208.837 96.6167 208.427H96.6078Z" fill="white" fill-opacity="0.4"/>
<path d="M100.573 209.148V210.788H99.7885V210.431C99.6907 210.573 99.556 210.685 99.3989 210.756C99.2419 210.827 99.0685 210.853 98.8976 210.832C98.2205 210.832 97.8196 210.458 97.8196 209.941C97.8196 209.425 98.1759 209.05 99.058 209.05H99.7173C99.7173 208.694 99.5034 208.489 99.058 208.489C98.7597 208.483 98.468 208.577 98.2294 208.756L97.9265 208.168C98.2966 207.934 98.727 207.814 99.1649 207.821C100.065 207.892 100.573 208.302 100.573 209.148ZM99.7351 209.879V209.585H99.1649C98.7729 209.585 98.6481 209.728 98.6481 209.924C98.6481 210.12 98.8263 210.271 99.1203 210.271C99.2479 210.28 99.3753 210.251 99.4853 210.185C99.5952 210.12 99.6824 210.022 99.7351 209.906V209.879Z" fill="white" fill-opacity="0.4"/>
<path d="M101.045 210.547L101.321 209.95C101.624 210.127 101.968 210.222 102.319 210.226C102.711 210.226 102.853 210.128 102.853 209.968C102.853 209.496 101.071 209.968 101.071 208.828C101.071 208.284 101.561 207.937 102.399 207.937C102.783 207.93 103.162 208.019 103.504 208.195L103.227 208.783C102.975 208.64 102.689 208.566 102.399 208.569C102.025 208.569 101.864 208.685 101.864 208.837C101.864 209.327 103.602 208.837 103.602 209.986C103.602 210.52 103.103 210.877 102.247 210.877C101.825 210.872 101.41 210.759 101.045 210.547Z" fill="white" fill-opacity="0.4"/>
<path d="M103.887 210.547L104.163 209.95C104.466 210.128 104.81 210.223 105.161 210.226C105.544 210.226 105.686 210.128 105.686 209.968C105.686 209.496 103.958 209.968 103.958 208.828C103.958 208.284 104.448 207.937 105.285 207.937C105.669 207.933 106.048 208.021 106.39 208.195L106.114 208.783C105.861 208.641 105.576 208.567 105.285 208.569C104.911 208.569 104.751 208.685 104.751 208.837C104.751 209.327 106.488 208.837 106.488 209.986C106.488 210.52 105.989 210.877 105.125 210.877C104.69 210.88 104.263 210.766 103.887 210.547Z" fill="white" fill-opacity="0.4"/>
<path d="M111.567 207.937L110.524 210.814H109.722L109.072 209.033L108.404 210.814H107.602L106.569 207.937H107.353L108.03 209.888L108.734 207.937H109.446L110.123 209.888L110.827 207.937H111.567Z" fill="white" fill-opacity="0.4"/>
<path d="M111.664 209.38C111.645 209.065 111.72 208.751 111.881 208.479C112.042 208.207 112.281 207.99 112.567 207.855C112.853 207.721 113.172 207.675 113.485 207.724C113.797 207.774 114.087 207.916 114.317 208.132C114.548 208.348 114.708 208.628 114.777 208.937C114.846 209.245 114.821 209.567 114.705 209.861C114.589 210.155 114.388 210.407 114.127 210.585C113.866 210.763 113.557 210.858 113.241 210.859C113.039 210.872 112.836 210.844 112.645 210.776C112.454 210.708 112.28 210.601 112.132 210.462C111.984 210.323 111.866 210.156 111.786 209.97C111.705 209.783 111.664 209.583 111.664 209.38ZM113.972 209.38C113.961 209.236 113.909 209.098 113.821 208.984C113.734 208.869 113.614 208.783 113.478 208.735C113.342 208.688 113.195 208.681 113.055 208.716C112.915 208.751 112.788 208.826 112.691 208.933C112.593 209.039 112.528 209.171 112.505 209.313C112.481 209.456 112.5 209.602 112.559 209.734C112.617 209.866 112.713 209.977 112.834 210.055C112.956 210.133 113.097 210.174 113.241 210.173C113.343 210.173 113.443 210.153 113.536 210.112C113.629 210.072 113.713 210.012 113.781 209.937C113.85 209.863 113.902 209.775 113.935 209.679C113.968 209.583 113.981 209.481 113.972 209.38Z" fill="white" fill-opacity="0.4"/>
<path d="M117.161 207.892V208.667H116.974C116.868 208.657 116.761 208.671 116.66 208.708C116.56 208.745 116.47 208.804 116.396 208.881C116.322 208.959 116.267 209.052 116.234 209.154C116.202 209.255 116.193 209.363 116.208 209.469V210.823H115.38V207.946H116.173V208.329C116.29 208.182 116.441 208.065 116.613 207.989C116.786 207.913 116.974 207.88 117.161 207.892Z" fill="white" fill-opacity="0.4"/>
<path d="M120.565 206.85V210.814H119.763V210.485C119.653 210.611 119.515 210.71 119.361 210.775C119.206 210.839 119.039 210.868 118.872 210.859C118.498 210.83 118.15 210.661 117.895 210.386C117.641 210.111 117.499 209.75 117.499 209.376C117.499 209.001 117.641 208.64 117.895 208.365C118.15 208.09 118.498 207.921 118.872 207.892C119.037 207.88 119.203 207.905 119.357 207.965C119.511 208.026 119.65 208.119 119.763 208.24V206.85H120.565ZM119.745 209.38C119.735 209.236 119.682 209.098 119.595 208.984C119.507 208.869 119.388 208.783 119.251 208.735C119.115 208.688 118.968 208.681 118.828 208.716C118.688 208.751 118.562 208.826 118.464 208.933C118.366 209.039 118.301 209.171 118.278 209.313C118.255 209.456 118.273 209.602 118.332 209.734C118.39 209.866 118.486 209.977 118.608 210.055C118.729 210.134 118.87 210.174 119.015 210.173C119.116 210.173 119.216 210.153 119.309 210.112C119.402 210.072 119.486 210.012 119.555 209.937C119.623 209.863 119.676 209.775 119.709 209.679C119.741 209.583 119.754 209.481 119.745 209.38Z" fill="white" fill-opacity="0.4"/>
<path d="M192.569 254.452H121.376C119.024 254.452 117.117 256.359 117.117 258.711V266.506C117.117 268.858 119.024 270.765 121.376 270.765H192.569C194.921 270.765 196.828 268.858 196.828 266.506V258.711C196.828 256.359 194.921 254.452 192.569 254.452Z" fill="#2666FA"/>
<path d="M131.407 262.239C131.404 261.929 131.465 261.622 131.586 261.336C131.707 261.051 131.886 260.794 132.111 260.581C132.335 260.367 132.602 260.203 132.893 260.097C133.185 259.992 133.495 259.947 133.804 259.967C134.16 259.949 134.516 260.015 134.842 260.158C135.168 260.302 135.457 260.52 135.684 260.795L134.9 261.499C134.778 261.341 134.622 261.213 134.442 261.125C134.263 261.037 134.066 260.991 133.866 260.991C133.535 260.991 133.218 261.123 132.984 261.357C132.75 261.591 132.619 261.908 132.619 262.239C132.619 262.57 132.75 262.887 132.984 263.121C133.218 263.355 133.535 263.486 133.866 263.486C134.066 263.486 134.263 263.441 134.442 263.353C134.622 263.265 134.778 263.136 134.9 262.978L135.684 263.691C135.455 263.963 135.166 264.179 134.84 264.321C134.514 264.463 134.159 264.528 133.804 264.511C133.495 264.53 133.185 264.486 132.893 264.38C132.602 264.275 132.335 264.11 132.111 263.897C131.886 263.684 131.707 263.426 131.586 263.141C131.465 262.856 131.404 262.549 131.407 262.239Z" fill="white"/>
<path d="M138.437 260.982V262.052H138.17C138.058 262.04 137.945 262.053 137.839 262.092C137.734 262.13 137.638 262.192 137.56 262.272C137.482 262.353 137.423 262.451 137.388 262.558C137.353 262.664 137.343 262.778 137.359 262.889V264.386H136.174V261.009H137.305V261.41C137.449 261.258 137.626 261.14 137.822 261.066C138.018 260.992 138.228 260.963 138.437 260.982Z" fill="white"/>
<path d="M142.33 263.032H139.871C139.927 263.205 140.041 263.353 140.194 263.452C140.346 263.551 140.528 263.594 140.709 263.575C140.996 263.583 141.274 263.478 141.484 263.281L142.107 263.931C141.921 264.122 141.695 264.27 141.446 264.365C141.197 264.461 140.93 264.501 140.664 264.484C140.414 264.512 140.161 264.486 139.922 264.409C139.683 264.332 139.462 264.205 139.275 264.037C139.089 263.868 138.94 263.662 138.838 263.432C138.736 263.202 138.685 262.953 138.686 262.702C138.686 262.462 138.734 262.224 138.828 262.003C138.922 261.782 139.06 261.583 139.233 261.416C139.406 261.25 139.611 261.12 139.836 261.035C140.06 260.95 140.3 260.911 140.539 260.92C140.777 260.907 141.014 260.945 141.236 261.03C141.458 261.115 141.66 261.245 141.828 261.413C141.996 261.582 142.127 261.783 142.212 262.005C142.297 262.227 142.334 262.465 142.321 262.702C142.348 262.827 142.339 262.943 142.33 263.032ZM139.853 262.408H141.243C141.217 262.243 141.132 262.092 141.005 261.984C140.878 261.875 140.716 261.816 140.548 261.816C140.381 261.816 140.219 261.875 140.092 261.984C139.964 262.092 139.88 262.243 139.853 262.408Z" fill="white"/>
<path d="M145.974 262.542V264.386H144.869V263.949C144.769 264.12 144.621 264.258 144.444 264.346C144.267 264.435 144.068 264.47 143.871 264.448C143.061 264.448 142.615 263.985 142.615 263.406C142.615 262.827 143.07 262.39 144.112 262.39H144.789C144.789 262.052 144.54 261.856 144.076 261.856C143.756 261.856 143.444 261.959 143.185 262.15L142.785 261.339C143.236 261.076 143.75 260.941 144.272 260.947C145.341 260.983 145.974 261.473 145.974 262.542ZM144.789 263.335V263.041H144.281C143.898 263.041 143.765 263.183 143.765 263.388C143.765 263.593 143.925 263.727 144.201 263.727C144.329 263.735 144.455 263.702 144.562 263.631C144.668 263.56 144.748 263.456 144.789 263.335Z" fill="white"/>
<path d="M149.057 264.288C148.804 264.427 148.517 264.495 148.228 264.484C148.049 264.512 147.865 264.498 147.691 264.445C147.518 264.391 147.359 264.298 147.226 264.173C147.094 264.049 146.992 263.896 146.928 263.726C146.864 263.555 146.839 263.373 146.856 263.192V262.052H146.366V261.161H146.856V260.27H148.041V261.161H148.816V262.052H148.041V263.174C148.036 263.224 148.042 263.274 148.057 263.322C148.073 263.369 148.098 263.413 148.132 263.45C148.166 263.487 148.207 263.516 148.252 263.536C148.298 263.556 148.348 263.566 148.398 263.566C148.527 263.565 148.653 263.528 148.763 263.459L149.057 264.288Z" fill="white"/>
<path d="M152.852 263.032H150.393C150.446 263.205 150.558 263.354 150.709 263.453C150.861 263.552 151.042 263.596 151.222 263.575C151.509 263.583 151.787 263.478 151.997 263.281L152.62 263.931C152.435 264.122 152.211 264.27 151.964 264.365C151.716 264.46 151.451 264.501 151.186 264.484C150.935 264.513 150.681 264.488 150.441 264.412C150.201 264.335 149.979 264.209 149.791 264.04C149.604 263.872 149.454 263.665 149.352 263.435C149.25 263.204 149.198 262.954 149.199 262.702C149.199 262.461 149.248 262.223 149.342 262.001C149.437 261.78 149.575 261.579 149.749 261.413C149.923 261.246 150.129 261.117 150.355 261.032C150.58 260.947 150.821 260.909 151.061 260.92C151.299 260.907 151.536 260.945 151.758 261.03C151.98 261.115 152.182 261.245 152.35 261.413C152.518 261.582 152.649 261.783 152.734 262.005C152.819 262.227 152.856 262.465 152.843 262.702C152.87 262.827 152.852 262.943 152.852 263.032ZM150.366 262.408H151.756C151.734 262.242 151.65 262.09 151.522 261.983C151.393 261.876 151.229 261.821 151.061 261.829C150.894 261.823 150.731 261.878 150.603 261.985C150.475 262.092 150.39 262.243 150.366 262.408Z" fill="white"/>
<path d="M158.206 263.575H156.362L156.024 264.466H154.732L156.665 260.1H157.877L159.81 264.466H158.527L158.206 263.575ZM157.85 262.684L157.289 261.285L156.727 262.684H157.85Z" fill="white"/>
<path d="M159.89 262.729C159.889 262.481 159.94 262.237 160.039 262.01C160.138 261.783 160.283 261.58 160.465 261.412C160.646 261.244 160.861 261.117 161.095 261.036C161.329 260.956 161.577 260.926 161.824 260.947C162.152 260.92 162.481 260.995 162.765 261.163C163.049 261.33 163.274 261.582 163.41 261.882L162.519 262.346C162.449 262.235 162.353 262.144 162.238 262.081C162.123 262.019 161.994 261.988 161.863 261.99C161.732 261.992 161.605 262.028 161.492 262.095C161.379 262.161 161.286 262.255 161.221 262.369C161.155 262.482 161.12 262.61 161.119 262.741C161.118 262.871 161.151 263 161.214 263.114C161.278 263.229 161.37 263.325 161.481 263.393C161.593 263.461 161.72 263.499 161.85 263.504C161.994 263.501 162.133 263.457 162.252 263.376C162.371 263.295 162.463 263.182 162.519 263.049L163.41 263.513C163.274 263.813 163.049 264.065 162.765 264.232C162.481 264.4 162.152 264.475 161.824 264.448C161.582 264.469 161.34 264.44 161.11 264.364C160.88 264.288 160.668 264.165 160.487 264.004C160.306 263.843 160.16 263.647 160.057 263.428C159.955 263.209 159.898 262.971 159.89 262.729Z" fill="white"/>
<path d="M163.641 262.729C163.64 262.481 163.691 262.237 163.79 262.01C163.889 261.783 164.034 261.58 164.215 261.412C164.397 261.244 164.612 261.117 164.846 261.036C165.08 260.956 165.328 260.926 165.574 260.947C165.903 260.92 166.232 260.995 166.516 261.163C166.8 261.33 167.025 261.582 167.16 261.882L166.269 262.346C166.2 262.235 166.103 262.144 165.988 262.081C165.874 262.019 165.745 261.988 165.614 261.99C165.483 261.992 165.355 262.028 165.243 262.095C165.13 262.161 165.037 262.255 164.971 262.369C164.906 262.482 164.871 262.61 164.87 262.741C164.869 262.871 164.902 263 164.965 263.114C165.028 263.229 165.12 263.325 165.232 263.393C165.343 263.461 165.471 263.499 165.601 263.504C165.745 263.501 165.884 263.457 166.003 263.376C166.121 263.295 166.214 263.182 166.269 263.049L167.16 263.513C167.025 263.813 166.8 264.065 166.516 264.232C166.232 264.4 165.903 264.475 165.574 264.448C165.333 264.469 165.09 264.44 164.86 264.364C164.631 264.288 164.419 264.165 164.238 264.004C164.057 263.843 163.911 263.647 163.808 263.428C163.706 263.209 163.649 262.971 163.641 262.729Z" fill="white"/>
<path d="M167.33 262.729C167.303 262.345 167.392 261.963 167.585 261.631C167.779 261.299 168.068 261.032 168.415 260.867C168.762 260.701 169.15 260.643 169.53 260.702C169.91 260.76 170.264 260.931 170.545 261.193C170.827 261.454 171.023 261.795 171.108 262.169C171.193 262.544 171.164 262.936 171.024 263.294C170.884 263.652 170.639 263.959 170.322 264.176C170.005 264.393 169.629 264.51 169.245 264.511C169 264.529 168.754 264.497 168.522 264.415C168.29 264.334 168.078 264.206 167.898 264.038C167.718 263.871 167.575 263.668 167.477 263.443C167.379 263.218 167.329 262.974 167.33 262.729ZM169.958 262.729C169.974 262.626 169.968 262.52 169.94 262.42C169.911 262.319 169.862 262.226 169.794 262.147C169.726 262.068 169.642 262.004 169.547 261.96C169.453 261.917 169.349 261.894 169.245 261.894C169.141 261.894 169.038 261.917 168.943 261.96C168.848 262.004 168.764 262.068 168.696 262.147C168.629 262.226 168.579 262.319 168.551 262.42C168.522 262.52 168.516 262.626 168.532 262.729C168.516 262.832 168.522 262.937 168.551 263.038C168.579 263.138 168.629 263.231 168.696 263.31C168.764 263.39 168.848 263.453 168.943 263.497C169.038 263.541 169.141 263.563 169.245 263.563C169.349 263.563 169.453 263.541 169.547 263.497C169.642 263.453 169.726 263.39 169.794 263.31C169.862 263.231 169.911 263.138 169.94 263.038C169.968 262.937 169.974 262.832 169.958 262.729Z" fill="white"/>
<path d="M175.223 261.045V264.386H174.091V264.029C173.884 264.236 173.617 264.374 173.329 264.425C173.04 264.476 172.743 264.437 172.477 264.314C172.211 264.19 171.989 263.989 171.841 263.736C171.694 263.482 171.627 263.19 171.65 262.898V261.009H172.835V262.702C172.835 263.228 173.04 263.433 173.397 263.433C173.753 263.433 174.038 263.201 174.038 262.631V261.009L175.223 261.045Z" fill="white"/>
<path d="M179.615 262.488V264.386H178.431V262.604C178.431 262.114 178.217 261.909 177.878 261.909C177.54 261.909 177.201 262.15 177.201 262.711V264.386H176.016V261.009H177.148V261.375C177.286 261.233 177.453 261.122 177.637 261.048C177.821 260.974 178.019 260.94 178.217 260.947C178.416 260.933 178.617 260.965 178.802 261.04C178.988 261.115 179.154 261.231 179.289 261.379C179.423 261.528 179.523 261.704 179.579 261.896C179.636 262.088 179.648 262.291 179.615 262.488Z" fill="white"/>
<path d="M182.689 264.288C182.436 264.428 182.15 264.496 181.861 264.484C181.681 264.512 181.497 264.498 181.324 264.445C181.15 264.391 180.991 264.298 180.859 264.173C180.726 264.049 180.624 263.896 180.56 263.726C180.496 263.555 180.471 263.373 180.489 263.192V262.052H179.999V261.161H180.489V260.27H181.673V261.161H182.449V262.052H181.673V263.174C181.668 263.224 181.674 263.274 181.69 263.322C181.705 263.369 181.731 263.413 181.764 263.45C181.798 263.487 181.839 263.516 181.885 263.536C181.93 263.556 181.98 263.566 182.03 263.566C182.159 263.565 182.285 263.528 182.395 263.459L182.689 264.288Z" fill="white"/>
<path d="M157.182 160.557V158.464H158.073V160.522C158.073 161.234 158.385 161.528 158.91 161.528C159.436 161.528 159.739 161.234 159.739 160.522V158.464H160.63V160.557C160.63 161.006 160.451 161.437 160.134 161.754C159.817 162.072 159.386 162.25 158.937 162.25C158.488 162.25 158.057 162.072 157.74 161.754C157.423 161.437 157.244 161.006 157.244 160.557H157.182Z" fill="white" fill-opacity="0.4"/>
<path d="M161.093 161.929L161.369 161.332C161.67 161.515 162.015 161.611 162.367 161.609C162.75 161.609 162.893 161.511 162.893 161.35C162.893 160.878 161.111 161.35 161.111 160.21C161.111 159.666 161.61 159.319 162.447 159.319C162.83 159.312 163.209 159.398 163.552 159.568L163.276 160.165C163.023 160.023 162.737 159.949 162.447 159.951C162.073 159.951 161.913 160.067 161.913 160.219C161.913 160.709 163.65 160.219 163.65 161.368C163.65 161.903 163.151 162.259 162.287 162.259C161.867 162.254 161.456 162.14 161.093 161.929Z" fill="white" fill-opacity="0.4"/>
<path d="M167.009 161.038H164.835C164.879 161.217 164.987 161.373 165.137 161.478C165.288 161.583 165.472 161.629 165.655 161.609C165.787 161.614 165.92 161.593 166.044 161.545C166.168 161.498 166.281 161.425 166.376 161.332L166.822 161.814C166.669 161.973 166.482 162.098 166.276 162.178C166.07 162.258 165.849 162.292 165.628 162.277C165.421 162.297 165.213 162.273 165.015 162.208C164.818 162.143 164.637 162.037 164.483 161.898C164.328 161.759 164.205 161.589 164.12 161.4C164.035 161.211 163.99 161.006 163.989 160.798C163.987 160.599 164.026 160.401 164.103 160.218C164.181 160.034 164.294 159.868 164.438 159.73C164.581 159.592 164.751 159.484 164.937 159.413C165.123 159.343 165.322 159.311 165.521 159.319C165.719 159.309 165.918 159.34 166.103 159.411C166.289 159.482 166.458 159.592 166.599 159.732C166.74 159.872 166.85 160.04 166.922 160.225C166.994 160.41 167.027 160.608 167.018 160.807C167.018 160.842 167.009 160.932 167.009 161.038ZM164.817 160.548H166.234C166.214 160.378 166.13 160.222 165.999 160.112C165.869 160.001 165.701 159.944 165.53 159.952C165.363 159.942 165.199 159.994 165.067 160.098C164.936 160.201 164.847 160.349 164.817 160.513V160.548Z" fill="white" fill-opacity="0.4"/>
<path d="M169.361 159.257V160.023H169.174C169.068 160.014 168.962 160.028 168.863 160.066C168.764 160.104 168.674 160.164 168.601 160.241C168.529 160.318 168.474 160.41 168.442 160.512C168.41 160.613 168.401 160.72 168.417 160.825V162.179H167.579V159.31H168.372V159.684C168.49 159.539 168.642 159.424 168.814 159.349C168.986 159.275 169.174 159.243 169.361 159.257Z" fill="white" fill-opacity="0.4"/>
<path d="M172.8 160.557V162.197H171.962V160.682C171.962 160.219 171.749 160.005 171.383 160.005C171.018 160.005 170.697 160.254 170.697 160.78V162.197H169.878V159.328H170.671V159.666C170.794 159.539 170.942 159.44 171.107 159.374C171.271 159.308 171.447 159.277 171.624 159.283C171.789 159.275 171.954 159.304 172.107 159.367C172.26 159.429 172.397 159.525 172.509 159.646C172.621 159.767 172.705 159.912 172.756 160.069C172.806 160.227 172.821 160.393 172.8 160.557Z" fill="white" fill-opacity="0.4"/>
<path d="M176.114 160.557V162.197H175.339V161.84C175.241 161.982 175.107 162.094 174.95 162.165C174.793 162.236 174.619 162.262 174.448 162.241C173.78 162.241 173.379 161.867 173.379 161.35C173.379 160.834 173.736 160.459 174.609 160.459H175.277C175.277 160.103 175.063 159.889 174.609 159.889C174.311 159.89 174.022 159.984 173.78 160.156L173.486 159.577C173.855 159.341 174.286 159.22 174.724 159.23C175.589 159.257 176.114 159.693 176.114 160.557ZM175.286 161.288V161.038H174.707C174.324 161.038 174.199 161.181 174.199 161.368C174.199 161.555 174.377 161.716 174.671 161.716C174.803 161.718 174.933 161.678 175.04 161.601C175.148 161.524 175.228 161.414 175.268 161.288H175.286Z" fill="white" fill-opacity="0.4"/>
<path d="M181.709 160.557V162.197H180.872V160.682C180.872 160.219 180.667 160.005 180.328 160.005C179.99 160.005 179.696 160.246 179.696 160.762V162.197H178.858V160.682C178.858 160.219 178.662 160.005 178.315 160.005C177.967 160.005 177.682 160.246 177.682 160.762V162.197H176.854V159.328H177.646V159.657C177.759 159.535 177.897 159.438 178.051 159.373C178.205 159.308 178.371 159.278 178.537 159.283C178.722 159.273 178.907 159.311 179.073 159.393C179.238 159.476 179.379 159.601 179.482 159.756C179.61 159.591 179.775 159.461 179.964 159.374C180.154 159.287 180.361 159.247 180.569 159.257C180.734 159.25 180.899 159.281 181.052 159.346C181.204 159.412 181.34 159.511 181.449 159.635C181.558 159.76 181.638 159.907 181.683 160.067C181.728 160.226 181.737 160.394 181.709 160.557Z" fill="white" fill-opacity="0.4"/>
<path d="M185.291 161.038H183.117C183.161 161.217 183.269 161.373 183.419 161.478C183.57 161.583 183.754 161.629 183.936 161.609C184.069 161.615 184.202 161.594 184.326 161.546C184.45 161.499 184.563 161.426 184.658 161.332L185.104 161.814C184.952 161.973 184.767 162.096 184.562 162.177C184.358 162.257 184.138 162.291 183.919 162.277C183.712 162.297 183.503 162.273 183.306 162.208C183.109 162.143 182.928 162.037 182.773 161.898C182.619 161.759 182.496 161.589 182.411 161.4C182.326 161.211 182.281 161.006 182.279 160.798C182.278 160.599 182.317 160.401 182.394 160.218C182.471 160.034 182.585 159.868 182.728 159.73C182.872 159.592 183.042 159.484 183.228 159.413C183.414 159.343 183.613 159.311 183.812 159.319C184.01 159.309 184.209 159.34 184.394 159.411C184.58 159.482 184.748 159.592 184.889 159.732C185.03 159.872 185.14 160.04 185.213 160.225C185.285 160.41 185.317 160.608 185.308 160.807C185.307 160.884 185.301 160.962 185.291 161.038ZM183.108 160.548H184.524C184.492 160.384 184.404 160.236 184.275 160.13C184.146 160.023 183.984 159.965 183.816 159.965C183.649 159.965 183.487 160.023 183.357 160.13C183.228 160.236 183.14 160.384 183.108 160.548Z" fill="white" fill-opacity="0.4"/>
<path d="M94.2471 148.361H146.357C146.382 148.354 146.403 148.339 146.418 148.319C146.433 148.299 146.441 148.274 146.441 148.249C146.441 148.224 146.433 148.2 146.418 148.179C146.403 148.159 146.382 148.145 146.357 148.138H94.2471C94.2229 148.145 94.2016 148.159 94.1865 148.179C94.1713 148.2 94.1631 148.224 94.1631 148.249C94.1631 148.274 94.1713 148.299 94.1865 148.319C94.2016 148.339 94.2229 148.354 94.2471 148.361Z" fill="white" fill-opacity="0.2"/>
<path d="M161.806 148.361H213.916C213.94 148.354 213.961 148.339 213.977 148.319C213.992 148.299 214 148.274 214 148.249C214 148.224 213.992 148.2 213.977 148.179C213.961 148.159 213.94 148.145 213.916 148.138H161.806C161.781 148.145 161.76 148.159 161.745 148.179C161.73 148.2 161.722 148.224 161.722 148.249C161.722 148.274 161.73 148.299 161.745 148.319C161.76 148.339 161.781 148.354 161.806 148.361Z" fill="white" fill-opacity="0.2"/>
<path d="M150.678 147.835C150.662 147.464 150.758 147.096 150.952 146.779C151.147 146.463 151.432 146.212 151.77 146.059C152.109 145.905 152.486 145.857 152.852 145.919C153.218 145.982 153.557 146.153 153.826 146.409C154.094 146.666 154.28 146.998 154.358 147.361C154.437 147.724 154.405 148.103 154.267 148.448C154.129 148.792 153.89 149.088 153.583 149.297C153.275 149.505 152.912 149.616 152.54 149.617C152.3 149.628 152.059 149.59 151.834 149.505C151.608 149.42 151.402 149.291 151.228 149.124C151.054 148.958 150.916 148.757 150.821 148.536C150.727 148.314 150.678 148.076 150.678 147.835ZM153.903 147.835C153.907 147.565 153.83 147.299 153.682 147.073C153.535 146.846 153.323 146.669 153.074 146.563C152.826 146.457 152.551 146.427 152.285 146.478C152.02 146.529 151.775 146.657 151.583 146.847C151.39 147.037 151.259 147.28 151.205 147.545C151.151 147.809 151.177 148.084 151.279 148.335C151.382 148.585 151.557 148.799 151.781 148.949C152.006 149.1 152.27 149.18 152.54 149.18C152.719 149.186 152.898 149.156 153.065 149.091C153.232 149.025 153.384 148.927 153.511 148.801C153.639 148.675 153.739 148.524 153.807 148.358C153.874 148.192 153.907 148.014 153.903 147.835Z" fill="white" fill-opacity="0.2"/>
<path d="M156.514 147.022V147.486H156.398C156.282 147.48 156.166 147.499 156.059 147.542C155.951 147.586 155.855 147.653 155.776 147.738C155.697 147.823 155.637 147.924 155.602 148.034C155.566 148.145 155.555 148.262 155.569 148.377V149.695H155.088V147.022H155.543V147.468C155.648 147.311 155.794 147.187 155.966 147.109C156.137 147.03 156.327 147 156.514 147.022Z" fill="white" fill-opacity="0.2"/>
<path d="M148.112 166.339H96.0377C94.4927 166.339 93.2402 167.592 93.2402 169.137V174.839C93.2402 176.384 94.4927 177.636 96.0377 177.636H148.112C149.657 177.636 150.91 176.384 150.91 174.839V169.137C150.91 167.592 149.657 166.339 148.112 166.339Z" fill="white" fill-opacity="0.2"/>
<path d="M210.584 190.323H96.0377C94.4927 190.323 93.2402 191.576 93.2402 193.121V198.823C93.2402 200.368 94.4927 201.62 96.0377 201.62H210.584C212.129 201.62 213.382 200.368 213.382 198.823V193.121C213.382 191.576 212.129 190.323 210.584 190.323Z" fill="white" fill-opacity="0.2"/>
<path d="M210.584 214.378H96.0377C94.4927 214.378 93.2402 215.631 93.2402 217.176V222.878C93.2402 224.423 94.4927 225.675 96.0377 225.675H210.584C212.129 225.675 213.382 224.423 213.382 222.878V217.176C213.382 215.631 212.129 214.378 210.584 214.378Z" fill="white" fill-opacity="0.2"/>
<path d="M210.584 166.339H159.57C158.025 166.339 156.772 167.592 156.772 169.137V174.839C156.772 176.384 158.025 177.636 159.57 177.636H210.584C212.129 177.636 213.382 176.384 213.382 174.839V169.137C213.382 167.592 212.129 166.339 210.584 166.339Z" fill="white" fill-opacity="0.2"/>
<path d="M98.4876 232.152H95.5475C95.0604 232.152 94.6655 232.547 94.6655 233.034V235.974C94.6655 236.461 95.0604 236.856 95.5475 236.856H98.4876C98.9747 236.856 99.3696 236.461 99.3696 235.974V233.034C99.3696 232.547 98.9747 232.152 98.4876 232.152Z" fill="#2666FA"/>
<path d="M208.009 236.536H104.475C104.01 236.536 103.563 236.354 103.23 236.029C102.897 235.705 102.704 235.263 102.693 234.798C102.704 234.333 102.897 233.892 103.23 233.567C103.563 233.242 104.01 233.061 104.475 233.061H208.009C208.466 233.072 208.902 233.259 209.225 233.582C209.549 233.906 209.735 234.341 209.747 234.798C209.748 235.027 209.704 235.253 209.617 235.464C209.53 235.676 209.402 235.868 209.24 236.029C209.079 236.191 208.887 236.319 208.675 236.406C208.464 236.493 208.238 236.537 208.009 236.536Z" fill="white" fill-opacity="0.2"/>
<path d="M121.509 243.004H105.009C104.552 242.992 104.117 242.806 103.793 242.482C103.47 242.159 103.283 241.723 103.272 241.266C103.272 241.039 103.317 240.813 103.404 240.603C103.492 240.392 103.62 240.202 103.781 240.041C103.943 239.88 104.134 239.753 104.345 239.667C104.556 239.581 104.782 239.537 105.009 239.538H121.509C121.965 239.549 122.399 239.735 122.722 240.056C123.045 240.378 123.233 240.811 123.247 241.266C123.235 241.723 123.049 242.159 122.725 242.482C122.402 242.806 121.966 242.992 121.509 243.004Z" fill="white" fill-opacity="0.2"/>
<path d="M210.014 123.067H97.6769C95.5218 123.067 93.7747 124.814 93.7747 126.969V133.981C93.7747 136.136 95.5218 137.883 97.6769 137.883H210.014C212.169 137.883 213.916 136.136 213.916 133.981V126.969C213.916 124.814 212.169 123.067 210.014 123.067Z" fill="#0F172A"/>
<path d="M131.114 131.638L131.31 131.219C131.657 131.507 132.096 131.662 132.548 131.656C133.189 131.656 133.439 131.406 133.439 131.077C133.439 130.186 131.176 130.738 131.176 129.348C131.176 128.778 131.63 128.288 132.61 128.288C133.035 128.28 133.452 128.395 133.813 128.618L133.635 129.045C133.33 128.848 132.974 128.743 132.61 128.742C131.969 128.742 131.719 129.01 131.719 129.33C131.719 130.221 133.982 129.669 133.982 131.05C133.982 131.62 133.528 132.11 132.539 132.11C132.024 132.121 131.52 131.954 131.114 131.638Z" fill="#EAEAEA"/>
<path d="M134.606 128.341C134.606 128.296 134.615 128.251 134.632 128.21C134.65 128.168 134.676 128.13 134.708 128.099C134.74 128.067 134.779 128.043 134.821 128.026C134.863 128.01 134.908 128.002 134.953 128.003C134.998 128 135.043 128.007 135.085 128.023C135.127 128.038 135.165 128.062 135.198 128.093C135.23 128.124 135.256 128.161 135.274 128.202C135.292 128.243 135.301 128.288 135.301 128.333C135.301 128.425 135.264 128.513 135.199 128.578C135.134 128.643 135.045 128.68 134.953 128.68C134.861 128.68 134.773 128.643 134.707 128.578C134.642 128.513 134.606 128.425 134.606 128.333V128.341ZM134.704 129.232H135.212V132.066H134.704V129.232Z" fill="#EAEAEA"/>
<path d="M138.9 129.215V131.638C138.929 131.837 138.911 132.04 138.847 132.231C138.783 132.421 138.675 132.594 138.532 132.736C138.389 132.877 138.215 132.983 138.023 133.044C137.832 133.106 137.629 133.122 137.43 133.09C136.944 133.11 136.466 132.962 136.076 132.671L136.325 132.27C136.634 132.516 137.018 132.648 137.412 132.645C138.08 132.645 138.383 132.333 138.383 131.691V131.469C138.257 131.612 138.101 131.726 137.925 131.802C137.749 131.877 137.559 131.913 137.368 131.905C137.004 131.905 136.655 131.761 136.397 131.503C136.14 131.246 135.996 130.897 135.996 130.533C135.996 130.169 136.14 129.82 136.397 129.563C136.655 129.306 137.004 129.161 137.368 129.161C137.565 129.155 137.761 129.193 137.942 129.273C138.122 129.354 138.282 129.474 138.41 129.624V129.188L138.9 129.215ZM138.401 130.56C138.419 130.363 138.377 130.166 138.281 129.993C138.185 129.821 138.039 129.681 137.862 129.593C137.685 129.505 137.486 129.473 137.29 129.5C137.095 129.527 136.912 129.613 136.766 129.746C136.62 129.878 136.517 130.052 136.472 130.244C136.426 130.437 136.44 130.638 136.51 130.822C136.581 131.007 136.706 131.165 136.869 131.277C137.031 131.389 137.224 131.45 137.421 131.451C137.545 131.463 137.671 131.449 137.789 131.41C137.908 131.371 138.017 131.308 138.109 131.224C138.202 131.14 138.276 131.037 138.326 130.923C138.376 130.808 138.402 130.685 138.401 130.56Z" fill="#EAEAEA"/>
<path d="M142.571 130.417V132.048H142.054V130.48C142.054 129.918 141.778 129.651 141.288 129.651C141.169 129.643 141.049 129.661 140.938 129.703C140.826 129.745 140.725 129.81 140.64 129.895C140.556 129.979 140.49 130.08 140.449 130.192C140.407 130.304 140.389 130.423 140.397 130.542V132.003H139.889V129.17H140.379V129.598C140.501 129.446 140.658 129.325 140.836 129.246C141.014 129.167 141.209 129.132 141.403 129.143C141.569 129.132 141.735 129.158 141.889 129.22C142.043 129.281 142.182 129.377 142.294 129.499C142.406 129.622 142.489 129.768 142.537 129.927C142.585 130.086 142.596 130.253 142.571 130.417Z" fill="#EAEAEA"/>
<path d="M147.604 129.215V132.048H147.123V131.638C147.012 131.787 146.866 131.906 146.699 131.987C146.531 132.068 146.347 132.107 146.161 132.101C145.995 132.118 145.827 132.098 145.67 132.042C145.513 131.985 145.371 131.894 145.253 131.775C145.136 131.656 145.047 131.513 144.993 131.355C144.939 131.197 144.921 131.029 144.941 130.863V129.232H145.448V130.809C145.448 131.362 145.733 131.638 146.215 131.638C146.334 131.646 146.453 131.628 146.565 131.586C146.676 131.544 146.778 131.479 146.862 131.394C146.946 131.31 147.012 131.209 147.054 131.097C147.096 130.985 147.113 130.866 147.106 130.747V129.277L147.604 129.215Z" fill="#EAEAEA"/>
<path d="M151.507 130.631C151.518 130.823 151.489 131.014 151.422 131.194C151.355 131.373 151.251 131.537 151.116 131.674C150.982 131.81 150.821 131.918 150.642 131.988C150.464 132.059 150.273 132.091 150.081 132.083C149.892 132.089 149.704 132.05 149.532 131.969C149.36 131.889 149.209 131.769 149.092 131.62V133.081H148.576V129.215H149.066V129.669C149.183 129.512 149.337 129.386 149.514 129.302C149.691 129.219 149.886 129.179 150.081 129.188C150.272 129.18 150.462 129.212 150.64 129.282C150.818 129.352 150.979 129.459 151.113 129.595C151.247 129.73 151.351 129.893 151.419 130.071C151.487 130.25 151.517 130.44 151.507 130.631ZM150.99 130.631C150.981 130.445 150.918 130.265 150.808 130.114C150.698 129.963 150.547 129.848 150.372 129.783C150.197 129.717 150.007 129.705 149.825 129.746C149.643 129.788 149.477 129.882 149.349 130.017C149.22 130.152 149.133 130.322 149.1 130.505C149.067 130.689 149.088 130.878 149.161 131.05C149.234 131.222 149.356 131.368 149.512 131.471C149.668 131.574 149.85 131.629 150.037 131.629C150.168 131.639 150.301 131.62 150.424 131.573C150.548 131.526 150.659 131.452 150.75 131.356C150.841 131.261 150.91 131.146 150.952 131.021C150.993 130.895 151.006 130.762 150.99 130.631Z" fill="#EAEAEA"/>
<path d="M157.948 129.215L156.888 132.048H156.398L155.578 129.901L154.75 132.048H154.26L153.208 129.215H153.69L154.518 131.469L155.409 129.215H155.837L156.674 131.486L157.565 129.215H157.948Z" fill="#EAEAEA"/>
<path d="M158.376 128.341C158.376 128.296 158.385 128.251 158.402 128.21C158.42 128.168 158.446 128.13 158.478 128.099C158.51 128.067 158.549 128.043 158.591 128.026C158.633 128.01 158.678 128.002 158.723 128.003C158.79 128.005 158.854 128.026 158.909 128.064C158.963 128.102 159.005 128.156 159.03 128.218C159.054 128.28 159.059 128.348 159.045 128.413C159.031 128.478 158.998 128.537 158.951 128.584C158.903 128.63 158.843 128.662 158.777 128.674C158.712 128.686 158.644 128.679 158.583 128.653C158.521 128.627 158.469 128.584 158.432 128.529C158.395 128.473 158.376 128.408 158.376 128.341ZM158.465 129.232H158.982V132.065H158.465V129.232Z" fill="#EAEAEA"/>
<path d="M161.548 131.887C161.371 132.021 161.154 132.091 160.933 132.083C160.813 132.096 160.691 132.082 160.577 132.041C160.464 132.001 160.36 131.936 160.275 131.85C160.19 131.765 160.124 131.662 160.084 131.548C160.044 131.434 160.029 131.312 160.042 131.192V129.642H159.561V129.215H160.078V128.6H160.585V129.215H161.405V129.642H160.585V131.175C160.577 131.236 160.583 131.299 160.602 131.358C160.621 131.417 160.653 131.471 160.696 131.516C160.739 131.562 160.791 131.597 160.849 131.619C160.907 131.642 160.969 131.651 161.031 131.647C161.176 131.65 161.318 131.603 161.432 131.513L161.548 131.887Z" fill="#EAEAEA"/>
<path d="M164.853 130.417V132.048H164.345V130.48C164.345 129.918 164.069 129.651 163.579 129.651C163.46 129.643 163.34 129.661 163.229 129.703C163.117 129.745 163.016 129.81 162.931 129.895C162.847 129.979 162.782 130.08 162.74 130.192C162.698 130.304 162.68 130.423 162.688 130.542V132.003H162.18V128.074H162.688V129.607C162.812 129.464 162.968 129.351 163.142 129.277C163.316 129.203 163.505 129.17 163.695 129.179C163.856 129.168 164.019 129.194 164.169 129.253C164.32 129.313 164.456 129.405 164.567 129.524C164.678 129.642 164.761 129.784 164.81 129.938C164.86 130.093 164.874 130.256 164.853 130.417Z" fill="#EAEAEA"/>
<path d="M169.878 130.159H170.394V131.638C169.99 131.952 169.49 132.119 168.978 132.11C168.665 132.098 168.36 132.01 168.089 131.853C167.818 131.696 167.59 131.475 167.425 131.21C167.259 130.944 167.161 130.642 167.139 130.33C167.117 130.018 167.172 129.705 167.299 129.419C167.426 129.133 167.621 128.882 167.867 128.689C168.114 128.496 168.403 128.366 168.711 128.311C169.019 128.255 169.336 128.276 169.634 128.372C169.932 128.467 170.202 128.634 170.421 128.858L170.091 129.197C169.95 129.053 169.78 128.941 169.593 128.866C169.406 128.79 169.206 128.755 169.004 128.76C168.806 128.745 168.606 128.77 168.418 128.835C168.23 128.901 168.058 129.004 167.911 129.139C167.765 129.274 167.649 129.438 167.569 129.621C167.489 129.803 167.448 130 167.448 130.199C167.448 130.398 167.489 130.595 167.569 130.777C167.649 130.96 167.765 131.124 167.911 131.259C168.058 131.394 168.23 131.497 168.418 131.563C168.606 131.628 168.806 131.654 169.004 131.638C169.319 131.647 169.629 131.564 169.895 131.397L169.878 130.159Z" fill="#EAEAEA"/>
<path d="M171.116 130.631C171.112 130.338 171.197 130.051 171.358 129.806C171.519 129.561 171.749 129.37 172.019 129.257C172.29 129.144 172.588 129.115 172.875 129.172C173.162 129.23 173.426 129.372 173.632 129.581C173.838 129.789 173.977 130.054 174.031 130.342C174.085 130.63 174.052 130.928 173.935 131.197C173.819 131.466 173.625 131.694 173.378 131.852C173.132 132.01 172.843 132.09 172.55 132.083C172.359 132.087 172.17 132.052 171.993 131.98C171.816 131.908 171.656 131.801 171.521 131.665C171.387 131.529 171.282 131.368 171.212 131.19C171.143 131.012 171.11 130.822 171.116 130.631ZM173.539 130.631C173.529 130.447 173.465 130.269 173.356 130.121C173.246 129.972 173.096 129.858 172.923 129.793C172.75 129.728 172.562 129.715 172.382 129.754C172.202 129.794 172.037 129.886 171.907 130.017C171.778 130.149 171.69 130.316 171.653 130.496C171.617 130.677 171.633 130.865 171.701 131.037C171.769 131.209 171.886 131.357 172.037 131.463C172.187 131.57 172.366 131.631 172.55 131.638C172.686 131.654 172.823 131.639 172.952 131.594C173.08 131.549 173.197 131.475 173.292 131.378C173.388 131.28 173.46 131.163 173.503 131.033C173.545 130.904 173.558 130.766 173.539 130.631Z" fill="#EAEAEA"/>
<path d="M174.51 130.631C174.507 130.34 174.59 130.054 174.749 129.81C174.909 129.566 175.137 129.374 175.405 129.26C175.674 129.146 175.97 129.115 176.256 129.169C176.542 129.224 176.806 129.363 177.013 129.567C177.221 129.772 177.362 130.034 177.421 130.32C177.479 130.606 177.451 130.902 177.34 131.172C177.229 131.441 177.041 131.672 176.799 131.834C176.557 131.997 176.272 132.083 175.98 132.083C175.786 132.092 175.593 132.061 175.412 131.991C175.231 131.921 175.066 131.815 174.928 131.678C174.79 131.542 174.681 131.379 174.61 131.198C174.538 131.018 174.504 130.825 174.51 130.631ZM176.934 130.631C176.925 130.445 176.862 130.265 176.752 130.114C176.642 129.963 176.49 129.848 176.315 129.783C176.141 129.717 175.95 129.705 175.768 129.746C175.587 129.788 175.421 129.882 175.292 130.017C175.163 130.152 175.077 130.322 175.043 130.505C175.01 130.689 175.031 130.878 175.105 131.05C175.178 131.222 175.3 131.368 175.456 131.471C175.611 131.574 175.794 131.629 175.98 131.629C176.112 131.639 176.244 131.62 176.368 131.573C176.491 131.526 176.602 131.452 176.694 131.356C176.785 131.261 176.854 131.146 176.895 131.021C176.937 130.895 176.95 130.762 176.934 130.631Z" fill="#EAEAEA"/>
<path d="M180.871 129.215V131.638C180.9 131.837 180.882 132.04 180.818 132.231C180.754 132.421 180.647 132.594 180.504 132.736C180.361 132.877 180.186 132.983 179.995 133.044C179.803 133.106 179.6 133.122 179.401 133.09C178.915 133.11 178.437 132.962 178.047 132.671L178.297 132.27C178.608 132.512 178.99 132.643 179.384 132.645C180.052 132.645 180.364 132.333 180.364 131.691V131.469C180.235 131.612 180.077 131.725 179.9 131.8C179.723 131.876 179.531 131.912 179.339 131.905C178.975 131.905 178.626 131.761 178.369 131.503C178.112 131.246 177.967 130.897 177.967 130.533C177.967 130.169 178.112 129.82 178.369 129.563C178.626 129.306 178.975 129.161 179.339 129.161C179.537 129.153 179.733 129.191 179.914 129.272C180.095 129.352 180.255 129.473 180.381 129.624V129.188L180.871 129.215ZM180.373 130.56C180.349 130.317 180.237 130.092 180.056 129.928C179.876 129.764 179.641 129.673 179.397 129.673C179.153 129.673 178.918 129.764 178.738 129.928C178.557 130.092 178.445 130.317 178.421 130.56C178.445 130.803 178.557 131.028 178.738 131.192C178.918 131.356 179.153 131.447 179.397 131.447C179.641 131.447 179.876 131.356 180.056 131.192C180.237 131.028 180.349 130.803 180.373 130.56Z" fill="#EAEAEA"/>
<path d="M181.852 128.074H182.351V132.039H181.834L181.852 128.074Z" fill="#EAEAEA"/>
<path d="M185.914 130.8H183.598C183.629 131.044 183.753 131.266 183.944 131.42C184.135 131.575 184.378 131.649 184.622 131.629C184.774 131.636 184.925 131.609 185.066 131.55C185.206 131.492 185.331 131.403 185.433 131.29L185.718 131.62C185.511 131.844 185.242 132.002 184.945 132.073C184.648 132.145 184.337 132.126 184.051 132.02C183.765 131.914 183.516 131.726 183.337 131.478C183.158 131.231 183.057 130.936 183.045 130.631C183.038 130.442 183.07 130.253 183.138 130.076C183.206 129.9 183.31 129.739 183.442 129.604C183.575 129.469 183.734 129.362 183.909 129.291C184.085 129.219 184.273 129.184 184.462 129.188C184.653 129.182 184.843 129.217 185.02 129.289C185.196 129.361 185.356 129.47 185.489 129.607C185.621 129.745 185.724 129.909 185.789 130.088C185.855 130.267 185.882 130.458 185.87 130.649C185.889 130.698 185.904 130.749 185.914 130.8ZM183.625 130.435H185.406C185.386 130.213 185.284 130.006 185.119 129.856C184.954 129.706 184.739 129.623 184.515 129.624C184.288 129.617 184.066 129.696 183.895 129.847C183.725 129.998 183.618 130.208 183.598 130.435H183.625Z" fill="#EAEAEA"/>
<path d="M124.049 130.489V131.326H126.107C126.002 131.692 125.773 132.01 125.459 132.224C125.145 132.439 124.766 132.537 124.387 132.502C124.127 132.513 123.868 132.471 123.626 132.378C123.383 132.284 123.162 132.142 122.977 131.96C122.791 131.778 122.645 131.56 122.548 131.319C122.45 131.078 122.403 130.82 122.409 130.56C122.413 130.238 122.497 129.923 122.652 129.642C122.808 129.36 123.03 129.122 123.3 128.947C123.673 128.691 124.125 128.577 124.575 128.626C125.024 128.675 125.441 128.884 125.75 129.215C125.815 129.295 125.906 129.349 126.007 129.369C126.108 129.388 126.213 129.372 126.303 129.321C126.357 129.291 126.405 129.25 126.441 129.199C126.478 129.148 126.503 129.09 126.514 129.028C126.525 128.967 126.522 128.904 126.506 128.843C126.489 128.783 126.459 128.727 126.418 128.68C126.163 128.395 125.85 128.168 125.5 128.014C125.149 127.86 124.77 127.783 124.387 127.789C124.008 127.768 123.629 127.824 123.273 127.954C122.916 128.084 122.59 128.286 122.314 128.546C122.038 128.807 121.819 129.121 121.669 129.47C121.518 129.818 121.441 130.194 121.441 130.573C121.441 130.953 121.518 131.328 121.669 131.677C121.819 132.025 122.038 132.339 122.314 132.6C122.59 132.861 122.916 133.062 123.273 133.192C123.629 133.323 124.008 133.379 124.387 133.357C124.721 133.382 125.056 133.337 125.372 133.227C125.688 133.116 125.977 132.942 126.223 132.715C126.469 132.487 126.665 132.212 126.8 131.906C126.935 131.599 127.005 131.269 127.006 130.934V130.506L124.049 130.489Z" fill="#EAEAEA"/>
<path d="M285.484 184.04C276.984 188.444 270.468 196.024 265.786 204.365C261.103 212.706 258.079 221.825 255.087 230.96L252.468 277.849C262.357 261.024 270.294 241.246 272.437 221.849L265.857 221.27C270.27 220.595 273.976 217.397 276.333 213.603C278.69 209.81 279.897 205.445 281.095 201.143L273.071 202.333C279.404 198.055 283.848 191.505 285.484 184.04Z" fill="#8BC4FF"/>
<path d="M250.968 288.833C250.968 288.833 229.5 263.143 229.754 238.619H238.421C238.421 238.619 229 232.429 229.746 228.96C230.492 225.492 230.722 212.357 230.722 212.357L238.659 214.341C238.659 214.341 232.714 211.373 231.968 206.667C231.222 201.96 233.706 180.159 233.706 180.159C233.706 180.159 243.365 190.317 246.341 200.714C249.317 211.111 257.119 223.23 254.833 254.976C252.548 286.722 250.968 288.833 250.968 288.833Z" fill="#2666FA"/>
<path d="M261.849 291.254C261.849 291.254 285.095 275.762 290.262 255.992L283.294 254.095C283.294 254.095 292.222 251.183 292.381 248.23C292.54 245.278 295.214 234.667 295.214 234.667L288.405 234.524C288.405 234.524 293.833 233.437 295.468 229.817C297.103 226.198 299.873 208.151 299.873 208.151C299.873 208.151 289.881 214.206 285.214 221.921C280.548 229.635 271.619 237.683 266.524 263.675C261.429 289.667 261.849 291.254 261.849 291.254Z" fill="#2666FA"/>
<path d="M239.58 202.595C239.614 202.682 239.638 202.773 239.651 202.865L239.841 203.659C240 204.381 240.23 205.405 240.524 206.706C240.818 208.008 241.167 209.651 241.548 211.548C241.929 213.444 242.342 215.579 242.81 217.968C243.73 222.73 244.699 228.429 245.699 234.762C246.699 241.095 247.627 248.087 248.492 255.397C249.357 262.706 249.984 269.778 250.484 276.175C250.984 282.571 251.357 288.31 251.508 293.175C251.627 295.595 251.683 297.794 251.738 299.714C251.794 301.635 251.841 303.302 251.849 304.659C251.857 306.016 251.849 307.04 251.849 307.778V308.571C251.861 308.664 251.861 308.757 251.849 308.849C251.839 308.757 251.839 308.664 251.849 308.571C251.849 308.365 251.849 308.095 251.81 307.778C251.81 307.032 251.746 305.992 251.699 304.651C251.651 303.31 251.603 301.643 251.516 299.714C251.429 297.786 251.365 295.603 251.222 293.183C250.992 288.341 250.611 282.579 250.119 276.191C249.627 269.802 248.929 262.778 248.088 255.429C247.246 248.079 246.27 241.103 245.326 234.794C244.381 228.484 243.413 222.762 242.524 218C242.111 215.619 241.683 213.46 241.326 211.564C240.968 209.667 240.651 208.048 240.373 206.714C240.095 205.381 239.913 204.381 239.77 203.651C239.707 203.317 239.659 203.056 239.619 202.857C239.595 202.772 239.582 202.684 239.58 202.595Z" fill="#E0E0E0"/>
<path d="M247.992 304.564C247.992 304.564 228.341 282.278 222.246 268.802L226.849 266.841C223.516 267.389 220.095 265.952 217.508 263.778C214.921 261.603 213.024 258.73 211.159 255.913L217.222 254.889C211.656 253.304 206.911 249.642 203.968 244.659C211.111 245.841 217.603 249.77 222.937 254.683C227.177 258.75 231.025 263.209 234.429 268C236.146 270.301 237.642 272.759 238.897 275.341C242.198 282.119 248 296.381 247.992 304.564Z" fill="#8BC4FF"/>
<path d="M290.571 221.095C290.554 221.176 290.524 221.253 290.484 221.325L290.182 221.976L288.984 224.444C287.936 226.587 286.444 229.698 284.643 233.564C282.841 237.429 280.746 242.048 278.508 247.222C276.27 252.397 273.92 258.135 271.571 264.198C269.222 270.262 267.127 276.103 265.286 281.421C263.444 286.738 261.889 291.587 260.627 295.659C259.365 299.73 258.373 303.032 257.714 305.325C257.381 306.444 257.119 307.333 256.92 307.96L256.706 308.643C256.687 308.723 256.658 308.8 256.619 308.873C256.623 308.789 256.639 308.706 256.667 308.627C256.714 308.452 256.77 308.222 256.841 307.937C257.008 307.302 257.246 306.413 257.547 305.286C258.159 302.976 259.135 299.659 260.333 295.571C261.532 291.484 263.103 286.643 264.905 281.286C266.706 275.929 268.817 270.119 271.198 264.048C273.579 257.976 275.96 252.246 278.174 247.071C280.389 241.897 282.547 237.286 284.389 233.437C286.23 229.587 287.762 226.492 288.857 224.373L290.127 221.937C290.262 221.675 290.373 221.468 290.46 221.31C290.547 221.151 290.571 221.095 290.571 221.095Z" fill="#E0E0E0"/>
<path d="M249.651 314.111C249.609 313.979 249.577 313.843 249.555 313.706C249.508 313.389 249.444 312.992 249.365 312.524C249.214 311.492 248.96 310.008 248.571 308.183C248.182 306.357 247.706 304.214 247.063 301.833C246.42 299.452 245.587 296.897 244.595 294.238C243.603 291.579 242.492 289.119 241.42 286.905C240.349 284.69 239.293 282.754 238.357 281.151C237.42 279.548 236.635 278.262 236.063 277.397C235.809 276.984 235.603 276.651 235.428 276.381C235.348 276.265 235.281 276.14 235.23 276.008C235.23 276.008 235.333 276.111 235.5 276.333L236.198 277.302C236.809 278.151 237.635 279.413 238.579 281C239.524 282.587 240.627 284.54 241.754 286.738C242.881 288.936 243.952 291.437 244.968 294.095C245.984 296.754 246.77 299.349 247.42 301.73C248.071 304.111 248.524 306.286 248.841 308.127C249.159 309.968 249.373 311.452 249.476 312.492L249.595 313.683C249.637 313.821 249.656 313.966 249.651 314.111Z" fill="#E0E0E0"/>
<path d="M275.571 308.873H232.587V317.643H275.571V308.873Z" fill="#0F172A"/>
<path d="M236.682 317.635L241.087 342.778H267.063L271.643 317.635H236.682Z" fill="#0F172A"/>
<path d="M272.936 317.675C272.936 317.794 264.802 317.889 254.77 317.889C244.738 317.889 236.611 317.794 236.611 317.675C236.611 317.556 244.738 317.468 254.77 317.468C264.802 317.468 272.936 317.524 272.936 317.675Z" fill="#EBEBEB"/>
<path d="M80.4595 333.01L75.3087 332.391C71.2022 335.132 66.2189 336.238 61.3383 335.492C56.4577 334.745 52.0328 332.2 48.9333 328.357C45.8338 324.514 44.2839 319.65 44.5882 314.722C44.8925 309.794 47.029 305.158 50.5778 301.725C54.1266 298.293 58.831 296.312 63.7663 296.171C68.7017 296.031 73.511 297.742 77.2491 300.967C80.9872 304.193 83.3836 308.7 83.9674 313.603C84.5512 318.505 83.2801 323.449 80.4039 327.462L80.4595 333.01Z" fill="#0F172A"/>
<path d="M80.4595 333.01C80.4595 333.01 80.4595 332.875 80.4595 332.637C80.4595 332.399 80.4595 332.018 80.4595 331.557C80.4595 330.613 80.4118 329.232 80.3801 327.454L80.4991 327.51C80.4925 327.517 80.4845 327.522 80.4756 327.526C80.4667 327.53 80.4572 327.532 80.4476 327.532C80.4379 327.532 80.4284 327.53 80.4195 327.526C80.4106 327.522 80.4026 327.517 80.396 327.51C80.3863 327.497 80.3811 327.482 80.3811 327.466C80.3811 327.45 80.3863 327.435 80.396 327.423C82.2498 324.814 83.4403 321.793 83.8642 318.621C84.1347 316.548 84.0785 314.446 83.6976 312.391C83.2531 310.054 82.3901 307.817 81.1499 305.788C79.7613 303.556 77.9495 301.617 75.8166 300.081C73.5152 298.405 70.8689 297.264 68.0706 296.74C65.0959 296.19 62.0354 296.32 59.1182 297.121C56.0571 297.971 53.2541 299.566 50.9595 301.764C49.7835 302.875 48.7469 304.125 47.8722 305.486C47.4753 306.176 47.0785 306.859 46.7293 307.573L46.261 308.661L46.0309 309.2L45.8563 309.764C44.904 312.668 44.6325 315.753 45.0626 318.78C45.4676 321.621 46.5094 324.334 48.1103 326.716C49.5787 328.915 51.4666 330.803 53.6658 332.272C55.6422 333.605 57.8447 334.568 60.1658 335.113L61.8007 335.399C62.3404 335.478 62.8722 335.494 63.388 335.542C64.3958 335.607 65.4072 335.589 66.4118 335.486C69.5878 335.162 72.6378 334.072 75.3007 332.311H75.3483L79.142 332.811L80.142 332.946L80.4912 333.002H80.1658L79.1817 332.899L75.3325 332.47H75.3801C72.7109 334.274 69.6394 335.394 66.4357 335.732C65.4184 335.843 64.3938 335.869 63.3722 335.811C62.8484 335.764 62.3007 335.756 61.7849 335.676L60.0706 335.351C57.699 334.83 55.4443 333.874 53.4198 332.534C51.1815 331.042 49.2609 329.121 47.769 326.883C46.1378 324.457 45.0719 321.696 44.6499 318.803C44.2085 315.725 44.48 312.586 45.4436 309.629L45.6182 309.057L45.8563 308.502L46.3245 307.399C46.6737 306.669 47.1182 305.97 47.4991 305.272C48.3887 303.891 49.4442 302.625 50.642 301.502C52.9729 299.248 55.8289 297.612 58.9515 296.74C61.9362 295.933 65.0649 295.814 68.1023 296.391C70.9449 296.935 73.6313 298.103 75.9674 299.811C78.1289 301.376 79.9625 303.35 81.3642 305.621C82.6158 307.683 83.4818 309.955 83.9198 312.327C84.2982 314.423 84.3437 316.566 84.0547 318.676C83.6048 321.877 82.3757 324.919 80.4753 327.534L80.3722 327.43C80.3788 327.423 80.3868 327.418 80.3957 327.414C80.4046 327.41 80.4141 327.408 80.4237 327.408C80.4334 327.408 80.4429 327.41 80.4518 327.414C80.4607 327.418 80.4687 327.423 80.4753 327.43C80.4797 327.446 80.4797 327.462 80.4753 327.478C80.4753 329.272 80.4753 330.653 80.4753 331.629C80.4753 332.081 80.4753 332.423 80.4753 332.684C80.4753 332.946 80.4595 333.01 80.4595 333.01Z" fill="white" fill-opacity="0.2"/>
<path d="M55.6262 317.161L58.1024 314.51L63.1897 318.732L72.5707 309.073L75.0389 311.557L62.9913 323.692L55.6262 317.161Z" fill="#2666FA"/>
</g>
<defs>
<clipPath id="clip0_327_2176">
<rect width="300" height="342.857" fill="white"/>
</clipPath>
</defs>
</svg>
