<svg width="370" height="365" viewBox="0 0 370 365" fill="none" xmlns="http://www.w3.org/2000/svg">
<path d="M290.942 252.123C287.165 249.758 282.897 248.288 278.464 247.827C276.427 247.62 274.192 247.678 272.559 248.915C272.371 249.025 272.215 249.183 272.108 249.373C272 249.563 271.946 249.777 271.949 249.995C272.046 250.302 272.251 250.563 272.526 250.729C277.606 254.606 285.284 255.092 290.942 252.123Z" fill="#EFEFEF"/>
<path d="M290.62 251.769C287.73 249.651 285.033 247.28 282.563 244.684C280.085 242.069 278.341 238.846 277.507 235.341C277.346 234.822 277.298 234.274 277.366 233.735C277.435 233.196 277.618 232.677 277.903 232.215C284.328 237.229 289.375 243.761 290.62 251.769Z" fill="#EFEFEF"/>
<path d="M290.876 252.074C290.277 248.567 290.327 244.981 291.024 241.493C291.742 237.981 293.752 234.867 296.657 232.768C297.77 235.357 297.292 238.351 296.508 241.064C295.3 245.263 293.411 249.236 290.917 252.824" fill="#EFEFEF"/>
<path d="M297.168 263.38C293.35 263.842 290.018 265.854 287.165 268.444C284.302 271.043 282.304 274.456 281.441 278.225C285.194 277.994 288.369 275.347 290.678 272.386C292.987 269.425 294.587 266.168 297.119 263.397" fill="#EFEFEF"/>
<path d="M298.537 265.162C297.033 261.341 296.506 257.206 297.004 253.13C297.502 249.055 299.01 245.168 301.391 241.823C303.568 249.567 302.768 258.317 298.537 265.162Z" fill="#EFEFEF"/>
<path d="M306.858 275.075C303.364 274.855 299.882 275.669 296.847 277.416C293.813 279.162 291.36 281.764 289.795 284.897C289.658 285.088 289.574 285.314 289.554 285.549C289.534 285.784 289.577 286.02 289.68 286.233C289.826 286.377 290.006 286.482 290.203 286.54C290.401 286.597 290.609 286.605 290.81 286.563C294.175 286.348 297.152 284.328 299.618 282.019C302.083 279.709 304.219 277.07 306.933 275.066" fill="#EFEFEF"/>
<path d="M306.594 274.53C304.803 268.765 304.692 262.609 306.273 256.783C306.9 254.498 307.922 252.09 310.066 251.01C310.151 250.954 310.245 250.917 310.345 250.9C310.444 250.883 310.546 250.886 310.644 250.911C310.815 250.998 310.945 251.149 311.007 251.332C311.718 252.932 312.027 254.681 311.906 256.428C311.771 258.166 311.495 259.89 311.081 261.583C310.413 264.733 310.058 268.122 308.335 270.836C307.924 271.491 307.555 272.171 307.23 272.873C306.908 273.557 306.908 273.805 306.603 274.349" fill="#EFEFEF"/>
<path d="M328.614 277.813C326.965 271.611 328.713 264.081 332.63 258.993C332.919 258.622 333.298 258.218 333.768 258.259C334.486 258.325 334.675 259.29 334.642 260.007C334.348 266.391 332.258 272.563 328.614 277.813Z" fill="#EFEFEF"/>
<path d="M330.602 279.173C338.147 281.136 346.79 279.223 353.066 274.604C349.307 272.711 345.007 272.183 340.902 273.112C336.844 274.035 333.133 275.858 330.602 279.173Z" fill="#EFEFEF"/>
<path d="M332.276 275.042C336.498 268.155 344.597 263.661 352.662 263.248C351.739 266.547 349.042 269.079 345.999 270.621C342.955 272.163 339.558 272.831 336.209 273.483C334.906 273.739 333.125 274.019 332.276 275.042Z" fill="#EFEFEF"/>
<path d="M329.035 254.985C330.329 251.107 331.216 247.105 331.682 243.043C331.995 238.978 331.418 234.73 329.307 231.234C325.365 238.87 324.961 247.785 328.96 255.397" fill="#EFEFEF"/>
<path d="M342.32 248.272C346.931 239.885 356.34 233.188 365.866 232.248C362.196 241.402 352.176 248.47 342.32 248.272Z" fill="#EFEFEF"/>
<path d="M339.418 249.913C346.295 250.96 352.159 255.356 358.592 258.02C359.939 258.666 361.431 258.95 362.921 258.845C363.615 258.834 364.288 258.611 364.851 258.207C365.414 257.803 365.84 257.236 366.072 256.582C366.304 255.929 366.33 255.22 366.147 254.551C365.964 253.882 365.581 253.286 365.049 252.841C364.137 252.001 363.066 251.353 361.899 250.936C354.897 248.016 347.384 247.942 340.011 249.715" fill="#EFEFEF"/>
<path d="M335.434 254.738C336.993 255.183 337.521 255.991 338.733 257.047C342.941 260.62 347.916 263.174 353.272 264.51C353.825 264.65 354.559 264.708 354.831 264.205C355.103 263.702 354.765 263.232 354.452 262.844C352.122 260.108 349.1 258.049 345.702 256.882C342.345 255.636 339.442 254.127 335.434 254.449" fill="#EFEFEF"/>
<path d="M330.94 225.593C333.76 228.196 337.094 230.179 340.727 231.417C344.361 232.654 348.213 233.117 352.035 232.776C352.386 232.781 352.726 232.658 352.992 232.429C353.528 231.852 352.893 230.961 352.275 230.475C346.073 225.642 338.56 223.638 330.94 225.593Z" fill="#EFEFEF"/>
<path d="M336.267 223.646C340.003 220.9 344.334 219.074 348.909 218.319C353.483 217.564 358.172 217.9 362.592 219.3C359.149 222.494 354.73 224.435 350.048 224.809C345.422 225.227 340.758 224.834 336.267 223.646Z" fill="#EFEFEF"/>
<path d="M334.156 210.253C333.554 204.06 333.942 199.178 333.513 192.935C333.513 192.44 333.372 191.838 332.911 191.656C332.259 191.409 331.723 192.209 331.509 192.869C330.606 195.75 330.374 198.8 330.832 201.784C331.289 204.769 332.423 207.61 334.148 210.088" fill="#EFEFEF"/>
<path d="M333.702 210.938C337.747 208.325 341.234 204.936 343.962 200.967C345.982 198.196 347.689 194.881 347.26 191.475C345.83 191.511 344.425 191.859 343.143 192.495C341.861 193.13 340.734 194.037 339.838 195.153C338.067 197.393 336.781 199.977 336.061 202.74C335.236 205.462 334.667 208.257 333.702 210.938Z" fill="#EFEFEF"/>
<path d="M343.78 208.126C353.007 204.715 361.552 199.688 369.016 193.281C365.998 192.069 362.55 192.794 359.532 194.015C352.654 196.794 347.021 201.487 343.648 208.093" fill="#EFEFEF"/>
<path d="M336.539 214.327C341.199 214.83 345.933 215.152 350.559 214.393C355.186 213.635 359.392 211.828 363.639 210.047C364.01 209.94 364.327 209.699 364.53 209.371C364.597 209.173 364.602 208.96 364.544 208.76C364.487 208.559 364.37 208.381 364.208 208.249C363.881 207.993 363.501 207.815 363.095 207.73C358.476 206.435 353.495 207.045 348.959 208.554C344.631 210.038 340.471 211.973 336.548 214.327" fill="#EFEFEF"/>
<path d="M309.943 225.807C306.759 219.391 306.966 211.903 309.712 205.297C311.642 208.241 311.881 211.985 311.526 215.49C311.172 218.995 310.108 222.607 310.042 226.129" fill="#EFEFEF"/>
<path d="M297.242 219.407C293.262 219.355 289.315 220.135 285.654 221.698C281.993 223.26 278.698 225.57 275.982 228.479C279.94 229.098 284.022 228.075 287.626 226.318C291.169 224.438 294.51 222.199 297.597 219.638" fill="#EFEFEF"/>
<path d="M288.707 216.546C284.822 216.232 281.087 215.721 277.359 216.9C275.474 217.426 273.724 218.354 272.231 219.619C270.738 220.885 269.536 222.458 268.708 224.232C272.37 224.529 276.045 223.834 279.346 222.22C282.632 220.616 285.765 218.717 288.707 216.546Z" fill="#EFEFEF"/>
<path d="M301.341 216.678C297.853 214.393 294.265 212.059 290.2 211.111C286.134 210.163 281.425 210.864 278.588 213.931C281.887 215.861 285.87 216.092 289.688 216.084C293.507 216.076 298.183 216.084 301.778 217.313" fill="#EFEFEF"/>
<path d="M301.366 216.867C295.395 211.004 293.119 200.472 295.535 192.456C300.25 199.671 302.311 208.3 301.366 216.867Z" fill="#EFEFEF"/>
<path d="M317.786 200.25C318.907 197.635 319.699 194.889 320.713 192.225C321.63 189.513 323.045 186.996 324.886 184.803C326.76 182.6 329.427 181.225 332.309 180.976C331.391 185.016 329.641 188.819 327.17 192.143C324.7 195.468 321.562 198.24 317.959 200.283" fill="#EFEFEF"/>
<path d="M314.809 203.713C312.945 201.149 310.792 197.668 308.269 195.755C305.745 193.842 302.455 192.679 299.37 193.413C300.966 196.211 303.193 198.599 305.872 200.387C308.552 202.175 311.612 203.314 314.809 203.713Z" fill="#EFEFEF"/>
<path d="M315.402 200.464C314.065 197.407 313.077 194.209 312.458 190.931C311.847 187.622 312.373 184.204 313.951 181.232C317.25 187.426 318.289 194.073 315.6 200.538" fill="#EFEFEF"/>
<path d="M317.81 181.232C319.666 175.088 325.29 170.569 331.36 168.491C332.113 168.186 332.927 168.065 333.735 168.136C334.139 168.18 334.521 168.342 334.833 168.602C335.146 168.861 335.375 169.207 335.492 169.596C335.715 170.643 334.849 171.583 334.04 172.276C329.29 176.326 323.769 179.373 317.81 181.232Z" fill="#EFEFEF"/>
<path d="M317.876 176.21C318.116 172.251 318.363 168.235 319.649 164.482C320.936 160.73 323.418 157.209 327.031 155.567C327.649 159.567 325.884 163.542 323.732 166.99C321.579 170.437 319.039 173.678 317.761 177.513" fill="#EFEFEF"/>
<path d="M317.786 178.931C316.252 174.461 316.087 168.771 313.407 164.911C311.534 162.182 308.533 160.326 306.924 157.44C305.948 160.207 306.081 163.246 307.296 165.917C308.512 168.558 310.187 170.963 312.244 173.018C314.223 175.129 315.922 176.729 317.769 178.964" fill="#EFEFEF"/>
<path d="M317.81 310.735C317.695 310.735 317.588 280.88 317.579 244.058C317.571 207.235 317.662 177.373 317.786 177.373C317.909 177.373 318.008 207.227 318.017 244.058C318.025 280.889 317.934 310.735 317.81 310.735Z" fill="#EFEFEF"/>
<path d="M343.904 221.321C343.542 221.491 343.167 221.631 342.782 221.741L339.69 222.78C337.084 223.671 333.504 224.958 329.628 226.549C325.752 228.141 322.157 229.535 320.087 231.324C319.263 232.01 318.608 232.876 318.173 233.856C317.876 234.557 317.819 234.986 317.786 234.986C317.753 234.986 317.786 234.871 317.786 234.673C317.832 234.375 317.907 234.082 318.008 233.798C318.398 232.755 319.041 231.825 319.88 231.093C321.122 230.042 322.512 229.178 324.004 228.529C325.653 227.753 327.501 226.945 329.447 226.145C333.339 224.554 336.943 223.308 339.582 222.492C340.894 222.079 341.974 221.783 342.716 221.576C343.103 221.452 343.5 221.366 343.904 221.321Z" fill="#EFEFEF"/>
<path d="M352.456 200.299C352.364 200.42 352.259 200.531 352.143 200.629L351.186 201.528L347.607 204.777L335.698 215.383C331.055 219.506 327.039 223.465 324.26 226.442C322.866 227.927 321.785 229.164 321.018 230.021C320.664 230.417 320.383 230.747 320.153 231.011C319.922 231.275 319.839 231.349 319.831 231.333C319.823 231.316 319.905 231.192 320.087 230.953C320.268 230.714 320.532 230.359 320.911 229.914C321.621 229.015 322.684 227.753 324.053 226.236C327.65 222.313 331.452 218.583 335.442 215.061C340.102 210.938 344.349 207.227 347.425 204.555L351.095 201.404L352.11 200.58C352.299 200.373 352.448 200.283 352.456 200.299Z" fill="#EFEFEF"/>
<path d="M330.684 219.589C330.56 219.531 331.509 217.288 332.498 214.459C333.488 211.631 333.942 209.231 334.065 209.247C333.96 211.078 333.57 212.88 332.911 214.591C332.496 215.813 332.015 217.011 331.467 218.179C331.274 218.683 331.01 219.158 330.684 219.589Z" fill="#EFEFEF"/>
<path d="M317.843 237.658C317.576 237.409 317.336 237.132 317.126 236.833L315.287 234.516C313.745 232.52 311.617 229.774 309.234 226.764C306.85 223.754 304.648 221.057 303.057 219.102L301.168 216.744C300.923 216.468 300.705 216.17 300.516 215.853C300.799 216.089 301.059 216.351 301.292 216.636C301.77 217.148 302.446 217.915 303.271 218.863C304.92 220.768 307.164 223.44 309.555 226.459C311.947 229.477 314.033 232.231 315.518 234.293C316.26 235.308 316.846 236.141 317.241 236.726C317.467 237.02 317.669 237.331 317.843 237.658Z" fill="#EFEFEF"/>
<path d="M312.12 230.31C310.962 229.035 310.138 227.494 309.72 225.824C309.276 224.361 309.092 222.831 309.176 221.304H309.366C309.283 221.651 309.225 221.832 309.184 221.824C309.143 221.816 309.184 221.626 309.184 221.271H309.374C309.466 222.76 309.721 224.234 310.132 225.667C310.676 227.263 311.341 228.815 312.12 230.31Z" fill="#EFEFEF"/>
<path d="M304.731 221.024C304.226 220.629 303.671 220.301 303.081 220.051C301.577 219.6 299.995 219.474 298.438 219.68C296.861 219.802 295.297 220.055 293.762 220.438C293.13 220.634 292.485 220.788 291.832 220.9C292.405 220.552 293.028 220.296 293.68 220.141C295.216 219.668 296.802 219.369 298.405 219.251C300.021 219.033 301.665 219.211 303.197 219.77C303.84 219.994 304.383 220.438 304.731 221.024Z" fill="#EFEFEF"/>
<path d="M302.982 218.772C302.982 218.838 302.009 218.377 300.417 217.84C298.351 217.134 296.203 216.691 294.026 216.521C291.846 216.362 289.655 216.473 287.503 216.851C285.853 217.148 284.847 217.461 284.822 217.387C285.032 217.252 285.264 217.155 285.507 217.098C286.139 216.878 286.783 216.696 287.437 216.554C291.803 215.598 296.354 215.945 300.525 217.552C301.151 217.789 301.763 218.064 302.356 218.377C302.584 218.475 302.795 218.609 302.982 218.772Z" fill="#EFEFEF"/>
<path d="M317.786 209.247C317.022 207.126 316.397 204.958 315.914 202.757C315.291 200.59 314.806 198.387 314.462 196.159C315.22 198.284 315.845 200.455 316.334 202.658C316.956 204.822 317.441 207.022 317.786 209.247Z" fill="#EFEFEF"/>
<path d="M317.901 209.247C317.3 207.907 316.608 206.609 315.831 205.363C314.952 204.187 313.927 203.128 312.78 202.212C313.215 202.322 313.618 202.531 313.959 202.823C314.823 203.459 315.575 204.233 316.186 205.115C317.111 206.318 317.703 207.743 317.901 209.247Z" fill="#EFEFEF"/>
<path d="M317.81 294.818C317.769 294.818 317.678 294.1 317.34 292.83C316.847 291.048 316.178 289.319 315.345 287.668C313.283 283.454 309.53 278.101 304.764 272.749C302.397 270.052 300.104 267.504 298.166 265.063C296.419 262.921 294.842 260.646 293.449 258.259C292.509 256.647 291.711 254.955 291.065 253.204C290.843 252.577 290.686 252.099 290.595 251.76C290.531 251.593 290.49 251.419 290.472 251.241C290.513 251.241 290.727 251.925 291.222 253.146C291.918 254.857 292.745 256.511 293.696 258.094C295.116 260.447 296.709 262.691 298.463 264.807C300.418 267.223 302.71 269.755 305.061 272.46C309.844 277.829 313.588 283.239 315.6 287.528C316.414 289.209 317.044 290.973 317.481 292.789C317.596 293.282 317.684 293.78 317.744 294.282C317.787 294.457 317.809 294.637 317.81 294.818Z" fill="#EFEFEF"/>
<path d="M341.389 268.188C340.994 268.449 340.58 268.681 340.151 268.881C339.035 269.51 337.966 270.218 336.952 271.001C335.45 272.171 334.041 273.456 332.737 274.844C331.261 276.402 329.744 278.217 328.185 280.155C325.084 284.056 322.181 287.503 320.441 290.249C319.559 291.618 318.916 292.773 318.495 293.548C318.296 293.978 318.067 294.394 317.81 294.793C317.834 294.673 317.873 294.557 317.926 294.447C318.017 294.224 318.14 293.886 318.338 293.474C318.885 292.304 319.499 291.166 320.177 290.068C321.868 287.247 324.754 283.75 327.847 279.858C329.406 277.92 330.948 276.097 332.449 274.539C333.78 273.155 335.222 271.884 336.762 270.737C337.8 269.966 338.904 269.287 340.061 268.708C340.465 268.502 340.803 268.378 341.026 268.287C341.141 268.236 341.263 268.202 341.389 268.188Z" fill="#EFEFEF"/>
<path d="M341.85 276.831C340.989 277.017 340.115 277.144 339.236 277.211C337.139 277.427 335.065 277.836 333.043 278.431C331.044 279.08 329.169 280.065 327.501 281.342C326.222 282.324 325.62 283.14 325.554 283.099C325.649 282.878 325.78 282.675 325.942 282.497C326.348 281.988 326.804 281.521 327.303 281.103C328.958 279.726 330.861 278.679 332.911 278.019C334.962 277.41 337.076 277.036 339.211 276.905C340.087 276.8 340.97 276.775 341.85 276.831Z" fill="#EFEFEF"/>
<path d="M326.321 282.151C326.181 282.068 327.36 280.27 328.276 277.854C329.191 275.437 329.331 273.277 329.488 273.302C329.547 273.768 329.53 274.242 329.439 274.704C329.312 275.828 329.058 276.935 328.68 278.002C328.286 279.063 327.777 280.078 327.162 281.029C326.945 281.446 326.66 281.825 326.321 282.151Z" fill="#EFEFEF"/>
<path d="M349.001 244.998C348.871 245.091 348.73 245.166 348.58 245.221L347.351 245.773C346.815 246.004 346.164 246.301 345.43 246.688C344.696 247.076 343.83 247.464 342.956 248L341.537 248.824C341.042 249.113 340.547 249.443 340.028 249.773C338.98 250.408 337.925 251.191 336.803 252C331.997 255.584 327.803 259.923 324.383 264.848C323.616 266.003 322.874 267.075 322.272 268.147C321.967 268.683 321.645 269.178 321.373 269.681L320.614 271.141C320.111 272.048 319.748 272.922 319.386 273.673C319.023 274.423 318.759 275.083 318.561 275.627C318.363 276.171 318.182 276.551 318.05 276.872C318 277.025 317.928 277.17 317.835 277.301C317.864 277.146 317.908 276.994 317.967 276.848C318.083 276.51 318.223 276.089 318.404 275.569C318.586 275.05 318.841 274.341 319.188 273.582C319.534 272.823 319.864 271.932 320.359 271.001L321.101 269.524C321.357 269.013 321.678 268.51 321.975 267.966C322.569 266.885 323.311 265.788 324.07 264.626C327.474 259.628 331.708 255.249 336.589 251.678C337.727 250.853 338.791 250.103 339.888 249.468C340.415 249.146 340.91 248.816 341.413 248.536L342.865 247.711C343.772 247.192 344.646 246.812 345.397 246.449C346.147 246.086 346.815 245.814 347.359 245.625L348.621 245.138C348.742 245.077 348.869 245.03 349.001 244.998Z" fill="#EFEFEF"/>
<path d="M330.362 257.5C330.54 256.897 330.9 256.364 331.393 255.975C332.538 254.977 333.998 254.413 335.517 254.383C337.008 254.374 338.486 254.654 339.871 255.208C340.459 255.398 341.015 255.676 341.52 256.032C340.924 255.914 340.338 255.743 339.772 255.521C338.41 255.056 336.981 254.819 335.541 254.82C334.11 254.848 332.726 255.333 331.591 256.205C331.151 256.607 330.74 257.04 330.362 257.5Z" fill="#EFEFEF"/>
<path d="M327.558 260.378C328.113 259.161 328.509 257.878 328.738 256.56C328.819 255.224 328.73 253.883 328.474 252.569C328.718 252.897 328.881 253.279 328.952 253.682C329.458 255.606 329.219 257.65 328.284 259.405C327.938 260.082 327.616 260.403 327.558 260.378Z" fill="#EFEFEF"/>
<path d="M297.193 299.098C297.836 310.512 301.275 322.115 306.562 333.843H329.562C334.601 322.231 337.809 310.644 338.37 299.098H297.193Z" fill="#EFEFEF"/>
<path d="M334.643 317.563C334.643 317.679 327.072 317.777 317.736 317.777C308.401 317.777 300.822 317.679 300.822 317.563C300.822 317.448 308.392 317.349 317.736 317.349C327.08 317.349 334.643 317.439 334.643 317.563Z" fill="#FAFAFA"/>
<path d="M334.156 321.695C334.156 321.81 327.055 321.909 318.305 321.909C309.555 321.909 302.446 321.81 302.446 321.695C302.446 321.579 309.547 321.48 318.305 321.48C327.064 321.48 334.156 321.579 334.156 321.695Z" fill="#FAFAFA"/>
<path d="M306.941 306.586C307.227 310.113 307.227 313.657 306.941 317.184C306.655 313.657 306.655 310.113 306.941 306.586Z" fill="#FAFAFA"/>
<path d="M319.254 306.586C319.54 310.24 319.54 313.91 319.254 317.563C318.968 313.91 318.968 310.24 319.254 306.586Z" fill="#FAFAFA"/>
<path d="M330.857 306.496C331.143 310.221 331.143 313.962 330.857 317.687C330.571 313.962 330.571 310.221 330.857 306.496Z" fill="#FAFAFA"/>
<path d="M337.644 306.586C337.644 306.71 328.762 306.809 317.81 306.809C306.858 306.809 297.976 306.71 297.976 306.586C297.976 306.463 306.85 306.372 317.81 306.372C328.771 306.372 337.644 306.471 337.644 306.586Z" fill="#FAFAFA"/>
<path d="M357.85 338.428C357.85 338.543 277.986 338.642 179.484 338.642C80.9816 338.642 1.10132 338.543 1.10132 338.428C1.10132 338.312 80.9486 338.213 179.484 338.213C278.019 338.213 357.85 338.304 357.85 338.428Z" fill="#263238"/>
<path d="M236.132 1.12613H212.463C211.688 1.14112 210.923 1.30915 210.213 1.62057C209.502 1.93199 208.861 2.38067 208.324 2.94085C207.788 3.50102 207.367 4.16164 207.087 4.88478C206.807 5.60792 206.672 6.37932 206.69 7.15468V11.4679C206.709 12.2432 206.574 13.0146 206.294 13.7378C206.014 14.4609 205.593 15.1215 205.057 15.6817C204.52 16.2419 203.879 16.6905 203.168 17.002C202.458 17.3134 201.693 17.4814 200.918 17.4964H154.734C153.959 17.4803 153.195 17.3116 152.485 16.9998C151.775 16.688 151.134 16.2393 150.598 15.6793C150.062 15.1194 149.641 14.4592 149.36 13.7365C149.08 13.0139 148.944 12.2429 148.962 11.4679V7.12169C148.98 6.34593 148.846 5.57411 148.565 4.85051C148.285 4.1269 147.865 3.46573 147.328 2.9049C146.792 2.34407 146.15 1.89462 145.44 1.5823C144.73 1.26999 143.965 1.10096 143.189 1.0849H134.991H114.275C111.823 1.08706 109.396 1.57254 107.131 2.51358C104.867 3.45461 102.811 4.83273 101.08 6.56914C99.3489 8.30554 97.9772 10.3661 97.0431 12.6331C96.1091 14.9001 95.6311 17.329 95.6365 19.7808L95.5788 319.658C95.5701 324.607 97.5265 329.357 101.018 332.864C104.51 336.371 109.251 338.349 114.201 338.362L236.058 338.436C238.51 338.434 240.937 337.949 243.201 337.007C245.465 336.066 247.522 334.688 249.253 332.952C250.984 331.216 252.356 329.155 253.29 326.888C254.224 324.621 254.702 322.192 254.696 319.74L254.754 19.855C254.763 17.4021 254.288 14.9715 253.356 12.7023C252.425 10.4331 251.055 8.36973 249.326 6.63027C247.596 4.8908 245.541 3.50934 243.277 2.56489C241.013 1.62044 238.585 1.13154 236.132 1.12613Z" fill="white"/>
<path d="M227.712 218.5H115.421C112.793 218.5 110.663 220.631 110.663 223.259V240.297C110.663 242.925 112.793 245.056 115.421 245.056H227.712C230.34 245.056 232.471 242.925 232.471 240.297V223.259C232.471 220.631 230.34 218.5 227.712 218.5Z" fill="#55A2FF"/>
<path d="M116.774 124.476V124.922H113.326V120.048H116.675V120.493H113.838V122.225H116.361V122.67H113.838V124.476H116.774Z" fill="#262626"/>
<path d="M117.475 122.819H119.297V123.256H117.475V122.819Z" fill="#262626"/>
<path d="M126.456 122.802V124.922H125.961V122.852C125.961 122.076 125.573 121.672 124.913 121.672C124.741 121.665 124.57 121.695 124.411 121.761C124.252 121.827 124.109 121.926 123.992 122.052C123.875 122.179 123.787 122.329 123.734 122.492C123.681 122.656 123.664 122.829 123.685 123V124.922H123.19V122.852C123.19 122.076 122.802 121.672 122.134 121.672C121.962 121.665 121.791 121.695 121.632 121.761C121.473 121.827 121.33 121.926 121.213 122.052C121.096 122.179 121.008 122.329 120.955 122.492C120.902 122.656 120.885 122.829 120.905 123V124.922H120.411V121.26H120.881V121.928C121.022 121.702 121.221 121.518 121.458 121.395C121.694 121.272 121.959 121.214 122.225 121.227C122.495 121.207 122.766 121.27 122.999 121.409C123.232 121.548 123.417 121.755 123.528 122.002C123.681 121.757 123.895 121.557 124.15 121.421C124.405 121.285 124.691 121.218 124.979 121.227C125.186 121.211 125.393 121.242 125.586 121.317C125.779 121.393 125.953 121.51 126.095 121.661C126.236 121.812 126.342 121.993 126.405 122.191C126.467 122.388 126.484 122.597 126.456 122.802Z" fill="#262626"/>
<path d="M130.571 122.654V124.922H130.101V124.353C129.964 124.558 129.775 124.723 129.553 124.83C129.331 124.938 129.085 124.983 128.839 124.963C128.014 124.963 127.503 124.526 127.503 123.891C127.503 123.256 127.858 122.852 128.913 122.852H130.076V122.629C130.076 122.002 129.721 121.664 129.037 121.664C128.592 121.659 128.16 121.811 127.816 122.093L127.594 121.722C128.019 121.39 128.547 121.215 129.086 121.227C129.283 121.198 129.484 121.215 129.673 121.275C129.862 121.336 130.035 121.439 130.178 121.577C130.321 121.715 130.431 121.883 130.499 122.07C130.567 122.256 130.592 122.456 130.571 122.654ZM130.076 123.825V123.223H128.93C128.22 123.223 127.989 123.503 127.989 123.883C127.989 124.262 128.328 124.567 128.913 124.567C129.161 124.584 129.407 124.521 129.617 124.387C129.826 124.253 129.987 124.056 130.076 123.825Z" fill="#262626"/>
<path d="M131.808 120.097C131.808 120.025 131.829 119.955 131.869 119.896C131.909 119.836 131.966 119.789 132.032 119.762C132.098 119.734 132.171 119.727 132.241 119.741C132.312 119.755 132.377 119.79 132.427 119.841C132.478 119.891 132.513 119.956 132.527 120.026C132.541 120.097 132.533 120.17 132.506 120.236C132.478 120.302 132.432 120.359 132.372 120.399C132.313 120.439 132.242 120.46 132.171 120.46C132.123 120.461 132.075 120.453 132.031 120.435C131.986 120.417 131.946 120.39 131.912 120.356C131.878 120.322 131.851 120.282 131.833 120.237C131.815 120.193 131.807 120.145 131.808 120.097ZM131.915 121.26H132.418V124.922H131.915V121.26Z" fill="#262626"/>
<path d="M133.795 119.751H134.29V124.922H133.795V119.751Z" fill="#262626"/>
<path d="M115.281 169.761C115.281 170.8 114.53 171.41 113.285 171.41H111.974V172.952H111.487V168.07H113.31C114.53 168.086 115.281 168.721 115.281 169.761ZM114.77 169.761C114.77 168.985 114.25 168.54 113.277 168.54H111.974V171.014H113.277C114.25 171.014 114.786 170.528 114.786 169.761H114.77Z" fill="#262626"/>
<path d="M119.025 170.701V172.969H118.555V172.4C118.418 172.604 118.229 172.768 118.007 172.874C117.785 172.98 117.538 173.024 117.293 173.002C116.468 173.002 115.949 172.573 115.949 171.938C115.949 171.303 116.312 170.899 117.367 170.899H118.53V170.676C118.53 170.049 118.176 169.711 117.491 169.711C117.046 169.706 116.614 169.858 116.271 170.14L116.048 169.769C116.474 169.437 117.001 169.262 117.541 169.274C117.737 169.245 117.938 169.262 118.127 169.322C118.316 169.383 118.489 169.486 118.632 169.624C118.775 169.761 118.885 169.93 118.953 170.117C119.021 170.303 119.046 170.503 119.025 170.701ZM118.53 171.872V171.27H117.384C116.666 171.27 116.435 171.55 116.435 171.921C116.435 172.292 116.782 172.614 117.367 172.614C117.619 172.627 117.868 172.559 118.077 172.419C118.287 172.279 118.445 172.076 118.53 171.839V171.872Z" fill="#262626"/>
<path d="M119.866 172.548L120.089 172.16C120.468 172.434 120.925 172.578 121.392 172.573C122.085 172.573 122.373 172.334 122.373 171.971C122.373 171.014 119.998 171.773 119.998 170.321C119.998 169.719 120.509 169.274 121.441 169.274C121.899 169.267 122.351 169.386 122.744 169.62L122.522 170.016C122.202 169.803 121.825 169.694 121.441 169.703C120.782 169.703 120.493 169.958 120.493 170.305C120.493 171.294 122.868 170.552 122.868 171.954C122.868 172.589 122.307 172.993 121.351 172.993C120.82 173.014 120.298 172.857 119.866 172.548Z" fill="#262626"/>
<path d="M123.272 172.548L123.495 172.16C123.874 172.434 124.331 172.578 124.798 172.573C125.499 172.573 125.779 172.334 125.779 171.971C125.779 171.014 123.404 171.773 123.404 170.321C123.404 169.719 123.924 169.274 124.856 169.274C125.311 169.268 125.759 169.388 126.15 169.62L125.936 170.016C125.616 169.805 125.239 169.696 124.856 169.703C124.188 169.703 123.899 169.958 123.899 170.305C123.899 171.294 126.274 170.552 126.274 171.954C126.274 172.589 125.722 172.993 124.765 172.993C124.232 173.015 123.706 172.858 123.272 172.548Z" fill="#262626"/>
<path d="M132.501 169.307L131.115 172.969H130.645L129.49 169.967L128.336 172.969H127.866L126.489 169.307H126.959L128.113 172.416L129.292 169.307H129.713L130.884 172.416L132.047 169.307H132.501Z" fill="#262626"/>
<path d="M132.773 171.138C132.771 170.767 132.88 170.404 133.084 170.095C133.289 169.787 133.581 169.545 133.923 169.402C134.265 169.259 134.641 169.221 135.005 169.292C135.369 169.364 135.703 169.541 135.966 169.803C136.228 170.064 136.407 170.398 136.48 170.761C136.553 171.125 136.517 171.501 136.375 171.844C136.234 172.187 135.994 172.479 135.686 172.686C135.378 172.892 135.015 173.002 134.645 173.002C134.397 173.011 134.15 172.969 133.92 172.879C133.689 172.788 133.479 172.652 133.304 172.477C133.128 172.302 132.99 172.093 132.899 171.862C132.808 171.632 132.765 171.385 132.773 171.138ZM136.006 171.138C135.994 170.869 135.904 170.61 135.747 170.393C135.589 170.175 135.371 170.009 135.12 169.914C134.868 169.82 134.595 169.801 134.333 169.861C134.071 169.921 133.832 170.056 133.647 170.251C133.462 170.445 133.338 170.69 133.29 170.954C133.243 171.218 133.274 171.491 133.381 171.738C133.487 171.984 133.664 172.194 133.888 172.341C134.113 172.488 134.376 172.566 134.645 172.565C134.83 172.568 135.014 172.534 135.186 172.462C135.357 172.391 135.511 172.285 135.639 172.151C135.767 172.017 135.866 171.857 135.929 171.683C135.992 171.508 136.018 171.323 136.006 171.138Z" fill="#262626"/>
<path d="M139.362 169.274V169.752H139.247C139.072 169.743 138.897 169.773 138.735 169.84C138.573 169.906 138.427 170.008 138.309 170.137C138.191 170.266 138.103 170.42 138.051 170.587C137.999 170.755 137.985 170.931 138.01 171.105V172.969H137.515V169.307H137.993V170.024C138.117 169.774 138.314 169.568 138.559 169.433C138.804 169.299 139.084 169.243 139.362 169.274Z" fill="#262626"/>
<path d="M143.568 167.798V172.969H143.09V172.243C142.943 172.483 142.735 172.68 142.488 172.814C142.24 172.947 141.961 173.012 141.679 173.002C141.185 173.002 140.711 172.805 140.362 172.456C140.012 172.106 139.816 171.632 139.816 171.138C139.816 170.643 140.012 170.169 140.362 169.82C140.711 169.47 141.185 169.274 141.679 169.274C141.954 169.269 142.225 169.334 142.468 169.46C142.712 169.587 142.92 169.772 143.073 170V167.798H143.568ZM143.081 171.138C143.07 170.869 142.98 170.61 142.823 170.393C142.665 170.175 142.447 170.009 142.196 169.914C141.944 169.82 141.671 169.801 141.409 169.861C141.147 169.921 140.908 170.056 140.723 170.251C140.538 170.445 140.414 170.69 140.366 170.954C140.319 171.218 140.35 171.491 140.457 171.738C140.563 171.984 140.739 172.194 140.964 172.341C141.189 172.488 141.452 172.566 141.721 172.565C141.906 172.568 142.09 172.534 142.262 172.462C142.433 172.391 142.587 172.285 142.715 172.151C142.843 172.017 142.942 171.857 143.005 171.683C143.068 171.508 143.094 171.323 143.081 171.138Z" fill="#262626"/>
<path d="M155.658 233.864L156.145 232.784C156.744 233.198 157.453 233.423 158.182 233.427C159.006 233.427 159.369 233.147 159.369 232.768C159.369 231.613 155.782 232.405 155.782 230.112C155.782 229.065 156.607 228.19 158.38 228.19C159.131 228.173 159.872 228.361 160.524 228.735L160.087 229.823C159.567 229.514 158.976 229.347 158.371 229.337C157.547 229.337 157.2 229.65 157.2 230.038C157.2 231.176 160.788 230.392 160.788 232.66C160.788 233.691 159.963 234.574 158.173 234.574C157.283 234.597 156.406 234.349 155.658 233.864Z" fill="white"/>
<path d="M161.505 228.298C161.52 228.089 161.613 227.894 161.766 227.752C161.919 227.609 162.121 227.53 162.33 227.531C162.433 227.523 162.536 227.536 162.634 227.569C162.731 227.602 162.821 227.654 162.898 227.723C162.975 227.791 163.038 227.874 163.082 227.967C163.126 228.061 163.15 228.162 163.155 228.265C163.155 228.491 163.065 228.708 162.905 228.868C162.745 229.028 162.527 229.118 162.301 229.118C162.075 229.118 161.858 229.028 161.698 228.868C161.537 228.708 161.448 228.491 161.448 228.265L161.505 228.298ZM161.67 229.724H163.047V234.466H161.67V229.724Z" fill="white"/>
<path d="M169.216 231.753V234.466H167.847V231.992C167.847 231.217 167.493 230.871 166.882 230.871C166.272 230.871 165.744 231.275 165.744 232.149V234.491H164.367V229.749H165.686V230.302C165.889 230.093 166.133 229.929 166.403 229.821C166.673 229.713 166.963 229.663 167.253 229.675C167.526 229.657 167.799 229.7 168.053 229.799C168.307 229.899 168.536 230.054 168.724 230.252C168.911 230.451 169.052 230.688 169.138 230.948C169.223 231.207 169.25 231.482 169.216 231.753Z" fill="white"/>
<path d="M175.368 229.724V233.691C175.368 235.456 174.42 236.264 172.705 236.264C171.88 236.301 171.065 236.073 170.379 235.613L170.923 234.623C171.402 234.974 171.979 235.164 172.573 235.167C173.546 235.167 173.966 234.722 173.966 233.864V233.691C173.774 233.891 173.542 234.047 173.284 234.149C173.027 234.252 172.75 234.298 172.474 234.285C172.161 234.304 171.847 234.258 171.552 234.151C171.257 234.044 170.987 233.878 170.759 233.663C170.53 233.448 170.348 233.188 170.224 232.9C170.099 232.612 170.035 232.302 170.035 231.988C170.035 231.674 170.099 231.364 170.224 231.076C170.348 230.788 170.53 230.528 170.759 230.313C170.987 230.098 171.257 229.932 171.552 229.825C171.847 229.718 172.161 229.673 172.474 229.691C172.77 229.675 173.067 229.728 173.339 229.847C173.611 229.966 173.851 230.147 174.041 230.376V229.766L175.368 229.724ZM174.016 231.943C174.033 231.692 173.973 231.441 173.845 231.225C173.718 231.008 173.528 230.834 173.3 230.727C173.073 230.619 172.818 230.583 172.569 230.622C172.321 230.662 172.09 230.775 171.906 230.947C171.723 231.12 171.596 231.343 171.541 231.589C171.487 231.835 171.508 232.091 171.601 232.325C171.694 232.559 171.855 232.759 172.064 232.9C172.273 233.04 172.519 233.115 172.771 233.114C172.931 233.127 173.092 233.106 173.244 233.052C173.396 232.999 173.535 232.914 173.653 232.804C173.77 232.694 173.863 232.56 173.925 232.412C173.988 232.264 174.019 232.104 174.016 231.943Z" fill="white"/>
<path d="M178.981 228.298C178.995 228.089 179.089 227.894 179.242 227.752C179.395 227.609 179.596 227.53 179.805 227.531C179.908 227.523 180.011 227.536 180.109 227.569C180.207 227.602 180.297 227.654 180.374 227.723C180.451 227.791 180.513 227.874 180.557 227.967C180.601 228.061 180.626 228.162 180.63 228.265C180.63 228.491 180.54 228.708 180.38 228.868C180.22 229.028 180.003 229.118 179.776 229.118C179.55 229.118 179.333 229.028 179.173 228.868C179.013 228.708 178.923 228.491 178.923 228.265L178.981 228.298ZM179.146 229.724H180.523V234.466H179.113L179.146 229.724Z" fill="white"/>
<path d="M186.65 231.753V234.466H185.281V231.992C185.281 231.217 184.927 230.871 184.316 230.871C183.706 230.871 183.178 231.275 183.178 232.149V234.491H181.801V229.749H183.112V230.302C183.317 230.093 183.562 229.93 183.834 229.822C184.105 229.714 184.396 229.664 184.688 229.675C184.96 229.657 185.233 229.7 185.487 229.799C185.741 229.899 185.97 230.054 186.158 230.252C186.345 230.451 186.486 230.688 186.572 230.948C186.657 231.207 186.684 231.482 186.65 231.753Z" fill="white"/>
<path d="M226.689 130.208H116.444C113.251 130.208 110.663 132.796 110.663 135.989V150.776C110.663 153.969 113.251 156.557 116.444 156.557H226.689C229.882 156.557 232.471 153.969 232.471 150.776V135.989C232.471 132.796 229.882 130.208 226.689 130.208Z" fill="#EFEFEF"/>
<path d="M226.689 177.76H116.444C113.251 177.76 110.663 180.348 110.663 183.541V198.328C110.663 201.521 113.251 204.109 116.444 204.109H226.689C229.882 204.109 232.471 201.521 232.471 198.328V183.541C232.471 180.348 229.882 177.76 226.689 177.76Z" fill="#EFEFEF"/>
<path d="M227.712 301.16C227.712 301.16 227.968 301.16 228.454 301.077C229.168 300.956 229.845 300.674 230.434 300.253C231.399 299.565 232.068 298.536 232.306 297.374C232.409 296.631 232.439 295.88 232.396 295.131C232.396 294.307 232.396 293.482 232.396 292.542C232.396 288.888 232.396 284.427 232.355 279.248C232.337 278.593 232.181 277.95 231.897 277.36C231.612 276.77 231.206 276.247 230.706 275.825C230.179 275.383 229.559 275.067 228.891 274.901C228.195 274.755 227.482 274.705 226.772 274.753H217.453L115.446 274.811C114.248 274.815 113.099 275.288 112.246 276.13C111.824 276.545 111.488 277.039 111.257 277.584C111.027 278.129 110.906 278.714 110.902 279.305C110.902 281.763 110.902 284.204 110.902 286.629V295.643C110.874 296.219 110.91 296.797 111.009 297.366C111.252 298.479 111.906 299.46 112.84 300.112C113.299 300.434 113.813 300.669 114.357 300.805C114.913 300.923 115.481 300.97 116.048 300.945H139.626L185.488 300.995L216.405 301.061L224.809 301.102L216.405 301.143L185.463 301.316L139.601 301.366H116.023C115.423 301.398 114.821 301.348 114.234 301.218C113.641 301.075 113.081 300.82 112.584 300.467C111.562 299.754 110.846 298.682 110.58 297.465C110.473 296.867 110.434 296.258 110.465 295.651V279.305C110.465 277.993 110.986 276.734 111.914 275.806C112.842 274.878 114.1 274.357 115.413 274.357L217.42 274.423H226.739C227.472 274.375 228.207 274.43 228.924 274.588C229.628 274.766 230.282 275.102 230.838 275.569C231.362 276.017 231.787 276.57 232.086 277.192C232.384 277.814 232.549 278.492 232.57 279.182C232.57 284.369 232.57 288.831 232.57 292.484C232.57 293.399 232.57 294.257 232.57 295.074C232.606 295.831 232.57 296.591 232.462 297.341C232.203 298.529 231.505 299.574 230.508 300.269C229.907 300.697 229.216 300.979 228.487 301.094C228.232 301.143 227.972 301.165 227.712 301.16Z" fill="#E0E0E0"/>
<path d="M198.666 287.882C198.666 287.998 186.337 288.097 171.129 288.097C155.922 288.097 143.601 287.998 143.601 287.882C143.601 287.767 155.922 287.668 171.129 287.668C186.337 287.668 198.666 287.767 198.666 287.882Z" fill="#E0E0E0"/>
<path d="M187.5 75.5C194.404 68.5964 194.404 57.4036 187.5 50.5C180.596 43.5964 169.404 43.5964 162.5 50.5C155.596 57.4035 155.596 68.5964 162.5 75.5C169.404 82.4036 180.596 82.4035 187.5 75.5Z" fill="#EFEFEF"/>
<path d="M186.43 76.4096C186.117 73.6146 184.773 71.0366 182.661 69.18C180.548 67.3234 177.819 66.3216 175.007 66.3706C172.207 66.3907 169.509 67.4221 167.41 69.2747C165.311 71.1274 163.952 73.6765 163.584 76.452C165.109 77.8855 166.905 78.9988 168.867 79.7264C170.829 80.4539 172.917 80.7809 175.007 80.6879C179.227 80.805 183.325 79.2699 186.43 76.4096Z" fill="#E0E0E0"/>
<path d="M175.007 67.5849C178.836 67.5849 181.94 64.4811 181.94 60.6522C181.94 56.8234 178.836 53.7196 175.007 53.7196C171.178 53.7196 168.074 56.8234 168.074 60.6522C168.074 64.4811 171.178 67.5849 175.007 67.5849Z" fill="#E0E0E0"/>
<path d="M239.942 96.9726C239.942 97.0963 210.938 97.1871 175.171 97.1871C139.403 97.1871 110.39 97.0963 110.39 96.9726C110.39 96.8489 139.387 96.7582 175.171 96.7582C210.954 96.7582 239.942 96.8572 239.942 96.9726Z" fill="#E0E0E0"/>
<path d="M239.942 259.958C239.942 260.073 210.938 260.172 175.171 260.172C139.403 260.172 110.39 260.073 110.39 259.958C110.39 259.842 139.387 259.743 175.171 259.743C210.954 259.743 239.942 259.842 239.942 259.958Z" fill="#E0E0E0"/>
<path opacity="0.6" d="M123.136 191.342L124.649 192.197L124.256 192.875L122.708 191.966V193.703H121.941V191.966L120.4 192.875L120 192.197L121.534 191.342L120 190.5L120.4 189.821L121.941 190.724V189H122.708V190.724L124.256 189.821L124.649 190.5L123.136 191.342Z" fill="#262626"/>
<path opacity="0.6" d="M132.779 191.342L134.307 192.198L133.906 192.877L132.365 191.967V193.705H131.591V191.967L130.043 192.877L129.649 192.198L131.177 191.342L129.649 190.5L130.043 189.821L131.591 190.724V189H132.358V190.724L133.899 189.821L134.3 190.5L132.779 191.342Z" fill="#262626"/>
<path opacity="0.6" d="M142.459 191.317L143.981 192.173L143.587 192.852L142.017 191.969V193.708H141.25V191.969L139.701 192.879L139.307 192.2L140.842 191.344L139.307 190.501L139.701 189.822L141.25 190.726V189H142.017V190.726L143.566 189.822L143.96 190.501L142.459 191.317Z" fill="#262626"/>
<path opacity="0.6" d="M152.116 191.347L153.64 192.204L153.245 192.884L151.695 191.972V193.714H150.926V191.972L149.382 192.884L148.981 192.204L150.518 191.347L149.021 190.503L149.423 189.823L150.967 190.728V189H151.742V190.728L153.293 189.823L153.687 190.503L152.116 191.347Z" fill="#262626"/>
<path opacity="0.6" d="M123.28 143.354V145.448H122.786V143.37C122.807 143.217 122.794 143.061 122.747 142.914C122.7 142.766 122.621 142.631 122.515 142.519C122.408 142.407 122.278 142.319 122.134 142.264C121.99 142.209 121.835 142.186 121.681 142.199C121.505 142.187 121.33 142.214 121.166 142.277C121.002 142.341 120.854 142.439 120.732 142.565C120.61 142.692 120.518 142.843 120.461 143.01C120.404 143.176 120.384 143.352 120.402 143.527V145.448H119.907V141.82H120.378V142.496C120.526 142.264 120.733 142.076 120.978 141.952C121.223 141.827 121.497 141.77 121.771 141.787C121.979 141.771 122.187 141.801 122.381 141.875C122.575 141.949 122.751 142.065 122.895 142.215C123.039 142.364 123.149 142.544 123.215 142.741C123.282 142.938 123.304 143.147 123.28 143.354Z" fill="#262626"/>
<path opacity="0.6" d="M127.396 143.213V145.448H126.917V144.879C126.782 145.085 126.593 145.251 126.371 145.358C126.148 145.466 125.901 145.511 125.656 145.49C124.831 145.49 124.32 145.053 124.32 144.418C124.32 143.783 124.682 143.378 125.73 143.378H126.901V143.156C126.901 142.529 126.546 142.191 125.862 142.191C125.417 142.183 124.983 142.335 124.641 142.62L124.419 142.249C124.843 141.914 125.371 141.739 125.911 141.754C126.111 141.724 126.315 141.741 126.507 141.803C126.699 141.866 126.874 141.972 127.018 142.113C127.162 142.255 127.271 142.428 127.336 142.619C127.402 142.81 127.422 143.013 127.396 143.213ZM126.901 144.385V143.799H125.746C125.037 143.799 124.806 144.079 124.806 144.451C124.806 144.822 125.144 145.143 125.73 145.143C125.98 145.158 126.229 145.092 126.44 144.956C126.65 144.819 126.812 144.619 126.901 144.385Z" fill="#262626"/>
<path opacity="0.6" d="M134.793 143.354V145.448H134.298V143.37C134.298 142.603 133.903 142.199 133.243 142.199C133.071 142.192 132.899 142.222 132.74 142.288C132.581 142.353 132.438 142.453 132.322 142.579C132.205 142.705 132.117 142.855 132.064 143.019C132.01 143.183 131.994 143.356 132.014 143.527V145.448H131.519V143.37C131.519 142.603 131.132 142.199 130.464 142.199C130.292 142.192 130.12 142.222 129.961 142.288C129.802 142.353 129.659 142.453 129.542 142.579C129.425 142.705 129.337 142.855 129.284 143.019C129.231 143.183 129.214 143.356 129.235 143.527V145.448H128.74V141.82H129.21V142.488C129.352 142.262 129.551 142.078 129.787 141.955C130.023 141.832 130.288 141.774 130.554 141.787C130.826 141.767 131.097 141.831 131.331 141.969C131.566 142.108 131.752 142.315 131.866 142.562C132.014 142.315 132.226 142.112 132.48 141.976C132.734 141.839 133.021 141.774 133.309 141.787C133.515 141.77 133.723 141.8 133.916 141.874C134.109 141.948 134.284 142.065 134.426 142.215C134.568 142.365 134.675 142.546 134.739 142.743C134.802 142.94 134.821 143.148 134.793 143.354Z" fill="#262626"/>
<path opacity="0.6" d="M139.346 143.799H136.278C136.287 143.978 136.332 144.153 136.41 144.314C136.488 144.475 136.598 144.619 136.732 144.738C136.866 144.856 137.023 144.946 137.193 145.003C137.363 145.06 137.542 145.082 137.721 145.069C137.931 145.076 138.141 145.037 138.335 144.954C138.528 144.872 138.702 144.747 138.843 144.591L139.123 144.912C138.858 145.175 138.522 145.356 138.157 145.432C137.791 145.509 137.411 145.478 137.063 145.344C136.714 145.21 136.412 144.978 136.192 144.676C135.973 144.374 135.845 144.015 135.824 143.642C135.81 143.4 135.847 143.158 135.931 142.931C136.015 142.703 136.145 142.496 136.313 142.321C136.481 142.146 136.683 142.008 136.907 141.914C137.131 141.821 137.371 141.775 137.614 141.779C137.855 141.775 138.095 141.821 138.318 141.914C138.541 142.008 138.742 142.146 138.909 142.322C139.076 142.497 139.204 142.705 139.286 142.932C139.369 143.159 139.403 143.401 139.387 143.642L139.346 143.799ZM136.278 143.428H138.876C138.849 143.101 138.701 142.796 138.461 142.574C138.22 142.352 137.904 142.228 137.577 142.228C137.249 142.228 136.933 142.352 136.693 142.574C136.452 142.796 136.304 143.101 136.278 143.428Z" fill="#262626"/>
<path opacity="0.6" d="M146.512 143.634C146.512 144.822 146.075 145.523 145.358 145.523C145.255 145.528 145.152 145.513 145.055 145.476C144.958 145.44 144.87 145.384 144.797 145.312C144.723 145.24 144.665 145.153 144.627 145.057C144.589 144.962 144.571 144.859 144.574 144.756C144.433 144.998 144.229 145.197 143.983 145.332C143.738 145.467 143.46 145.533 143.18 145.523C142.724 145.492 142.296 145.288 141.983 144.954C141.67 144.619 141.496 144.179 141.496 143.721C141.496 143.263 141.67 142.822 141.983 142.487C142.296 142.153 142.724 141.95 143.18 141.919C143.454 141.909 143.726 141.972 143.968 142.101C144.209 142.23 144.413 142.42 144.558 142.653V141.952H145.011V144.624C145.011 145.011 145.209 145.152 145.44 145.152C145.877 145.152 146.158 144.615 146.158 143.675C146.168 143.302 146.1 142.931 145.957 142.586C145.815 142.241 145.601 141.93 145.33 141.674C145.06 141.417 144.738 141.22 144.386 141.096C144.034 140.972 143.66 140.924 143.288 140.954C142.907 140.933 142.527 140.99 142.169 141.122C141.811 141.253 141.484 141.456 141.207 141.718C140.931 141.98 140.71 142.296 140.56 142.646C140.409 142.996 140.332 143.373 140.332 143.754C140.332 144.135 140.409 144.512 140.56 144.862C140.71 145.212 140.931 145.527 141.207 145.789C141.484 146.051 141.811 146.254 142.169 146.386C142.527 146.517 142.907 146.574 143.288 146.554C143.75 146.552 144.206 146.448 144.624 146.248L144.739 146.587C144.286 146.803 143.79 146.913 143.288 146.908C142.45 146.908 141.647 146.575 141.054 145.983C140.462 145.391 140.129 144.587 140.129 143.75C140.129 142.912 140.462 142.108 141.054 141.516C141.647 140.924 142.45 140.591 143.288 140.591C143.703 140.562 144.12 140.62 144.512 140.761C144.904 140.901 145.263 141.121 145.566 141.407C145.869 141.693 146.109 142.038 146.272 142.422C146.435 142.805 146.517 143.218 146.512 143.634ZM144.566 143.717C144.553 143.457 144.464 143.207 144.311 142.998C144.157 142.788 143.946 142.628 143.702 142.538C143.459 142.447 143.194 142.43 142.941 142.489C142.688 142.547 142.458 142.679 142.278 142.867C142.099 143.055 141.979 143.291 141.933 143.547C141.887 143.802 141.917 144.066 142.019 144.305C142.121 144.544 142.291 144.747 142.508 144.89C142.725 145.033 142.978 145.11 143.238 145.11C143.419 145.114 143.599 145.08 143.766 145.011C143.934 144.941 144.085 144.838 144.21 144.706C144.334 144.575 144.431 144.419 144.492 144.249C144.553 144.079 144.579 143.897 144.566 143.717Z" fill="#262626"/>
<path opacity="0.6" d="M153.613 143.354V145.448H153.118V143.37C153.118 142.603 152.73 142.199 152.062 142.199C151.891 142.192 151.72 142.222 151.561 142.288C151.402 142.353 151.26 142.453 151.143 142.579C151.027 142.706 150.94 142.856 150.888 143.02C150.836 143.183 150.82 143.356 150.842 143.527V145.448H150.347V143.37C150.347 142.603 149.951 142.199 149.283 142.199C149.111 142.192 148.94 142.222 148.781 142.288C148.622 142.353 148.479 142.453 148.362 142.579C148.245 142.705 148.157 142.855 148.104 143.019C148.051 143.183 148.034 143.356 148.054 143.527V145.448H147.56V141.82H148.038V142.488C148.179 142.262 148.378 142.077 148.614 141.954C148.851 141.831 149.116 141.773 149.382 141.787C149.653 141.766 149.923 141.83 150.156 141.969C150.389 142.107 150.574 142.314 150.685 142.562C150.838 142.317 151.053 142.116 151.307 141.98C151.562 141.844 151.848 141.778 152.137 141.787C152.342 141.771 152.549 141.802 152.741 141.877C152.934 141.952 153.107 142.068 153.248 142.218C153.39 142.369 153.496 142.548 153.559 142.745C153.622 142.941 153.64 143.149 153.613 143.354Z" fill="#262626"/>
<path opacity="0.6" d="M157.728 143.213V145.448H157.25V144.879C157.114 145.085 156.925 145.251 156.703 145.358C156.481 145.466 156.234 145.511 155.988 145.49C155.163 145.49 154.652 145.053 154.652 144.418C154.652 143.783 155.015 143.378 156.07 143.378H157.233V143.156C157.233 142.529 156.879 142.191 156.194 142.191C155.749 142.183 155.316 142.335 154.974 142.62L154.751 142.249C155.177 141.917 155.704 141.742 156.244 141.754C156.443 141.724 156.647 141.741 156.839 141.803C157.031 141.866 157.206 141.972 157.35 142.113C157.494 142.255 157.603 142.428 157.669 142.619C157.734 142.81 157.755 143.013 157.728 143.213ZM157.233 144.385V143.799H156.079C155.37 143.799 155.139 144.079 155.139 144.451C155.139 144.822 155.485 145.143 156.07 145.143C156.32 145.156 156.566 145.09 156.775 144.953C156.984 144.817 157.145 144.618 157.233 144.385Z" fill="#262626"/>
<path opacity="0.6" d="M158.965 140.657C158.966 140.61 158.976 140.564 158.995 140.522C159.014 140.479 159.041 140.441 159.075 140.409C159.109 140.376 159.148 140.351 159.192 140.334C159.235 140.318 159.281 140.309 159.328 140.311C159.379 140.303 159.43 140.306 159.479 140.32C159.529 140.334 159.574 140.359 159.613 140.392C159.652 140.425 159.683 140.466 159.704 140.513C159.726 140.559 159.737 140.61 159.737 140.661C159.737 140.712 159.726 140.763 159.704 140.809C159.683 140.856 159.652 140.897 159.613 140.93C159.574 140.963 159.529 140.988 159.479 141.002C159.43 141.016 159.379 141.019 159.328 141.012C159.281 141.013 159.234 141.004 159.19 140.987C159.146 140.97 159.106 140.944 159.072 140.911C159.038 140.878 159.011 140.838 158.993 140.795C158.975 140.751 158.965 140.704 158.965 140.657ZM159.072 141.82H159.567V145.448H159.072V141.82Z" fill="#262626"/>
<path opacity="0.6" d="M160.969 140.311H161.464V145.448H160.969V140.311Z" fill="#262626"/>
<path opacity="0.6" d="M162.503 145.135C162.502 145.086 162.511 145.036 162.529 144.99C162.547 144.945 162.574 144.903 162.609 144.867C162.643 144.832 162.685 144.804 162.73 144.785C162.776 144.766 162.825 144.756 162.874 144.756C162.973 144.758 163.068 144.799 163.137 144.87C163.207 144.941 163.245 145.036 163.245 145.135C163.245 145.235 163.207 145.331 163.138 145.403C163.069 145.476 162.974 145.518 162.874 145.523C162.824 145.522 162.775 145.511 162.73 145.491C162.684 145.471 162.643 145.442 162.608 145.406C162.574 145.37 162.547 145.327 162.529 145.281C162.511 145.234 162.502 145.185 162.503 145.135Z" fill="#262626"/>
<path opacity="0.6" d="M163.831 143.651C163.823 143.401 163.866 143.153 163.958 142.922C164.051 142.69 164.19 142.48 164.367 142.305C164.545 142.13 164.756 141.994 164.989 141.905C165.222 141.815 165.47 141.775 165.719 141.787C166.001 141.775 166.28 141.836 166.531 141.963C166.783 142.09 166.997 142.279 167.154 142.512L166.783 142.768C166.666 142.595 166.507 142.454 166.321 142.359C166.135 142.264 165.928 142.217 165.719 142.224C165.341 142.224 164.978 142.374 164.711 142.642C164.443 142.909 164.293 143.272 164.293 143.651C164.293 144.029 164.443 144.392 164.711 144.659C164.978 144.927 165.341 145.077 165.719 145.077C165.928 145.085 166.135 145.041 166.321 144.947C166.507 144.853 166.666 144.713 166.783 144.541L167.154 144.797C166.997 145.03 166.783 145.219 166.531 145.346C166.28 145.474 166.001 145.534 165.719 145.523C165.47 145.533 165.221 145.492 164.989 145.402C164.756 145.311 164.544 145.174 164.367 144.998C164.19 144.823 164.051 144.612 163.958 144.38C163.866 144.148 163.823 143.9 163.831 143.651Z" fill="#262626"/>
<path opacity="0.6" d="M167.69 143.651C167.692 143.282 167.803 142.923 168.009 142.617C168.214 142.312 168.506 142.074 168.847 141.935C169.187 141.795 169.562 141.759 169.923 141.832C170.284 141.905 170.615 142.083 170.875 142.344C171.135 142.605 171.312 142.937 171.383 143.298C171.454 143.66 171.417 144.034 171.275 144.374C171.134 144.714 170.895 145.005 170.589 145.209C170.283 145.414 169.923 145.523 169.554 145.523C169.307 145.531 169.06 145.488 168.83 145.396C168.599 145.305 168.39 145.167 168.215 144.992C168.041 144.816 167.904 144.607 167.813 144.376C167.723 144.145 167.681 143.898 167.69 143.651ZM170.915 143.651C170.902 143.385 170.812 143.128 170.654 142.913C170.497 142.698 170.28 142.534 170.031 142.441C169.781 142.348 169.51 142.331 169.251 142.39C168.991 142.45 168.755 142.585 168.571 142.777C168.387 142.97 168.264 143.212 168.217 143.474C168.169 143.736 168.2 144.007 168.305 144.251C168.409 144.496 168.583 144.705 168.806 144.852C169.028 144.999 169.288 145.077 169.554 145.077C169.74 145.081 169.924 145.046 170.095 144.975C170.266 144.904 170.421 144.798 170.549 144.664C170.677 144.529 170.776 144.37 170.839 144.196C170.902 144.021 170.928 143.836 170.915 143.651Z" fill="#262626"/>
<path opacity="0.6" d="M178.486 143.354V145.448H177.991V143.37C177.991 142.603 177.595 142.199 176.935 142.199C176.763 142.192 176.592 142.222 176.433 142.288C176.274 142.353 176.131 142.453 176.014 142.579C175.897 142.705 175.809 142.855 175.756 143.019C175.703 143.183 175.686 143.356 175.707 143.527V145.448H175.212V143.37C175.212 142.603 174.824 142.199 174.156 142.199C173.984 142.192 173.813 142.222 173.654 142.288C173.495 142.353 173.352 142.453 173.235 142.579C173.118 142.705 173.03 142.855 172.977 143.019C172.924 143.183 172.907 143.356 172.927 143.527V145.448H172.432V141.82H172.903V142.488C173.044 142.262 173.243 142.078 173.48 141.955C173.716 141.832 173.981 141.774 174.247 141.787C174.518 141.767 174.789 141.831 175.024 141.969C175.258 142.108 175.445 142.315 175.558 142.562C175.706 142.315 175.919 142.112 176.173 141.976C176.427 141.839 176.713 141.774 177.001 141.787C177.208 141.77 177.415 141.8 177.609 141.874C177.802 141.948 177.976 142.065 178.119 142.215C178.261 142.365 178.368 142.546 178.431 142.743C178.495 142.94 178.514 143.148 178.486 143.354Z" fill="#262626"/>
<path d="M115.52 34.7656C115.471 34.766 115.423 34.7567 115.377 34.7383C115.332 34.7199 115.291 34.6928 115.256 34.6584L111.38 31.2606C111.335 31.2227 111.299 31.1754 111.274 31.1219C111.249 31.0685 111.236 31.0103 111.236 30.9514C111.236 30.8924 111.249 30.8342 111.274 30.7808C111.299 30.7274 111.335 30.68 111.38 30.6421L115.256 27.4258C115.296 27.3906 115.343 27.364 115.394 27.3474C115.445 27.3308 115.498 27.3246 115.551 27.3292C115.604 27.3339 115.656 27.3492 115.703 27.3743C115.75 27.3994 115.792 27.4337 115.825 27.4753C115.861 27.5161 115.887 27.5636 115.904 27.615C115.921 27.6663 115.927 27.7205 115.922 27.7744C115.918 27.8282 115.902 27.8805 115.877 27.9283C115.852 27.9761 115.817 28.0183 115.776 28.0525L112.312 30.9637L115.825 34.0481C115.866 34.0829 115.9 34.1256 115.925 34.1737C115.949 34.2218 115.964 34.2743 115.968 34.3281C115.971 34.3819 115.964 34.4359 115.947 34.487C115.93 34.538 115.902 34.5851 115.866 34.6254C115.823 34.6734 115.769 34.7109 115.709 34.7352C115.649 34.7595 115.585 34.7699 115.52 34.7656Z" fill="#263238"/>
<path d="M228.001 31.0462C228.001 31.4556 227.879 31.8558 227.652 32.1962C227.424 32.5366 227.101 32.802 226.723 32.9586C226.345 33.1153 225.928 33.1563 225.527 33.0764C225.125 32.9965 224.757 32.7994 224.467 32.5099C224.178 32.2204 223.98 31.8516 223.901 31.45C223.821 31.0485 223.862 30.6323 224.018 30.254C224.175 29.8758 224.44 29.5525 224.781 29.3251C225.121 29.0976 225.521 28.9762 225.931 28.9762C226.48 28.9762 227.006 29.1943 227.394 29.5825C227.783 29.9707 228.001 30.4972 228.001 31.0462Z" fill="#263238"/>
<path d="M233.972 31.0462C233.972 31.4553 233.85 31.8551 233.623 32.1954C233.396 32.5356 233.073 32.8009 232.696 32.9578C232.318 33.1147 231.902 33.1562 231.501 33.077C231.099 32.9978 230.731 32.8015 230.441 32.5128C230.151 32.2241 229.953 31.8561 229.872 31.4551C229.792 31.0541 229.831 30.6381 229.987 30.2597C230.142 29.8814 230.406 29.5575 230.746 29.3291C231.085 29.1006 231.484 28.9778 231.893 28.9762C232.166 28.9751 232.436 29.0279 232.688 29.1314C232.94 29.2349 233.169 29.3872 233.362 29.5796C233.555 29.7719 233.709 30.0005 233.813 30.2521C233.918 30.5038 233.972 30.7737 233.972 31.0462Z" fill="#263238"/>
<path d="M239.942 31.0462C239.942 31.456 239.821 31.8565 239.593 32.1971C239.365 32.5377 239.041 32.803 238.663 32.9594C238.284 33.1158 237.867 33.1563 237.465 33.0758C237.064 32.9953 236.695 32.7973 236.406 32.507C236.117 32.2166 235.92 31.847 235.841 31.445C235.762 31.0429 235.804 30.6264 235.962 30.2483C236.12 29.8702 236.387 29.5475 236.728 29.321C237.07 29.0946 237.471 28.9746 237.881 28.9762C238.428 28.9784 238.953 29.1974 239.339 29.5854C239.725 29.9734 239.942 30.4986 239.942 31.0462Z" fill="#263238"/>
<path d="M339.5 106.531H290.125C288.06 106.531 286.08 107.351 284.62 108.811C283.16 110.271 282.34 112.251 282.34 114.316V126.604C282.34 128.669 283.16 130.649 284.62 132.109C286.08 133.569 288.06 134.389 290.125 134.389H290.637V141.407L298.545 134.389H339.5C341.565 134.389 343.545 133.569 345.005 132.109C346.465 130.649 347.285 128.669 347.285 126.604V114.316C347.285 112.251 346.465 110.271 345.005 108.811C343.545 107.351 341.565 106.531 339.5 106.531Z" fill="white"/>
<path d="M297.556 119.973L299.139 120.798L298.24 122.283L296.591 121.309L296.64 123.091H294.876L294.917 121.309L293.267 122.283L292.385 120.798L293.96 119.973L292.385 119.108L293.267 117.615L294.917 118.613L294.876 116.807H296.64L296.591 118.613L298.24 117.615L299.139 119.108L297.556 119.973Z" fill="#2666FA"/>
<path d="M304.896 119.973L306.479 120.798L305.58 122.283L303.931 121.309L303.98 123.091H302.215V121.309L300.566 122.283L299.684 120.798L301.259 119.973L299.684 119.108L300.566 117.615L302.215 118.613V116.807H303.98L303.931 118.613L305.58 117.615L306.479 119.108L304.896 119.973Z" fill="#2666FA"/>
<path d="M312.235 119.973L313.819 120.798L312.92 122.283L311.271 121.309L311.312 123.091H309.547L309.588 121.309L307.939 122.283L307.056 120.798L308.632 119.973L307.056 119.108L307.939 117.615L309.588 118.613L309.547 116.807H311.312L311.271 118.613L312.92 117.615L313.819 119.108L312.235 119.973Z" fill="#2666FA"/>
<path d="M319.575 119.973L321.159 120.798L320.26 122.283L318.61 121.309L318.652 123.091H316.887L316.928 121.309L315.279 122.283L314.396 120.798L315.98 119.973L314.396 119.108L315.279 117.615L316.928 118.613L316.887 116.807H318.652L318.61 118.613L320.26 117.615L321.159 119.108L319.575 119.973Z" fill="#2666FA"/>
<path d="M326.915 119.973L328.499 120.798L327.6 122.283L325.95 121.309L325.991 123.091H324.26L324.301 121.309L322.651 122.283L321.769 120.798L323.352 119.973L321.785 119.108L322.668 117.615L324.317 118.613L324.276 116.807H326.041L326 118.613L327.649 117.615L328.548 119.108L326.915 119.973Z" fill="#2666FA"/>
<path d="M334.255 119.973L335.838 120.798L334.981 122.357L333.331 121.384V123.165H331.566L331.608 121.384L330.032 122.357L329.15 120.872L330.733 120.048L329.15 119.182L330.032 117.689L331.682 118.687L331.641 116.881H333.331V118.687L334.981 117.689L335.88 119.182L334.255 119.973Z" fill="#2666FA"/>
<path d="M16.7294 151.741C26.4608 156.78 33.9161 165.456 39.2766 175.006C44.6372 184.556 48.1009 195.038 51.5234 205.445L54.5171 259.108C43.2022 239.86 34.114 217.197 31.6647 195.021L39.1942 194.353C34.147 193.578 29.9081 189.924 27.2113 185.587C24.5145 181.249 23.0878 176.243 21.7683 171.319L30.9554 172.663C23.7023 167.775 18.6083 160.283 16.7294 151.741Z" fill="#455A64"/>
<g opacity="0.3">
<path d="M16.7294 151.741C26.4608 156.78 33.9161 165.456 39.2766 175.006C44.6372 184.556 48.1009 195.038 51.5234 205.445L54.5171 259.108C43.2022 239.86 34.114 217.197 31.6647 195.021L39.1942 194.353C34.147 193.578 29.9081 189.924 27.2113 185.587C24.5145 181.249 23.0878 176.243 21.7683 171.319L30.9554 172.663C23.7023 167.775 18.6083 160.283 16.7294 151.741Z" fill="black"/>
</g>
<path d="M56.2324 271.685C56.2324 271.685 80.8002 242.285 80.5198 214.212H70.6234C70.6234 214.212 81.4022 207.119 80.5198 203.153C79.6374 199.186 79.3817 184.185 79.3817 184.185L70.31 186.452C70.31 186.452 77.1138 183.046 77.9632 177.661C78.8127 172.276 75.984 147.32 75.984 147.32C75.984 147.32 64.9248 158.949 61.5188 170.857C58.1127 182.766 49.1483 196.654 51.812 232.949C54.4758 269.244 56.2324 271.685 56.2324 271.685Z" fill="#55A2FF"/>
<path d="M43.7383 274.464C43.7383 274.464 17.1252 256.733 11.2121 234.104L19.187 231.926C19.187 231.926 8.9772 228.586 8.78752 225.213C8.59784 221.84 5.54646 209.692 5.54646 209.692L13.3399 209.528C13.3399 209.528 7.12163 208.282 5.25781 204.134C3.39399 199.986 0.218903 179.311 0.218903 179.311C0.218903 179.311 11.6492 186.238 16.9933 195.071C22.3373 203.903 32.5553 213.115 38.386 242.862C44.2166 272.609 43.7383 274.464 43.7383 274.464Z" fill="#55A2FF"/>
<path d="M69.2297 172.936C69.2252 173.041 69.2114 173.146 69.1885 173.249L69.0153 174.164C68.8503 174.989 68.6194 176.168 68.3143 177.669C68.0092 179.17 67.6298 181.051 67.2257 183.22C66.8216 185.389 66.3268 187.846 65.8484 190.576C64.8341 196.035 63.7537 202.551 62.6404 209.808C61.527 217.065 60.4632 225.048 59.4735 233.46C58.4839 241.872 57.7582 249.905 57.1561 257.22C56.5541 264.535 56.15 271.133 55.8943 276.674C55.7376 279.445 55.6469 281.953 55.5562 284.155C55.4655 286.356 55.3995 288.278 55.3583 289.804C55.317 291.329 55.2593 292.533 55.2346 293.375C55.2346 293.771 55.2346 294.076 55.1933 294.307C55.2021 294.411 55.2021 294.516 55.1933 294.62C55.1843 294.516 55.1843 294.411 55.1933 294.307C55.1933 294.076 55.1933 293.771 55.1933 293.375C55.1933 292.55 55.1933 291.338 55.1933 289.804C55.1933 288.27 55.2511 286.348 55.3253 284.146C55.3995 281.944 55.4572 279.429 55.5974 276.658C55.8201 271.108 56.2242 264.51 56.7685 257.187C57.3128 249.864 58.0963 241.831 59.0612 233.411C60.0261 224.991 61.1477 216.999 62.2528 209.742C63.3579 202.485 64.5042 195.978 65.5516 190.526C66.0464 187.788 66.5577 185.331 66.9948 183.17C67.4319 181.009 67.8195 179.154 68.1576 177.636C68.4957 176.119 68.7514 174.964 68.9328 174.148L69.1472 173.241C69.1657 173.137 69.1933 173.035 69.2297 172.936Z" fill="#263238"/>
<path d="M59.6055 289.688C59.6055 289.688 82.0868 264.18 89.0637 248.767L83.7939 246.515C87.6122 247.142 91.5296 245.501 94.515 243.01C97.5004 240.52 99.6528 237.237 101.781 234.005L94.8201 232.867C101.197 231.042 106.627 226.834 109.986 221.115C101.789 222.467 94.383 226.962 88.272 232.586C83.4261 237.237 79.0225 242.328 75.1181 247.794C73.1531 250.426 71.4438 253.24 70.0132 256.197C66.236 264.007 59.589 280.328 59.6055 289.688Z" fill="#455A64"/>
<path d="M10.874 194.155C10.9302 194.23 10.9799 194.311 11.0224 194.394C11.1132 194.584 11.2451 194.815 11.4018 195.12C11.7482 195.78 12.2265 196.72 12.845 197.916C14.0986 200.34 15.8552 203.878 17.9582 208.29C20.0611 212.703 22.4858 217.981 25.0671 223.894C27.6484 229.807 30.3534 236.38 33.0501 243.324C35.7469 250.268 38.122 256.964 40.2168 263.075C42.3115 269.186 44.0516 274.728 45.4536 279.404C46.8556 284.08 47.9277 287.882 48.6534 290.521L49.4781 293.556L49.6843 294.381C49.7115 294.469 49.7281 294.561 49.7338 294.653C49.6888 294.571 49.6581 294.482 49.6431 294.389C49.5771 294.199 49.4946 293.935 49.3957 293.614C49.1895 292.896 48.8926 291.882 48.5132 290.595C47.7545 287.973 46.6247 284.187 45.2145 279.528C43.8042 274.868 41.9734 269.343 39.8869 263.232C37.8004 257.121 35.3758 250.466 32.6955 243.513C30.0153 236.561 27.2937 230.013 24.7537 224.083C22.2136 218.154 19.8055 212.868 17.7272 208.414C15.649 203.961 13.9584 200.439 12.779 197.99L11.41 195.161C11.2616 194.848 11.1461 194.609 11.0637 194.419C10.9908 194.338 10.9271 194.25 10.874 194.155Z" fill="#263238"/>
<path d="M57.6921 300.624C57.6757 300.465 57.6757 300.304 57.6921 300.145C57.6921 299.783 57.7746 299.321 57.8241 298.776C57.8736 298.232 57.9725 297.457 58.1045 296.624C58.2364 295.791 58.3601 294.826 58.5663 293.779C58.9292 291.676 59.4817 289.193 60.2157 286.464C60.9497 283.734 61.8651 280.781 63.0197 277.73C64.1743 274.679 65.4443 271.842 66.6896 269.31C67.9349 266.778 69.1637 264.56 70.3018 262.712C70.8378 261.789 71.3739 260.989 71.8357 260.238C72.2976 259.488 72.6604 258.927 73.048 258.44C73.4356 257.954 73.6336 257.616 73.8727 257.327C73.9586 257.189 74.0611 257.061 74.1779 256.948C74.1146 257.098 74.0373 257.241 73.947 257.377L73.213 258.531C72.8831 259.034 72.4955 259.644 72.0584 260.37C71.6213 261.096 71.1017 261.904 70.5822 262.844C69.5101 264.675 68.306 266.91 67.069 269.442C65.8319 271.974 64.5949 274.802 63.4485 277.837C62.3022 280.872 61.3785 283.825 60.6198 286.53C59.8611 289.235 59.3086 291.709 58.9044 293.795C58.6818 294.834 58.5333 295.783 58.3849 296.616C58.2364 297.449 58.121 298.166 58.0303 298.76C57.9396 299.354 57.8736 299.758 57.8158 300.112C57.7954 300.287 57.7539 300.459 57.6921 300.624Z" fill="#263238"/>
<path d="M77.2293 294.62H28.0277V304.657H77.2293V294.62Z" fill="#55A2FF"/>
<path d="M72.545 304.657L67.2257 338.42H37.4953L32.5306 304.657H72.545Z" fill="#55A2FF"/>
<path d="M31.0461 304.657C31.0461 304.541 40.357 304.442 51.8368 304.442C63.3166 304.442 72.6275 304.541 72.6275 304.657C72.6275 304.772 63.3166 304.871 51.8368 304.871C40.357 304.871 31.0461 304.78 31.0461 304.657Z" fill="#263238"/>
<path d="M276.575 300.822C276.575 300.822 335.715 270.011 348.539 287.008C361.363 304.005 335.665 317.357 330.7 320.359C325.736 323.361 275.503 340.424 275.503 340.424L262.25 326.28L276.575 300.822Z" fill="#263238"/>
<path d="M299.898 317.307L323.476 330L345.025 334.667C345.392 334.748 345.739 334.904 346.044 335.124C346.348 335.344 346.605 335.624 346.797 335.947C346.99 336.27 347.114 336.629 347.162 337.002C347.211 337.374 347.182 337.753 347.079 338.115C346.96 338.535 346.741 338.92 346.441 339.238C346.141 339.555 345.768 339.795 345.355 339.937C340.003 341.801 320.301 348.555 318.627 347.533C316.689 346.345 292.863 335.789 292.863 335.789L299.898 317.307Z" fill="#55A2FF"/>
<g opacity="0.6">
<path d="M347.079 338.115L317.019 346.675L318.025 347.194C318.9 347.642 319.906 347.762 320.862 347.533C323.41 346.931 330.42 345.059 345.314 339.978C345.742 339.832 346.127 339.583 346.435 339.252C346.743 338.921 346.964 338.519 347.079 338.082V338.115Z" fill="white"/>
</g>
<g opacity="0.6">
<path d="M311.815 337.892C312.179 337.706 312.599 337.663 312.994 337.769C313.389 337.876 313.73 338.125 313.951 338.469C314.148 338.827 314.201 339.247 314.098 339.643C313.995 340.039 313.745 340.38 313.398 340.597C313.011 340.789 312.566 340.831 312.149 340.716C311.732 340.6 311.372 340.335 311.139 339.97C310.97 339.576 310.962 339.131 311.116 338.731C311.27 338.331 311.574 338.006 311.963 337.826" fill="white"/>
</g>
<path d="M333.876 338.255C334.007 338.156 333.051 336.976 333.051 335.22C333.051 333.463 334.057 332.309 333.925 332.201C333.793 332.094 333.537 332.358 333.175 332.878C332.718 333.571 332.472 334.382 332.465 335.212C332.446 336.041 332.67 336.858 333.109 337.562C333.488 338.09 333.826 338.304 333.876 338.255Z" fill="#263238"/>
<path d="M337.933 338.181C338.098 338.123 337.71 336.96 337.983 335.55C338.255 334.14 339.005 333.183 338.873 333.076C338.741 332.968 337.694 333.834 337.405 335.451C337.117 337.067 337.809 338.28 337.933 338.181Z" fill="#263238"/>
<path d="M328.169 339.335C328.334 339.277 327.732 337.496 327.971 335.261C328.21 333.026 329.109 331.385 328.952 331.303C328.795 331.22 327.608 332.804 327.385 335.203C327.163 337.603 328.045 339.418 328.169 339.335Z" fill="#263238"/>
<path d="M320.68 336.069C320.854 336.069 320.969 334.486 321.785 332.771C322.602 331.055 323.699 329.876 323.583 329.744C323.468 329.612 322.099 330.635 321.249 332.523C320.4 334.412 320.524 336.094 320.68 336.069Z" fill="#263238"/>
<path d="M313.662 332.523C313.835 332.523 313.72 330.783 314.726 329.018C315.732 327.253 317.2 326.404 317.126 326.255C317.052 326.107 316.664 326.305 316.07 326.692C315.295 327.212 314.655 327.911 314.206 328.729C313.752 329.546 313.498 330.459 313.464 331.393C313.456 332.102 313.588 332.531 313.662 332.523Z" fill="#263238"/>
<path d="M313.365 328.383C313.365 328.383 313.093 328.136 312.483 327.888C311.614 327.546 310.686 327.381 309.753 327.402C309.069 327.356 308.388 327.536 307.815 327.913C307.642 328.058 307.516 328.252 307.454 328.47C307.393 328.688 307.398 328.919 307.469 329.134C307.642 329.542 307.959 329.874 308.359 330.065C309.188 330.418 310.114 330.472 310.978 330.216C311.842 329.96 312.59 329.411 313.093 328.664C313.577 327.915 313.827 327.038 313.811 326.147C313.795 325.255 313.513 324.388 313.002 323.658C312.874 323.473 312.708 323.318 312.514 323.204C312.321 323.09 312.104 323.02 311.881 322.998C311.653 323 311.432 323.074 311.249 323.209C311.065 323.343 310.929 323.532 310.858 323.748C310.683 324.399 310.683 325.085 310.858 325.736C311.042 326.648 311.389 327.519 311.881 328.309C312.235 328.861 312.491 329.134 312.524 329.134C311.938 328.056 311.516 326.897 311.271 325.695C311.126 325.126 311.126 324.531 311.271 323.963C311.305 323.843 311.377 323.738 311.477 323.663C311.577 323.589 311.699 323.549 311.823 323.55C311.97 323.575 312.109 323.63 312.233 323.713C312.357 323.795 312.461 323.903 312.541 324.029C312.958 324.675 313.18 325.428 313.18 326.198C313.18 326.967 312.958 327.72 312.541 328.367C312.113 328.996 311.485 329.461 310.758 329.688C310.032 329.914 309.25 329.887 308.541 329.612C308.258 329.488 308.028 329.269 307.889 328.993C307.845 328.876 307.839 328.747 307.872 328.626C307.904 328.505 307.974 328.397 308.071 328.317C308.558 327.993 309.135 327.829 309.72 327.847C310.957 327.807 312.192 327.988 313.365 328.383Z" fill="#263238"/>
<path d="M308.351 320.326C308.351 320.326 252.626 286.563 245.097 282.39C238.623 278.786 218.17 270.844 210.962 290.43C203.755 310.017 242.565 338.956 242.565 338.956L275.503 340.432L286.497 336.234L298.983 340.077L308.351 320.326Z" fill="#263238"/>
<path d="M269.17 341.108L244.19 350.798L226.64 364.134C226.34 364.362 225.997 364.526 225.631 364.616C225.265 364.706 224.885 364.719 224.514 364.656C224.142 364.593 223.788 364.453 223.473 364.247C223.158 364.041 222.888 363.772 222.681 363.458C222.445 363.095 222.298 362.682 222.252 362.252C222.206 361.822 222.263 361.387 222.417 360.983C224.479 355.714 232.165 336.35 234.029 335.748C236.19 335.047 259.702 323.814 259.702 323.814L269.17 341.108Z" fill="#55A2FF"/>
<g opacity="0.6">
<path d="M222.681 363.416L235.703 334.989L234.656 335.418C233.748 335.79 233.002 336.474 232.553 337.348C231.357 339.681 228.19 346.205 222.385 360.843C222.219 361.264 222.16 361.718 222.212 362.167C222.263 362.616 222.425 363.045 222.681 363.416Z" fill="white"/>
</g>
<g opacity="0.6">
<path d="M245.781 336.779C245.685 337.176 245.444 337.524 245.106 337.754C244.767 337.984 244.356 338.08 243.95 338.024C243.551 337.942 243.198 337.71 242.965 337.375C242.732 337.041 242.636 336.629 242.697 336.226C242.803 335.806 243.06 335.44 243.419 335.198C243.778 334.956 244.214 334.855 244.643 334.915C245.053 335.043 245.397 335.325 245.602 335.702C245.806 336.08 245.856 336.522 245.74 336.935" fill="white"/>
</g>
<path d="M231.159 353.273C231.159 353.446 232.677 353.462 233.98 354.65C235.283 355.837 235.538 357.305 235.703 357.272C235.868 357.239 235.835 356.876 235.703 356.266C235.472 355.47 235.019 354.757 234.397 354.209C233.774 353.661 233.009 353.302 232.19 353.174C231.539 353.108 231.159 353.223 231.159 353.273Z" fill="#263238"/>
<path d="M228.595 356.423C228.537 356.588 229.667 357.05 230.557 358.179C231.448 359.309 231.704 360.489 231.869 360.464C232.033 360.439 232.058 359.078 231.044 357.808C230.029 356.538 228.595 356.266 228.595 356.423Z" fill="#263238"/>
<path d="M234.054 348.258C233.988 348.423 235.703 349.124 237.279 350.732C238.854 352.341 239.481 354.114 239.645 354.031C239.81 353.949 239.382 352.035 237.699 350.304C236.017 348.572 234.07 348.11 234.054 348.258Z" fill="#263238"/>
<path d="M241.402 344.687C241.278 344.811 242.416 345.941 243.216 347.698C244.016 349.454 244.173 351.038 244.346 350.996C244.519 350.955 244.627 349.289 243.752 347.417C242.878 345.545 241.485 344.555 241.402 344.687Z" fill="#263238"/>
<path d="M248.659 341.669C248.552 341.801 249.946 342.832 250.639 344.753C251.331 346.675 250.993 348.341 251.167 348.374C251.34 348.407 251.43 347.994 251.529 347.285C251.637 346.358 251.518 345.418 251.183 344.547C250.862 343.669 250.336 342.881 249.649 342.246C249.113 341.776 248.701 341.603 248.659 341.669Z" fill="#263238"/>
<path d="M251.999 344.135C252.339 344.091 252.663 343.97 252.948 343.78C253.773 343.344 254.502 342.747 255.092 342.024C255.574 341.535 255.878 340.899 255.958 340.218C255.966 339.99 255.903 339.767 255.777 339.577C255.651 339.388 255.469 339.243 255.257 339.162C254.836 339.028 254.381 339.055 253.979 339.236C253.171 339.637 252.527 340.306 252.158 341.129C251.79 341.952 251.719 342.878 251.958 343.747C252.215 344.601 252.72 345.36 253.409 345.926C254.097 346.493 254.939 346.843 255.826 346.931C256.05 346.952 256.275 346.925 256.487 346.851C256.699 346.777 256.893 346.658 257.055 346.502C257.2 346.327 257.286 346.112 257.302 345.885C257.319 345.659 257.264 345.434 257.146 345.24C256.764 344.685 256.24 344.243 255.628 343.962C254.813 343.512 253.925 343.207 253.006 343.063C252.671 342.993 252.326 342.993 251.991 343.063C253.191 343.32 254.347 343.751 255.422 344.341C255.942 344.613 256.387 345.01 256.717 345.496C256.785 345.599 256.818 345.722 256.809 345.846C256.8 345.97 256.75 346.088 256.667 346.18C256.554 346.275 256.422 346.345 256.28 346.387C256.138 346.428 255.989 346.439 255.843 346.419C255.083 346.315 254.368 345.995 253.784 345.499C253.2 345.002 252.769 344.348 252.544 343.615C252.344 342.881 252.399 342.102 252.698 341.403C252.997 340.703 253.524 340.126 254.193 339.764C254.469 339.627 254.786 339.594 255.084 339.673C255.202 339.715 255.305 339.794 255.376 339.897C255.447 340.001 255.483 340.125 255.48 340.251C255.41 340.824 255.165 341.363 254.779 341.793C253.998 342.731 253.057 343.524 251.999 344.135Z" fill="#263238"/>
<path d="M258.284 347.343C258.985 346.98 287.198 335.492 287.198 335.492L259.158 321.604L242.285 330.354L258.284 347.343Z" fill="#263238"/>
<path d="M223.44 313.39L223.828 313.506L224.941 313.877L229.205 315.353L244.874 320.854L296.541 339.088L299.016 339.855L298.76 339.97L308.17 320.285L308.252 320.54L275.751 300.665L266.399 294.892L263.925 293.342L263.29 292.929C263.149 292.839 263.075 292.789 263.083 292.781L263.306 292.905L263.966 293.284L266.481 294.777L275.899 300.442L308.475 320.186L308.631 320.285L308.557 320.45L299.172 340.16L299.09 340.325L298.917 340.267L296.442 339.5C295.148 339.129 293.911 338.675 292.665 338.222L288.954 336.902L281.672 334.304L267.974 329.414L244.775 321.167L229.147 315.534L224.908 313.984L223.811 313.572C223.684 313.519 223.56 313.458 223.44 313.39Z" fill="#455A64"/>
<path d="M258.284 347.343C257.914 347.032 257.564 346.699 257.236 346.345L254.498 343.516C252.197 341.116 249.039 337.743 245.567 334.074L242.078 330.338L241.889 330.131L242.136 330.008L250.696 325.884L253.17 324.713C253.466 324.564 253.772 324.437 254.086 324.334C253.829 324.53 253.553 324.698 253.261 324.837L250.861 326.057L242.367 330.346L242.425 330.016L245.93 333.744C249.402 337.447 252.527 340.82 254.77 343.277L257.409 346.197C257.735 346.551 258.028 346.935 258.284 347.343Z" fill="#455A64"/>
<path d="M315.188 292.649C315.237 292.756 308.293 295.775 299.684 299.378C291.074 302.982 284.064 305.828 284.014 305.72C283.965 305.613 290.909 302.595 299.519 298.983C308.128 295.37 315.188 292.533 315.188 292.649Z" fill="#455A64"/>
<path d="M272.304 207.672C271.718 207.672 251.373 207.482 247.266 211.589C243.159 215.696 234.631 278.596 234.631 278.596C239.019 279.421 241.872 281.07 244.528 282.373L279.107 302.537L294.076 294.76C294.562 294.491 294.983 294.118 295.308 293.667C295.632 293.216 295.853 292.699 295.954 292.152C296.055 291.606 296.034 291.043 295.891 290.506C295.749 289.969 295.489 289.47 295.131 289.045L315.048 217.057C312.099 214.819 308.829 213.04 305.349 211.779C299.519 209.635 272.304 207.672 272.304 207.672Z" fill="#455A64"/>
<path d="M308.351 214.352C308.351 214.352 314.47 215.705 316.813 219.482C322.305 228.331 339.178 259.76 342.015 267.314C345.017 275.289 341.793 279.825 339.624 283.19C337.29 286.81 324.466 286.802 318.652 280.592C316.178 277.92 302.273 265.327 302.273 265.327L308.351 214.352Z" fill="#455A64"/>
<path d="M315.312 226.022C315.251 226.233 315.174 226.44 315.081 226.64L314.33 228.388C313.712 229.914 312.846 232.133 311.856 234.904C309.86 240.454 307.419 248.214 304.83 256.824C302.24 265.434 299.989 273.227 298.315 278.918C297.49 281.746 296.781 284.031 296.278 285.598L295.684 287.404C295.626 287.617 295.549 287.824 295.453 288.022C295.485 287.804 295.535 287.589 295.601 287.379C295.733 286.923 295.906 286.312 296.121 285.548C296.583 283.899 297.226 281.639 298.026 278.835C299.626 273.161 301.836 265.327 304.417 256.7C306.999 248.074 309.497 240.33 311.567 234.805C312.598 232.034 313.514 229.856 314.182 228.322L315.006 226.607C315.088 226.402 315.191 226.206 315.312 226.022Z" fill="#263238"/>
<path d="M248.239 210.872C248.239 210.872 241.814 214.525 239.464 216.645C237.114 218.764 212.834 253.41 209.725 264.205C207.919 270.456 214.806 283.388 222.228 282.761C231.935 281.936 268.353 267.974 268.353 267.974L260.18 250.185L239.563 253.484L254.531 238.441L248.948 210.468" fill="#455A64"/>
<path d="M334.618 263.603C334.489 263.542 334.367 263.468 334.255 263.38L333.249 262.688L329.595 260.082C326.527 257.855 322.305 254.746 317.654 251.29L314.545 248.973L314.833 248.932C311.873 252.799 309.234 256.172 307.312 258.556C306.351 259.88 305.277 261.119 304.104 262.259L307.098 258.383L314.52 248.676L314.644 248.511L314.809 248.635L317.926 250.944C322.577 254.399 326.767 257.541 329.793 259.842L333.331 262.556L334.288 263.314C334.408 263.398 334.519 263.495 334.618 263.603Z" fill="#263238"/>
<path d="M276.98 243.893L260.651 251.208L267.166 265.368L277.375 258.63L276.98 243.893Z" fill="#B2655F"/>
<path d="M292.41 245.278L303.337 237.856C303.721 237.592 304.184 237.47 304.648 237.51L318.932 238.73C319.211 238.753 319.471 238.882 319.658 239.091C319.845 239.299 319.945 239.572 319.938 239.852C319.954 240.133 319.908 240.415 319.804 240.677C319.7 240.939 319.54 241.175 319.336 241.369L296.137 257.509L278.819 254.762L292.41 245.278Z" fill="#E0E0E0"/>
<path d="M276.98 243.893C276.98 243.893 282.876 239.522 284.262 239.283C285.647 239.043 291.874 239.068 291.874 239.068L297.119 242.062L293.869 244.264C291.618 243.769 290.975 242.895 290.975 242.895L287.346 243.134L276.98 243.893Z" fill="#B2655F"/>
<path d="M283.61 241.996L292.921 245.237L306.314 247.126C306.338 247.874 306.074 248.603 305.577 249.163C305.08 249.722 304.388 250.071 303.642 250.136C301.993 250.309 299.205 250.499 299.205 250.499C299.205 250.499 298.521 252.973 296.434 253.509C295.956 254.448 295.267 255.263 294.422 255.892C294.293 255.971 294.155 256.032 294.01 256.074C292.723 256.445 290.158 259.933 288.443 260.403C286.728 260.873 277.359 258.663 277.359 258.663L276.963 243.934L283.61 241.996Z" fill="#B2655F"/>
<path d="M286.323 249.6C286.323 249.558 287.066 249.756 288.245 249.995C289.794 250.303 291.362 250.507 292.937 250.606C294.508 250.715 296.084 250.715 297.655 250.606C298.867 250.523 299.609 250.416 299.618 250.457C299.449 250.517 299.275 250.559 299.098 250.581C298.768 250.647 298.273 250.721 297.671 250.787C296.093 250.95 294.504 250.977 292.921 250.87C291.334 250.775 289.759 250.543 288.212 250.177C287.618 250.037 287.14 249.905 286.818 249.798C286.646 249.75 286.48 249.684 286.323 249.6Z" fill="#8E4842"/>
<path d="M288.154 253.418C288.193 253.729 288.162 254.044 288.064 254.342C287.979 254.681 287.806 254.991 287.56 255.241C287.395 255.385 287.203 255.495 286.995 255.565C286.787 255.634 286.567 255.661 286.348 255.645C285.928 255.611 285.518 255.493 285.144 255.298C284.806 255.125 284.526 254.944 284.278 254.812C283.8 254.523 283.453 254.416 283.453 254.375C283.763 254.394 284.062 254.487 284.328 254.647C284.941 255.022 285.622 255.274 286.332 255.389C286.518 255.406 286.705 255.387 286.883 255.332C287.062 255.277 287.227 255.187 287.371 255.067C287.597 254.852 287.765 254.582 287.857 254.284C287.939 253.99 288.039 253.701 288.154 253.418Z" fill="#8E4842"/>
<path d="M295.04 254.309C294.713 254.441 294.369 254.53 294.018 254.573C293.199 254.719 292.373 254.82 291.544 254.878C290.7 254.925 289.855 254.925 289.012 254.878C288.659 254.884 288.307 254.845 287.965 254.762C287.965 254.68 289.564 254.762 291.527 254.589C293.49 254.416 295.024 254.259 295.04 254.309Z" fill="#8E4842"/>
<path d="M287.973 258.201C287.528 258.553 286.999 258.784 286.439 258.873C285.878 258.961 285.305 258.903 284.773 258.704C284.773 258.622 285.515 258.762 286.422 258.622C287.33 258.482 287.973 258.135 287.973 258.201Z" fill="#8E4842"/>
<path d="M291.329 258.036C291.329 258.102 290.892 258.218 290.331 258.3C289.99 258.381 289.634 258.381 289.292 258.3C289.602 258.134 289.947 258.043 290.298 258.036C290.859 257.97 291.321 257.962 291.329 258.036Z" fill="#8E4842"/>
<path d="M292.921 245.237C291.425 244.884 289.965 244.395 288.558 243.777C287.371 243.315 286.307 242.878 285.548 242.532C285.125 242.374 284.723 242.164 284.352 241.905C284.783 242.03 285.205 242.184 285.614 242.367L288.649 243.538L291.676 244.717C292.467 244.99 292.921 245.171 292.921 245.237Z" fill="#8E4842"/>
<path d="M306.603 248.536C306.603 248.536 305.572 248.181 306.685 246.556C307.799 244.932 310.916 246.903 310.916 246.903L314.899 249.27C314.899 249.27 315.79 251.34 314.685 251.892L313.86 252.898C313.86 252.898 315.419 254.474 314.792 255.851C314.597 256.248 314.284 256.576 313.896 256.789C313.508 257.001 313.063 257.089 312.623 257.038C312.623 257.038 312.804 259.826 311.897 260.898C311.476 261.481 310.863 261.895 310.165 262.069C309.874 262.807 309.41 263.465 308.811 263.986C308.213 264.507 307.498 264.876 306.726 265.063C304.054 265.747 302.652 265.797 301.927 264.667C301.438 263.865 301.042 263.01 300.747 262.119C300.747 262.119 295.016 259.108 294.892 257.583C294.768 256.057 295.032 255.933 295.032 255.933C294.905 255.577 294.85 255.199 294.869 254.821C294.889 254.443 294.984 254.073 295.148 253.731C295.725 252.799 298.001 253.616 298.001 253.616L305.316 255.331C305.316 255.331 299.461 252.585 298.768 251.686C298.075 250.787 298.818 249.682 301.168 249.963C303.518 250.243 310.619 251.571 310.619 251.571C310.437 251.196 310.15 250.881 309.794 250.663C309.324 250.466 307.856 249.616 307.856 249.616L306.603 248.536Z" fill="#B2655F"/>
<path d="M308.351 259.644C308.351 259.71 305.366 258.952 301.754 257.954C298.141 256.956 295.156 256.082 295.197 256.016C295.238 255.95 298.183 256.709 301.795 257.706C305.407 258.704 308.368 259.578 308.351 259.644Z" fill="#8E4842"/>
<path d="M304.863 263.628C304.13 263.541 303.412 263.358 302.727 263.083C302.231 262.922 301.743 262.735 301.267 262.523C301.117 262.459 300.974 262.381 300.838 262.292C300.802 262.266 300.768 262.235 300.739 262.201C300.739 262.201 300.739 262.127 300.739 262.143C300.739 262.16 301.646 262.457 302.793 262.836C303.507 263.032 304.2 263.297 304.863 263.628Z" fill="#8E4842"/>
<path d="M311.13 256.428C311.13 256.494 309.687 256.205 307.922 255.917C306.157 255.628 304.714 255.438 304.722 255.364C305.811 255.348 306.897 255.451 307.964 255.669C309.044 255.803 310.107 256.057 311.13 256.428Z" fill="#8E4842"/>
<path d="M312.92 252.659C312.87 252.725 312.293 252.313 311.485 252.024C310.677 251.736 309.976 251.661 309.976 251.587C310.517 251.489 311.075 251.558 311.576 251.785C312.101 251.936 312.569 252.241 312.92 252.659Z" fill="#8E4842"/>
<path d="M319.311 240.058H319.047L318.28 239.967C317.621 239.876 316.631 239.753 315.485 239.621C313.118 239.349 309.836 239.06 306.199 238.978C305.34 238.861 304.467 238.963 303.659 239.274C303.299 239.482 302.952 239.711 302.619 239.959L301.63 240.66L298.207 243.076L295.89 244.684L295.247 245.113C295.106 245.212 295.024 245.253 295.016 245.245C295.081 245.183 295.15 245.126 295.222 245.072L295.832 244.61L298.108 242.961L301.498 240.487L302.479 239.777C302.821 239.522 303.176 239.285 303.543 239.068C303.949 238.86 304.398 238.747 304.854 238.738C305.308 238.738 305.753 238.738 306.207 238.738C309.315 238.816 312.418 239.055 315.501 239.456C316.689 239.613 317.645 239.769 318.297 239.885L319.056 240.025C319.142 240.022 319.228 240.034 319.311 240.058Z" fill="#263238"/>
<path d="M310.363 241.328C310.285 241.224 310.18 241.145 310.059 241.098C309.938 241.051 309.806 241.04 309.679 241.064H309.563C309.346 241.102 309.149 241.212 309.003 241.377C308.916 241.483 308.869 241.616 308.869 241.753C308.869 241.889 308.916 242.022 309.003 242.128C309.112 242.234 309.255 242.301 309.407 242.318C309.551 242.345 309.699 242.341 309.842 242.306C309.984 242.27 310.117 242.204 310.231 242.111C310.331 242.01 310.397 241.881 310.421 241.74C310.445 241.6 310.424 241.456 310.363 241.328Z" fill="white"/>
<path d="M275.833 188.844C275.237 184.843 274.986 180.798 275.083 176.754C275.19 172.697 276.3 168.73 278.316 165.208C278.637 164.68 281.161 161.25 281.746 161.423C282.167 161.547 280.377 164.862 280.526 165.274C281.895 169.224 281.623 173.604 280.526 177.645C279.393 181.548 277.828 185.313 275.858 188.869" fill="#263238"/>
<path d="M293.803 215.185C294.381 212.389 294.843 210.187 294.867 210.187C294.892 210.187 304.673 211.094 307.164 201.685C308.368 197.141 310.075 187.582 311.526 178.915C312.287 174.415 311.324 169.795 308.829 165.974C306.335 162.152 302.492 159.412 298.067 158.297L297.152 158.066C287.189 156.178 280.014 163.575 278.398 173.587L271.627 208.422L287.148 224.735L293.803 215.185Z" fill="#B2655F"/>
<path d="M294.867 210.187C290.512 209.081 286.565 206.748 283.495 203.466C283.495 203.466 284.765 211.086 294.389 212.604L294.867 210.187Z" fill="#8E4842"/>
<path d="M306.71 186.403C306.626 186.757 306.405 187.064 306.097 187.256C305.788 187.449 305.416 187.513 305.061 187.434C304.886 187.404 304.718 187.34 304.569 187.244C304.419 187.149 304.29 187.025 304.19 186.878C304.089 186.732 304.018 186.568 303.982 186.394C303.947 186.22 303.946 186.041 303.98 185.867C304.067 185.514 304.287 185.209 304.595 185.016C304.903 184.824 305.275 184.759 305.63 184.836C305.805 184.865 305.973 184.928 306.123 185.023C306.273 185.119 306.403 185.243 306.504 185.389C306.604 185.536 306.675 185.701 306.71 185.875C306.746 186.049 306.746 186.229 306.71 186.403Z" fill="#263238"/>
<path d="M308.524 182.321C308.318 182.453 307.485 181.447 306.05 181.084C304.615 180.721 303.353 181.183 303.238 180.96C303.188 180.861 303.436 180.589 303.98 180.366C304.72 180.095 305.526 180.054 306.289 180.251C307.044 180.437 307.72 180.859 308.219 181.455C308.59 181.908 308.632 182.263 308.524 182.321Z" fill="#263238"/>
<path d="M293.556 183.871C293.471 184.226 293.252 184.533 292.943 184.727C292.635 184.921 292.263 184.987 291.907 184.91C291.732 184.881 291.565 184.816 291.415 184.721C291.265 184.625 291.136 184.501 291.036 184.355C290.935 184.209 290.865 184.044 290.829 183.87C290.793 183.697 290.792 183.517 290.826 183.343C290.911 182.989 291.131 182.683 291.44 182.49C291.748 182.297 292.12 182.233 292.476 182.312C292.65 182.341 292.817 182.405 292.967 182.499C293.116 182.594 293.245 182.717 293.346 182.863C293.447 183.008 293.517 183.172 293.554 183.346C293.59 183.519 293.59 183.698 293.556 183.871Z" fill="#263238"/>
<path d="M294.175 179.335C293.96 179.467 293.127 178.461 291.7 178.098C290.274 177.735 289.004 178.197 288.888 177.975C288.83 177.884 289.078 177.603 289.63 177.389C290.366 177.11 291.17 177.067 291.931 177.265C292.688 177.447 293.365 177.87 293.861 178.469C294.208 178.923 294.274 179.261 294.175 179.335Z" fill="#263238"/>
<path d="M296.574 191.788C297.403 191.739 298.234 191.795 299.048 191.953C299.428 192.011 299.799 192.027 299.923 191.788C300.043 191.41 300.043 191.004 299.923 190.625C299.799 189.644 299.675 188.613 299.535 187.533C299.024 183.137 298.76 179.558 298.933 179.541C299.106 179.525 299.667 183.071 300.178 187.467C300.302 188.547 300.409 189.578 300.516 190.568C300.637 191.073 300.576 191.604 300.343 192.069C300.256 192.184 300.144 192.279 300.016 192.346C299.887 192.413 299.746 192.45 299.601 192.456C299.381 192.465 299.162 192.44 298.95 192.382C298.136 192.284 297.338 192.085 296.574 191.788Z" fill="#263238"/>
<path d="M292.096 191.722C292.335 191.763 291.94 193.372 293.012 194.798C294.084 196.225 295.799 196.497 295.75 196.72C295.7 196.943 295.304 196.934 294.587 196.778C293.663 196.554 292.846 196.014 292.278 195.252C291.732 194.522 291.493 193.608 291.61 192.704C291.676 192.027 291.948 191.681 292.096 191.722Z" fill="#263238"/>
<path d="M295.577 173.43C295.329 173.793 293.927 173.241 292.179 173.018C290.43 172.795 288.929 172.911 288.798 172.499C288.74 172.309 289.07 171.995 289.721 171.756C290.578 171.47 291.49 171.386 292.385 171.509C293.28 171.632 294.135 171.959 294.884 172.466C295.445 172.87 295.684 173.257 295.577 173.43Z" fill="#263238"/>
<path d="M309.143 177.348C308.805 177.612 307.889 177.026 306.669 176.704C305.448 176.383 304.393 176.366 304.244 175.962C304.186 175.773 304.426 175.484 304.953 175.278C305.645 175.057 306.387 175.046 307.086 175.246C307.784 175.445 308.408 175.846 308.879 176.399C309.242 176.845 309.291 177.216 309.143 177.348Z" fill="#263238"/>
<path d="M277.417 180.812C277.268 180.704 271.413 177.265 269.994 183.764C268.576 190.263 275.404 190.362 275.454 190.164C275.503 189.966 277.417 180.812 277.417 180.812Z" fill="#B2655F"/>
<path d="M274.002 187.269C274.002 187.269 273.87 187.327 273.664 187.368C273.378 187.42 273.083 187.361 272.84 187.203C272.205 186.799 271.866 185.554 272.089 184.407C272.19 183.846 272.419 183.316 272.757 182.857C272.861 182.666 273.01 182.505 273.192 182.385C273.373 182.266 273.58 182.193 273.796 182.172C273.934 182.165 274.07 182.206 274.18 182.289C274.29 182.372 274.367 182.491 274.398 182.626C274.448 182.824 274.398 182.947 274.398 182.964C274.398 182.98 274.563 182.89 274.571 182.609C274.57 182.441 274.512 182.278 274.406 182.148C274.333 182.06 274.242 181.988 274.14 181.935C274.038 181.883 273.927 181.851 273.813 181.842C273.535 181.839 273.26 181.906 273.015 182.038C272.77 182.169 272.562 182.36 272.411 182.593C272.001 183.093 271.718 183.684 271.586 184.316C271.347 185.636 271.751 187.013 272.633 187.492C272.797 187.578 272.979 187.627 273.164 187.636C273.349 187.645 273.534 187.612 273.706 187.541C273.953 187.426 274.019 187.285 274.002 187.269Z" fill="#8E4842"/>
<path d="M309.563 167.237C310.743 166.874 308.285 162.8 305.943 161.085C302.397 158.495 296.64 156.137 292.814 156.425C288.212 156.747 284.146 158.157 281.144 161.662C278.201 165.253 276.266 169.562 275.536 174.148C275.194 175.522 275.226 176.963 275.627 178.321C276.237 179.97 277.796 181.224 277.276 183.195C277.177 183.549 277.149 183.92 277.194 184.285C277.24 184.651 277.357 185.003 277.54 185.323C278.464 186.84 280.171 185.949 281.095 184.894C283.058 182.642 283.849 179.632 284.583 176.729C285.223 174.701 285.521 172.58 285.466 170.453C285.375 169.299 285.078 168.161 285.045 167.006C284.997 166.428 285.075 165.847 285.273 165.301C285.471 164.756 285.784 164.26 286.191 163.847C286.392 163.691 286.604 163.551 286.826 163.427C287.9 162.822 289.116 162.515 290.348 162.536C291.58 162.558 292.785 162.908 293.836 163.551C297.234 165.612 303.098 168.853 304.995 167.954C307.724 166.651 308.533 165.604 308.533 165.604L309.563 167.237Z" fill="#263238"/>
<path d="M240.231 278.175C240.398 278.079 240.575 278.002 240.759 277.945L242.301 277.342L248.123 275.165L268.279 267.743L268.164 268.023C266.514 264.386 264.667 260.428 262.77 256.329L259.991 250.268L260.213 250.383L240.025 253.484C236.35 254.517 232.839 256.061 229.592 258.069C228.438 258.779 227.572 259.389 226.978 259.801L226.318 260.279C226.248 260.342 226.167 260.393 226.079 260.428L226.285 260.238L226.92 259.727C227.489 259.282 228.347 258.647 229.493 257.913C232.724 255.832 236.242 254.235 239.934 253.171L260.114 250.02H260.271L260.345 250.16C261.244 252.131 262.184 254.16 263.133 256.222C265.013 260.345 266.836 264.279 268.502 267.924L268.601 268.122L268.386 268.205L248.173 275.462L242.317 277.532L240.751 278.068L240.231 278.175Z" fill="#263238"/>
<path d="M252.313 241.113C251.827 241.839 251.275 242.518 250.663 243.142C249.591 244.355 248.09 246.004 246.383 247.794C244.676 249.583 243.084 251.158 241.889 252.239C241.418 252.678 240.917 253.084 240.388 253.451C240.181 253.566 240.041 253.682 239.86 253.649C239.84 253.626 239.828 253.597 239.828 253.566C239.828 253.536 239.84 253.507 239.86 253.484C239.86 253.484 239.86 253.443 239.86 253.443C239.86 253.443 239.86 253.55 239.909 253.566C240.057 253.512 240.191 253.427 240.305 253.319C240.643 253.039 241.13 252.585 241.691 252.024C242.837 250.886 244.387 249.278 246.086 247.497L250.457 242.936C251.025 242.279 251.646 241.67 252.313 241.113Z" fill="#263238"/>
<path d="M256.238 232.965C256.148 232.965 256.412 231.671 256.412 229.584C256.409 228.368 256.304 227.154 256.098 225.956C255.599 223.009 254.516 220.191 252.915 217.667C252.257 216.639 251.518 215.666 250.705 214.756C249.303 213.214 248.231 212.439 248.313 212.373C248.586 212.512 248.84 212.684 249.072 212.884C249.361 213.094 249.637 213.323 249.896 213.569C250.257 213.877 250.601 214.205 250.927 214.55C251.787 215.445 252.562 216.417 253.245 217.453C254.07 218.728 254.766 220.081 255.323 221.494C255.854 222.918 256.246 224.39 256.494 225.89C256.682 227.114 256.757 228.354 256.717 229.592C256.706 230.067 256.67 230.54 256.61 231.011C256.583 231.369 256.531 231.724 256.453 232.075C256.418 232.379 256.346 232.678 256.238 232.965Z" fill="#263238"/>
<path d="M277.252 294.463C277.252 294.389 278.291 294.463 279.957 294.463C284.307 294.363 288.553 293.111 292.261 290.835C293.68 290.01 294.488 289.317 294.537 289.375C294.587 289.433 294.372 289.581 294.018 289.894C293.512 290.324 292.98 290.724 292.426 291.09C290.59 292.309 288.584 293.248 286.472 293.878C284.357 294.499 282.161 294.799 279.957 294.768C279.292 294.764 278.628 294.717 277.969 294.628C277.723 294.607 277.482 294.552 277.252 294.463Z" fill="#263238"/>
<path d="M289.523 276.254C289.369 276.51 289.183 276.745 288.971 276.955C288.6 277.392 288.039 278.002 287.321 278.753C285.911 280.245 283.891 282.249 281.548 284.336C279.206 286.422 277.004 288.22 275.363 289.457C274.538 290.076 273.87 290.571 273.392 290.892C273.162 291.083 272.906 291.241 272.633 291.362C272.828 291.136 273.05 290.934 273.293 290.76L275.173 289.218C276.757 287.923 278.934 286.109 281.268 284.023C283.602 281.936 285.639 279.973 287.107 278.538L288.839 276.839C289.259 276.444 289.498 276.229 289.523 276.254Z" fill="#263238"/>
</svg>
