<svg width="370" height="366" viewBox="0 0 370 366" fill="none" xmlns="http://www.w3.org/2000/svg">
<path d="M291.65 251.956C287.869 249.589 283.596 248.118 279.159 247.655C277.12 247.449 274.882 247.507 273.248 248.745C273.059 248.855 272.903 249.013 272.796 249.203C272.688 249.393 272.634 249.608 272.637 249.827C272.734 250.133 272.94 250.394 273.215 250.561C278.3 254.441 285.986 254.928 291.65 251.956Z" fill="#E0E0E0"/>
<path d="M291.328 251.601C288.434 249.481 285.735 247.108 283.262 244.51C280.781 241.892 279.036 238.666 278.201 235.157C278.04 234.637 277.992 234.089 278.06 233.55C278.128 233.01 278.312 232.491 278.597 232.028C285.029 237.047 290.081 243.586 291.328 251.601Z" fill="#E0E0E0"/>
<path d="M291.583 251.907C290.984 248.397 291.035 244.807 291.732 241.315C292.451 237.8 294.463 234.683 297.371 232.581C298.485 235.173 298.006 238.17 297.222 240.886C296.012 245.09 294.122 249.067 291.625 252.658" fill="#E0E0E0"/>
<path d="M297.882 263.225C294.06 263.687 290.725 265.702 287.868 268.294C285.003 270.895 283.003 274.312 282.139 278.084C285.895 277.853 289.074 275.203 291.385 272.24C293.697 269.276 295.298 266.015 297.833 263.241" fill="#E0E0E0"/>
<path d="M299.253 265.008C297.747 261.184 297.219 257.044 297.718 252.965C298.217 248.885 299.726 244.994 302.109 241.646C304.289 249.397 303.488 258.156 299.253 265.008Z" fill="#E0E0E0"/>
<path d="M307.583 274.931C304.085 274.711 300.599 275.526 297.561 277.274C294.524 279.023 292.068 281.627 290.502 284.763C290.364 284.955 290.281 285.18 290.26 285.416C290.24 285.651 290.284 285.888 290.386 286.1C290.533 286.244 290.713 286.35 290.91 286.407C291.108 286.465 291.316 286.473 291.517 286.43C294.886 286.216 297.866 284.193 300.334 281.882C302.803 279.57 304.941 276.929 307.657 274.923" fill="#E0E0E0"/>
<path d="M307.319 274.386C305.525 268.615 305.414 262.453 306.997 256.621C307.624 254.334 308.648 251.923 310.794 250.842C310.878 250.786 310.973 250.749 311.073 250.732C311.172 250.715 311.274 250.718 311.372 250.743C311.544 250.83 311.674 250.981 311.735 251.164C312.447 252.766 312.756 254.517 312.635 256.266C312.5 258.005 312.224 259.731 311.81 261.425C311.141 264.579 310.786 267.972 309.061 270.688C308.65 271.344 308.28 272.025 307.954 272.727C307.632 273.412 307.632 273.66 307.327 274.204" fill="#E0E0E0"/>
<path d="M329.361 277.672C327.71 271.464 329.46 263.927 333.381 258.833C333.67 258.462 334.05 258.057 334.521 258.098C335.239 258.164 335.429 259.13 335.396 259.848C335.101 266.239 333.009 272.417 329.361 277.672Z" fill="#E0E0E0"/>
<path d="M331.351 279.034C338.904 280.998 347.556 279.083 353.839 274.46C350.076 272.565 345.771 272.037 341.662 272.966C337.6 273.891 333.885 275.715 331.351 279.034Z" fill="#E0E0E0"/>
<path d="M333.027 274.898C337.253 268.005 345.36 263.506 353.434 263.093C352.51 266.395 349.81 268.929 346.764 270.473C343.717 272.017 340.316 272.685 336.964 273.338C335.66 273.594 333.877 273.874 333.027 274.898Z" fill="#E0E0E0"/>
<path d="M329.782 254.821C331.078 250.939 331.966 246.933 332.432 242.867C332.746 238.797 332.168 234.546 330.054 231.046C326.108 238.69 325.704 247.614 329.708 255.234" fill="#E0E0E0"/>
<path d="M343.082 248.101C347.697 239.706 357.116 233.002 366.652 232.061C362.978 241.225 352.947 248.299 343.082 248.101Z" fill="#E0E0E0"/>
<path d="M340.176 249.744C347.061 250.792 352.931 255.193 359.37 257.859C360.719 258.506 362.212 258.79 363.704 258.684C364.398 258.674 365.072 258.451 365.636 258.046C366.2 257.642 366.626 257.074 366.858 256.42C367.09 255.766 367.116 255.056 366.933 254.387C366.75 253.717 366.367 253.12 365.834 252.675C364.921 251.834 363.849 251.185 362.681 250.768C355.672 247.845 348.151 247.771 340.77 249.546" fill="#E0E0E0"/>
<path d="M336.188 254.573C337.749 255.019 338.277 255.828 339.491 256.885C343.703 260.462 348.683 263.019 354.045 264.356C354.598 264.496 355.333 264.554 355.606 264.05C355.878 263.547 355.539 263.076 355.226 262.688C352.894 259.95 349.869 257.888 346.467 256.72C343.107 255.473 340.201 253.962 336.188 254.284" fill="#E0E0E0"/>
<path d="M331.689 225.399C334.513 228.005 337.85 229.991 341.487 231.229C345.124 232.467 348.98 232.931 352.807 232.59C353.158 232.595 353.498 232.471 353.765 232.243C354.301 231.665 353.665 230.773 353.046 230.286C346.838 225.449 339.317 223.443 331.689 225.399Z" fill="#E0E0E0"/>
<path d="M337.022 223.451C340.762 220.702 345.098 218.874 349.677 218.118C354.256 217.362 358.949 217.699 363.374 219.1C359.927 222.298 355.504 224.24 350.817 224.615C346.186 225.034 341.518 224.64 337.022 223.451Z" fill="#E0E0E0"/>
<path d="M334.909 210.044C334.306 203.845 334.694 198.957 334.265 192.708C334.265 192.213 334.125 191.61 333.662 191.429C333.01 191.181 332.473 191.982 332.259 192.642C331.355 195.527 331.123 198.579 331.581 201.567C332.039 204.555 333.174 207.398 334.901 209.879" fill="#E0E0E0"/>
<path d="M334.455 210.73C338.504 208.114 341.994 204.722 344.725 200.749C346.747 197.975 348.456 194.657 348.027 191.247C346.595 191.284 345.189 191.632 343.906 192.268C342.622 192.904 341.493 193.812 340.597 194.929C338.824 197.171 337.537 199.758 336.816 202.524C335.99 205.248 335.421 208.047 334.455 210.73Z" fill="#E0E0E0"/>
<path d="M344.543 207.914C353.779 204.501 362.334 199.469 369.805 193.055C366.784 191.841 363.333 192.568 360.311 193.79C353.426 196.572 347.787 201.269 344.411 207.881" fill="#E0E0E0"/>
<path d="M337.295 214.122C341.959 214.626 346.698 214.948 351.329 214.189C355.961 213.429 360.171 211.621 364.422 209.838C364.794 209.731 365.111 209.49 365.314 209.161C365.381 208.963 365.386 208.75 365.329 208.549C365.271 208.349 365.154 208.17 364.992 208.038C364.665 207.782 364.284 207.604 363.878 207.518C359.254 206.222 354.268 206.833 349.728 208.344C345.395 209.829 341.23 211.766 337.303 214.122" fill="#E0E0E0"/>
<path d="M310.67 225.614C307.484 219.191 307.69 211.695 310.439 205.083C312.371 208.03 312.61 211.778 312.255 215.286C311.9 218.795 310.835 222.411 310.769 225.936" fill="#E0E0E0"/>
<path d="M297.957 219.208C293.972 219.156 290.021 219.936 286.356 221.5C282.691 223.064 279.393 225.376 276.674 228.289C280.637 228.908 284.723 227.884 288.331 226.126C291.877 224.243 295.222 222.002 298.312 219.439" fill="#E0E0E0"/>
<path d="M289.412 216.343C285.524 216.029 281.784 215.518 278.053 216.698C276.165 217.225 274.414 218.153 272.919 219.42C271.425 220.687 270.222 222.262 269.392 224.037C273.059 224.334 276.738 223.638 280.042 222.023C283.332 220.418 286.468 218.517 289.412 216.343Z" fill="#E0E0E0"/>
<path d="M302.06 216.475C298.568 214.189 294.977 211.852 290.907 210.903C286.837 209.954 282.123 210.655 279.283 213.726C282.585 215.658 286.572 215.889 290.395 215.881C294.217 215.873 298.898 215.881 302.497 217.111" fill="#E0E0E0"/>
<path d="M302.085 216.665C296.108 210.796 293.829 200.254 296.248 192.229C300.967 199.452 303.03 208.09 302.085 216.665Z" fill="#E0E0E0"/>
<path d="M318.521 200.031C319.644 197.414 320.437 194.665 321.452 191.998C322.37 189.283 323.786 186.763 325.629 184.569C327.505 182.363 330.175 180.987 333.06 180.738C332.141 184.781 330.389 188.589 327.916 191.916C325.443 195.244 322.302 198.019 318.695 200.064" fill="#E0E0E0"/>
<path d="M315.541 203.498C313.675 200.931 311.521 197.447 308.995 195.532C306.468 193.616 303.174 192.452 300.087 193.187C301.685 195.988 303.913 198.378 306.596 200.168C309.278 201.958 312.341 203.098 315.541 203.498Z" fill="#E0E0E0"/>
<path d="M316.136 200.245C314.797 197.185 313.808 193.984 313.188 190.702C312.576 187.39 313.103 183.969 314.683 180.994C317.985 187.194 319.025 193.847 316.334 200.32" fill="#E0E0E0"/>
<path d="M318.546 180.994C320.404 174.844 326.034 170.32 332.11 168.24C332.863 167.935 333.678 167.813 334.488 167.885C334.892 167.929 335.274 168.091 335.587 168.351C335.899 168.611 336.129 168.957 336.246 169.346C336.469 170.394 335.602 171.335 334.793 172.029C330.038 176.083 324.512 179.133 318.546 180.994Z" fill="#E0E0E0"/>
<path d="M318.612 175.967C318.852 172.004 319.099 167.984 320.387 164.228C321.675 160.471 324.16 156.946 327.776 155.304C328.395 159.307 326.628 163.286 324.474 166.737C322.319 170.188 319.776 173.432 318.497 177.271" fill="#E0E0E0"/>
<path d="M318.521 178.691C316.986 174.216 316.821 168.52 314.138 164.657C312.264 161.924 309.259 160.067 307.649 157.178C306.671 159.948 306.804 162.989 308.02 165.664C309.238 168.308 310.915 170.714 312.974 172.772C314.955 174.885 316.656 176.487 318.505 178.724" fill="#E0E0E0"/>
<path d="M318.546 310.627C318.431 310.627 318.323 280.743 318.315 243.883C318.307 207.023 318.398 177.131 318.521 177.131C318.645 177.131 318.744 207.015 318.753 243.883C318.761 280.751 318.67 310.627 318.546 310.627Z" fill="#E0E0E0"/>
<path d="M344.667 221.123C344.304 221.293 343.929 221.434 343.544 221.544L340.448 222.584C337.84 223.476 334.257 224.764 330.376 226.357C326.496 227.95 322.897 229.345 320.825 231.137C320 231.823 319.345 232.69 318.909 233.671C318.612 234.373 318.554 234.802 318.521 234.802C318.488 234.802 318.521 234.686 318.521 234.488C318.568 234.19 318.643 233.897 318.744 233.613C319.134 232.569 319.778 231.638 320.618 230.905C321.862 229.853 323.252 228.988 324.746 228.338C326.397 227.562 328.247 226.753 330.195 225.952C334.091 224.359 337.699 223.113 340.341 222.295C341.654 221.882 342.735 221.585 343.478 221.379C343.865 221.254 344.263 221.168 344.667 221.123Z" fill="#E0E0E0"/>
<path d="M353.228 200.08C353.136 200.201 353.03 200.312 352.914 200.41L351.957 201.31L348.374 204.563L336.453 215.179C331.805 219.307 327.784 223.269 325.002 226.249C323.607 227.735 322.525 228.974 321.758 229.832C321.403 230.229 321.122 230.559 320.891 230.823C320.66 231.087 320.577 231.161 320.569 231.145C320.561 231.128 320.643 231.005 320.825 230.765C321.006 230.526 321.271 230.171 321.65 229.725C322.36 228.825 323.425 227.562 324.796 226.043C328.396 222.116 332.202 218.382 336.197 214.857C340.861 210.73 345.113 207.015 348.192 204.34L351.866 201.186L352.881 200.361C353.071 200.155 353.22 200.064 353.228 200.08Z" fill="#E0E0E0"/>
<path d="M331.433 219.389C331.309 219.332 332.259 217.086 333.249 214.255C334.24 211.423 334.694 209.021 334.818 209.037C334.712 210.869 334.322 212.674 333.662 214.387C333.248 215.61 332.765 216.808 332.217 217.978C332.023 218.483 331.759 218.958 331.433 219.389Z" fill="#E0E0E0"/>
<path d="M318.579 237.477C318.312 237.227 318.071 236.95 317.861 236.651L316.02 234.331C314.476 232.334 312.346 229.585 309.96 226.571C307.575 223.558 305.37 220.859 303.777 218.902L301.886 216.541C301.641 216.266 301.423 215.967 301.234 215.65C301.517 215.886 301.777 216.148 302.01 216.434C302.489 216.946 303.166 217.713 303.992 218.663C305.643 220.57 307.888 223.245 310.282 226.266C312.677 229.287 314.765 232.045 316.251 234.108C316.994 235.124 317.58 235.958 317.977 236.544C318.203 236.838 318.404 237.15 318.579 237.477Z" fill="#E0E0E0"/>
<path d="M312.85 230.121C311.691 228.845 310.866 227.302 310.447 225.63C310.003 224.166 309.818 222.635 309.903 221.106H310.093C310.01 221.453 309.952 221.635 309.911 221.627C309.87 221.618 309.911 221.428 309.911 221.073H310.101C310.193 222.563 310.448 224.039 310.86 225.473C311.405 227.071 312.07 228.625 312.85 230.121Z" fill="#E0E0E0"/>
<path d="M305.453 220.826C304.948 220.43 304.392 220.103 303.802 219.852C302.296 219.401 300.712 219.274 299.154 219.48C297.575 219.602 296.009 219.856 294.473 220.24C293.84 220.435 293.194 220.59 292.541 220.702C293.114 220.354 293.738 220.098 294.39 219.942C295.929 219.468 297.515 219.169 299.121 219.051C300.738 218.833 302.384 219.011 303.917 219.571C304.561 219.795 305.105 220.239 305.453 220.826Z" fill="#E0E0E0"/>
<path d="M303.703 218.572C303.703 218.638 302.729 218.176 301.135 217.639C299.066 216.932 296.917 216.488 294.737 216.318C292.555 216.159 290.362 216.27 288.207 216.649C286.556 216.946 285.549 217.259 285.524 217.185C285.734 217.05 285.966 216.953 286.209 216.896C286.841 216.676 287.487 216.494 288.141 216.351C292.512 215.395 297.067 215.742 301.243 217.35C301.87 217.588 302.482 217.863 303.075 218.176C303.304 218.274 303.515 218.408 303.703 218.572Z" fill="#E0E0E0"/>
<path d="M318.521 209.037C317.757 206.914 317.131 204.744 316.647 202.54C316.024 200.372 315.539 198.166 315.194 195.936C315.953 198.064 316.579 200.236 317.069 202.441C317.691 204.607 318.176 206.81 318.521 209.037Z" fill="#E0E0E0"/>
<path d="M318.637 209.037C318.035 207.696 317.343 206.397 316.565 205.149C315.685 203.972 314.659 202.912 313.51 201.995C313.946 202.105 314.35 202.314 314.691 202.606C315.556 203.243 316.309 204.018 316.92 204.901C317.846 206.105 318.439 207.531 318.637 209.037Z" fill="#E0E0E0"/>
<path d="M318.546 294.694C318.505 294.694 318.414 293.976 318.076 292.704C317.582 290.92 316.913 289.189 316.078 287.537C314.014 283.318 310.258 277.961 305.486 272.603C303.117 269.903 300.821 267.353 298.881 264.909C297.133 262.765 295.554 260.488 294.159 258.098C293.218 256.484 292.42 254.791 291.773 253.038C291.55 252.41 291.394 251.932 291.303 251.593C291.239 251.426 291.197 251.251 291.179 251.073C291.22 251.073 291.435 251.758 291.93 252.98C292.626 254.693 293.455 256.349 294.407 257.933C295.828 260.289 297.423 262.535 299.179 264.653C301.135 267.072 303.43 269.606 305.783 272.314C310.571 277.688 314.319 283.104 316.334 287.396C317.148 289.08 317.779 290.845 318.216 292.663C318.331 293.156 318.419 293.655 318.48 294.157C318.523 294.333 318.545 294.513 318.546 294.694Z" fill="#E0E0E0"/>
<path d="M342.149 268.038C341.754 268.299 341.34 268.531 340.911 268.731C339.793 269.361 338.723 270.07 337.707 270.853C336.204 272.024 334.794 273.311 333.489 274.7C332.011 276.26 330.492 278.076 328.932 280.016C325.828 283.921 322.922 287.372 321.18 290.121C320.296 291.491 319.652 292.647 319.231 293.423C319.032 293.854 318.803 294.27 318.546 294.669C318.57 294.549 318.609 294.433 318.662 294.323C318.753 294.1 318.876 293.761 319.075 293.348C319.622 292.177 320.236 291.039 320.916 289.939C322.608 287.116 325.497 283.615 328.593 279.719C330.154 277.779 331.697 275.955 333.2 274.394C334.532 273.009 335.976 271.737 337.518 270.589C338.557 269.817 339.662 269.137 340.82 268.558C341.224 268.351 341.563 268.228 341.786 268.137C341.901 268.085 342.023 268.052 342.149 268.038Z" fill="#E0E0E0"/>
<path d="M342.611 276.689C341.749 276.875 340.874 277.002 339.994 277.069C337.895 277.286 335.819 277.695 333.794 278.291C331.793 278.94 329.917 279.926 328.247 281.205C326.967 282.187 326.364 283.005 326.298 282.963C326.393 282.742 326.524 282.538 326.686 282.361C327.093 281.852 327.549 281.384 328.048 280.965C329.705 279.587 331.611 278.539 333.662 277.878C335.715 277.268 337.832 276.894 339.969 276.764C340.846 276.658 341.73 276.633 342.611 276.689Z" fill="#E0E0E0"/>
<path d="M327.066 282.014C326.926 281.931 328.106 280.132 329.023 277.713C329.939 275.294 330.079 273.131 330.236 273.156C330.295 273.623 330.278 274.097 330.187 274.559C330.06 275.686 329.805 276.793 329.427 277.862C329.033 278.924 328.523 279.94 327.908 280.891C327.69 281.308 327.405 281.688 327.066 282.014Z" fill="#E0E0E0"/>
<path d="M349.769 244.824C349.639 244.917 349.498 244.992 349.348 245.047L348.118 245.6C347.581 245.831 346.929 246.128 346.194 246.516C345.459 246.904 344.593 247.292 343.718 247.829L342.298 248.654C341.802 248.943 341.307 249.273 340.787 249.604C339.738 250.239 338.682 251.024 337.559 251.833C332.748 255.421 328.549 259.764 325.126 264.694C324.358 265.85 323.615 266.923 323.013 267.996C322.707 268.533 322.385 269.028 322.113 269.532L321.353 270.993C320.85 271.901 320.486 272.776 320.123 273.527C319.76 274.279 319.496 274.939 319.297 275.484C319.099 276.029 318.918 276.409 318.786 276.731C318.736 276.884 318.664 277.028 318.571 277.16C318.6 277.004 318.644 276.852 318.703 276.706C318.819 276.367 318.959 275.946 319.141 275.426C319.322 274.906 319.578 274.196 319.925 273.437C320.272 272.677 320.602 271.786 321.097 270.853L321.84 269.375C322.096 268.863 322.418 268.36 322.715 267.815C323.31 266.733 324.053 265.635 324.812 264.471C328.22 259.469 332.459 255.085 337.344 251.511C338.483 250.685 339.548 249.934 340.646 249.298C341.175 248.976 341.67 248.646 342.174 248.365L343.627 247.54C344.535 247.02 345.41 246.64 346.161 246.277C346.912 245.914 347.581 245.641 348.126 245.451L349.389 244.964C349.51 244.903 349.637 244.856 349.769 244.824Z" fill="#E0E0E0"/>
<path d="M331.111 257.339C331.289 256.735 331.649 256.202 332.143 255.812C333.29 254.813 334.751 254.249 336.271 254.218C337.764 254.209 339.244 254.49 340.63 255.044C341.219 255.234 341.775 255.513 342.281 255.869C341.683 255.751 341.098 255.58 340.531 255.358C339.167 254.892 337.736 254.655 336.296 254.656C334.863 254.684 333.477 255.17 332.341 256.043C331.901 256.445 331.489 256.878 331.111 257.339Z" fill="#E0E0E0"/>
<path d="M328.304 260.22C328.859 259.001 329.256 257.717 329.485 256.398C329.566 255.06 329.477 253.718 329.221 252.402C329.465 252.731 329.629 253.113 329.7 253.517C330.206 255.442 329.967 257.488 329.031 259.246C328.684 259.923 328.362 260.245 328.304 260.22Z" fill="#E0E0E0"/>
<path d="M297.907 298.979C298.551 310.404 301.994 322.019 307.286 333.758H330.31C335.355 322.135 338.566 310.536 339.127 298.979H297.907Z" fill="#E0E0E0"/>
<path d="M335.396 317.462C335.396 317.578 327.817 317.677 318.472 317.677C309.127 317.677 301.54 317.578 301.54 317.462C301.54 317.347 309.118 317.247 318.472 317.247C327.825 317.247 335.396 317.338 335.396 317.462Z" fill="#FAFAFA"/>
<path d="M334.909 321.598C334.909 321.714 327.801 321.813 319.042 321.813C310.282 321.813 303.166 321.714 303.166 321.598C303.166 321.482 310.274 321.383 319.042 321.383C327.809 321.383 334.909 321.482 334.909 321.598Z" fill="#FAFAFA"/>
<path d="M307.665 306.474C307.952 310.005 307.952 313.552 307.665 317.082C307.379 313.552 307.379 310.005 307.665 306.474Z" fill="#FAFAFA"/>
<path d="M319.991 306.474C320.277 310.131 320.277 313.805 319.991 317.462C319.705 313.805 319.705 310.131 319.991 306.474Z" fill="#FAFAFA"/>
<path d="M331.607 306.383C331.893 310.112 331.893 313.857 331.607 317.586C331.32 313.857 331.32 310.112 331.607 306.383Z" fill="#FAFAFA"/>
<path d="M338.401 306.474C338.401 306.598 329.51 306.697 318.546 306.697C307.583 306.697 298.692 306.598 298.692 306.474C298.692 306.35 307.575 306.26 318.546 306.26C329.518 306.26 338.401 306.359 338.401 306.474Z" fill="#FAFAFA"/>
<path d="M358.627 338.348C358.627 338.464 278.68 338.563 180.075 338.563C81.4706 338.563 1.50705 338.464 1.50705 338.348C1.50705 338.232 81.4376 338.133 180.075 338.133C278.713 338.133 358.627 338.224 358.627 338.348Z" fill="#263238"/>
<path d="M236.783 0.706925H213.089C212.313 0.721925 211.548 0.890123 210.836 1.20186C210.125 1.5136 209.483 1.96273 208.946 2.52346C208.409 3.0842 207.988 3.74549 207.707 4.46935C207.427 5.19321 207.292 5.96539 207.311 6.74154V11.059C207.329 11.8352 207.194 12.6074 206.914 13.3312C206.633 14.0551 206.212 14.7164 205.675 15.2771C205.138 15.8379 204.496 16.287 203.785 16.5987C203.074 16.9105 202.308 17.0787 201.532 17.0937H155.3C154.524 17.0776 153.759 16.9086 153.049 16.5965C152.338 16.2844 151.696 15.8353 151.159 15.2747C150.623 14.7142 150.202 14.0534 149.921 13.33C149.64 12.6066 149.504 11.8349 149.521 11.059V6.70851C149.54 5.93197 149.405 5.15938 149.125 4.43504C148.844 3.71071 148.423 3.04887 147.886 2.48748C147.35 1.92609 146.707 1.47618 145.996 1.16355C145.285 0.850922 144.519 0.681722 143.743 0.665649H135.536H114.798C112.344 0.667813 109.914 1.15378 107.648 2.09576C105.381 3.03774 103.323 4.41725 101.59 6.1554C99.8571 7.89355 98.4839 9.95623 97.5489 12.2255C96.6139 14.4947 96.1354 16.9261 96.1408 19.3804L96.083 319.559C96.0743 324.513 98.0328 329.268 101.528 332.779C105.024 336.289 109.77 338.269 114.724 338.282L236.709 338.356C239.163 338.354 241.593 337.868 243.859 336.926C246.126 335.984 248.184 334.605 249.917 332.866C251.65 331.128 253.023 329.066 253.958 326.796C254.893 324.527 255.372 322.096 255.366 319.641L255.424 19.4547C255.433 16.9993 254.957 14.5662 254.025 12.2947C253.092 10.0232 251.721 7.95781 249.99 6.21659C248.259 4.47538 246.201 3.09253 243.935 2.14713C241.669 1.20173 239.238 0.712335 236.783 0.706925Z" fill="#0F172A"/>
<path d="M228.354 218.3H115.946C113.315 218.3 111.182 220.432 111.182 223.063V240.118C111.182 242.749 113.315 244.882 115.946 244.882H228.354C230.985 244.882 233.117 242.749 233.117 240.118V223.063C233.117 220.432 230.985 218.3 228.354 218.3Z" fill="#2666FA"/>
<path d="M117.3 124.181V124.627H113.849V119.748H117.201V120.194H114.361V121.927H116.887V122.373H114.361V124.181H117.3Z" fill="#EBEBEB"/>
<path d="M118.002 122.522H119.826V122.959H118.002V122.522Z" fill="#EBEBEB"/>
<path d="M126.992 122.505V124.627H126.497V122.555C126.497 121.779 126.109 121.374 125.448 121.374C125.276 121.367 125.104 121.397 124.945 121.463C124.786 121.529 124.643 121.628 124.526 121.755C124.409 121.881 124.321 122.031 124.268 122.195C124.215 122.359 124.198 122.532 124.218 122.703V124.627H123.723V122.555C123.723 121.779 123.335 121.374 122.666 121.374C122.494 121.367 122.322 121.397 122.163 121.463C122.004 121.529 121.861 121.628 121.744 121.755C121.627 121.881 121.539 122.031 121.486 122.195C121.432 122.359 121.415 122.532 121.436 122.703V124.627H120.941V120.962H121.411V121.63C121.553 121.404 121.752 121.22 121.989 121.097C122.225 120.974 122.49 120.916 122.757 120.929C123.028 120.908 123.298 120.972 123.532 121.111C123.765 121.249 123.95 121.457 124.061 121.705C124.214 121.459 124.429 121.259 124.684 121.122C124.939 120.986 125.225 120.919 125.514 120.929C125.721 120.913 125.929 120.944 126.122 121.019C126.315 121.094 126.489 121.212 126.631 121.363C126.772 121.514 126.878 121.696 126.941 121.893C127.003 122.091 127.021 122.3 126.992 122.505Z" fill="#EBEBEB"/>
<path d="M131.111 122.357V124.627H130.641V124.057C130.504 124.263 130.315 124.428 130.093 124.535C129.871 124.643 129.624 124.689 129.378 124.668C128.552 124.668 128.04 124.231 128.04 123.595C128.04 122.959 128.395 122.555 129.452 122.555H130.616V122.332C130.616 121.705 130.261 121.366 129.576 121.366C129.131 121.361 128.698 121.513 128.354 121.795L128.131 121.424C128.557 121.092 129.085 120.917 129.625 120.929C129.822 120.9 130.023 120.916 130.212 120.977C130.402 121.038 130.575 121.141 130.718 121.279C130.862 121.417 130.972 121.585 131.04 121.772C131.108 121.959 131.132 122.159 131.111 122.357ZM130.616 123.529V122.926H129.469C128.759 122.926 128.527 123.207 128.527 123.587C128.527 123.967 128.866 124.272 129.452 124.272C129.7 124.289 129.947 124.225 130.156 124.092C130.366 123.958 130.527 123.761 130.616 123.529Z" fill="#EBEBEB"/>
<path d="M132.35 119.798C132.35 119.726 132.371 119.656 132.411 119.596C132.451 119.536 132.508 119.49 132.574 119.462C132.64 119.435 132.713 119.427 132.784 119.441C132.854 119.455 132.919 119.49 132.97 119.541C133.021 119.592 133.055 119.656 133.069 119.727C133.083 119.797 133.076 119.87 133.049 119.937C133.021 120.003 132.975 120.06 132.915 120.1C132.855 120.14 132.785 120.161 132.713 120.161C132.665 120.162 132.617 120.153 132.573 120.135C132.528 120.118 132.488 120.091 132.454 120.057C132.42 120.023 132.393 119.983 132.375 119.938C132.357 119.893 132.349 119.846 132.35 119.798ZM132.457 120.962H132.961V124.627H132.457V120.962Z" fill="#EBEBEB"/>
<path d="M134.339 119.451H134.835V124.627H134.339V119.451Z" fill="#EBEBEB"/>
<path d="M115.806 169.511C115.806 170.551 115.054 171.162 113.808 171.162H112.495V172.706H112.008V167.819H113.833C115.054 167.835 115.806 168.471 115.806 169.511ZM115.294 169.511C115.294 168.735 114.774 168.289 113.8 168.289H112.495V170.766H113.8C114.774 170.766 115.31 170.279 115.31 169.511H115.294Z" fill="#EBEBEB"/>
<path d="M119.554 170.452V172.722H119.083V172.153C118.946 172.357 118.757 172.521 118.534 172.627C118.312 172.733 118.065 172.778 117.82 172.755C116.994 172.755 116.474 172.326 116.474 171.69C116.474 171.055 116.838 170.65 117.894 170.65H119.058V170.427C119.058 169.8 118.703 169.461 118.018 169.461C117.573 169.456 117.14 169.608 116.796 169.891L116.573 169.519C117 169.187 117.527 169.012 118.068 169.024C118.264 168.995 118.465 169.012 118.655 169.072C118.844 169.133 119.017 169.236 119.16 169.374C119.304 169.512 119.414 169.681 119.482 169.867C119.55 170.054 119.575 170.254 119.554 170.452ZM119.058 171.624V171.022H117.911C117.193 171.022 116.961 171.302 116.961 171.674C116.961 172.045 117.308 172.367 117.894 172.367C118.146 172.38 118.395 172.312 118.605 172.172C118.814 172.032 118.973 171.829 119.058 171.591V171.624Z" fill="#EBEBEB"/>
<path d="M120.396 172.301L120.619 171.913C120.998 172.187 121.455 172.331 121.923 172.326C122.616 172.326 122.905 172.087 122.905 171.723C122.905 170.766 120.528 171.525 120.528 170.072C120.528 169.47 121.04 169.024 121.973 169.024C122.431 169.016 122.883 169.137 123.277 169.371L123.054 169.767C122.734 169.553 122.357 169.444 121.973 169.453C121.312 169.453 121.023 169.709 121.023 170.056C121.023 171.046 123.401 170.303 123.401 171.707C123.401 172.343 122.839 172.747 121.882 172.747C121.351 172.767 120.828 172.611 120.396 172.301Z" fill="#EBEBEB"/>
<path d="M123.805 172.301L124.028 171.913C124.408 172.187 124.865 172.331 125.333 172.326C126.034 172.326 126.315 172.087 126.315 171.723C126.315 170.766 123.937 171.525 123.937 170.072C123.937 169.47 124.457 169.024 125.39 169.024C125.846 169.018 126.295 169.138 126.686 169.371L126.472 169.767C126.151 169.555 125.774 169.446 125.39 169.453C124.722 169.453 124.433 169.709 124.433 170.056C124.433 171.046 126.81 170.303 126.81 171.707C126.81 172.342 126.257 172.747 125.3 172.747C124.766 172.769 124.24 172.612 123.805 172.301Z" fill="#EBEBEB"/>
<path d="M133.043 169.057L131.656 172.722H131.186L130.03 169.717L128.874 172.722H128.404L127.025 169.057H127.496L128.651 172.169L129.832 169.057H130.253L131.425 172.169L132.589 169.057H133.043Z" fill="#EBEBEB"/>
<path d="M133.316 170.89C133.314 170.519 133.423 170.155 133.628 169.846C133.832 169.537 134.125 169.295 134.467 169.152C134.809 169.009 135.186 168.971 135.55 169.042C135.914 169.114 136.249 169.292 136.512 169.553C136.775 169.815 136.954 170.149 137.027 170.513C137.1 170.876 137.063 171.254 136.922 171.596C136.78 171.939 136.54 172.233 136.232 172.439C135.923 172.645 135.561 172.755 135.19 172.755C134.942 172.764 134.695 172.723 134.464 172.632C134.233 172.542 134.023 172.405 133.847 172.23C133.671 172.055 133.533 171.845 133.442 171.615C133.351 171.384 133.308 171.137 133.316 170.89ZM136.552 170.89C136.541 170.621 136.45 170.362 136.293 170.144C136.135 169.926 135.917 169.759 135.665 169.665C135.413 169.57 135.14 169.551 134.877 169.611C134.615 169.671 134.377 169.807 134.191 170.002C134.005 170.196 133.881 170.441 133.834 170.706C133.786 170.97 133.818 171.243 133.924 171.49C134.031 171.737 134.207 171.947 134.432 172.094C134.657 172.241 134.921 172.319 135.19 172.318C135.375 172.322 135.56 172.287 135.731 172.215C135.903 172.144 136.057 172.038 136.185 171.904C136.314 171.769 136.412 171.61 136.475 171.435C136.538 171.261 136.565 171.075 136.552 170.89Z" fill="#EBEBEB"/>
<path d="M139.912 169.024V169.503H139.796C139.621 169.494 139.446 169.523 139.284 169.59C139.122 169.657 138.976 169.758 138.858 169.888C138.739 170.017 138.651 170.171 138.599 170.338C138.548 170.506 138.533 170.683 138.558 170.857V172.722H138.063V169.057H138.542V169.775C138.665 169.524 138.863 169.318 139.108 169.183C139.353 169.049 139.634 168.993 139.912 169.024Z" fill="#EBEBEB"/>
<path d="M144.122 167.546V172.722H143.643V171.996C143.497 172.236 143.289 172.434 143.041 172.567C142.793 172.701 142.513 172.766 142.232 172.755C141.737 172.755 141.262 172.559 140.912 172.209C140.563 171.859 140.366 171.384 140.366 170.89C140.366 170.395 140.563 169.92 140.912 169.57C141.262 169.22 141.737 169.024 142.232 169.024C142.506 169.019 142.778 169.083 143.021 169.21C143.265 169.337 143.473 169.523 143.627 169.75V167.546H144.122ZM143.635 170.89C143.624 170.621 143.534 170.362 143.376 170.144C143.218 169.926 143 169.759 142.748 169.665C142.497 169.57 142.223 169.551 141.961 169.611C141.699 169.671 141.46 169.807 141.274 170.002C141.089 170.196 140.964 170.441 140.917 170.706C140.87 170.97 140.901 171.243 141.008 171.49C141.114 171.737 141.291 171.947 141.516 172.094C141.741 172.241 142.004 172.319 142.273 172.318C142.459 172.322 142.643 172.287 142.814 172.215C142.986 172.144 143.141 172.038 143.269 171.904C143.397 171.769 143.496 171.61 143.559 171.435C143.622 171.261 143.648 171.075 143.635 170.89Z" fill="#EBEBEB"/>
<path d="M156.225 233.679L156.712 232.598C157.311 233.013 158.022 233.237 158.751 233.242C159.577 233.242 159.94 232.961 159.94 232.581C159.94 231.426 156.349 232.218 156.349 229.923C156.349 228.875 157.174 228 158.949 228C159.701 227.982 160.443 228.171 161.096 228.544L160.658 229.634C160.138 229.325 159.546 229.157 158.941 229.147C158.115 229.147 157.769 229.461 157.769 229.849C157.769 230.988 161.36 230.204 161.36 232.474C161.36 233.506 160.534 234.389 158.743 234.389C157.851 234.412 156.973 234.165 156.225 233.679Z" fill="#0C1222"/>
<path d="M162.078 228.107C162.093 227.898 162.186 227.703 162.339 227.56C162.493 227.418 162.694 227.339 162.904 227.339C163.007 227.331 163.11 227.344 163.208 227.377C163.305 227.41 163.396 227.463 163.473 227.531C163.55 227.6 163.612 227.683 163.656 227.776C163.7 227.87 163.725 227.971 163.729 228.074C163.729 228.3 163.639 228.518 163.479 228.678C163.319 228.838 163.101 228.928 162.875 228.928C162.648 228.928 162.431 228.838 162.271 228.678C162.11 228.518 162.02 228.3 162.02 228.074L162.078 228.107ZM162.243 229.535H163.622V234.282H162.243V229.535Z" fill="#0C1222"/>
<path d="M169.797 231.566V234.282H168.427V231.805C168.427 231.029 168.072 230.683 167.461 230.683C166.85 230.683 166.322 231.087 166.322 231.962V234.307H164.943V229.56H166.264V230.113C166.466 229.904 166.711 229.74 166.981 229.632C167.251 229.524 167.541 229.474 167.832 229.486C168.105 229.468 168.378 229.51 168.633 229.61C168.887 229.71 169.116 229.865 169.304 230.064C169.492 230.262 169.633 230.5 169.718 230.76C169.804 231.019 169.831 231.295 169.797 231.566Z" fill="#0C1222"/>
<path d="M175.956 229.535V233.506C175.956 235.272 175.006 236.082 173.289 236.082C172.463 236.119 171.647 235.89 170.961 235.429L171.506 234.439C171.985 234.789 172.563 234.98 173.157 234.984C174.131 234.984 174.552 234.538 174.552 233.679V233.506C174.36 233.706 174.127 233.862 173.869 233.964C173.612 234.067 173.335 234.113 173.058 234.1C172.745 234.119 172.431 234.074 172.135 233.966C171.84 233.859 171.57 233.693 171.341 233.478C171.112 233.262 170.93 233.003 170.806 232.714C170.681 232.426 170.617 232.115 170.617 231.801C170.617 231.487 170.681 231.176 170.806 230.888C170.93 230.6 171.112 230.34 171.341 230.124C171.57 229.909 171.84 229.743 172.135 229.636C172.431 229.529 172.745 229.483 173.058 229.502C173.355 229.485 173.652 229.539 173.924 229.658C174.196 229.777 174.437 229.958 174.627 230.187V229.576L175.956 229.535ZM174.602 231.756C174.618 231.504 174.559 231.254 174.431 231.037C174.303 230.82 174.113 230.646 173.885 230.538C173.657 230.431 173.403 230.394 173.154 230.434C172.905 230.473 172.674 230.587 172.49 230.759C172.307 230.932 172.179 231.156 172.125 231.401C172.07 231.647 172.091 231.904 172.184 232.138C172.278 232.372 172.439 232.573 172.648 232.713C172.857 232.854 173.103 232.929 173.355 232.928C173.516 232.941 173.677 232.92 173.829 232.866C173.981 232.813 174.121 232.728 174.238 232.618C174.355 232.507 174.448 232.374 174.511 232.225C174.574 232.077 174.605 231.917 174.602 231.756Z" fill="#0C1222"/>
<path d="M179.572 228.107C179.586 227.898 179.68 227.703 179.833 227.56C179.986 227.418 180.188 227.339 180.397 227.339C180.5 227.331 180.604 227.344 180.701 227.377C180.799 227.41 180.889 227.463 180.966 227.531C181.043 227.6 181.106 227.683 181.15 227.776C181.194 227.87 181.219 227.971 181.223 228.074C181.223 228.3 181.133 228.518 180.973 228.678C180.812 228.838 180.595 228.928 180.368 228.928C180.142 228.928 179.924 228.838 179.764 228.678C179.604 228.518 179.514 228.3 179.514 228.074L179.572 228.107ZM179.737 229.535H181.116V234.282H179.704L179.737 229.535Z" fill="#0C1222"/>
<path d="M187.249 231.566V234.282H185.879V231.805C185.879 231.029 185.524 230.683 184.913 230.683C184.302 230.683 183.774 231.087 183.774 231.962V234.307H182.395V229.56H183.708V230.113C183.912 229.904 184.158 229.741 184.43 229.633C184.701 229.525 184.993 229.474 185.285 229.486C185.557 229.468 185.831 229.51 186.085 229.61C186.339 229.71 186.569 229.865 186.756 230.064C186.944 230.262 187.085 230.5 187.171 230.76C187.256 231.019 187.283 231.295 187.249 231.566Z" fill="#0C1222"/>
<path d="M227.33 129.919H116.97C113.773 129.919 111.182 132.509 111.182 135.706V150.507C111.182 153.703 113.773 156.294 116.97 156.294H227.33C230.526 156.294 233.117 153.703 233.117 150.507V135.706C233.117 132.509 230.526 129.919 227.33 129.919Z" fill="#19233B"/>
<path d="M227.33 177.519H116.97C113.773 177.519 111.182 180.109 111.182 183.306V198.107C111.182 201.303 113.773 203.894 116.97 203.894H227.33C230.526 203.894 233.117 201.303 233.117 198.107V183.306C233.117 180.109 230.526 177.519 227.33 177.519Z" fill="#19233B"/>
<path d="M228.354 301.042C228.354 301.042 228.61 301.042 229.097 300.96C229.811 300.838 230.489 300.556 231.078 300.134C232.045 299.446 232.715 298.416 232.952 297.253C233.055 296.509 233.086 295.757 233.043 295.008C233.043 294.182 233.043 293.357 233.043 292.416C233.043 288.758 233.043 284.292 233.002 279.108C232.984 278.453 232.827 277.809 232.543 277.218C232.258 276.628 231.852 276.104 231.351 275.682C230.824 275.24 230.202 274.923 229.535 274.757C228.837 274.611 228.124 274.561 227.413 274.609H218.084L115.971 274.667C114.771 274.671 113.621 275.145 112.768 275.988C112.345 276.403 112.009 276.897 111.778 277.443C111.547 277.988 111.426 278.574 111.422 279.166C111.422 281.626 111.422 284.069 111.422 286.497V295.52C111.394 296.097 111.43 296.675 111.529 297.245C111.772 298.359 112.427 299.341 113.362 299.994C113.822 300.316 114.337 300.551 114.881 300.687C115.437 300.806 116.006 300.853 116.573 300.828H140.176L186.085 300.877L217.036 300.943L225.448 300.985L217.036 301.026L186.061 301.199L140.151 301.249H116.549C115.947 301.28 115.345 301.23 114.757 301.1C114.164 300.957 113.604 300.702 113.106 300.349C112.083 299.636 111.366 298.562 111.1 297.344C110.993 296.745 110.954 296.136 110.984 295.528V279.166C110.984 277.852 111.506 276.592 112.435 275.663C113.364 274.734 114.624 274.213 115.938 274.213L218.051 274.279H227.38C228.113 274.231 228.85 274.286 229.568 274.444C230.272 274.622 230.927 274.958 231.483 275.426C232.008 275.875 232.433 276.428 232.732 277.051C233.031 277.673 233.196 278.352 233.217 279.042C233.217 284.235 233.217 288.701 233.217 292.358C233.217 293.274 233.217 294.133 233.217 294.95C233.253 295.708 233.217 296.469 233.109 297.22C232.849 298.409 232.151 299.455 231.153 300.151C230.551 300.579 229.859 300.861 229.13 300.976C228.874 301.026 228.614 301.048 228.354 301.042Z" fill="white" fill-opacity="0.26"/>
<path d="M199.278 287.751C199.278 287.867 186.936 287.966 171.712 287.966C156.489 287.966 144.155 287.867 144.155 287.751C144.155 287.636 156.489 287.537 171.712 287.537C186.936 287.537 199.278 287.636 199.278 287.751Z" fill="#E0E0E0"/>
<path d="M188.5 75.4986C195.404 68.5953 195.404 57.4029 188.5 50.4996C181.596 43.5962 170.404 43.5962 163.5 50.4995C156.596 57.4028 156.596 68.5953 163.5 75.4986C170.404 82.4019 181.596 82.4019 188.5 75.4986Z" fill="#19233B"/>
<path d="M187.43 76.4083C187.117 73.6133 185.773 71.0355 183.661 69.1789C181.548 67.3223 178.819 66.3206 176.007 66.3696C173.207 66.3897 170.509 67.421 168.41 69.2736C166.311 71.1262 164.952 73.6752 164.584 76.4506C166.109 77.884 167.905 78.9974 169.867 79.7249C171.829 80.4524 173.917 80.7793 176.007 80.6863C180.227 80.8034 184.325 79.2684 187.43 76.4083Z" fill="#0F172A"/>
<path d="M176.007 67.5838C179.836 67.5838 182.94 64.4801 182.94 60.6514C182.94 56.8227 179.836 53.7189 176.007 53.7189C172.178 53.7189 169.074 56.8227 169.074 60.6514C169.074 64.4801 172.178 67.5838 176.007 67.5838Z" fill="#0F172A"/>
<path d="M240.597 96.6498C240.597 96.7736 211.562 96.8644 175.758 96.8644C139.953 96.8644 110.91 96.7736 110.91 96.6498C110.91 96.526 139.937 96.4352 175.758 96.4352C211.579 96.4352 240.597 96.5342 240.597 96.6498Z" fill="#D1D1D1"/>
<path d="M240.597 259.799C240.597 259.915 211.562 260.014 175.758 260.014C139.953 260.014 110.91 259.915 110.91 259.799C110.91 259.683 139.937 259.584 175.758 259.584C211.579 259.584 240.597 259.683 240.597 259.799Z" fill="#E0E0E0"/>
<g opacity="0.6">
<path d="M123.14 191.344L124.655 192.201L124.261 192.88L122.712 191.97V193.709H121.944V191.97L120.401 192.88L120 192.201L121.536 191.344L120 190.502L120.401 189.822L121.944 190.726V189H122.712V190.726L124.261 189.822L124.655 190.502L123.14 191.344Z" fill="#D1D1D1"/>
<path d="M132.789 191.345L134.318 192.202L133.917 192.881L132.374 191.971V193.711H131.599V191.971L130.049 192.881L129.655 192.202L131.185 191.345L129.655 190.502L130.049 189.823L131.599 190.727V189H132.367V190.727L133.911 189.823L134.312 190.502L132.789 191.345Z" fill="#D1D1D1"/>
<path d="M142.475 191.319L143.998 192.176L143.604 192.857L142.032 191.972V193.714H141.264V191.972L139.713 192.884L139.318 192.204L140.856 191.347L139.318 190.503L139.713 189.823L141.264 190.728V189H142.032V190.728L143.583 189.823L143.978 190.503L142.475 191.319Z" fill="#D1D1D1"/>
<path d="M152.138 191.35L153.663 192.208L153.268 192.889L151.716 191.976V193.719H150.946V191.976L149.4 192.889L148.998 192.208L150.537 191.35L149.039 190.505L149.441 189.824L150.987 190.73V189H151.763V190.73L153.316 189.824L153.711 190.505L152.138 191.35Z" fill="#D1D1D1"/>
</g>
<path opacity="0.6" d="M123.814 143.077V145.174H123.318V143.094C123.34 142.941 123.327 142.785 123.28 142.637C123.233 142.49 123.153 142.355 123.047 142.242C122.941 142.129 122.81 142.042 122.666 141.987C122.521 141.931 122.366 141.909 122.212 141.922C122.037 141.91 121.861 141.937 121.697 142C121.533 142.063 121.385 142.162 121.263 142.288C121.141 142.415 121.048 142.567 120.991 142.733C120.934 142.899 120.914 143.076 120.932 143.251V145.174H120.437V141.542H120.908V142.219C121.056 141.987 121.263 141.799 121.509 141.674C121.754 141.549 122.028 141.492 122.303 141.509C122.51 141.493 122.719 141.523 122.913 141.597C123.108 141.671 123.283 141.787 123.428 141.937C123.572 142.087 123.682 142.267 123.748 142.464C123.815 142.661 123.837 142.871 123.814 143.077Z" fill="#D1D1D1"/>
<path opacity="0.6" d="M127.933 142.937V145.174H127.454V144.605C127.318 144.811 127.129 144.977 126.907 145.084C126.684 145.192 126.437 145.237 126.191 145.216C125.366 145.216 124.854 144.778 124.854 144.142C124.854 143.507 125.217 143.102 126.265 143.102H127.438V142.879C127.438 142.252 127.083 141.914 126.398 141.914C125.952 141.905 125.518 142.058 125.176 142.343L124.953 141.971C125.378 141.636 125.906 141.461 126.447 141.476C126.647 141.446 126.851 141.463 127.043 141.526C127.235 141.588 127.41 141.694 127.555 141.836C127.699 141.978 127.808 142.151 127.874 142.342C127.939 142.533 127.96 142.737 127.933 142.937ZM127.438 144.109V143.523H126.282C125.572 143.523 125.341 143.804 125.341 144.175C125.341 144.547 125.679 144.869 126.265 144.869C126.516 144.884 126.765 144.818 126.976 144.681C127.187 144.545 127.349 144.344 127.438 144.109Z" fill="#D1D1D1"/>
<path opacity="0.6" d="M135.338 143.078V145.174H134.843V143.094C134.843 142.326 134.447 141.922 133.786 141.922C133.614 141.915 133.443 141.945 133.283 142.011C133.124 142.076 132.981 142.176 132.864 142.302C132.747 142.428 132.659 142.579 132.606 142.743C132.553 142.906 132.536 143.08 132.556 143.251V145.174H132.061V143.094C132.061 142.326 131.673 141.922 131.004 141.922C130.832 141.915 130.66 141.945 130.501 142.011C130.342 142.076 130.199 142.176 130.082 142.302C129.965 142.428 129.877 142.579 129.824 142.743C129.77 142.906 129.754 143.08 129.774 143.251V145.174H129.279V141.542H129.749V142.211C129.891 141.985 130.091 141.801 130.327 141.677C130.563 141.554 130.829 141.496 131.095 141.509C131.367 141.489 131.638 141.553 131.873 141.692C132.107 141.83 132.294 142.037 132.408 142.285C132.556 142.037 132.769 141.835 133.023 141.698C133.277 141.561 133.564 141.496 133.852 141.509C134.059 141.492 134.267 141.522 134.46 141.596C134.654 141.671 134.828 141.787 134.971 141.938C135.113 142.088 135.22 142.269 135.284 142.466C135.348 142.663 135.366 142.872 135.338 143.078Z" fill="#D1D1D1"/>
<path opacity="0.6" d="M139.895 143.523H136.824C136.834 143.702 136.879 143.878 136.957 144.039C137.035 144.2 137.145 144.344 137.279 144.463C137.414 144.581 137.571 144.672 137.741 144.729C137.911 144.786 138.09 144.808 138.269 144.795C138.48 144.802 138.69 144.762 138.884 144.68C139.077 144.597 139.251 144.473 139.392 144.316L139.673 144.638C139.407 144.901 139.071 145.081 138.705 145.158C138.339 145.235 137.959 145.204 137.61 145.07C137.262 144.935 136.959 144.703 136.739 144.401C136.519 144.099 136.391 143.74 136.37 143.366C136.357 143.124 136.393 142.882 136.477 142.654C136.562 142.426 136.692 142.219 136.86 142.044C137.028 141.869 137.23 141.73 137.454 141.637C137.678 141.543 137.919 141.497 138.162 141.501C138.404 141.497 138.644 141.543 138.867 141.637C139.09 141.73 139.292 141.869 139.458 142.044C139.625 142.22 139.754 142.428 139.836 142.655C139.918 142.883 139.953 143.125 139.937 143.366L139.895 143.523ZM136.824 143.152H139.425C139.399 142.825 139.25 142.52 139.01 142.297C138.769 142.075 138.453 141.951 138.125 141.951C137.797 141.951 137.481 142.075 137.24 142.297C136.999 142.52 136.85 142.825 136.824 143.152Z" fill="#D1D1D1"/>
<path opacity="0.6" d="M147.07 143.358C147.07 144.547 146.632 145.249 145.914 145.249C145.811 145.254 145.707 145.239 145.611 145.202C145.514 145.166 145.426 145.11 145.352 145.038C145.278 144.966 145.221 144.879 145.182 144.783C145.144 144.687 145.126 144.584 145.129 144.481C144.988 144.723 144.783 144.922 144.538 145.057C144.292 145.193 144.014 145.259 143.734 145.249C143.277 145.218 142.848 145.014 142.535 144.679C142.222 144.344 142.048 143.903 142.048 143.445C142.048 142.987 142.222 142.545 142.535 142.21C142.848 141.876 143.277 141.672 143.734 141.641C144.008 141.632 144.28 141.694 144.522 141.823C144.764 141.952 144.968 142.143 145.113 142.376V141.674H145.567V144.349C145.567 144.737 145.765 144.877 145.996 144.877C146.434 144.877 146.715 144.341 146.715 143.399C146.725 143.026 146.657 142.655 146.514 142.309C146.371 141.964 146.158 141.653 145.886 141.396C145.615 141.139 145.293 140.942 144.941 140.818C144.588 140.693 144.214 140.645 143.842 140.675C143.461 140.655 143.08 140.712 142.722 140.843C142.364 140.975 142.036 141.178 141.759 141.44C141.482 141.702 141.262 142.018 141.111 142.369C140.96 142.719 140.883 143.096 140.883 143.478C140.883 143.859 140.96 144.237 141.111 144.587C141.262 144.937 141.482 145.253 141.759 145.516C142.036 145.778 142.364 145.981 142.722 146.113C143.08 146.244 143.461 146.301 143.842 146.281C144.304 146.279 144.761 146.175 145.179 145.975L145.295 146.314C144.841 146.53 144.344 146.64 143.842 146.636C143.003 146.636 142.199 146.302 141.606 145.709C141.013 145.117 140.68 144.312 140.68 143.474C140.68 142.635 141.013 141.831 141.606 141.238C142.199 140.645 143.003 140.312 143.842 140.312C144.257 140.284 144.675 140.341 145.067 140.482C145.46 140.623 145.819 140.843 146.122 141.129C146.425 141.415 146.666 141.761 146.829 142.144C146.992 142.528 147.074 142.941 147.07 143.358ZM145.121 143.441C145.108 143.181 145.019 142.931 144.866 142.721C144.712 142.511 144.5 142.351 144.257 142.261C144.013 142.17 143.748 142.153 143.495 142.212C143.241 142.27 143.011 142.402 142.831 142.59C142.652 142.778 142.532 143.015 142.486 143.271C142.439 143.527 142.469 143.79 142.572 144.03C142.674 144.269 142.844 144.472 143.061 144.616C143.278 144.759 143.532 144.836 143.792 144.836C143.973 144.84 144.153 144.806 144.321 144.736C144.488 144.667 144.639 144.563 144.764 144.432C144.889 144.3 144.986 144.144 145.047 143.974C145.109 143.803 145.134 143.622 145.121 143.441Z" fill="#D1D1D1"/>
<path opacity="0.6" d="M154.178 143.077V145.174H153.682V143.094C153.682 142.326 153.294 141.922 152.626 141.922C152.454 141.914 152.282 141.945 152.123 142.01C151.965 142.076 151.822 142.176 151.706 142.302C151.589 142.429 151.502 142.579 151.45 142.743C151.398 142.907 151.382 143.08 151.404 143.251V145.174H150.908V143.094C150.908 142.326 150.512 141.922 149.843 141.922C149.671 141.915 149.5 141.945 149.34 142.01C149.181 142.076 149.038 142.176 148.921 142.302C148.804 142.428 148.716 142.579 148.663 142.743C148.61 142.906 148.593 143.08 148.613 143.251V145.174H148.118V141.542H148.597V142.211C148.738 141.984 148.937 141.8 149.174 141.676C149.411 141.553 149.676 141.495 149.942 141.509C150.213 141.489 150.484 141.552 150.717 141.691C150.951 141.83 151.136 142.037 151.247 142.285C151.4 142.04 151.615 141.839 151.87 141.703C152.125 141.567 152.411 141.5 152.7 141.509C152.906 141.494 153.113 141.524 153.305 141.599C153.498 141.674 153.671 141.791 153.813 141.941C153.954 142.091 154.06 142.271 154.124 142.468C154.187 142.665 154.205 142.873 154.178 143.077Z" fill="#D1D1D1"/>
<path opacity="0.6" d="M158.297 142.937V145.174H157.818V144.605C157.682 144.811 157.493 144.977 157.271 145.084C157.049 145.192 156.801 145.237 156.555 145.216C155.73 145.216 155.218 144.778 155.218 144.142C155.218 143.507 155.581 143.102 156.638 143.102H157.802V142.879C157.802 142.252 157.447 141.914 156.762 141.914C156.316 141.905 155.882 142.058 155.54 142.343L155.317 141.971C155.743 141.639 156.271 141.464 156.811 141.476C157.011 141.446 157.215 141.463 157.407 141.526C157.599 141.588 157.774 141.694 157.919 141.836C158.063 141.978 158.172 142.151 158.238 142.342C158.303 142.533 158.324 142.737 158.297 142.937ZM157.802 144.109V143.523H156.646C155.936 143.523 155.705 143.804 155.705 144.175C155.705 144.547 156.052 144.869 156.638 144.869C156.887 144.882 157.134 144.815 157.343 144.679C157.553 144.542 157.713 144.343 157.802 144.109Z" fill="#D1D1D1"/>
<path opacity="0.6" d="M159.535 140.378C159.537 140.331 159.547 140.285 159.566 140.243C159.584 140.2 159.612 140.162 159.645 140.129C159.679 140.097 159.719 140.072 159.762 140.055C159.806 140.038 159.852 140.03 159.899 140.031C159.949 140.024 160.001 140.027 160.05 140.041C160.099 140.055 160.145 140.079 160.184 140.113C160.223 140.146 160.254 140.187 160.275 140.234C160.297 140.28 160.308 140.331 160.308 140.382C160.308 140.433 160.297 140.484 160.275 140.53C160.254 140.577 160.223 140.618 160.184 140.652C160.145 140.685 160.099 140.709 160.05 140.724C160.001 140.738 159.949 140.741 159.899 140.733C159.851 140.734 159.804 140.726 159.76 140.708C159.716 140.691 159.676 140.665 159.642 140.632C159.608 140.599 159.582 140.559 159.563 140.516C159.545 140.472 159.535 140.425 159.535 140.378ZM159.643 141.542H160.138V145.174H159.643V141.542Z" fill="#D1D1D1"/>
<path opacity="0.6" d="M161.542 140.031H162.037V145.174H161.542V140.031Z" fill="#D1D1D1"/>
<path opacity="0.6" d="M163.077 144.861C163.076 144.811 163.085 144.762 163.103 144.716C163.121 144.67 163.148 144.628 163.183 144.593C163.218 144.557 163.259 144.529 163.304 144.51C163.35 144.491 163.399 144.481 163.449 144.481C163.548 144.483 163.642 144.524 163.712 144.595C163.781 144.666 163.82 144.761 163.82 144.861C163.82 144.961 163.782 145.057 163.712 145.129C163.643 145.202 163.549 145.244 163.449 145.249C163.399 145.248 163.35 145.237 163.304 145.217C163.258 145.197 163.217 145.168 163.182 145.132C163.148 145.096 163.121 145.053 163.103 145.007C163.085 144.96 163.076 144.911 163.077 144.861Z" fill="#D1D1D1"/>
<path opacity="0.6" d="M164.406 143.375C164.398 143.125 164.441 142.877 164.534 142.645C164.626 142.414 164.766 142.203 164.943 142.028C165.121 141.853 165.333 141.716 165.566 141.627C165.799 141.538 166.048 141.497 166.297 141.509C166.578 141.497 166.858 141.558 167.11 141.685C167.361 141.812 167.576 142.002 167.733 142.235L167.362 142.491C167.245 142.318 167.086 142.177 166.899 142.082C166.713 141.987 166.506 141.94 166.297 141.947C165.918 141.947 165.555 142.097 165.287 142.365C165.019 142.633 164.869 142.996 164.869 143.375C164.869 143.753 165.019 144.117 165.287 144.385C165.555 144.652 165.918 144.803 166.297 144.803C166.505 144.811 166.712 144.766 166.899 144.672C167.085 144.578 167.244 144.439 167.362 144.266L167.733 144.522C167.576 144.756 167.361 144.945 167.11 145.072C166.858 145.199 166.578 145.26 166.297 145.249C166.047 145.259 165.798 145.218 165.565 145.127C165.332 145.037 165.12 144.9 164.943 144.724C164.765 144.548 164.626 144.337 164.534 144.105C164.442 143.873 164.398 143.624 164.406 143.375Z" fill="#D1D1D1"/>
<path opacity="0.6" d="M168.27 143.375C168.271 143.006 168.382 142.646 168.588 142.34C168.794 142.035 169.086 141.797 169.427 141.657C169.768 141.517 170.143 141.481 170.505 141.554C170.866 141.627 171.198 141.805 171.458 142.067C171.718 142.328 171.895 142.66 171.966 143.022C172.037 143.384 172 143.758 171.859 144.099C171.717 144.439 171.478 144.73 171.171 144.935C170.865 145.139 170.504 145.249 170.136 145.249C169.888 145.257 169.641 145.214 169.41 145.122C169.18 145.031 168.97 144.893 168.795 144.717C168.62 144.541 168.483 144.332 168.393 144.101C168.303 143.87 168.261 143.623 168.27 143.375ZM171.498 143.375C171.485 143.109 171.394 142.852 171.237 142.637C171.08 142.422 170.863 142.257 170.613 142.164C170.363 142.071 170.091 142.054 169.832 142.113C169.572 142.173 169.335 142.308 169.152 142.501C168.968 142.694 168.844 142.936 168.797 143.198C168.749 143.461 168.78 143.731 168.885 143.976C168.989 144.221 169.164 144.43 169.386 144.577C169.609 144.724 169.869 144.803 170.136 144.803C170.321 144.807 170.506 144.772 170.677 144.701C170.848 144.629 171.003 144.523 171.131 144.389C171.259 144.254 171.358 144.095 171.421 143.92C171.484 143.746 171.51 143.56 171.498 143.375Z" fill="#D1D1D1"/>
<path opacity="0.6" d="M179.076 143.078V145.174H178.581V143.094C178.581 142.326 178.185 141.922 177.524 141.922C177.352 141.915 177.181 141.945 177.021 142.011C176.862 142.076 176.719 142.176 176.602 142.302C176.485 142.428 176.397 142.579 176.344 142.743C176.291 142.906 176.274 143.08 176.294 143.251V145.174H175.799V143.094C175.799 142.326 175.411 141.922 174.742 141.922C174.57 141.915 174.399 141.945 174.239 142.011C174.08 142.076 173.937 142.176 173.82 142.302C173.703 142.428 173.615 142.579 173.562 142.743C173.509 142.906 173.492 143.08 173.512 143.251V145.174H173.017V141.542H173.487V142.211C173.629 141.985 173.829 141.801 174.065 141.677C174.302 141.554 174.567 141.496 174.833 141.509C175.105 141.489 175.376 141.553 175.611 141.692C175.845 141.83 176.032 142.037 176.146 142.285C176.294 142.037 176.507 141.835 176.761 141.698C177.016 141.561 177.302 141.496 177.59 141.509C177.797 141.492 178.005 141.522 178.198 141.596C178.392 141.671 178.566 141.787 178.709 141.938C178.851 142.088 178.958 142.269 179.022 142.466C179.086 142.663 179.104 142.872 179.076 143.078Z" fill="#D1D1D1"/>
<path d="M116.045 34.3802C115.996 34.3806 115.948 34.3713 115.902 34.3529C115.857 34.3345 115.816 34.3073 115.781 34.2729L111.901 30.8717C111.856 30.8337 111.819 30.7864 111.794 30.7329C111.769 30.6794 111.757 30.6211 111.757 30.5621C111.757 30.5032 111.769 30.4449 111.794 30.3914C111.819 30.3379 111.856 30.2905 111.901 30.2526L115.781 27.033C115.821 26.9978 115.868 26.9711 115.919 26.9545C115.969 26.9379 116.023 26.9317 116.076 26.9364C116.129 26.941 116.181 26.9563 116.228 26.9814C116.275 27.0066 116.317 27.0409 116.35 27.0825C116.386 27.1234 116.413 27.171 116.429 27.2224C116.446 27.2738 116.452 27.3281 116.448 27.3819C116.443 27.4358 116.428 27.4882 116.403 27.536C116.377 27.5839 116.343 27.6262 116.301 27.6604L112.834 30.5745L116.35 33.662C116.392 33.6968 116.426 33.7396 116.45 33.7877C116.475 33.8358 116.489 33.8884 116.493 33.9422C116.497 33.9961 116.49 34.0502 116.472 34.1013C116.455 34.1524 116.428 34.1995 116.392 34.2399C116.348 34.2879 116.295 34.3255 116.234 34.3498C116.174 34.3741 116.11 34.3845 116.045 34.3802Z" fill="#D1D1D1"/>
<path d="M228.643 30.6571C228.643 31.0669 228.521 31.4675 228.294 31.8083C228.066 32.149 227.742 32.4146 227.364 32.5714C226.985 32.7283 226.568 32.7693 226.167 32.6894C225.765 32.6094 225.395 32.4121 225.106 32.1223C224.816 31.8325 224.618 31.4633 224.538 31.0613C224.458 30.6594 224.5 30.2428 224.656 29.8642C224.813 29.4855 225.079 29.1619 225.42 28.9342C225.76 28.7065 226.161 28.585 226.571 28.585C227.12 28.585 227.647 28.8033 228.036 29.1919C228.425 29.5805 228.643 30.1076 228.643 30.6571Z" fill="#D1D1D1"/>
<path d="M234.62 30.6571C234.62 31.0665 234.499 31.4668 234.271 31.8074C234.044 32.1479 233.721 32.4135 233.343 32.5706C232.965 32.7277 232.548 32.7692 232.147 32.6899C231.745 32.6106 231.376 32.4141 231.086 32.1251C230.795 31.8362 230.597 31.4677 230.517 31.0663C230.436 30.6649 230.475 30.2486 230.631 29.8698C230.787 29.491 231.051 29.1669 231.391 28.9382C231.73 28.7095 232.13 28.5866 232.54 28.585C232.812 28.5839 233.083 28.6367 233.335 28.7403C233.587 28.844 233.817 28.9964 234.01 29.189C234.203 29.3815 234.357 29.6103 234.461 29.8622C234.566 30.1141 234.62 30.3842 234.62 30.6571Z" fill="#D1D1D1"/>
<path d="M240.597 30.6571C240.597 31.0672 240.475 31.4682 240.247 31.8091C240.019 32.15 239.695 32.4156 239.316 32.5722C238.937 32.7288 238.52 32.7693 238.118 32.6887C237.715 32.6081 237.346 32.4099 237.057 32.1193C236.767 31.8287 236.571 31.4587 236.492 31.0562C236.412 30.6537 236.455 30.2368 236.613 29.8584C236.771 29.4799 237.038 29.1569 237.38 28.9302C237.721 28.7035 238.123 28.5833 238.533 28.585C239.081 28.5872 239.606 28.8064 239.993 29.1948C240.38 29.5831 240.597 30.1089 240.597 30.6571Z" fill="#D1D1D1"/>
<path d="M340.258 106.218H290.832C288.765 106.218 286.783 107.039 285.322 108.5C283.86 109.962 283.039 111.944 283.039 114.011V126.311C283.039 128.378 283.86 130.36 285.322 131.821C286.783 133.283 288.765 134.104 290.832 134.104H291.344V141.129L299.261 134.104H340.258C342.325 134.104 344.308 133.283 345.769 131.821C347.231 130.36 348.052 128.378 348.052 126.311V114.011C348.052 111.944 347.231 109.962 345.769 108.5C344.308 107.039 342.325 106.218 340.258 106.218Z" fill="#0F172A"/>
<path d="M298.271 119.674L299.856 120.499L298.956 121.985L297.305 121.011L297.354 122.794H295.587L295.629 121.011L293.978 121.985L293.094 120.499L294.671 119.674L293.094 118.807L293.978 117.313L295.629 118.312L295.587 116.504H297.354L297.305 118.312L298.956 117.313L299.856 118.807L298.271 119.674Z" fill="#2666FA"/>
<path d="M305.618 119.674L307.203 120.499L306.303 121.985L304.652 121.011L304.702 122.794H302.935V121.011L301.284 121.985L300.4 120.499L301.977 119.674L300.4 118.807L301.284 117.313L302.935 118.312V116.504H304.702L304.652 118.312L306.303 117.313L307.203 118.807L305.618 119.674Z" fill="#2666FA"/>
<path d="M312.965 119.674L314.551 120.499L313.651 121.985L312 121.011L312.041 122.794H310.274L310.315 121.011L308.664 121.985L307.781 120.499L309.358 119.674L307.781 118.807L308.664 117.313L310.315 118.312L310.274 116.504H312.041L312 118.312L313.651 117.313L314.551 118.807L312.965 119.674Z" fill="#2666FA"/>
<path d="M320.313 119.674L321.898 120.499L320.998 121.985L319.347 121.011L319.388 122.794H317.622L317.663 121.011L316.012 121.985L315.128 120.499L316.713 119.674L315.128 118.807L316.012 117.313L317.663 118.312L317.622 116.504H319.388L319.347 118.312L320.998 117.313L321.898 118.807L320.313 119.674Z" fill="#2666FA"/>
<path d="M327.66 119.674L329.245 120.499L328.346 121.985L326.694 121.011L326.736 122.794H325.002L325.043 121.011L323.392 121.985L322.509 120.499L324.094 119.674L322.525 118.807L323.409 117.313L325.06 118.312L325.019 116.504H326.785L326.744 118.312L328.395 117.313L329.295 118.807L327.66 119.674Z" fill="#2666FA"/>
<path d="M335.008 119.674L336.593 120.499L335.734 122.06L334.083 121.085V122.869H332.317L332.358 121.085L330.781 122.06L329.898 120.574L331.483 119.748L329.898 118.881L330.781 117.387L332.432 118.386L332.391 116.578H334.083V118.386L335.734 117.387L336.634 118.881L335.008 119.674Z" fill="#2666FA"/>
<path d="M17.1514 151.473C26.893 156.517 34.356 165.202 39.7221 174.761C45.0883 184.321 48.5556 194.813 51.9817 205.232L54.9785 258.949C43.6518 239.681 34.5541 216.995 32.1022 194.797L39.6396 194.128C34.5872 193.352 30.3438 189.695 27.6442 185.353C24.9446 181.011 23.5164 176 22.1955 171.071L31.3923 172.417C24.1315 167.524 19.0322 160.024 17.1514 151.473Z" fill="#455A64"/>
<g opacity="0.3">
<path d="M17.1514 151.473C26.893 156.517 34.356 165.202 39.7221 174.761C45.0883 184.321 48.5556 194.813 51.9817 205.232L54.9785 258.949C43.6518 239.681 34.5541 216.995 32.1022 194.797L39.6396 194.128C34.5872 193.352 30.3438 189.695 27.6442 185.353C24.9446 181.011 23.5164 176 22.1955 171.071L31.3923 172.417C24.1315 167.524 19.0322 160.024 17.1514 151.473Z" fill="black"/>
</g>
<path d="M56.6956 271.538C56.6956 271.538 81.289 242.108 81.0083 214.007H71.1016C71.1016 214.007 81.8917 206.907 81.0083 202.937C80.125 198.966 79.869 183.949 79.869 183.949L70.7879 186.22C70.7879 186.22 77.5988 182.81 78.4491 177.419C79.2994 172.029 76.4677 147.048 76.4677 147.048C76.4677 147.048 65.397 158.688 61.9874 170.609C58.5779 182.529 49.6041 196.431 52.2706 232.763C54.9372 269.094 56.6956 271.538 56.6956 271.538Z" fill="#2666FA"/>
<path d="M44.1884 274.32C44.1884 274.32 17.5476 256.571 11.6284 233.919L19.6115 231.739C19.6115 231.739 9.39112 228.396 9.20124 225.019C9.01136 221.643 5.95679 209.483 5.95679 209.483L13.7583 209.318C13.7583 209.318 7.53361 208.071 5.66785 203.919C3.80209 199.767 0.623688 179.071 0.623688 179.071C0.623688 179.071 12.0659 186.005 17.4155 194.846C22.7652 203.688 32.9938 212.909 38.8305 242.686C44.6672 272.463 44.1884 274.32 44.1884 274.32Z" fill="#2666FA"/>
<path d="M69.7064 172.689C69.7019 172.795 69.6881 172.9 69.6651 173.003L69.4918 173.919C69.3267 174.745 69.0955 175.925 68.79 177.428C68.4846 178.93 68.1048 180.812 67.7003 182.984C67.2958 185.155 66.8004 187.615 66.3216 190.347C65.3062 195.812 64.2247 202.334 63.1102 209.599C61.9957 216.863 60.9307 224.854 59.9401 233.275C58.9494 241.695 58.2229 249.736 57.6202 257.058C57.0176 264.381 56.6131 270.985 56.3571 276.532C56.2003 279.306 56.1095 281.816 56.0187 284.02C55.9278 286.224 55.8618 288.148 55.8205 289.675C55.7792 291.202 55.7215 292.407 55.6967 293.249C55.6967 293.646 55.6967 293.951 55.6554 294.182C55.6641 294.287 55.6641 294.391 55.6554 294.496C55.6464 294.392 55.6464 294.287 55.6554 294.182C55.6554 293.951 55.6554 293.646 55.6554 293.249C55.6554 292.424 55.6554 291.21 55.6554 289.675C55.6554 288.139 55.7132 286.216 55.7875 284.012C55.8618 281.808 55.9196 279.29 56.0599 276.516C56.2828 270.96 56.6874 264.356 57.2322 257.025C57.7771 249.694 58.5614 241.654 59.5273 233.225C60.4932 224.797 61.6159 216.797 62.7222 209.533C63.8284 202.268 64.976 195.754 66.0244 190.298C66.5198 187.557 67.0316 185.097 67.4692 182.934C67.9067 180.771 68.2947 178.914 68.6332 177.395C68.9717 175.876 69.2276 174.72 69.4092 173.903L69.6239 172.995C69.6424 172.891 69.67 172.788 69.7064 172.689Z" fill="#263238"/>
<path d="M60.0721 289.559C60.0721 289.559 82.5769 264.026 89.5611 248.597L84.2858 246.343C88.1081 246.97 92.0295 245.327 95.018 242.834C98.0066 240.341 100.161 237.056 102.291 233.82L95.3235 232.68C101.707 230.854 107.143 226.642 110.506 220.917C102.299 222.27 94.886 226.77 88.7686 232.4C83.9176 237.055 79.5094 242.151 75.6009 247.622C73.6339 250.258 71.9228 253.074 70.4907 256.035C66.7096 263.852 60.0556 280.189 60.0721 289.559Z" fill="#455A64"/>
<path d="M11.2899 193.93C11.3462 194.005 11.3959 194.086 11.4385 194.169C11.5293 194.359 11.6614 194.59 11.8182 194.896C12.165 195.556 12.6438 196.497 13.263 197.694C14.5178 200.122 16.2763 203.663 18.3814 208.08C20.4866 212.496 22.9137 217.78 25.4977 223.699C28.0817 229.618 30.7896 236.197 33.4891 243.148C36.1887 250.099 38.5663 256.802 40.6633 262.919C42.7602 269.037 44.5021 274.584 45.9055 279.265C47.309 283.946 48.3822 287.751 49.1087 290.393L49.9343 293.431L50.1407 294.256C50.1679 294.345 50.1845 294.436 50.1902 294.529C50.1451 294.447 50.1144 294.357 50.0994 294.265C50.0333 294.075 49.9508 293.811 49.8517 293.489C49.6453 292.771 49.3481 291.755 48.9684 290.467C48.2089 287.842 47.0778 284.053 45.6661 279.389C44.2544 274.724 42.4217 269.193 40.333 263.076C38.2444 256.959 35.8172 250.297 33.1342 243.338C30.4511 236.379 27.7268 229.824 25.184 223.888C22.6413 217.953 20.2307 212.661 18.1503 208.203C16.0699 203.746 14.3775 200.221 13.1969 197.769L11.8265 194.937C11.6779 194.623 11.5623 194.384 11.4798 194.194C11.4068 194.114 11.3431 194.025 11.2899 193.93Z" fill="#263238"/>
<path d="M58.1568 300.506C58.1404 300.347 58.1404 300.186 58.1568 300.027C58.1568 299.664 58.2394 299.201 58.2889 298.657C58.3385 298.112 58.4375 297.336 58.5696 296.502C58.7017 295.668 58.8256 294.702 59.0319 293.654C59.3952 291.549 59.9483 289.064 60.6831 286.331C61.4178 283.599 62.3342 280.644 63.49 277.589C64.6457 274.535 65.9171 271.695 67.1637 269.16C68.4103 266.626 69.6404 264.405 70.7796 262.556C71.3162 261.632 71.8529 260.831 72.3152 260.08C72.7775 259.328 73.1407 258.767 73.5287 258.28C73.9168 257.793 74.1149 257.454 74.3543 257.166C74.4402 257.027 74.5428 256.899 74.6598 256.786C74.5964 256.936 74.519 257.08 74.4286 257.215L73.6939 258.371C73.3636 258.874 72.9756 259.485 72.5381 260.212C72.1005 260.938 71.5804 261.747 71.0603 262.688C69.9871 264.521 68.7818 266.758 67.5434 269.293C66.3051 271.827 65.0668 274.658 63.9192 277.696C62.7717 280.734 61.8471 283.69 61.0876 286.397C60.3281 289.105 59.7749 291.582 59.3704 293.67C59.1475 294.711 58.9989 295.66 58.8503 296.494C58.7017 297.327 58.5861 298.046 58.4953 298.64C58.4045 299.234 58.3385 299.639 58.2807 299.994C58.2602 300.169 58.2187 300.341 58.1568 300.506Z" fill="#263238"/>
<path d="M77.7143 294.496H28.4615V304.543H77.7143V294.496Z" fill="#2666FA"/>
<path d="M73.0251 304.543L67.7003 338.34H37.9389L32.9691 304.543H73.0251Z" fill="#2666FA"/>
<path d="M31.4831 304.543C31.4831 304.427 40.8036 304.328 52.2954 304.328C63.7872 304.328 73.1077 304.427 73.1077 304.543C73.1077 304.658 63.7872 304.757 52.2954 304.757C40.8036 304.757 31.4831 304.666 31.4831 304.543Z" fill="#263238"/>
<path d="M277.268 300.704C277.268 300.704 336.469 269.862 349.307 286.876C362.144 303.89 336.42 317.256 331.45 320.261C326.48 323.265 276.195 340.346 276.195 340.346L262.928 326.188L277.268 300.704Z" fill="#263238"/>
<path d="M300.615 317.206L324.218 329.911L345.79 334.583C346.157 334.665 346.504 334.82 346.809 335.041C347.114 335.261 347.371 335.541 347.563 335.865C347.756 336.188 347.88 336.547 347.929 336.92C347.977 337.293 347.949 337.672 347.845 338.034C347.726 338.455 347.507 338.841 347.207 339.158C346.906 339.476 346.533 339.716 346.12 339.859C340.762 341.724 321.039 348.485 319.364 347.462C317.423 346.273 293.573 335.706 293.573 335.706L300.615 317.206Z" fill="#2666FA"/>
<g opacity="0.6">
<path d="M347.845 338.034L317.754 346.603L318.761 347.123C319.637 347.571 320.644 347.691 321.601 347.462C324.152 346.859 331.169 344.985 346.079 339.9C346.507 339.754 346.892 339.504 347.201 339.173C347.509 338.841 347.73 338.439 347.845 338.001V338.034Z" fill="#0F172A"/>
</g>
<g opacity="0.6">
<path d="M312.544 337.811C312.909 337.626 313.33 337.582 313.725 337.689C314.12 337.795 314.461 338.045 314.683 338.389C314.88 338.748 314.933 339.168 314.83 339.564C314.727 339.96 314.476 340.302 314.129 340.519C313.741 340.711 313.296 340.754 312.878 340.638C312.461 340.522 312.101 340.256 311.867 339.892C311.699 339.497 311.691 339.052 311.845 338.651C311.999 338.25 312.303 337.925 312.693 337.745" fill="#0F172A"/>
</g>
<path d="M334.628 338.175C334.76 338.075 333.803 336.895 333.803 335.137C333.803 333.378 334.81 332.222 334.678 332.115C334.546 332.008 334.29 332.272 333.926 332.792C333.469 333.486 333.223 334.297 333.216 335.128C333.197 335.959 333.421 336.776 333.86 337.481C334.24 338.009 334.579 338.224 334.628 338.175Z" fill="#263238"/>
<path d="M338.69 338.1C338.855 338.042 338.467 336.878 338.739 335.467C339.012 334.055 339.763 333.098 339.631 332.99C339.499 332.883 338.45 333.75 338.162 335.368C337.873 336.986 338.566 338.199 338.69 338.1Z" fill="#263238"/>
<path d="M328.915 339.256C329.08 339.198 328.478 337.415 328.717 335.178C328.957 332.941 329.856 331.298 329.7 331.215C329.543 331.133 328.354 332.718 328.131 335.12C327.908 337.522 328.791 339.339 328.915 339.256Z" fill="#263238"/>
<path d="M321.419 335.987C321.593 335.987 321.708 334.402 322.525 332.685C323.343 330.968 324.441 329.787 324.325 329.655C324.21 329.523 322.839 330.547 321.989 332.437C321.138 334.328 321.262 336.012 321.419 335.987Z" fill="#263238"/>
<path d="M314.394 332.437C314.567 332.437 314.451 330.695 315.459 328.929C316.466 327.162 317.935 326.312 317.861 326.163C317.787 326.014 317.399 326.213 316.804 326.601C316.028 327.121 315.388 327.82 314.939 328.64C314.484 329.457 314.229 330.371 314.196 331.306C314.187 332.016 314.319 332.445 314.394 332.437Z" fill="#263238"/>
<path d="M314.096 328.293C314.096 328.293 313.824 328.045 313.213 327.798C312.344 327.455 311.415 327.29 310.481 327.311C309.795 327.265 309.114 327.445 308.54 327.822C308.367 327.968 308.241 328.162 308.179 328.38C308.118 328.598 308.123 328.829 308.194 329.044C308.367 329.453 308.684 329.785 309.085 329.977C309.915 330.33 310.842 330.383 311.707 330.127C312.572 329.871 313.32 329.322 313.824 328.574C314.309 327.824 314.559 326.947 314.543 326.054C314.527 325.162 314.245 324.294 313.733 323.563C313.605 323.378 313.438 323.223 313.245 323.109C313.051 322.995 312.834 322.924 312.61 322.902C312.383 322.905 312.162 322.979 311.978 323.113C311.794 323.248 311.658 323.437 311.587 323.654C311.412 324.305 311.412 324.991 311.587 325.643C311.771 326.556 312.118 327.428 312.61 328.219C312.965 328.772 313.221 329.044 313.254 329.044C312.668 327.965 312.245 326.805 312 325.602C311.855 325.033 311.855 324.437 312 323.868C312.034 323.748 312.107 323.643 312.206 323.568C312.306 323.494 312.428 323.454 312.553 323.455C312.699 323.48 312.839 323.536 312.963 323.618C313.087 323.701 313.192 323.808 313.271 323.934C313.689 324.581 313.911 325.335 313.911 326.105C313.911 326.876 313.689 327.629 313.271 328.276C312.843 328.906 312.214 329.372 311.487 329.599C310.759 329.825 309.977 329.798 309.267 329.523C308.984 329.399 308.754 329.18 308.615 328.904C308.571 328.786 308.564 328.658 308.597 328.536C308.63 328.415 308.699 328.307 308.796 328.227C309.285 327.902 309.862 327.738 310.448 327.756C311.686 327.716 312.922 327.898 314.096 328.293Z" fill="#263238"/>
<path d="M309.077 320.228C309.077 320.228 253.294 286.43 245.757 282.253C239.276 278.646 218.802 270.696 211.587 290.302C204.372 309.908 243.222 338.876 243.222 338.876L276.195 340.354L287.2 336.152L299.699 339.999L309.077 320.228Z" fill="#263238"/>
<path d="M269.855 341.031L244.849 350.731L227.281 364.08C226.981 364.308 226.637 364.472 226.271 364.562C225.905 364.652 225.524 364.666 225.152 364.602C224.781 364.539 224.426 364.4 224.11 364.193C223.795 363.987 223.525 363.718 223.318 363.403C223.082 363.04 222.934 362.627 222.888 362.196C222.842 361.766 222.899 361.33 223.054 360.926C225.118 355.651 232.812 336.268 234.678 335.665C236.841 334.963 260.377 323.72 260.377 323.72L269.855 341.031Z" fill="#2666FA"/>
<g opacity="0.6">
<path d="M223.318 363.361L236.354 334.905L235.305 335.335C234.396 335.707 233.649 336.392 233.2 337.266C232.003 339.603 228.833 346.133 223.021 360.786C222.855 361.206 222.796 361.661 222.848 362.111C222.9 362.56 223.061 362.989 223.318 363.361Z" fill="#0F172A"/>
</g>
<g opacity="0.6">
<path d="M246.442 336.697C246.346 337.095 246.105 337.443 245.766 337.673C245.427 337.904 245.015 338 244.609 337.943C244.209 337.861 243.856 337.629 243.623 337.294C243.389 336.959 243.293 336.547 243.354 336.144C243.46 335.723 243.718 335.357 244.077 335.114C244.437 334.872 244.873 334.771 245.303 334.831C245.713 334.959 246.057 335.242 246.262 335.62C246.467 335.997 246.517 336.44 246.401 336.854" fill="#0F172A"/>
</g>
<path d="M231.805 353.207C231.805 353.381 233.324 353.397 234.628 354.586C235.933 355.775 236.189 357.244 236.354 357.211C236.519 357.178 236.486 356.815 236.354 356.204C236.122 355.407 235.668 354.693 235.046 354.145C234.423 353.596 233.656 353.237 232.837 353.108C232.185 353.042 231.805 353.158 231.805 353.207Z" fill="#263238"/>
<path d="M229.237 356.361C229.18 356.526 230.311 356.988 231.202 358.119C232.094 359.25 232.35 360.431 232.515 360.406C232.68 360.381 232.705 359.019 231.689 357.748C230.674 356.477 229.237 356.204 229.237 356.361Z" fill="#263238"/>
<path d="M234.703 348.188C234.636 348.353 236.354 349.055 237.93 350.665C239.507 352.275 240.135 354.049 240.3 353.967C240.465 353.884 240.036 351.969 238.352 350.235C236.667 348.502 234.719 348.04 234.703 348.188Z" fill="#263238"/>
<path d="M242.058 344.614C241.934 344.737 243.074 345.868 243.874 347.627C244.675 349.385 244.832 350.97 245.006 350.929C245.179 350.888 245.286 349.22 244.411 347.346C243.536 345.472 242.141 344.482 242.058 344.614Z" fill="#263238"/>
<path d="M249.323 341.592C249.216 341.724 250.611 342.756 251.305 344.68C251.998 346.603 251.659 348.271 251.833 348.304C252.006 348.337 252.097 347.924 252.196 347.214C252.304 346.286 252.185 345.345 251.849 344.473C251.528 343.595 251.001 342.805 250.314 342.17C249.777 341.7 249.364 341.526 249.323 341.592Z" fill="#263238"/>
<path d="M252.667 344.061C253.006 344.017 253.331 343.895 253.616 343.706C254.442 343.269 255.172 342.671 255.763 341.947C256.245 341.458 256.55 340.822 256.629 340.139C256.637 339.912 256.574 339.688 256.448 339.498C256.322 339.309 256.14 339.163 255.928 339.083C255.506 338.949 255.051 338.975 254.648 339.157C253.839 339.558 253.195 340.228 252.826 341.052C252.457 341.875 252.386 342.802 252.625 343.673C252.883 344.527 253.388 345.287 254.077 345.854C254.767 346.421 255.609 346.771 256.497 346.859C256.721 346.88 256.947 346.853 257.159 346.779C257.372 346.705 257.565 346.586 257.727 346.43C257.872 346.255 257.959 346.039 257.975 345.813C257.991 345.586 257.936 345.361 257.818 345.167C257.436 344.611 256.912 344.169 256.299 343.887C255.483 343.437 254.595 343.132 253.674 342.987C253.339 342.917 252.993 342.917 252.658 342.987C253.859 343.245 255.016 343.676 256.093 344.267C256.613 344.54 257.059 344.937 257.389 345.423C257.458 345.526 257.49 345.65 257.481 345.774C257.472 345.898 257.422 346.015 257.339 346.108C257.226 346.203 257.094 346.273 256.952 346.315C256.81 346.356 256.66 346.367 256.514 346.347C255.753 346.243 255.038 345.923 254.453 345.426C253.868 344.928 253.437 344.274 253.212 343.54C253.012 342.806 253.066 342.025 253.366 341.325C253.666 340.626 254.193 340.048 254.863 339.685C255.139 339.548 255.456 339.516 255.754 339.594C255.873 339.636 255.975 339.715 256.047 339.819C256.118 339.923 256.154 340.046 256.151 340.172C256.081 340.747 255.836 341.286 255.449 341.716C254.667 342.655 253.725 343.449 252.667 344.061Z" fill="#263238"/>
<path d="M258.957 347.272C259.659 346.909 287.902 335.409 287.902 335.409L259.833 321.507L242.942 330.266L258.957 347.272Z" fill="#263238"/>
<path d="M224.078 313.285L224.466 313.4L225.58 313.772L229.848 315.25L245.534 320.756L297.255 339.008L299.732 339.776L299.476 339.892L308.895 320.186L308.978 320.442L276.443 300.547L267.081 294.768L264.604 293.216L263.969 292.803C263.828 292.713 263.754 292.663 263.762 292.655L263.985 292.779L264.646 293.158L267.163 294.653L276.591 300.324L309.201 320.087L309.358 320.186L309.283 320.351L299.889 340.082L299.806 340.247L299.633 340.189L297.156 339.421C295.86 339.05 294.622 338.596 293.375 338.142L289.66 336.821L282.37 334.22L268.658 329.325L245.435 321.07L229.79 315.431L225.547 313.879L224.449 313.466C224.322 313.414 224.197 313.353 224.078 313.285Z" fill="#455A64"/>
<path d="M258.957 347.272C258.588 346.961 258.237 346.627 257.909 346.273L255.168 343.441C252.865 341.039 249.703 337.663 246.227 333.989L242.735 330.249L242.545 330.043L242.793 329.919L251.362 325.792L253.839 324.619C254.134 324.47 254.441 324.343 254.755 324.24C254.498 324.436 254.222 324.605 253.93 324.743L251.527 325.965L243.024 330.258L243.082 329.927L246.591 333.659C250.066 337.366 253.195 340.742 255.441 343.202L258.082 346.124C258.409 346.479 258.701 346.863 258.957 347.272Z" fill="#455A64"/>
<path d="M315.921 292.523C315.97 292.63 309.019 295.652 300.4 299.259C291.782 302.867 284.764 305.715 284.715 305.607C284.665 305.5 291.617 302.479 300.235 298.863C308.854 295.247 315.921 292.407 315.921 292.523Z" fill="#455A64"/>
<path d="M272.992 207.46C272.406 207.46 252.039 207.271 247.928 211.382C243.817 215.493 235.28 278.456 235.28 278.456C239.672 279.281 242.529 280.932 245.187 282.237L279.803 302.421L294.787 294.636C295.274 294.367 295.695 293.993 296.02 293.542C296.345 293.09 296.566 292.573 296.667 292.025C296.768 291.478 296.747 290.916 296.604 290.378C296.462 289.84 296.202 289.341 295.843 288.915L315.781 216.855C312.829 214.615 309.556 212.834 306.072 211.572C300.235 209.425 272.992 207.46 272.992 207.46Z" fill="#455A64"/>
<path d="M309.077 214.147C309.077 214.147 315.203 215.501 317.547 219.282C323.046 228.14 339.936 259.601 342.776 267.163C345.781 275.145 342.553 279.686 340.382 283.054C338.046 286.678 325.208 286.67 319.388 280.454C316.912 277.779 302.993 265.173 302.993 265.173L309.077 214.147Z" fill="#455A64"/>
<path d="M316.045 225.828C315.984 226.041 315.907 226.248 315.814 226.448L315.062 228.198C314.443 229.725 313.576 231.946 312.586 234.719C310.588 240.275 308.144 248.043 305.552 256.662C302.96 265.28 300.706 273.082 299.03 278.778C298.204 281.609 297.495 283.896 296.991 285.465L296.397 287.272C296.339 287.486 296.262 287.693 296.165 287.892C296.198 287.673 296.248 287.458 296.314 287.248C296.446 286.791 296.619 286.18 296.834 285.415C297.296 283.764 297.94 281.502 298.741 278.695C300.343 273.016 302.555 265.173 305.139 256.538C307.723 247.903 310.225 240.151 312.297 234.62C313.329 231.847 314.245 229.667 314.914 228.132L315.739 226.415C315.821 226.209 315.924 226.013 316.045 225.828Z" fill="#263238"/>
<path d="M248.902 210.663C248.902 210.663 242.471 214.321 240.118 216.442C237.765 218.564 213.461 253.244 210.349 264.05C208.541 270.308 215.434 283.252 222.864 282.625C232.581 281.799 269.037 267.823 269.037 267.823L260.856 250.016L240.217 253.319L255.201 238.261L249.612 210.259" fill="#455A64"/>
<path d="M335.371 263.448C335.242 263.387 335.12 263.312 335.008 263.225L334.001 262.531L330.343 259.923C327.272 257.694 323.046 254.582 318.389 251.123L315.277 248.803L315.566 248.762C312.602 252.633 309.96 256.01 308.037 258.396C307.075 259.721 306 260.961 304.825 262.102L307.822 258.222L315.252 248.506L315.376 248.341L315.541 248.464L318.662 250.776C323.318 254.235 327.512 257.38 330.542 259.683L334.083 262.399L335.041 263.159C335.161 263.242 335.272 263.339 335.371 263.448Z" fill="#263238"/>
<path d="M277.673 243.718L261.327 251.04L267.849 265.214L278.069 258.47L277.673 243.718Z" fill="#B2655F"/>
<path d="M293.119 245.104L304.058 237.675C304.442 237.411 304.906 237.288 305.37 237.328L319.669 238.55C319.949 238.573 320.209 238.702 320.396 238.911C320.583 239.12 320.683 239.392 320.676 239.673C320.692 239.954 320.646 240.236 320.542 240.498C320.438 240.761 320.278 240.997 320.074 241.192L296.851 257.347L279.514 254.598L293.119 245.104Z" fill="#2666FA"/>
<path d="M277.673 243.718C277.673 243.718 283.576 239.342 284.963 239.103C286.349 238.863 292.582 238.888 292.582 238.888L297.833 241.885L294.58 244.089C292.326 243.594 291.683 242.719 291.683 242.719L288.05 242.958L277.673 243.718Z" fill="#B2655F"/>
<path d="M284.31 241.819L293.631 245.063L307.038 246.954C307.062 247.703 306.798 248.432 306.3 248.993C305.803 249.553 305.11 249.902 304.363 249.967C302.712 250.14 299.922 250.33 299.922 250.33C299.922 250.33 299.236 252.807 297.148 253.343C296.669 254.283 295.98 255.1 295.133 255.729C295.005 255.808 294.866 255.869 294.721 255.911C293.433 256.282 290.865 259.774 289.148 260.245C287.431 260.715 278.053 258.503 278.053 258.503L277.656 243.759L284.31 241.819Z" fill="#B2655F"/>
<path d="M287.026 249.43C287.026 249.389 287.769 249.587 288.95 249.827C290.5 250.134 292.07 250.338 293.647 250.437C295.22 250.546 296.797 250.546 298.37 250.437C299.583 250.355 300.326 250.248 300.334 250.289C300.166 250.349 299.992 250.39 299.814 250.413C299.484 250.479 298.989 250.553 298.386 250.619C296.806 250.782 295.215 250.809 293.631 250.702C292.043 250.606 290.465 250.374 288.917 250.008C288.323 249.868 287.844 249.736 287.522 249.628C287.35 249.581 287.184 249.515 287.026 249.43Z" fill="#8E4842"/>
<path d="M288.859 253.252C288.898 253.564 288.867 253.879 288.768 254.177C288.684 254.517 288.51 254.827 288.265 255.077C288.1 255.222 287.907 255.332 287.699 255.401C287.49 255.471 287.27 255.498 287.051 255.481C286.63 255.447 286.221 255.329 285.846 255.135C285.507 254.961 285.227 254.78 284.979 254.648C284.5 254.359 284.153 254.251 284.153 254.21C284.463 254.229 284.763 254.322 285.029 254.482C285.643 254.858 286.324 255.11 287.035 255.225C287.221 255.243 287.408 255.223 287.587 255.168C287.765 255.113 287.931 255.023 288.075 254.903C288.302 254.688 288.469 254.418 288.562 254.119C288.644 253.825 288.743 253.535 288.859 253.252Z" fill="#8E4842"/>
<path d="M295.753 254.144C295.424 254.276 295.08 254.365 294.729 254.408C293.909 254.554 293.083 254.656 292.252 254.714C291.408 254.761 290.562 254.761 289.718 254.714C289.365 254.72 289.012 254.681 288.669 254.598C288.669 254.516 290.271 254.598 292.236 254.425C294.201 254.251 295.736 254.095 295.753 254.144Z" fill="#8E4842"/>
<path d="M288.678 258.041C288.232 258.393 287.703 258.624 287.142 258.713C286.581 258.801 286.007 258.743 285.474 258.544C285.474 258.462 286.217 258.602 287.125 258.462C288.034 258.321 288.678 257.974 288.678 258.041Z" fill="#8E4842"/>
<path d="M292.038 257.875C292.038 257.941 291.6 258.057 291.039 258.14C290.697 258.221 290.34 258.221 289.998 258.14C290.308 257.973 290.654 257.882 291.006 257.875C291.567 257.809 292.029 257.801 292.038 257.875Z" fill="#8E4842"/>
<path d="M293.631 245.063C292.134 244.71 290.672 244.221 289.264 243.602C288.075 243.14 287.01 242.702 286.25 242.355C285.827 242.198 285.424 241.987 285.053 241.728C285.485 241.853 285.907 242.007 286.316 242.19L289.354 243.363L292.384 244.543C293.177 244.816 293.631 244.997 293.631 245.063Z" fill="#8E4842"/>
<path d="M307.327 248.365C307.327 248.365 306.295 248.01 307.409 246.384C308.524 244.758 311.645 246.731 311.645 246.731L315.632 249.1C315.632 249.1 316.524 251.172 315.417 251.725L314.592 252.732C314.592 252.732 316.152 254.309 315.525 255.688C315.33 256.086 315.016 256.414 314.628 256.627C314.239 256.839 313.794 256.927 313.353 256.876C313.353 256.876 313.535 259.667 312.627 260.74C312.206 261.323 311.592 261.738 310.893 261.912C310.602 262.651 310.137 263.309 309.538 263.831C308.939 264.352 308.223 264.722 307.451 264.909C304.776 265.594 303.372 265.644 302.646 264.513C302.156 263.71 301.76 262.854 301.465 261.962C301.465 261.962 295.728 258.949 295.604 257.421C295.48 255.894 295.744 255.77 295.744 255.77C295.617 255.413 295.561 255.035 295.581 254.657C295.601 254.278 295.696 253.908 295.86 253.566C296.438 252.633 298.716 253.451 298.716 253.451L306.039 255.168C306.039 255.168 300.178 252.419 299.484 251.519C298.791 250.619 299.534 249.513 301.886 249.793C304.239 250.074 311.347 251.403 311.347 251.403C311.165 251.028 310.878 250.713 310.522 250.495C310.051 250.297 308.582 249.447 308.582 249.447L307.327 248.365Z" fill="#B2655F"/>
<path d="M309.077 259.485C309.077 259.551 306.089 258.792 302.473 257.793C298.857 256.794 295.868 255.919 295.909 255.853C295.951 255.787 298.898 256.546 302.514 257.545C306.13 258.544 309.094 259.419 309.077 259.485Z" fill="#8E4842"/>
<path d="M305.585 263.472C304.851 263.385 304.133 263.202 303.447 262.928C302.95 262.766 302.463 262.579 301.986 262.366C301.836 262.302 301.692 262.225 301.556 262.135C301.52 262.109 301.486 262.078 301.457 262.044C301.457 262.044 301.457 261.97 301.457 261.987C301.457 262.003 302.365 262.3 303.513 262.68C304.228 262.876 304.922 263.141 305.585 263.472Z" fill="#8E4842"/>
<path d="M311.859 256.266C311.859 256.332 310.415 256.043 308.648 255.754C306.881 255.465 305.436 255.275 305.445 255.201C306.534 255.185 307.622 255.287 308.689 255.506C309.771 255.64 310.834 255.894 311.859 256.266Z" fill="#8E4842"/>
<path d="M313.651 252.493C313.601 252.559 313.023 252.146 312.214 251.857C311.405 251.568 310.703 251.494 310.703 251.42C311.245 251.322 311.804 251.391 312.305 251.618C312.831 251.769 313.299 252.074 313.651 252.493Z" fill="#8E4842"/>
<path d="M320.049 239.879H319.785L319.017 239.788C318.356 239.697 317.366 239.573 316.218 239.441C313.849 239.169 310.563 238.88 306.922 238.797C306.063 238.681 305.189 238.783 304.38 239.095C304.02 239.303 303.673 239.531 303.339 239.78L302.349 240.482L298.923 242.9L296.603 244.51L295.959 244.939C295.819 245.038 295.736 245.08 295.728 245.071C295.793 245.01 295.862 244.952 295.934 244.898L296.545 244.436L298.824 242.785L302.217 240.308L303.199 239.598C303.541 239.343 303.897 239.106 304.264 238.888C304.671 238.68 305.12 238.567 305.577 238.558C306.031 238.558 306.477 238.558 306.931 238.558C310.042 238.635 313.148 238.875 316.235 239.276C317.423 239.433 318.381 239.59 319.033 239.706L319.793 239.846C319.879 239.843 319.966 239.855 320.049 239.879Z" fill="#263238"/>
<path d="M311.091 241.15C311.013 241.046 310.908 240.967 310.787 240.92C310.666 240.873 310.534 240.861 310.406 240.886H310.291C310.073 240.924 309.876 241.035 309.729 241.2C309.643 241.306 309.596 241.438 309.596 241.575C309.596 241.712 309.643 241.845 309.729 241.951C309.839 242.058 309.982 242.125 310.134 242.141C310.278 242.169 310.427 242.165 310.569 242.129C310.712 242.093 310.845 242.027 310.959 241.934C311.059 241.833 311.125 241.703 311.149 241.563C311.173 241.423 311.153 241.279 311.091 241.15Z" fill="#0F172A"/>
<path d="M276.525 188.614C275.929 184.608 275.678 180.56 275.774 176.511C275.881 172.451 276.993 168.48 279.01 164.954C279.332 164.426 281.858 160.991 282.445 161.165C282.866 161.289 281.074 164.607 281.223 165.02C282.593 168.974 282.321 173.358 281.223 177.403C280.089 181.311 278.522 185.079 276.55 188.638" fill="#263238"/>
<path d="M294.514 214.981C295.092 212.182 295.554 209.978 295.579 209.978C295.604 209.978 305.395 210.886 307.888 201.467C309.094 196.918 310.802 187.351 312.255 178.674C313.017 174.17 312.053 169.545 309.556 165.72C307.059 161.895 303.212 159.151 298.782 158.036L297.866 157.805C287.893 155.914 280.711 163.319 279.093 173.341L272.315 208.212L287.852 224.541L294.514 214.981Z" fill="#B2655F"/>
<path d="M295.579 209.978C291.219 208.87 287.268 206.535 284.195 203.25C284.195 203.25 285.466 210.878 295.1 212.397L295.579 209.978Z" fill="#8E4842"/>
<path d="M307.434 186.17C307.35 186.524 307.129 186.831 306.82 187.024C306.511 187.218 306.139 187.281 305.783 187.202C305.608 187.172 305.441 187.108 305.291 187.012C305.141 186.917 305.012 186.792 304.911 186.646C304.81 186.5 304.74 186.335 304.704 186.161C304.668 185.987 304.667 185.808 304.702 185.633C304.788 185.28 305.009 184.975 305.317 184.782C305.626 184.589 305.997 184.524 306.353 184.602C306.528 184.63 306.696 184.694 306.847 184.789C306.997 184.884 307.127 185.009 307.228 185.155C307.329 185.302 307.399 185.467 307.434 185.642C307.47 185.816 307.47 185.996 307.434 186.17Z" fill="#263238"/>
<path d="M309.25 182.084C309.044 182.216 308.21 181.209 306.774 180.845C305.337 180.482 304.074 180.944 303.959 180.722C303.909 180.622 304.157 180.35 304.702 180.127C305.443 179.855 306.249 179.815 307.013 180.012C307.769 180.198 308.445 180.62 308.945 181.217C309.316 181.671 309.358 182.026 309.25 182.084Z" fill="#263238"/>
<path d="M294.267 183.636C294.182 183.99 293.962 184.298 293.653 184.492C293.345 184.687 292.972 184.753 292.615 184.676C292.44 184.646 292.273 184.582 292.123 184.486C291.973 184.391 291.844 184.266 291.744 184.12C291.643 183.974 291.572 183.809 291.536 183.635C291.5 183.461 291.499 183.282 291.534 183.107C291.618 182.753 291.839 182.446 292.148 182.253C292.457 182.06 292.829 181.996 293.185 182.075C293.36 182.104 293.527 182.168 293.677 182.262C293.826 182.357 293.956 182.481 294.057 182.626C294.157 182.772 294.228 182.936 294.264 183.11C294.3 183.283 294.301 183.462 294.267 183.636Z" fill="#263238"/>
<path d="M294.886 179.095C294.671 179.227 293.837 178.22 292.409 177.857C290.981 177.494 289.709 177.956 289.594 177.733C289.536 177.642 289.784 177.362 290.337 177.147C291.073 176.868 291.878 176.825 292.64 177.023C293.398 177.205 294.076 177.628 294.572 178.228C294.919 178.682 294.985 179.021 294.886 179.095Z" fill="#263238"/>
<path d="M297.288 191.561C298.117 191.512 298.949 191.567 299.765 191.726C300.145 191.784 300.516 191.8 300.64 191.561C300.76 191.182 300.76 190.775 300.64 190.397C300.516 189.414 300.392 188.382 300.252 187.301C299.74 182.901 299.476 179.318 299.649 179.302C299.823 179.285 300.384 182.835 300.896 187.235C301.02 188.316 301.127 189.348 301.234 190.339C301.355 190.845 301.293 191.377 301.061 191.841C300.973 191.957 300.861 192.052 300.733 192.119C300.604 192.186 300.463 192.224 300.318 192.229C300.098 192.238 299.878 192.213 299.666 192.155C298.851 192.057 298.053 191.857 297.288 191.561Z" fill="#263238"/>
<path d="M292.805 191.495C293.045 191.536 292.648 193.146 293.722 194.574C294.795 196.002 296.512 196.275 296.463 196.497C296.413 196.72 296.017 196.712 295.298 196.555C294.373 196.331 293.556 195.791 292.987 195.028C292.441 194.297 292.201 193.382 292.318 192.477C292.384 191.8 292.657 191.453 292.805 191.495Z" fill="#263238"/>
<path d="M296.289 173.184C296.042 173.548 294.638 172.995 292.888 172.772C291.138 172.549 289.635 172.664 289.503 172.252C289.445 172.062 289.776 171.748 290.428 171.509C291.286 171.223 292.198 171.138 293.095 171.261C293.991 171.384 294.847 171.712 295.596 172.219C296.157 172.623 296.397 173.011 296.289 173.184Z" fill="#263238"/>
<path d="M309.87 177.106C309.531 177.37 308.615 176.784 307.393 176.462C306.171 176.14 305.114 176.123 304.966 175.719C304.908 175.529 305.147 175.24 305.676 175.034C306.369 174.813 307.111 174.802 307.81 175.001C308.509 175.201 309.134 175.603 309.605 176.156C309.969 176.602 310.018 176.974 309.87 177.106Z" fill="#263238"/>
<path d="M278.11 180.573C277.962 180.466 272.1 177.023 270.68 183.528C269.26 190.034 276.096 190.133 276.146 189.934C276.195 189.736 278.11 180.573 278.11 180.573Z" fill="#B2655F"/>
<path d="M274.693 187.037C274.693 187.037 274.56 187.095 274.354 187.136C274.068 187.188 273.773 187.129 273.529 186.971C272.893 186.566 272.554 185.32 272.777 184.172C272.879 183.611 273.107 183.08 273.446 182.62C273.55 182.43 273.699 182.268 273.881 182.148C274.062 182.029 274.27 181.956 274.486 181.935C274.624 181.928 274.76 181.969 274.87 182.052C274.981 182.135 275.058 182.255 275.089 182.389C275.138 182.587 275.089 182.711 275.089 182.728C275.089 182.744 275.254 182.653 275.262 182.373C275.261 182.204 275.203 182.041 275.097 181.91C275.023 181.823 274.933 181.75 274.83 181.698C274.728 181.646 274.617 181.614 274.503 181.605C274.224 181.602 273.95 181.669 273.704 181.8C273.459 181.932 273.251 182.123 273.099 182.356C272.689 182.856 272.406 183.448 272.274 184.081C272.034 185.402 272.439 186.781 273.322 187.26C273.486 187.346 273.668 187.396 273.853 187.404C274.039 187.413 274.224 187.38 274.395 187.309C274.643 187.194 274.709 187.053 274.693 187.037Z" fill="#8E4842"/>
<path d="M310.291 166.985C311.471 166.622 309.011 162.543 306.666 160.826C303.117 158.234 297.354 155.873 293.524 156.162C288.917 156.484 284.847 157.896 281.842 161.404C278.896 164.999 276.958 169.313 276.228 173.903C275.886 175.278 275.917 176.72 276.319 178.08C276.93 179.731 278.49 180.986 277.97 182.959C277.87 183.313 277.842 183.685 277.888 184.05C277.933 184.416 278.051 184.769 278.234 185.089C279.159 186.608 280.868 185.716 281.792 184.659C283.757 182.406 284.55 179.392 285.285 176.487C285.925 174.456 286.223 172.333 286.168 170.204C286.077 169.049 285.78 167.909 285.747 166.754C285.699 166.175 285.777 165.593 285.975 165.047C286.173 164.502 286.487 164.005 286.894 163.592C287.095 163.435 287.308 163.295 287.53 163.171C288.605 162.565 289.822 162.258 291.055 162.28C292.289 162.301 293.494 162.652 294.547 163.295C297.949 165.358 303.818 168.603 305.717 167.703C308.45 166.399 309.259 165.35 309.259 165.35L310.291 166.985Z" fill="#263238"/>
<path d="M240.886 278.035C241.053 277.938 241.23 277.861 241.414 277.804L242.958 277.201L248.787 275.022L268.963 267.592L268.848 267.873C267.197 264.232 265.347 260.269 263.448 256.167L260.666 250.099L260.889 250.214L240.68 253.318C237.001 254.353 233.486 255.898 230.236 257.908C229.08 258.618 228.214 259.229 227.619 259.642L226.959 260.121C226.888 260.184 226.807 260.234 226.719 260.269L226.926 260.08L227.561 259.568C228.131 259.122 228.99 258.486 230.137 257.752C233.372 255.669 236.892 254.07 240.589 253.005L260.79 249.851H260.947L261.021 249.992C261.921 251.965 262.862 253.995 263.812 256.059C265.694 260.187 267.518 264.125 269.186 267.773L269.285 267.972L269.071 268.054L248.836 275.319L242.975 277.391L241.406 277.927L240.886 278.035Z" fill="#263238"/>
<path d="M252.98 240.936C252.494 241.662 251.941 242.342 251.329 242.966C250.256 244.18 248.754 245.831 247.045 247.622C245.336 249.414 243.742 250.99 242.545 252.072C242.074 252.512 241.572 252.918 241.043 253.285C240.836 253.401 240.696 253.517 240.514 253.484C240.494 253.461 240.483 253.431 240.483 253.401C240.483 253.371 240.494 253.341 240.514 253.318C240.514 253.318 240.514 253.277 240.514 253.277C240.514 253.277 240.514 253.385 240.564 253.401C240.711 253.346 240.846 253.262 240.96 253.153C241.299 252.873 241.786 252.419 242.347 251.857C243.495 250.718 245.047 249.108 246.747 247.325L251.123 242.76C251.691 242.102 252.313 241.492 252.98 240.936Z" fill="#263238"/>
<path d="M256.91 232.779C256.819 232.779 257.083 231.483 257.083 229.395C257.081 228.177 256.976 226.962 256.77 225.762C256.27 222.812 255.186 219.992 253.583 217.466C252.925 216.437 252.185 215.462 251.371 214.552C249.967 213.008 248.894 212.232 248.976 212.166C249.249 212.305 249.504 212.477 249.736 212.678C250.026 212.888 250.302 213.117 250.561 213.363C250.922 213.672 251.267 214 251.593 214.345C252.454 215.241 253.23 216.214 253.913 217.251C254.739 218.527 255.436 219.882 255.994 221.296C256.525 222.722 256.918 224.195 257.166 225.696C257.354 226.922 257.429 228.163 257.389 229.403C257.378 229.878 257.342 230.352 257.282 230.823C257.255 231.181 257.203 231.537 257.125 231.888C257.089 232.193 257.017 232.492 256.91 232.779Z" fill="#263238"/>
<path d="M277.945 294.339C277.945 294.265 278.985 294.339 280.653 294.339C285.008 294.238 289.258 292.985 292.97 290.707C294.39 289.881 295.199 289.188 295.249 289.245C295.299 289.303 295.084 289.452 294.729 289.766C294.222 290.196 293.69 290.596 293.136 290.963C291.298 292.182 289.289 293.123 287.175 293.753C285.058 294.375 282.859 294.675 280.653 294.644C279.988 294.64 279.323 294.593 278.664 294.504C278.418 294.483 278.176 294.427 277.945 294.339Z" fill="#263238"/>
<path d="M290.23 276.111C290.075 276.367 289.889 276.603 289.676 276.813C289.305 277.251 288.744 277.861 288.025 278.613C286.614 280.107 284.591 282.113 282.246 284.201C279.902 286.29 277.698 288.09 276.055 289.328C275.229 289.947 274.56 290.442 274.082 290.764C273.851 290.955 273.595 291.113 273.322 291.235C273.517 291.008 273.739 290.806 273.983 290.632L275.865 289.089C277.45 287.793 279.629 285.976 281.966 283.888C284.302 281.799 286.341 279.834 287.811 278.398L289.544 276.697C289.965 276.301 290.205 276.087 290.23 276.111Z" fill="#263238"/>
</svg>
